<svg width="1768" height="1711" viewBox="0 0 1768 1711" fill="none" xmlns="http://www.w3.org/2000/svg">
<path d="M163.025 1665.86C158.007 1661.56 146.839 1647.94 155.479 1632.13C158.61 1626.32 165.326 1623.45 171.4 1620.81C177.648 1618.7 183.538 1615.64 188.869 1611.76C198.338 1603.68 200.942 1590.33 207.242 1579.57C214.449 1567.24 227.918 1557.99 242.141 1558.63C258.44 1559.39 272.022 1572.67 278.21 1587.87C284.397 1603.08 284.586 1619.87 284.699 1636.28C284.699 1645.33 284.359 1655.56 277.719 1661.67C271.079 1667.78 262.326 1667.37 254.026 1667.14L164.986 1664.39" fill="#F5F5F5"/>
<path d="M333.256 1420.96H98.8862L141.067 1672.5C141.939 1677.74 144.281 1682.63 147.82 1686.6C151.36 1690.57 155.952 1693.45 161.063 1694.91L161.893 1695.14C162.574 1695.35 163.267 1695.53 163.968 1695.66C165.534 1695.99 167.124 1696.18 168.722 1696.23V1696.46L169.854 1696.27H274.475C276.4 1696.27 278.321 1696.08 280.209 1695.7C286.299 1694.76 291.911 1691.84 296.189 1687.41C300.468 1682.97 303.177 1677.26 303.903 1671.14L324.238 1497.82L325.144 1490.91L333.218 1422.25L333.256 1420.96ZM289.076 1581.42H264.892L267.457 1508.57H295.301L289.076 1581.42ZM297.64 1508.57H320.654L312.09 1581.57H291.301L297.64 1508.57ZM228.974 1662.5L227.503 1599.12H262.1L260.025 1662.54L228.974 1662.5ZM191.547 1599.12H225.163L226.635 1662.54H196.452L191.547 1599.12ZM194.151 1662.54H165.967C163.289 1645.41 159.78 1623.15 156.007 1599.12H189.208L194.151 1662.54ZM190.378 1581.61L184.53 1508.57H223.088L224.786 1581.57L190.378 1581.61ZM227.276 1581.61L225.428 1508.57H265.118L262.703 1581.57L227.276 1581.61ZM225.201 1491.06L223.39 1423.3H267.948L265.722 1490.91L225.201 1491.06ZM222.862 1491.06H183.134L177.89 1423.3H221.127L222.862 1491.06ZM181.021 1491.06H138.992C137.52 1481.71 136.087 1472.88 134.841 1464.92C130.465 1437.6 128.843 1427.19 127.937 1423.42H175.551L181.021 1491.06ZM182.379 1508.57L188.039 1581.57H153.253C152.083 1574.03 150.914 1566.67 149.744 1559.16C147.028 1541.92 144.311 1524.72 141.746 1508.57H182.379ZM151.102 1581.57H128.465L116.053 1508.57H139.407C142.991 1530.98 146.915 1556.11 150.914 1581.42L151.102 1581.57ZM153.857 1599.08C157.29 1621.04 160.685 1642.66 163.779 1662.5H141.897L131.257 1599.12L153.857 1599.08ZM262.515 1662.5L264.439 1599.12H287.529L282.096 1662.54L262.515 1662.5ZM268.212 1491.06L270.475 1423.45H302.62L296.848 1491.06H268.212ZM125.711 1423.3C126.617 1428.17 130.918 1454.81 136.615 1490.91H113.11L101.791 1423.3H125.711ZM302.62 1662.35H284.51L289.906 1599.12H310.166L302.62 1662.35ZM322.729 1490.91H299.111L304.884 1423.3H330.615L322.729 1490.91Z" fill="#E0E0E0"/>
<path d="M518.163 70.699H140.501V618.102H518.163V70.699Z" fill="#E0E0E0"/>
<path d="M499.261 70.699H121.599V618.102H499.261V70.699Z" fill="#F5F5F5"/>
<path d="M452.327 129.97H168.495V558.792H452.327V129.97Z" fill="white"/>
<path d="M452.327 558.792C452.327 558.792 452.327 558.075 452.327 556.68C452.327 555.284 452.327 553.246 452.327 550.605C452.327 545.21 452.327 537.325 452.327 527.1C452.327 506.538 452.327 476.582 452.063 438.778C452.063 363.321 451.799 256.059 451.61 129.97L452.553 130.914H168.759L169.816 129.895C169.816 291.675 169.816 440.815 169.59 558.717L168.759 557.887L375.361 558.34L432.444 558.528H447.535C450.893 558.528 452.704 558.528 452.704 558.528C452.704 558.528 451.044 558.528 447.686 558.528H432.859L375.964 558.717L168.873 559.17H168.08V558.34C168.08 440.438 168.08 291.297 167.854 129.518V128.499H168.91H452.704H453.647V129.442C453.459 255.795 453.308 363.095 453.195 438.816C453.195 476.544 452.968 506.425 452.93 526.95C452.93 537.098 452.93 544.908 452.93 550.266C452.93 552.869 452.93 554.869 452.93 556.227C452.93 557.585 452.327 558.792 452.327 558.792Z" fill="#E0E0E0"/>
<path d="M500.317 70.699C498.328 74.1299 496.07 77.3974 493.564 80.4707C489.187 86.3186 482.962 94.317 475.869 103.108C468.776 111.898 462.098 119.369 457.194 124.802C454.681 127.858 451.904 130.686 448.893 133.253C451.023 129.921 453.433 126.778 456.099 123.858C461.155 117.709 467.418 110.125 474.285 101.787L492.432 79.7161C494.795 76.4882 497.433 73.4712 500.317 70.699Z" fill="#E0E0E0"/>
<path d="M453.76 557.396C467.872 579.835 484.477 600.605 503.26 619.309Z" fill="white"/>
<path d="M503.26 619.309C500.123 617.006 497.239 614.375 494.658 611.461C487.994 604.79 481.697 597.762 475.794 590.409C469.915 583.08 464.424 575.449 459.344 567.545C457.069 564.375 455.134 560.973 453.572 557.396C456.12 560.344 458.452 563.471 460.552 566.753C464.702 572.601 470.55 580.562 477.378 589.126C484.207 597.69 490.734 605.123 495.526 610.48C498.31 613.236 500.894 616.187 503.26 619.309Z" fill="#E0E0E0"/>
<path d="M121.523 617.649L170.985 556.604Z" fill="white"/>
<path d="M170.985 556.604C163.581 567.417 155.596 577.82 147.066 587.768C139.08 598.168 130.554 608.142 121.523 617.649C121.108 617.309 131.823 603.35 145.481 586.485C153.474 576.102 161.986 566.128 170.985 556.604Z" fill="#E0E0E0"/>
<path d="M121.523 70.699C130.03 79.8198 138.04 89.3915 145.519 99.3726C153.53 108.954 161.012 118.967 167.929 129.367C159.487 120.239 151.552 110.654 144.161 100.655C136.073 91.0912 128.516 81.0907 121.523 70.699Z" fill="#E0E0E0"/>
<path d="M363.891 217.048H268.853V486.882H363.891V217.048Z" fill="#E0E0E0"/>
<path d="M1664.13 34.0269H1307.63V405.652H1664.13V34.0269Z" fill="#E0E0E0"/>
<path d="M1639.98 34.0269H1283.49V405.652H1639.98V34.0269Z" fill="#FAFAFA"/>
<path d="M1640.09 405.766H1283.56V33.9137H1640.09V405.766ZM1283.56 405.539H1639.83V34.1401H1283.56V405.539Z" fill="#E0E0E0"/>
<path d="M1592.07 83.9794H1331.4V355.7H1592.07V83.9794Z" fill="white"/>
<path d="M1331.4 357.511C1329.56 360.264 1327.41 362.796 1324.99 365.057C1320.8 369.433 1314.95 375.394 1308.42 381.846C1301.9 388.297 1295.82 394.07 1291.37 398.144C1289.11 400.523 1286.58 402.625 1283.82 404.407C1285.68 401.661 1287.83 399.131 1290.24 396.862C1294.39 392.485 1300.27 386.524 1306.84 380.035C1313.4 373.545 1319.48 367.773 1323.89 363.698C1326.14 361.34 1328.66 359.263 1331.4 357.511Z" fill="#E0E0E0"/>
<path d="M1592.07 356.832C1594.83 358.661 1597.36 360.814 1599.61 363.246C1604.03 367.433 1609.95 373.281 1616.4 379.846C1622.85 386.411 1628.63 392.41 1632.74 396.862C1635.12 399.121 1637.22 401.653 1639 404.407C1636.25 402.566 1633.72 400.414 1631.45 397.994C1627.08 393.843 1621.12 387.958 1614.63 381.393C1608.14 374.828 1602.4 368.754 1598.29 364.34C1595.93 362.085 1593.85 359.566 1592.07 356.832Z" fill="#E0E0E0"/>
<path d="M1591.35 84.6962C1593.2 81.9408 1595.37 79.4087 1597.8 77.1505C1601.95 72.7363 1607.8 66.8129 1614.36 60.3613C1620.93 53.9098 1626.93 48.1373 1631.38 44.0626C1633.63 41.6675 1636.17 39.552 1638.93 37.762C1637.1 40.5262 1634.95 43.0597 1632.51 45.3077C1628.36 49.6842 1622.48 55.6453 1615.91 62.1346C1609.35 68.6239 1603.31 74.3586 1598.86 78.471C1596.61 80.8386 1594.09 82.9286 1591.35 84.6962Z" fill="#E0E0E0"/>
<path d="M1330.68 85.3753C1327.93 83.5227 1325.4 81.3578 1323.14 78.9237C1318.76 74.7736 1312.8 68.9257 1306.35 62.3609C1299.9 55.7962 1294.12 49.7596 1290.05 45.3454C1287.65 43.0919 1285.54 40.5584 1283.75 37.7997C1286.51 39.6262 1289.05 41.7797 1291.29 44.2135C1295.67 48.3637 1301.63 54.2116 1308.12 60.8141C1314.61 67.4165 1320.35 73.4154 1324.46 77.8673C1326.84 80.0992 1328.93 82.6216 1330.68 85.3753Z" fill="#E0E0E0"/>
<path d="M1591.35 355.7C1591.35 355.7 1591.35 355.209 1591.35 354.379C1591.35 353.549 1591.35 352.191 1591.35 350.607C1591.35 347.211 1591.35 342.306 1591.35 335.93C1591.35 323.065 1591.35 304.351 1591.09 280.582C1591.09 232.969 1590.78 165.171 1590.56 84.0171L1591.58 84.9981H1331.66L1332.83 83.8662C1332.83 183.583 1332.83 276.885 1332.65 355.511L1331.66 354.493L1519.89 355.021L1572.71 355.285H1586.71H1590.48C1590.9 355.254 1591.31 355.254 1591.73 355.285H1590.59H1587.09H1573.28L1520.65 355.549L1331.78 356.039H1330.8V355.059C1330.8 276.357 1330.8 183.054 1330.8 83.4135V82.8098H1331.97H1591.88H1592.9V83.8285C1592.67 165.247 1592.48 233.271 1592.37 281.035C1592.37 304.691 1592.37 323.367 1592.1 336.157C1592.1 342.445 1592.1 347.274 1592.1 350.644C1592.1 352.229 1592.1 353.436 1592.1 354.417C1591.9 354.869 1591.64 355.298 1591.35 355.7Z" fill="#E0E0E0"/>
<path d="M1505.22 176.339H1418.25V263.303H1505.22V176.339Z" fill="#EBEBEB"/>
<path d="M1096.31 1577.16V1690.76H1262.43H1445.68V1577.16H1096.31Z" fill="#F5F5F5"/>
<path d="M1081.64 1545.39V1577.16H1457.87V1545.39H1262.43H1081.64Z" fill="#E0E0E0"/>
<path d="M1269.75 1690.76H1445.68V1577.16H1457.87V1545.39H1262.43V1574.22L1269.75 1690.76Z" fill="#E0E0E0"/>
<path d="M1216.03 1595.46H1145.17V1612.55H1216.03V1595.46Z" fill="#E0E0E0"/>
<path d="M1227.01 1633.94H1136.04V1670.05H1227.01V1633.94Z" fill="white"/>
<path d="M1150.04 1431.94V1545.54H1316.2H1499.41V1431.94H1150.04Z" fill="#F5F5F5"/>
<path d="M1137.06 1400.18V1431.94H1513.33V1400.18H1317.86H1137.06Z" fill="#EBEBEB"/>
<path d="M1323.52 1545.54H1501.1V1431.94H1511.63V1400.18H1316.2V1429L1323.52 1545.54Z" fill="#EBEBEB"/>
<path d="M1269.75 1450.24H1198.9V1467.33H1269.75V1450.24Z" fill="#E0E0E0"/>
<path d="M1280.77 1488.72H1189.81V1524.83H1280.77V1488.72Z" fill="white"/>
<path d="M1767.28 1694.49C1767.28 1695.02 1371.62 1695.48 883.676 1695.48C395.734 1695.48 0 1695.02 0 1694.49C0 1693.97 395.583 1693.44 883.639 1693.44C1371.69 1693.44 1767.28 1693.93 1767.28 1694.49Z" fill="#263238"/>
<path d="M875.112 747.925V751.698H860.021V748.717L868.698 738.455H860.247V734.682H874.923V737.663L866.246 747.925H875.112Z" fill="#263238"/>
<path d="M847.457 731.362V740.266H811.955V733.287L832.253 709.291H812.483V700.387H846.853V707.367L826.48 731.362H847.457Z" fill="#263238"/>
<path d="M796.599 710.951V728.872H724.915V714.837L765.85 666.432H725.971V648.36H795.241V662.395L754.343 710.8L796.599 710.951Z" fill="#263238"/>
<path d="M777.999 494.201H723.255V564.64H621.765V494.201H427.124V426.29L592.224 196.486H700.052L550.157 411.538H624.859V349.06H723.18V411.651H777.999V494.201Z" fill="#6299EB"/>
<path d="M798.938 380.488C798.938 259.04 867.302 189.091 961.435 189.091C1055.57 189.091 1123.4 259.153 1123.4 380.488C1123.4 501.822 1055.04 571.884 961.435 571.884C867.831 571.884 798.938 502.086 798.938 380.488ZM1018.74 380.488C1018.74 303.182 994.561 274.282 961.435 274.282C928.309 274.282 903.597 303.182 903.597 380.488C903.597 457.793 927.781 486.731 961.435 486.731C995.089 486.731 1018.74 457.906 1018.74 380.488Z" fill="#6299EB"/>
<path d="M1506.16 494.201H1451.45V564.64H1349.96V494.201H1155.28V426.29L1320.42 196.486H1428.21L1278.35 411.538H1353.02V349.06H1451.34V411.651H1506.16V494.201Z" fill="#6299EB"/>
<g opacity="0.3">
<path d="M777.999 494.201H723.255V564.64H621.765V494.201H427.124V426.29L592.224 196.486H700.052L550.157 411.538H624.859V349.06H723.18V411.651H777.999V494.201Z" fill="black"/>
<path d="M798.938 380.488C798.938 259.04 867.302 189.091 961.435 189.091C1055.57 189.091 1123.4 259.153 1123.4 380.488C1123.4 501.822 1055.04 571.884 961.435 571.884C867.831 571.884 798.938 502.086 798.938 380.488ZM1018.74 380.488C1018.74 303.182 994.561 274.282 961.435 274.282C928.309 274.282 903.597 303.182 903.597 380.488C903.597 457.793 927.781 486.731 961.435 486.731C995.089 486.731 1018.74 457.906 1018.74 380.488Z" fill="black"/>
<path d="M1506.16 494.201H1451.45V564.64H1349.96V494.201H1155.28V426.29L1320.42 196.486H1428.21L1278.35 411.538H1353.02V349.06H1451.34V411.651H1506.16V494.201Z" fill="black"/>
</g>
<path d="M747.477 494.201H692.77V564.64H591.281V494.201H396.715V426.29L561.853 196.486H669.643L519.785 411.538H594.45V349.06H692.77V411.651H747.477V494.201Z" fill="#6299EB"/>
<path d="M768.454 380.488C768.454 259.04 836.818 189.091 930.95 189.091C1025.08 189.091 1092.92 259.153 1092.92 380.488C1092.92 501.822 1024.55 571.884 930.95 571.884C837.346 571.884 768.454 502.086 768.454 380.488ZM988.26 380.488C988.26 303.182 964.076 274.282 930.95 274.282C897.825 274.282 873.113 303.182 873.113 380.488C873.113 457.793 897.297 486.731 930.95 486.731C964.604 486.731 988.26 457.906 988.26 380.488Z" fill="#6299EB"/>
<path d="M1475.71 494.201H1421.01V564.64H1319.52V494.201H1125.1V426.29L1290.24 196.486H1397.88L1248.02 411.538H1322.69V349.06H1421.01V411.651H1475.71V494.201Z" fill="#6299EB"/>
<path d="M811.162 105.749C811.162 83.9794 828.253 68.0203 851.419 68.0203C874.584 68.0203 891.713 83.9417 891.713 105.749C891.713 127.556 874.622 143.477 851.419 143.477C828.216 143.477 811.162 127.48 811.162 105.749ZM871 105.749C871.116 103.108 870.696 100.47 869.765 97.9956C868.834 95.5211 867.412 93.2608 865.584 91.3507C863.756 89.4407 861.56 87.9207 859.129 86.8822C856.698 85.8437 854.081 85.3083 851.438 85.3083C848.794 85.3083 846.177 85.8437 843.746 86.8822C841.315 87.9207 839.119 89.4407 837.291 91.3507C835.463 93.2608 834.041 95.5211 833.11 97.9956C832.179 100.47 831.759 103.108 831.875 105.749C831.759 108.39 832.179 111.027 833.11 113.502C834.041 115.976 835.463 118.237 837.291 120.147C839.119 122.057 841.315 123.577 843.746 124.615C846.177 125.654 848.794 126.189 851.438 126.189C854.081 126.189 856.698 125.654 859.129 124.615C861.56 123.577 863.756 122.057 865.584 120.147C867.412 118.237 868.834 115.976 869.765 113.502C870.696 111.027 871.116 108.39 871 105.749Z" fill="#263238"/>
<path d="M898.013 113.823C898.013 96.9203 911.369 84.9226 929.705 84.9226C948.041 84.9226 961.36 96.9203 961.36 113.823C961.36 130.725 948.23 142.874 929.705 142.874C911.181 142.874 898.013 130.763 898.013 113.823ZM941.477 113.823C941.477 105.334 936.421 100.542 929.705 100.542C922.99 100.542 917.896 105.334 917.896 113.823C917.896 122.312 923.065 127.254 929.705 127.254C936.346 127.254 941.477 122.387 941.477 113.823Z" fill="#263238"/>
<path d="M1033.31 113.898C1033.31 131.706 1021.01 142.874 1005.77 142.874C1002.9 143.016 1000.03 142.567 997.344 141.554C994.657 140.542 992.207 138.988 990.146 136.988V162.04H970.414V85.8658H989.279V91.4496C991.362 89.1747 993.936 87.4044 996.806 86.2734C999.676 85.1425 1002.77 84.6805 1005.84 84.9226C1021.01 84.9226 1033.31 96.0902 1033.31 113.898ZM1013.42 113.898C1013.42 105.409 1008.26 100.542 1001.65 100.542C995.051 100.542 989.844 105.409 989.844 113.898C989.844 122.387 995.013 127.254 1001.65 127.254C1008.29 127.254 1013.42 122.387 1013.42 113.898Z" fill="#263238"/>
<path d="M1037.99 137.101L1043.87 123.632C1049.84 127.03 1056.59 128.812 1063.45 128.801C1070.06 128.801 1072.24 127.367 1072.24 125.028C1072.24 117.482 1039.12 126.047 1039.12 103.598C1039.12 93.0342 1048.85 84.9603 1066.43 84.9603C1074.08 84.8036 1081.67 86.4312 1088.58 89.7141L1082.69 103.07C1077.76 100.326 1072.2 98.8971 1066.55 98.9198C1059.91 98.9198 1057.53 100.806 1057.53 102.693C1057.53 110.427 1090.54 102.051 1090.54 124.311C1090.54 134.649 1081.03 142.723 1062.81 142.723C1054.2 142.949 1045.66 141.017 1037.99 137.101Z" fill="#263238"/>
<path d="M1096.58 132.008C1096.87 129.09 1098.23 126.383 1100.4 124.414C1102.57 122.444 1105.4 121.354 1108.33 121.354C1111.26 121.354 1114.09 122.444 1116.26 124.414C1118.43 126.383 1119.8 129.09 1120.08 132.008C1119.91 135.01 1118.6 137.833 1116.42 139.897C1114.23 141.962 1111.34 143.113 1108.33 143.113C1105.32 143.113 1102.43 141.962 1100.25 139.897C1098.06 137.833 1096.75 135.01 1096.58 132.008ZM1096.58 69.4917H1119.97L1116.01 115.558H1100.39L1096.58 69.4917Z" fill="#263238"/>
<path d="M462.966 1347.66H416.409V1571.27H462.966V1347.66Z" fill="#E0E0E0"/>
<path d="M273.154 1318.87C273.909 1318.87 416.523 1363.58 416.523 1363.58H463.042L626.368 1318.87H273.154Z" fill="#E0E0E0"/>
<path d="M143.029 568.866C122.391 573.506 103.942 592.559 107.036 630.59C107.036 630.59 90.5861 633.683 91.6048 663.527C92.6234 693.37 89.5674 878.579 126.579 979.314C157.026 1062.13 209.582 1239.26 227.465 1299.74C229.232 1305.72 232.888 1310.98 237.887 1314.71C242.885 1318.44 248.957 1320.46 255.195 1320.45H657.834C664.926 1320.43 671.94 1318.98 678.459 1316.18C684.977 1313.39 690.866 1309.31 695.774 1304.19C700.683 1299.07 704.51 1293.01 707.027 1286.38C709.544 1279.75 710.701 1272.68 710.427 1265.6C709.813 1251.95 703.931 1239.06 694.018 1229.66C684.106 1220.25 670.933 1215.05 657.268 1215.15L363.665 1218.21C363.665 1218.21 345.668 1121.25 327.144 1120.12C327.144 1120.12 335.368 1059.41 304.507 1041.94C304.507 1041.94 310.656 967.015 277.757 960.261C277.757 960.261 282.888 897.556 255.12 886.426C255.12 886.426 270.551 830.022 241.764 801.236C241.764 801.236 249.989 735.399 241.764 686.013C233.539 636.626 230.521 549.36 143.029 568.866Z" fill="#455A64"/>
<path d="M678.471 1271.71C678.471 1271.71 677.792 1271.71 676.434 1271.71H670.473L647.345 1271.9L561.136 1272.16L266.137 1272.5H265.458L265.231 1271.86L223.73 1151.51C199.621 1080.99 176.796 1013.76 156.686 952.413C151.669 937.058 146.839 922.231 142.312 907.441C139.967 900.262 138.027 892.956 136.502 885.559C135.724 881.946 135.145 878.293 134.766 874.617C134.351 870.845 133.71 867.374 133.483 863.789C130.88 835.153 130.276 808.366 129.711 783.956C129.069 735.135 129.711 695.596 130.39 668.318C130.767 654.698 131.069 644.134 131.257 636.89L131.597 628.703C131.597 626.854 131.786 625.949 131.786 625.949C131.786 625.949 131.786 626.892 131.786 628.703C131.786 630.514 131.786 633.344 131.786 636.89C131.786 644.134 131.484 654.736 131.257 668.318C130.88 695.633 130.39 735.135 131.257 783.956C131.786 808.328 132.465 835.078 135.03 863.638C135.294 867.411 135.898 870.769 136.313 874.391C136.702 878.031 137.294 881.646 138.086 885.219C139.689 892.624 141.717 899.93 144.161 907.102C148.688 921.702 153.555 936.643 158.611 951.999C178.795 1013.31 201.696 1080.5 225.767 1151.02C240.104 1192.52 253.988 1233.19 267.269 1271.41L266.363 1270.77L561.362 1271.11L647.572 1271.37H670.699H676.66C677.792 1271.63 678.471 1271.71 678.471 1271.71Z" fill="#263238"/>
<path d="M319.862 1218.66C318.718 1219.88 317.454 1220.98 316.089 1221.95C313.561 1223.95 309.977 1226.96 305.676 1230.74C294.45 1240.63 284.005 1251.38 274.437 1262.88C264.877 1274.39 256.176 1286.58 248.404 1299.36C245.424 1304.27 243.085 1308.31 241.538 1311.14C240.803 1312.64 239.918 1314.07 238.897 1315.4C239.391 1313.8 240.048 1312.26 240.859 1310.8C242.217 1307.85 244.367 1303.7 247.197 1298.69C254.67 1285.59 263.281 1273.18 272.928 1261.6C282.539 1250 293.199 1239.32 304.771 1229.68C309.223 1225.91 312.958 1223.15 315.599 1221.34C316.92 1220.3 318.349 1219.4 319.862 1218.66Z" fill="#263238"/>
<path d="M363.665 1218.06C363.665 1218.06 362.684 1218.06 360.76 1218.06L352.309 1218.29L319.862 1218.81H319.447V1218.4L318.768 1214.4C318.361 1213.11 317.869 1211.85 317.297 1210.63C315.965 1207.98 313.648 1205.96 310.845 1205.01C304.275 1203.59 297.411 1204.68 291.603 1208.06L290.245 1208.7L290.736 1207.31C295.289 1194 295.944 1179.66 292.622 1165.99C288.881 1149.87 279.882 1135.44 267.042 1124.98L266.552 1124.61L266.778 1124.04C270.83 1112.53 271.379 1100.07 268.357 1088.25C265.336 1076.42 258.878 1065.76 249.8 1057.6L249.31 1057.22L249.536 1056.62C254.44 1040.72 254.159 1023.67 248.733 1007.94C243.307 992.216 233.017 978.621 219.353 969.127L218.901 968.825V968.297C219.204 957.886 218.876 947.467 217.92 937.096C217.021 926.489 215.062 915.998 212.072 905.781C208.978 895.896 204.3 886.011 196.037 880.277L195.434 879.862L195.66 879.183C200.036 864.023 201.76 848.221 200.753 832.475C200.158 825 198.559 817.64 195.999 810.592C193.369 803.811 189.535 797.561 184.681 792.143L184.228 791.615L184.568 791.049C192.842 777.912 197.381 762.769 197.697 747.246C197.758 733.23 193.197 719.585 184.719 708.423V708.197V707.933C185.182 689.302 181.429 670.807 173.74 653.83C170.444 646.956 165.709 640.87 159.856 635.985C154.863 631.964 149.017 629.138 142.765 627.722C137.735 626.641 132.577 626.285 127.447 626.666L121.297 627.345L116.241 628.364C113.223 628.93 110.997 629.76 109.488 630.099C107.979 630.439 107.149 630.665 107.149 630.665C110.093 629.605 113.09 628.698 116.128 627.949L121.184 626.817L127.409 626.025C132.594 625.568 137.819 625.873 142.916 626.93C149.339 628.277 155.36 631.107 160.497 635.193C166.515 640.126 171.394 646.304 174.796 653.302C182.667 670.43 186.538 689.125 186.115 707.971V707.518C194.85 718.917 199.572 732.885 199.546 747.246C199.273 763.104 194.681 778.587 186.266 792.03V790.936C191.266 796.477 195.24 802.865 197.999 809.8C200.661 817.086 202.311 824.703 202.904 832.437C203.984 848.434 202.261 864.496 197.81 879.899L196.98 878.503C205.922 884.729 210.638 894.991 213.807 904.913C216.882 915.243 218.88 925.864 219.768 936.605C220.732 947.064 221.047 957.573 220.712 968.071L220.297 967.203C234.33 976.92 244.9 990.858 250.47 1006.99C256.041 1023.13 256.321 1040.62 251.272 1056.92L251.008 1055.9C260.357 1064.34 266.98 1075.37 270.031 1087.59C273.081 1099.8 272.422 1112.65 268.136 1124.49L267.872 1123.55C280.981 1134.23 290.122 1149.01 293.829 1165.5C297.167 1179.44 296.42 1194.05 291.679 1207.57L290.849 1206.82C294.063 1205.23 297.477 1204.09 300.998 1203.42C304.322 1202.68 307.781 1202.83 311.034 1203.84C312.609 1204.41 314.052 1205.29 315.272 1206.44C316.492 1207.59 317.463 1208.98 318.127 1210.51C318.729 1211.86 319.233 1213.25 319.636 1214.66L320.315 1218.81L319.862 1218.4H352.309H360.76L363.665 1218.06Z" fill="#263238"/>
<g opacity="0.3">
<path d="M309.788 1040.74L175.135 1058.09C177.162 1061.67 179.986 1064.73 183.389 1067.04C186.791 1069.35 190.68 1070.85 194.754 1071.41C202.897 1072.43 211.145 1072.27 219.24 1070.92C254.103 1067.13 289.194 1065.87 324.238 1067.15C320.312 1057.88 315.471 1049.04 309.788 1040.74Z" fill="black"/>
</g>
<path d="M243.236 793.954C233.955 795.168 224.599 795.71 215.241 795.576C205.899 796.076 196.534 795.95 187.209 795.199C196.489 793.985 205.845 793.443 215.203 793.577C224.545 793.076 233.91 793.202 243.236 793.954Z" fill="#263238"/>
<path d="M241.99 1659.48C241.99 1659.48 263.533 1593.76 293.226 1577.84C340.915 1552.3 450.893 1540.11 450.893 1540.11L462.928 1571.2C462.928 1571.2 316.278 1576.97 293.15 1606.55C279.963 1623.5 267.672 1641.13 256.327 1659.37L241.99 1659.48Z" fill="#E0E0E0"/>
<path d="M260.779 1694.38C277.97 1694.38 291.905 1680.45 291.905 1663.26C291.905 1646.07 277.97 1632.13 260.779 1632.13C243.589 1632.13 229.653 1646.07 229.653 1663.26C229.653 1680.45 243.589 1694.38 260.779 1694.38Z" fill="#263238"/>
<path d="M639.46 1658.31C639.46 1658.31 617.917 1592.59 588.225 1576.67C540.536 1551.13 430.595 1538.94 430.595 1538.94L418.522 1570.03C418.522 1570.03 565.173 1575.8 588.3 1605.42C601.493 1622.37 613.784 1640 625.123 1658.24L639.46 1658.31Z" fill="#E0E0E0"/>
<path d="M628.481 1694.38C645.671 1694.38 659.607 1680.45 659.607 1663.26C659.607 1646.07 645.671 1632.13 628.481 1632.13C611.291 1632.13 597.355 1646.07 597.355 1663.26C597.355 1680.45 611.291 1694.38 628.481 1694.38Z" fill="#263238"/>
<path d="M423.615 1556.86L430.444 1641.45L449.686 1645.26V1556.86" fill="#E0E0E0"/>
<path d="M439.65 1694.38C456.84 1694.38 470.776 1680.45 470.776 1663.26C470.776 1646.07 456.84 1632.13 439.65 1632.13C422.46 1632.13 408.524 1646.07 408.524 1663.26C408.524 1680.45 422.46 1694.38 439.65 1694.38Z" fill="#263238"/>
<path d="M208.299 894.5C215.776 891.967 223.448 890.049 231.238 888.766C238.905 886.864 246.716 885.602 254.592 884.993C247.116 887.533 239.444 889.451 231.653 890.727C223.985 892.623 216.174 893.885 208.299 894.5Z" fill="#263238"/>
<path d="M275.003 960.337C272.543 961.498 269.944 962.335 267.269 962.827C262.402 964.072 255.648 965.505 248.102 966.599C240.557 967.694 233.69 968.486 228.71 968.788C226.018 969.148 223.29 969.148 220.598 968.788C220.598 968.222 232.822 967.052 247.801 964.675C262.779 962.298 274.852 959.808 275.003 960.337Z" fill="#263238"/>
<path d="M330.615 1123.4C327.688 1124.21 324.672 1124.67 321.635 1124.76C316.051 1125.32 308.317 1125.81 299.753 1126.08C291.188 1126.34 283.454 1126.08 277.833 1126.08C274.803 1126.15 271.775 1125.86 268.815 1125.21C271.809 1124.73 274.842 1124.56 277.87 1124.68L299.715 1124.19L321.522 1123.44C324.544 1123.12 327.59 1123.11 330.615 1123.4Z" fill="#263238"/>
<path d="M346.272 1182.48C346.272 1183.09 333.746 1185.8 319.145 1192.03C304.544 1198.25 293.754 1205.35 293.414 1204.85C295.408 1202.81 297.697 1201.08 300.205 1199.72C305.996 1196.06 312.078 1192.88 318.391 1190.22C324.688 1187.53 331.2 1185.39 337.858 1183.8C340.593 1182.99 343.422 1182.55 346.272 1182.48Z" fill="#263238"/>
<path d="M597.996 1321.17C597.996 1321.7 523.785 1322 432.255 1321.78C340.726 1321.55 266.476 1321.02 266.476 1320.45C266.476 1319.89 340.688 1319.62 432.255 1319.81C523.822 1320 597.996 1320.61 597.996 1321.17Z" fill="#263238"/>
<path d="M460.627 1365.2C453.289 1366.19 445.877 1366.52 438.48 1366.18C431.071 1366.52 423.646 1366.19 416.296 1365.2C423.648 1364.23 431.071 1363.9 438.48 1364.22C445.877 1363.9 453.287 1364.23 460.627 1365.2Z" fill="#263238"/>
<path d="M462.74 1545.47C455.931 1549.3 448.287 1551.41 440.474 1551.62C432.662 1551.82 424.918 1550.11 417.918 1546.64C425.321 1548.52 432.918 1549.53 440.556 1549.66C448.087 1549.12 455.531 1547.71 462.74 1545.47Z" fill="#263238"/>
<path d="M921.065 846.547C921.065 846.547 903.333 819.345 893.071 810.064C885.148 802.933 846.703 788.785 829.423 782.635C823.883 780.677 818.056 779.657 812.181 779.617C789.544 779.391 729.706 779.617 699.222 785.05C661.229 791.992 913.293 990.217 913.293 990.217L1123.25 990.708L1136.99 938.869L996.824 909.931L919.481 848.585" fill="#E0E0E0"/>
<g opacity="0.3">
<path d="M757.248 792.218C757.248 792.218 771.132 792.898 790.487 795.991C809.842 799.085 831.083 800.066 841.722 809.498C848.853 815.799 892.467 817.044 892.467 817.044L832.102 814.818L757.248 792.218Z" fill="black"/>
</g>
<path d="M737.328 787.238C738.6 787.221 739.869 787.373 741.1 787.691C743.553 788.144 747.137 788.861 751.476 789.955C760.191 792.105 772.113 795.425 785.205 799.349L799.655 803.839H799.429C809.271 804.277 819.05 805.654 828.631 807.951C829.429 809.428 830.037 811 830.441 812.629C829.433 811.293 828.573 809.851 827.876 808.328L828.102 808.555C818.503 806.94 808.814 805.919 799.089 805.499H798.863L784.375 801.122L750.872 791.2L740.685 788.295C739.527 788.083 738.399 787.728 737.328 787.238Z" fill="#263238"/>
<path d="M1285.82 988.746C1286.13 987.161 1281.67 969.09 1281.22 967.279C1280.77 965.468 1266.96 944.641 1266.96 944.641L1259.41 942.34C1259.41 942.34 1224.33 934.002 1217.23 934.492L1212.29 935.021C1212.29 935.021 1203.09 935.7 1199.46 936.341C1195.84 936.983 1173.39 944.868 1173.39 944.868C1167.89 946.033 1162.26 946.452 1156.64 946.113C1148.9 944.858 1141.23 943.196 1133.67 941.133L1124.69 990.557L1141.66 990.029C1146.96 991.908 1152.44 993.261 1158 994.066C1164.11 994.481 1181.43 996.367 1181.43 996.367C1181.43 996.367 1208.18 1007.69 1214.89 991.915C1221.61 976.145 1195.8 974.522 1195.8 974.522L1203.8 968.863L1224.29 966.75L1229.61 968.448L1235.46 977.503C1235.46 977.503 1233.87 997.499 1246.78 996.141L1250.17 995.764L1251.98 975.239L1245.87 954.489L1259.38 974.975C1259.38 974.975 1260.55 992.708 1266.39 995.009C1266.84 995.211 1267.34 995.302 1267.83 995.273C1274.92 995.047 1276.32 993.047 1276.32 993.047L1277.79 989.463C1277.79 989.463 1284.81 994.141 1285.82 988.746Z" fill="#FFBF9D"/>
<path d="M1209.12 935.096C1211.26 934.785 1213.43 934.874 1215.54 935.36C1220.72 936.061 1225.79 937.417 1230.63 939.397C1235.56 941.295 1239.94 944.41 1243.34 948.452C1244.85 950.072 1245.82 952.112 1246.13 954.3C1245.79 954.3 1244.85 952.149 1242.36 949.357C1238.84 945.786 1234.59 943.007 1229.91 941.208C1218.82 936.794 1209.01 935.813 1209.12 935.096Z" fill="#FF9A6C"/>
<path d="M1222.33 956.677C1222.86 956.677 1223.23 958.827 1223.5 961.393C1223.76 963.958 1223.84 966.147 1223.31 966.298C1222.78 966.448 1221.84 964.336 1221.54 961.619C1221.23 958.903 1221.76 956.639 1222.33 956.677Z" fill="#FF9A6C"/>
<path d="M1209.12 957.356C1209.54 956.979 1213.27 961.129 1219.23 963.996C1225.19 966.864 1230.55 967.769 1230.55 968.222C1226.3 968.829 1221.97 967.95 1218.29 965.732C1214.35 964.102 1211.1 961.137 1209.12 957.356Z" fill="#FF9A6C"/>
<path d="M1166.34 959.205C1168.23 959.367 1170.05 960.017 1171.62 961.091C1175.64 963.299 1179.09 966.412 1181.69 970.184C1182.5 971.394 1183.23 972.654 1183.88 973.956L1182.86 973.428C1187.77 972.443 1192.86 972.875 1197.54 974.673C1192.74 974.601 1187.94 974.815 1183.17 975.315H1182.49L1182.15 974.711C1181.53 973.501 1180.83 972.329 1180.07 971.202C1176.3 966.369 1171.63 962.298 1166.34 959.205Z" fill="#FF9A6C"/>
<path d="M1260.17 942.151C1262.17 943.753 1263.89 945.678 1265.26 947.848C1268.87 952.869 1271.79 958.351 1273.94 964.147C1276.11 969.944 1277.47 976.013 1277.98 982.181C1278.41 984.678 1278.41 987.231 1277.98 989.727C1276.82 981.247 1274.9 972.888 1272.24 964.751C1268.9 956.874 1264.86 949.312 1260.17 942.151Z" fill="#FF9A6C"/>
<path d="M925.97 1534.15L922.197 1636.24C922.197 1636.24 1024.55 1674.57 1025.69 1693.44L827.461 1693.02L827.046 1533.66L925.97 1534.15Z" fill="#455A64"/>
<path d="M861.002 1627.53C859.097 1628.1 857.471 1629.36 856.44 1631.06C855.409 1632.76 855.044 1634.78 855.418 1636.73C855.91 1638.67 857.131 1640.34 858.826 1641.39C860.521 1642.45 862.557 1642.8 864.51 1642.39C866.533 1641.78 868.255 1640.43 869.342 1638.62C870.43 1636.81 870.805 1634.66 870.396 1632.58C869.655 1630.63 868.191 1629.04 866.308 1628.14C864.425 1627.24 862.268 1627.1 860.285 1627.75" fill="#E0E0E0"/>
<path d="M827.461 1692.99L828.065 1676.91L1017.88 1683.33C1017.88 1683.33 1026.67 1687.1 1025.69 1693.4L827.461 1692.99Z" fill="#263238"/>
<path d="M925.329 1635.22C925.329 1636.2 920.424 1636.62 915.67 1639.71C910.917 1642.81 908.351 1646.88 907.446 1646.5C906.54 1646.13 908.012 1640.54 913.859 1636.88C919.707 1633.22 925.517 1634.36 925.329 1635.22Z" fill="white"/>
<path d="M946.079 1643.86C946.306 1644.81 942.118 1646.43 938.798 1650.54C935.478 1654.65 934.572 1658.95 933.591 1658.92C932.61 1658.88 932.007 1653.37 936.232 1648.39C940.458 1643.41 946.079 1642.96 946.079 1643.86Z" fill="white"/>
<path d="M957.851 1668.76C956.945 1668.99 955.625 1664.16 958.115 1658.84C960.605 1653.52 965.132 1651.3 965.661 1652.28C966.189 1653.26 963.246 1656.05 961.284 1660.28C959.322 1664.5 958.794 1668.69 957.851 1668.76Z" fill="white"/>
<path d="M923.631 1611.87C923.216 1612.74 918.764 1611.42 913.293 1611.87C907.823 1612.32 903.559 1613.94 903.069 1613.11C902.578 1612.28 906.653 1608.85 913.105 1608.51C919.556 1608.17 924.084 1611.12 923.631 1611.87Z" fill="white"/>
<path d="M767.095 1523.66L702.957 1602.89C702.957 1602.89 761.889 1694.95 751.589 1710.79L593.129 1591.57L688.243 1463.79L767.095 1523.66Z" fill="#455A64"/>
<path d="M659.003 1559.2C657.126 1558.53 655.068 1558.57 653.219 1559.31C651.37 1560.06 649.857 1561.45 648.968 1563.24C648.21 1565.07 648.179 1567.11 648.88 1568.97C649.581 1570.82 650.962 1572.33 652.74 1573.2C654.727 1573.91 656.908 1573.87 658.865 1573.08C660.822 1572.28 662.416 1570.79 663.342 1568.9C663.927 1566.89 663.712 1564.74 662.741 1562.89C661.77 1561.03 660.119 1559.63 658.136 1558.97" fill="#E0E0E0"/>
<path d="M593.129 1591.57L603.203 1579.08L751.287 1698C751.287 1698 756.041 1706.38 751.514 1710.76L593.129 1591.57Z" fill="#263238"/>
<path d="M705.975 1604.06C705.372 1604.81 701.222 1602.25 695.562 1601.87C689.903 1601.49 685.413 1603.23 684.923 1602.36C684.433 1601.49 688.96 1597.95 695.827 1598.59C702.693 1599.23 706.692 1603.46 705.975 1604.06Z" fill="white"/>
<path d="M717.407 1623.41C717.03 1624.32 712.691 1623.11 707.598 1624.4C702.504 1625.68 699.147 1628.58 698.392 1627.98C697.637 1627.38 700.467 1622.62 706.805 1621.11C713.144 1619.6 717.973 1622.66 717.407 1623.41Z" fill="white"/>
<path d="M711.899 1650.39C711.069 1650.05 712.88 1645.37 718.086 1642.62C723.293 1639.86 728.122 1640.92 727.971 1641.83C727.82 1642.73 723.859 1643.26 719.671 1645.6C715.483 1647.94 712.729 1650.92 711.899 1650.39Z" fill="white"/>
<path d="M718.614 1584.33C717.784 1584.78 715.03 1581.05 710.427 1578.07C705.824 1575.08 701.372 1573.88 701.486 1572.93C701.599 1571.99 706.918 1571.65 712.314 1575.27C717.709 1578.89 719.444 1584.03 718.614 1584.33Z" fill="white"/>
<path d="M915.746 819.157C934.955 814.038 954.572 810.591 974.376 808.857C994.281 807.157 1014.3 810.424 1032.63 818.364C1035.34 819.609 1053.53 830.098 1052.96 833.041C1052.59 835.153 1035.42 828.249 1033.5 829.268C1014.93 838.134 993.429 839.228 973.131 835.908C953.446 832.502 934.2 826.922 915.746 819.27" fill="#263238"/>
<path d="M813.162 811.611L991.467 823.344C1041.27 825.797 1081.34 856.772 1077.53 906.347L1076.92 910.912C1073.91 933.101 1062.66 953.344 1045.41 967.618C1028.16 981.892 1006.17 989.152 983.808 987.954C940.646 985.577 892.995 982.445 870.17 979.05C822.82 972.183 821.915 923.778 821.915 923.778C821.915 923.778 817.689 923.249 803.73 921.967L758.456 889.332L813.162 811.611Z" fill="#FFBF9D"/>
<path d="M821.915 923.778C824.919 901.891 834.152 881.33 848.514 864.544C848.514 864.544 810.785 874.58 808.71 922.419L821.915 923.778Z" fill="#FF9A6C"/>
<path d="M950.23 945.057C951.21 945.811 948.041 951.433 948.985 958.714C949.928 965.996 954.267 970.863 953.474 971.768C952.682 972.674 951.437 971.58 949.437 969.467C946.854 966.583 945.221 962.974 944.759 959.129C944.257 955.33 944.984 951.469 946.834 948.113C948.268 945.66 949.777 944.717 950.23 945.057Z" fill="#263238"/>
<path d="M955.512 879.937C956.379 880.805 952.493 885.936 952.38 893.293C952.267 900.65 955.889 906.083 954.946 906.838C954.568 907.253 952.984 906.347 951.173 903.97C949.029 900.758 947.923 896.965 948.004 893.104C948.096 889.258 949.418 885.542 951.776 882.503C953.512 880.277 955.323 879.522 955.512 879.937Z" fill="#263238"/>
<path d="M912.727 922.08C913.393 926.08 913.571 930.147 913.256 934.191C913.256 936.077 913.256 937.964 914.538 938.379C916.443 938.806 918.432 938.635 920.235 937.888L935.138 934.304C956.342 929.399 973.659 926.117 973.848 926.985C974.036 927.852 957.021 932.493 935.817 937.398L920.726 940.755C918.29 941.65 915.616 941.65 913.18 940.755C912.559 940.398 912.029 939.902 911.63 939.307C911.231 938.712 910.974 938.032 910.879 937.322C910.746 936.257 910.746 935.18 910.879 934.115C910.977 930.041 911.598 925.996 912.727 922.08Z" fill="#263238"/>
<path d="M994.674 908.988C992.976 907.743 995.881 900.952 997.239 892.35C998.597 883.748 998.22 876.428 1000.26 875.825C1001.2 875.561 1002.71 877.258 1003.8 880.465C1005.06 884.725 1005.33 889.217 1004.59 893.597C1003.86 897.978 1002.13 902.132 999.541 905.743C997.466 908.46 995.504 909.554 994.674 908.988Z" fill="#263238"/>
<path d="M985.506 978.408C984.034 976.673 986.487 970.863 987.43 963.807C988.373 956.752 987.883 950.489 989.807 949.32C990.712 948.792 992.259 949.961 993.58 952.791C995.093 956.664 995.536 960.874 994.862 964.977C994.362 969.112 992.73 973.029 990.146 976.296C988.147 978.559 986.336 979.163 985.506 978.408Z" fill="#263238"/>
<path d="M955.851 822.477C956.304 821.722 969.886 791.2 937.364 787.842C904.842 784.484 908.162 818.025 909.068 818.025C909.973 818.025 955.851 822.477 955.851 822.477Z" fill="#FFBF9D"/>
<path d="M922.424 809.347C922.424 809.347 922.084 808.744 921.745 807.725C921.326 806.32 921.461 804.808 922.122 803.499C923.744 800.179 929.479 797.84 935.364 798.293C938.165 798.495 940.884 799.32 943.325 800.707C944.28 801.142 945.12 801.795 945.775 802.614C946.431 803.434 946.884 804.396 947.098 805.423C947.199 806.098 947.062 806.787 946.711 807.372C946.36 807.957 945.817 808.402 945.174 808.63C944.231 808.97 943.589 808.63 943.514 808.857C943.438 809.083 944.004 809.611 945.363 809.498C946.193 809.387 946.963 809.002 947.551 808.404C948.314 807.573 948.721 806.476 948.683 805.348C948.561 803.989 948.091 802.685 947.318 801.561C946.544 800.438 945.494 799.533 944.268 798.934C941.603 797.239 938.554 796.24 935.402 796.029C928.8 795.539 922.31 798.255 920.499 802.82C920.151 803.667 919.997 804.581 920.049 805.495C920.102 806.41 920.359 807.301 920.801 808.102C921.669 809.196 922.386 809.46 922.424 809.347Z" fill="#FF9A6C"/>
<path d="M1039.72 972.108C1042.14 977.654 1060.7 963.43 1067.83 951.055C1078.54 932.191 1086.69 902.914 1083.41 884.389C1079.3 862.054 1070.21 842.888 1051.45 830.211C1032.28 817.786 1010.14 810.689 987.317 809.649C980.417 808.728 973.397 809.665 966.981 812.365C959.435 816.138 954.002 824.552 944.08 823.231C942.292 822.935 940.463 822.999 938.701 823.42C936.938 823.841 935.278 824.611 933.817 825.684C926.913 831.041 932.195 838.889 937.854 842.812C949.928 851.15 965.094 853.414 979.658 855.414C989.929 857.397 1000.46 857.69 1010.82 856.281C1016.41 855.187 1021.76 853.112 1027.38 852.509C1030.18 851.934 1033.06 851.974 1035.84 852.626C1038.61 853.277 1041.21 854.525 1043.46 856.281C1044.34 857.179 1045.15 858.151 1045.87 859.186C1049.4 864.102 1051.57 869.869 1052.14 875.895C1052.71 881.921 1051.66 887.991 1049.12 893.482C1040.89 911.214 1028.25 941.623 1033.68 950.414C1041.53 963.015 1047.12 966.373 1047.12 966.373L1039.72 972.108Z" fill="#263238"/>
<path d="M956.417 806.593C955.807 802.74 954.124 799.136 951.562 796.193C949 793.251 945.662 791.089 941.929 789.955C941.929 789.691 943.401 789.54 945.702 790.143C948.629 790.955 951.252 792.608 953.248 794.897C955.251 797.158 956.561 799.948 957.021 802.933C957.021 805.197 956.681 806.593 956.417 806.593Z" fill="white"/>
<path d="M896.768 905.177C896.039 903.467 894.704 902.085 893.019 901.298C891.334 900.512 889.418 900.375 887.638 900.914L888.581 900.499C886.922 900.273 885.235 900.627 883.805 901.5C882.376 902.372 881.291 903.711 880.734 905.291C880.251 906.894 880.251 908.605 880.734 910.208C881.217 911.812 882.162 913.238 883.45 914.308C884.888 915.471 886.652 916.158 888.498 916.273C890.343 916.388 892.179 915.925 893.75 914.949C895.277 913.896 896.405 912.359 896.953 910.586C897.5 908.814 897.435 906.909 896.768 905.177Z" fill="#FF9A6C"/>
<path d="M894.957 913.591C896.047 912.304 896.648 910.674 896.655 908.988C896.801 907.228 896.448 905.463 895.636 903.895C894.157 902.366 892.141 901.473 890.015 901.405C887.889 901.077 885.717 901.533 883.903 902.688C883.17 903.147 882.541 903.752 882.054 904.467C881.567 905.181 881.233 905.988 881.073 906.838C880.928 908.501 881.283 910.169 882.092 911.629C882.092 911.629 881.488 911.629 880.847 910.724C880.004 909.553 879.591 908.127 879.677 906.687C879.779 905.6 880.114 904.548 880.661 903.603C881.209 902.659 881.954 901.844 882.847 901.216C885.035 899.665 887.742 899.029 890.392 899.443C891.718 899.497 893.018 899.835 894.202 900.433C895.387 901.032 896.429 901.878 897.259 902.914C898.253 904.814 898.572 906.996 898.164 909.101C898.041 910.507 897.458 911.833 896.504 912.874C895.486 913.629 894.957 913.704 894.957 913.591Z" fill="#263238"/>
<g opacity="0.1">
<path d="M1079.6 875.674C1074.42 858.946 1064.32 844.167 1050.62 833.264C1036.92 822.361 1020.25 815.841 1002.79 814.554L989.656 813.95C987.373 813.643 985.05 813.862 982.865 814.591C981.777 814.982 980.852 815.725 980.236 816.703C979.621 817.681 979.351 818.837 979.469 819.987C980.035 822.552 982.865 823.759 985.393 824.439C1000.48 828.475 1016.33 827.721 1030.93 832.852C1044.9 837.767 1056.5 847.767 1063.43 860.857C1070.35 873.948 1072.08 889.167 1068.28 903.48C1067.53 905.609 1067.2 907.864 1067.3 910.12C1067.37 911.252 1067.81 912.329 1068.57 913.178C1069.32 914.026 1070.33 914.597 1071.45 914.798C1072.5 914.715 1073.51 914.38 1074.39 913.821C1075.28 913.263 1076.02 912.497 1076.54 911.591C1084.05 901.593 1083.3 887.596 1079.6 875.674Z" fill="white"/>
</g>
<path d="M947.551 907.592C947.551 907.818 945.853 907.856 943.476 906.762C940.342 905.281 937.85 902.714 936.463 899.537C935.076 896.36 934.886 892.788 935.93 889.482C936.76 886.992 937.93 885.71 938.119 885.936C938.307 886.162 937.704 887.483 937.289 889.709C936.699 892.718 937.041 895.836 938.267 898.647C939.494 901.457 941.548 903.828 944.155 905.442C946.155 906.838 947.777 907.29 947.551 907.592Z" fill="#FF9A6C"/>
<path d="M938.156 969.58C936.538 966.462 935.994 962.898 936.608 959.44C937.222 955.981 938.96 952.822 941.552 950.452C942.042 950.829 939.439 954.489 938.534 959.808C937.628 965.128 938.722 969.429 938.156 969.58Z" fill="#FF9A6C"/>
<path d="M593.129 1094.73C595.393 1093.9 755.362 1101.71 807.276 1106.27C859.191 1110.84 949.173 1135.32 953.625 1196.44C957.398 1245.49 956.53 1587.31 956.53 1587.31H816.935L813.615 1226.06L596.789 1171.35L593.129 1094.73Z" fill="#263238"/>
<g opacity="0.3">
<path d="M707.786 1117.74C707.786 1117.74 785.507 1131.77 847.57 1149.39C909.634 1167.01 937.025 1204.7 946.079 1227.15C955.134 1249.6 959.435 1283.14 940.382 1314.61C928.347 1334.53 868.019 1404.63 868.019 1404.63C868.019 1404.63 855.569 1203.46 854.965 1200.4C854.362 1197.35 707.786 1117.74 707.786 1117.74Z" fill="black"/>
</g>
<path d="M939.251 1250.02C932.686 1211.23 888.77 1184.1 834.931 1163.92C781.885 1143.96 643.082 1094.65 643.082 1094.65L609.843 1086.46H594.978L590.074 1071.75C590.074 1071.75 495.752 1044.47 359.515 1094.73L354.874 1098.5C354.874 1098.5 350.762 1197.88 369.966 1219.23C369.966 1219.23 586.98 1216.17 598.374 1217.12C609.768 1218.06 768.907 1290.27 768.907 1290.27L632.669 1499.25L745.326 1577.95C745.326 1577.95 813.238 1481.14 854.739 1423.27C914.01 1340.19 947.023 1295.82 939.251 1250.02Z" fill="#263238"/>
<path d="M939.251 1250.02C939.251 1250.02 939.59 1252.35 940.156 1256.92C940.733 1263.68 940.48 1270.48 939.401 1277.18C937.504 1288.03 934.167 1298.57 929.479 1308.53C923.186 1322.06 915.936 1335.12 907.785 1347.62C889.751 1376.03 865.303 1408.93 838.176 1447.71L745.968 1578.4L745.515 1579.05L744.873 1578.59L632.178 1499.97L631.499 1499.48L631.952 1498.76C673.642 1434.81 719.633 1364.14 768.114 1289.74L768.491 1291.14C738.309 1277.46 707.346 1263.62 675.604 1249.64C659.758 1242.73 643.799 1235.79 627.613 1229.04C619.502 1225.76 611.39 1222.29 603.09 1219.42C602.091 1219.05 601.071 1218.75 600.034 1218.51C599.027 1218.17 597.965 1218.01 596.902 1218.06C594.752 1218.06 592.526 1218.06 590.338 1218.06H577.019C505.901 1218.44 436.556 1219.42 370.003 1220.29H369.551L369.249 1219.98C365.923 1215.72 363.463 1210.85 362.005 1205.65C360.405 1200.62 359.144 1195.49 358.232 1190.29C356.423 1180.07 355.164 1169.75 354.459 1159.39C353.139 1138.83 353.025 1118.61 353.667 1098.69V1098.27L354.006 1098.01L358.647 1094.23C397.136 1080.02 437.228 1070.59 478.02 1066.16C497.113 1064.12 516.332 1063.49 535.518 1064.28C553.957 1064.62 572.314 1066.84 590.3 1070.92H590.715V1071.33C592.413 1076.5 593.997 1081.33 595.582 1086.09L594.827 1085.56H609.919L643.195 1093.78L778.112 1142.64L833.573 1162.75C849.108 1168.48 864.235 1175.26 878.847 1183.05C905.257 1197.08 922.839 1213.57 930.648 1227.42C932.407 1230.41 933.969 1233.51 935.327 1236.7C936.245 1239.04 937.038 1241.44 937.704 1243.87C938.609 1247.83 938.987 1249.83 938.987 1249.83C938.987 1249.83 938.458 1247.83 937.515 1243.9C937.062 1241.94 936.006 1239.64 935.025 1236.85C934.534 1235.41 933.667 1234.02 932.95 1232.47C932.18 1230.8 931.285 1229.18 930.271 1227.64C922.386 1213.95 904.804 1197.69 878.432 1183.76C863.813 1176.07 848.687 1169.37 833.158 1163.73L777.999 1143.96L643.007 1095.37L609.768 1087.18H594.676V1086.65L589.357 1071.98L589.923 1072.5C572.245 1068.37 554.194 1066.05 536.046 1065.56C516.946 1064.8 497.815 1065.45 478.812 1067.52C438.171 1071.97 398.231 1081.39 359.892 1095.59H360.156L355.516 1099.37L355.855 1098.69C355.214 1118.49 355.365 1138.75 356.685 1159.05C357.327 1169.34 358.51 1179.6 360.232 1189.76C361.185 1194.87 362.445 1199.9 364.004 1204.85C365.397 1209.81 367.728 1214.44 370.871 1218.51L370.154 1218.17C436.745 1217.31 505.977 1216.29 577.208 1215.91H590.526C592.752 1215.91 594.978 1215.91 597.204 1215.91C598.357 1215.9 599.504 1216.08 600.6 1216.44C601.73 1216.68 602.84 1217.01 603.92 1217.42C612.333 1220.32 620.407 1223.76 628.557 1227.08C644.742 1233.83 660.739 1240.77 676.547 1247.71C708.189 1261.6 739.164 1275.43 769.472 1289.22L770.491 1289.67L769.887 1290.61L633.612 1499.55L633.386 1498.34L745.968 1577.12H744.873L837.346 1446.58C864.548 1407.87 889.109 1374.9 907.219 1346.79C915.343 1334.46 922.592 1321.58 928.913 1308.23C933.625 1298.34 937.012 1287.88 938.987 1277.1C940.095 1270.44 940.425 1263.66 939.967 1256.92C939.439 1252.39 939.251 1250.02 939.251 1250.02Z" fill="#455A64"/>
<path d="M836.516 1264.81C832.956 1265.64 829.354 1266.28 825.726 1266.73C808.442 1269.88 791.952 1276.42 777.207 1285.97C771.547 1289.74 768.227 1292.16 768.001 1291.93C770.47 1289.2 773.3 1286.81 776.414 1284.84C783.664 1279.68 791.52 1275.44 799.806 1272.2C808.084 1268.95 816.723 1266.71 825.537 1265.52C829.155 1264.84 832.841 1264.6 836.516 1264.81Z" fill="#455A64"/>
<path d="M812.03 921.401V933.361L782.866 936.077L781.206 929.965L789.054 911.742L812.03 921.401Z" fill="#6299EB"/>
<path d="M789.242 930.833L751.589 1006.21L759.927 1141.51L741.025 1171.01L721.142 1136.98L724.575 1008.25L783.205 925.287L789.242 930.833Z" fill="#6299EB"/>
<path d="M800.636 805.046C800.636 805.046 747.515 784.899 696.166 781.541C644.818 778.183 581.321 812.63 550.987 826.099C520.653 839.568 404.676 954.375 379.586 992.557C365.212 1014.51 346.046 1064.24 346.046 1064.24C342.801 1081.6 354.912 1098.5 354.912 1098.5L588.413 1100.23H632.216L650.741 1060.66C650.741 1060.66 686.093 1058.13 696.204 1038.77C706.315 1019.42 743.364 990.783 743.364 990.783L785.545 920.986L813.313 926.871L828.706 808.291L800.636 805.046Z" fill="#E0E0E0"/>
<path d="M627.538 858.13C627.343 859.524 626.989 860.891 626.482 862.205C625.614 865.223 624.52 868.845 623.199 873.146C619.723 885.176 616.877 897.379 614.673 909.705C612.529 922.054 611.055 934.51 610.258 947.018C610.032 951.47 609.806 955.281 609.655 958.337C609.666 959.744 609.527 961.148 609.24 962.525C608.932 961.151 608.805 959.743 608.862 958.337C608.862 955.658 608.862 951.734 608.862 947.018C609.212 934.368 610.473 921.759 612.635 909.29C614.825 896.881 617.875 884.64 621.765 872.656C623.275 868.053 624.633 864.393 625.538 861.903C626.056 860.572 626.727 859.306 627.538 858.13Z" fill="#263238"/>
<path d="M729.895 1323.36C729.895 1323.36 745.892 1342 750.834 1348.75C755.286 1354.79 759.701 1376.9 761.398 1398.48C761.518 1399.76 761.317 1401.05 760.813 1402.24C760.31 1403.42 759.519 1404.47 758.512 1405.27C757.506 1406.08 756.315 1406.62 755.047 1406.85C753.779 1407.08 752.474 1406.99 751.249 1406.59C750.181 1406.18 749.239 1405.5 748.517 1404.61C747.795 1403.72 747.319 1402.66 747.137 1401.53C743.704 1385.91 742.798 1379.27 742.798 1379.27C742.345 1371.73 741.553 1372.78 741.327 1377.88C741.1 1382.97 745.1 1411.15 745.1 1411.15C745.1 1411.15 755.89 1449.6 752.985 1453.9C752.365 1454.76 751.561 1455.46 750.631 1455.96C749.701 1456.46 748.669 1456.75 747.614 1456.8C746.558 1456.84 745.506 1456.65 744.535 1456.23C743.564 1455.82 742.699 1455.19 742.006 1454.39C740.535 1452.39 728.386 1420.44 728.386 1420.44L725.179 1402.93C725.179 1402.93 731.442 1458.24 727.933 1462.58C727.413 1463.37 726.713 1464.03 725.891 1464.49C725.068 1464.96 724.146 1465.23 723.2 1465.27C722.255 1465.32 721.312 1465.14 720.449 1464.75C719.587 1464.36 718.829 1463.77 718.237 1463.03C715.785 1460.84 713.295 1436.39 713.295 1436.39L707.598 1403.76L708.616 1465.97C708.616 1465.97 707.975 1471.86 703.334 1472.09C698.694 1472.31 695.789 1465.48 695.789 1465.48L689.111 1401.34C689.111 1401.34 691.261 1437 688.846 1438.88C685.64 1441.37 682.734 1440.54 681.678 1437.79C679.528 1432.24 676.396 1400.06 676.396 1400.06L673.453 1339.02L671.303 1318.83L724.726 1299.7L729.895 1323.36Z" fill="#FFBF9D"/>
<g opacity="0.3">
<path d="M614.144 942.114C597.546 993.5 585.848 1046.34 579.208 1099.93C579.861 1119.33 582.082 1138.65 585.848 1157.69C591.998 1188.22 642.063 1320.57 642.063 1320.57L676.358 1323.55L647.458 1088.42L676.358 978.522L614.144 942.114Z" fill="black"/>
</g>
<path d="M767.888 841.869C791.393 849.113 795.807 896.764 790.751 910.346C774.566 953.923 722.84 994.858 723.595 992.481L689.978 1126.19L737.63 1307.29L660.588 1334.87C660.588 1334.87 590.3 1148.94 588.904 1119.81C587.508 1090.69 608.447 1014.78 611.541 969.391C613.541 940.227 628.33 881.069 664.361 846.246" fill="#E0E0E0"/>
<path d="M664.399 845.982C664.399 845.982 663.833 846.661 662.663 847.943C661.493 849.226 659.683 851.075 657.457 853.64C651.112 861.208 645.456 869.327 640.554 877.9C632.89 891.583 626.693 906.038 622.067 921.023C619.089 930.37 616.707 939.897 614.937 949.546C614.031 954.677 613.201 959.959 612.711 965.43C612.22 970.901 611.881 976.748 611.088 982.37C608.372 1005.46 603.316 1030.47 598.223 1057.41C595.733 1070.84 593.092 1084.8 591.205 1099.25C590.129 1106.54 589.788 1113.93 590.187 1121.29L590.979 1126.79L592.262 1132.3C593.054 1136.08 594.11 1139.85 595.167 1143.62C599.279 1158.49 604.184 1173.58 609.315 1188.9C614.446 1204.21 619.879 1219.95 625.501 1235.91C636.819 1267.79 648.817 1300.76 661.494 1334.49L660.248 1333.92L696.053 1321.1L737.29 1306.34L736.686 1307.51C719.746 1243.11 703.712 1182.07 689.111 1126.42V1125.96C701.599 1076.62 712.955 1031.64 722.878 992.293L724.274 992.67C724.306 992.568 724.312 992.461 724.292 992.356C724.271 992.252 724.226 992.154 724.158 992.072C724.091 991.989 724.004 991.925 723.906 991.884C723.807 991.844 723.7 991.829 723.595 991.84H723.821L724.349 991.538L725.406 990.821L727.518 989.237L731.593 985.954C734.234 983.691 736.8 981.427 739.139 979.125C744.119 974.56 748.797 969.882 753.174 965.204C761.456 956.439 769.026 947.027 775.811 937.058C781.819 928.434 786.7 919.077 790.336 909.215C792.204 900.594 792.435 891.699 791.015 882.993C788.903 867.185 783.696 855.414 778.037 849.038C775.164 845.86 771.602 843.382 767.624 841.794C767.624 841.794 768.68 842.171 770.68 843.001C771.93 843.523 773.099 844.222 774.151 845.076C775.708 846.143 777.116 847.411 778.339 848.849C784.187 855.036 789.657 866.883 791.808 882.805C792.416 887.004 792.744 891.239 792.789 895.481C792.923 900.181 792.415 904.878 791.28 909.441C787.681 919.426 782.798 928.9 776.754 937.624C769.976 947.681 762.406 957.181 754.117 966.034C749.703 970.75 745.024 975.466 740.044 980.069C737.554 982.408 734.989 984.709 732.499 986.973C731.178 988.067 729.82 989.199 728.424 990.293L726.273 991.915L725.141 992.67L724.538 993.047H724.161H723.821C723.688 993.063 723.553 993.047 723.428 992.999C723.303 992.952 723.191 992.875 723.102 992.774C723.013 992.674 722.95 992.554 722.917 992.424C722.885 992.294 722.884 992.159 722.915 992.028L724.349 992.406L690.884 1126.15V1125.7L738.611 1306.8L738.837 1307.66L738.007 1307.97L696.77 1322.72L660.928 1335.55L660.022 1335.89L659.683 1334.98C647.006 1301.21 635.008 1268.2 623.727 1236.32C618.143 1220.36 612.673 1204.67 607.58 1189.27C602.486 1173.88 597.619 1158.71 593.469 1143.77C592.413 1140 591.394 1136.23 590.602 1132.45C590.149 1130.57 589.734 1128.68 589.319 1126.87C588.904 1125.06 588.753 1123.1 588.489 1121.14C588.091 1113.67 588.458 1106.19 589.583 1098.8C591.507 1084.24 594.148 1070.32 596.714 1056.85C601.883 1029.91 607.014 1004.97 609.805 981.917C610.598 976.183 610.9 970.599 611.466 965.053C612.031 959.507 612.861 954.187 613.805 949.056C615.619 939.377 618.051 929.825 621.086 920.458C625.786 905.427 632.111 890.954 639.951 877.296C644.906 868.698 650.68 860.6 657.192 853.112C661.795 848.321 664.399 845.982 664.399 845.982Z" fill="#263238"/>
<path d="M789.318 872.806C788.933 869.472 788.933 866.105 789.318 862.771C789.685 854.712 790.465 846.678 791.657 838.7C792.842 830.721 794.454 822.812 796.486 815.006C797.14 811.71 798.191 808.504 799.618 805.461C799.295 808.786 798.702 812.079 797.844 815.308C796.599 821.345 795.015 829.721 793.619 839.002C792.223 848.283 791.317 856.734 790.714 862.884C790.549 866.227 790.081 869.548 789.318 872.806Z" fill="#263238"/>
<g opacity="0.3">
<path d="M797.844 808.253C797.052 807.914 796.222 808.706 795.694 809.423C790.765 815.144 786.825 821.647 784.036 828.664C779.848 841.19 784.3 855.074 788.11 867.902C791.66 880.142 792.939 892.929 791.883 905.63L790.94 910.044C794.996 902.097 796.144 892.981 794.185 884.276C792.203 875.658 790.666 866.944 789.582 858.168C788.714 841.982 795.241 826.438 798.486 810.592C798.674 809.838 798.712 808.593 797.844 808.253Z" fill="black"/>
</g>
<path d="M534.613 1162.75H510.58V1334.72H534.613V1162.75Z" fill="#E0E0E0"/>
<path d="M166.986 1050.39C169.133 1055.48 173.063 1059.6 178.038 1061.99C183.012 1064.38 188.689 1064.87 194 1063.37C250.324 1047.86 309.712 1047.25 366.344 1061.6C445.837 1081.33 474.851 1124.15 485.641 1151.09C488.288 1157.54 492.802 1163.05 498.604 1166.92C504.405 1170.78 511.229 1172.83 518.201 1172.79H521.445C524.798 1172.76 528.104 1171.99 531.124 1170.54C534.144 1169.08 536.802 1166.97 538.907 1164.36C541.011 1161.75 542.51 1158.7 543.294 1155.44C544.078 1152.18 544.129 1148.79 543.441 1145.51C535.216 1108.16 485.528 1043.26 396.715 1019.27C289.83 990.368 215.618 1009.61 181.097 1020.36C178.13 1021.31 175.39 1022.86 173.049 1024.91C170.708 1026.97 168.816 1029.48 167.492 1032.3C166.168 1035.12 165.439 1038.18 165.352 1041.29C165.265 1044.41 165.821 1047.51 166.986 1050.39Z" fill="#455A64"/>
<path d="M166.986 1050.39C166.986 1050.39 166.647 1049.68 166.119 1048.21C165.209 1045.31 164.89 1042.26 165.182 1039.24C165.474 1036.22 166.37 1033.29 167.816 1030.62C170.32 1026.07 174.317 1022.51 179.135 1020.55C209.918 1010.37 241.996 1004.63 274.399 1003.5C296.744 1002.7 319.116 1003.88 341.254 1007.01C347.215 1007.95 353.29 1008.82 359.402 1009.87L378.002 1013.65L396.866 1018.33C403.129 1020.36 409.656 1022.1 415.994 1024.4C422.333 1026.7 428.822 1029.12 435.085 1032.17C438.216 1033.68 441.461 1034.96 444.555 1036.66L453.912 1041.68C466.528 1048.85 478.462 1057.16 489.565 1066.5C501.05 1076.22 511.459 1087.13 520.615 1099.06L524.086 1103.63L527.293 1108.46C528.312 1110.04 529.444 1111.63 530.425 1113.29L533.292 1118.34C537.2 1125.13 540.35 1132.33 542.687 1139.81C543.177 1141.74 543.743 1143.58 544.233 1145.55C544.618 1147.53 544.757 1149.56 544.648 1151.58C544.288 1157.65 541.584 1163.34 537.107 1167.45C532.629 1171.56 526.73 1173.77 520.653 1173.62C512.872 1174.05 505.149 1172.06 498.544 1167.92C492.054 1163.8 487.066 1157.7 484.321 1150.53C481.597 1143.82 478.237 1137.39 474.285 1131.32C472.436 1128.23 470.21 1125.44 468.135 1122.57C466.06 1119.7 463.759 1116.99 461.306 1114.46C451.97 1104.31 441.28 1095.5 429.539 1088.27C418.353 1081.42 406.541 1075.65 394.263 1071.03C382.623 1066.77 370.712 1063.29 358.609 1060.62C336.932 1055.63 314.819 1052.76 292.584 1052.05C260.358 1050.96 228.146 1054.61 196.981 1062.88C194.39 1063.74 191.704 1064.27 188.982 1064.47C185.894 1064.6 182.811 1064.1 179.924 1063C177.036 1061.89 174.405 1060.21 172.193 1058.05C169.982 1055.94 168.268 1053.36 167.175 1050.51C168.497 1053.26 170.298 1055.75 172.495 1057.86C175.163 1060.33 178.385 1062.11 181.889 1063.07C184.156 1063.65 186.495 1063.89 188.831 1063.79C191.5 1063.55 194.133 1063 196.679 1062.17C227.935 1053.59 260.305 1049.78 292.698 1050.85C315.065 1051.4 337.322 1054.18 359.138 1059.15C371.313 1061.81 383.299 1065.28 395.017 1069.52C407.43 1074.15 419.369 1079.96 430.671 1086.88C442.565 1094.15 453.395 1103.04 462.853 1113.29C465.343 1115.82 467.456 1118.72 469.795 1121.47C472.134 1124.23 474.134 1127.25 476.02 1130.38C480.064 1136.53 483.489 1143.06 486.245 1149.88C488.861 1156.69 493.596 1162.47 499.752 1166.37C506.046 1170.3 513.398 1172.18 520.804 1171.77C526.385 1171.92 531.808 1169.9 535.922 1166.12C540.035 1162.35 542.516 1157.12 542.838 1151.54C542.937 1149.69 542.811 1147.82 542.46 1146C542.008 1144.15 541.442 1142.23 540.951 1140.45C538.657 1133.11 535.57 1126.04 531.745 1119.36L528.991 1114.31C528.01 1112.68 526.916 1111.1 525.86 1109.52L522.577 1104.87L519.144 1100.35C510.069 1088.53 499.761 1077.72 488.395 1068.09C477.387 1058.82 465.554 1050.57 453.044 1043.45L443.8 1038.43C440.744 1036.74 437.5 1035.49 434.406 1033.98C428.181 1030.93 421.767 1028.66 415.542 1026.25C409.316 1023.83 402.789 1022.17 396.677 1020.17L377.813 1015.46L359.288 1011.69C353.176 1010.59 347.14 1009.72 341.217 1008.74C319.17 1005.56 296.89 1004.3 274.626 1004.97C242.351 1005.97 210.375 1011.49 179.625 1021.34C174.925 1023.17 171.014 1026.59 168.571 1031C166.741 1034.2 165.742 1037.81 165.666 1041.49C165.575 1044.51 166.023 1047.53 166.986 1050.39Z" fill="#263238"/>
<path d="M206.413 1041.3C206.413 1044.91 205.344 1048.43 203.341 1051.43C201.339 1054.42 198.493 1056.76 195.163 1058.14C191.833 1059.52 188.169 1059.88 184.635 1059.17C181.1 1058.47 177.853 1056.74 175.304 1054.19C172.756 1051.64 171.02 1048.39 170.317 1044.86C169.614 1041.32 169.975 1037.66 171.354 1034.33C172.733 1031 175.069 1028.15 178.066 1026.15C181.062 1024.15 184.586 1023.08 188.19 1023.08C190.584 1023.07 192.956 1023.54 195.169 1024.46C197.382 1025.37 199.393 1026.71 201.086 1028.41C202.779 1030.1 204.121 1032.11 205.036 1034.32C205.95 1036.54 206.417 1038.91 206.413 1041.3Z" fill="white"/>
<path d="M1287.33 919.439H1373.28L1366.56 966.713C1366.56 966.713 1360.98 989.953 1347.7 989.953H1310.46C1305.88 987.146 1301.92 983.444 1298.81 979.068C1295.7 974.692 1293.5 969.732 1292.35 964.487L1287.33 919.439Z" fill="#455A64"/>
<path d="M1287.33 919.439C1287.46 919.935 1287.55 920.439 1287.6 920.948C1287.6 922.004 1287.94 923.4 1288.2 925.136C1288.69 928.909 1289.41 934.228 1290.31 940.869C1291.22 947.509 1292.28 955.734 1293.48 964.977C1294.65 970.031 1296.83 974.796 1299.88 978.99C1302.94 983.184 1306.8 986.72 1311.25 989.388H1310.91H1340.68C1343.32 989.388 1346 989.388 1348.6 989.388C1351.18 989.242 1353.62 988.201 1355.51 986.445C1359.45 982.659 1362.42 977.972 1364.15 972.787C1364.91 970.798 1365.57 968.771 1366.11 966.713C1368.41 949.999 1370.6 934.115 1372.6 919.439L1373.28 920.231L1311.59 919.892L1293.82 919.703H1289.03H1287.33C1287.85 919.64 1288.37 919.64 1288.88 919.703H1293.52L1311.14 919.514L1373.28 919.175H1374.03V919.929C1372.03 934.606 1369.88 950.527 1367.66 967.203C1367.12 969.33 1366.45 971.422 1365.66 973.466C1363.82 978.882 1360.7 983.774 1356.57 987.727C1354.44 989.687 1351.68 990.836 1348.79 990.972C1346.08 990.972 1343.44 990.972 1340.79 990.972H1311.03H1310.84C1306.24 988.193 1302.26 984.509 1299.14 980.144C1296.01 975.779 1293.81 970.824 1292.65 965.581C1291.41 956.111 1290.58 947.848 1289.79 941.057C1288.99 934.266 1288.47 929.097 1288.09 925.325L1287.64 921.212C1287.46 920.635 1287.36 920.04 1287.33 919.439Z" fill="#263238"/>
<path d="M1366.56 943.811L1367.85 943.51C1367.05 943.51 1368.07 943.51 1368.22 943.51C1369.15 943.453 1370.09 943.453 1371.02 943.51C1370.11 943.51 1371.02 943.51 1371.35 943.51L1372.83 943.887L1374.03 944.264C1374.6 944.453 1374.03 944.264 1373.81 944.264L1374.6 944.641C1375.42 945.087 1376.21 945.579 1376.98 946.113C1377.47 946.452 1376.98 946.113 1376.79 946.113L1377.28 946.528C1377.65 946.861 1378 947.214 1378.33 947.584C1378.6 947.886 1379.13 948.603 1378.64 947.886C1378.94 948.301 1379.2 948.716 1379.47 949.131C1379.73 949.546 1379.88 949.923 1380.07 950.301C1380.26 950.678 1380.07 950.301 1380.07 950.074C1380.19 950.342 1380.29 950.62 1380.37 950.904C1380.55 951.384 1380.68 951.876 1380.79 952.376C1380.79 952.564 1381.05 953.809 1380.98 953.206C1380.9 952.602 1380.98 953.847 1380.98 954.036C1381.01 954.551 1381.01 955.068 1380.98 955.583C1380.98 955.885 1380.98 956.186 1380.98 956.488C1380.98 957.281 1380.98 956.79 1380.98 956.488C1380.93 956.768 1380.87 957.045 1380.79 957.318C1380.71 957.756 1380.6 958.185 1380.45 958.601C1380.45 958.941 1379.88 960.11 1380.45 959.205C1380.04 960.079 1379.58 960.924 1379.05 961.732L1378.67 962.261C1378.67 962.261 1379.2 961.657 1378.67 962.072C1378.15 962.487 1377.88 962.902 1377.47 963.317C1377.05 963.732 1376.37 964.185 1376.83 963.883C1377.28 963.581 1376.26 964.223 1376.11 964.298L1374.98 964.939L1374.41 965.241C1375.05 964.902 1374.71 965.241 1374.41 965.241C1374.11 965.241 1372.45 965.769 1371.47 966.034C1370.49 966.298 1371.73 966.034 1371.81 966.034H1370.94H1368H1367.17L1365.51 965.505C1366.22 965.807 1364.94 965.204 1364.94 965.204C1364.35 964.859 1363.7 964.634 1363.03 964.54C1362.36 964.447 1361.67 964.487 1361.01 964.659C1360.35 964.83 1359.73 965.13 1359.19 965.541C1358.65 965.952 1358.19 966.465 1357.85 967.052C1357.5 967.639 1357.28 968.288 1357.19 968.963C1357.09 969.637 1357.13 970.323 1357.3 970.982C1357.48 971.64 1357.77 972.259 1358.19 972.801C1358.6 973.344 1359.11 973.801 1359.7 974.145C1364.65 976.723 1370.4 977.339 1375.79 975.871C1381.18 974.403 1385.82 970.958 1388.79 966.222C1391.58 961.262 1392.44 955.443 1391.2 949.886C1390.57 947.184 1389.41 944.633 1387.79 942.38C1386.18 940.126 1384.13 938.215 1381.77 936.756C1379.17 935.121 1376.26 934.04 1373.22 933.579C1370.18 933.118 1367.08 933.288 1364.11 934.078C1362.79 934.443 1361.66 935.32 1360.98 936.515C1360.3 937.711 1360.12 939.128 1360.49 940.454C1360.85 941.779 1361.73 942.906 1362.93 943.585C1364.12 944.264 1365.54 944.441 1366.87 944.076L1366.56 943.811Z" fill="#455A64"/>
<path d="M1366.56 943.811C1366.02 944.07 1365.42 944.175 1364.83 944.113C1363.94 944.069 1363.07 943.805 1362.31 943.344C1361.54 942.883 1360.91 942.24 1360.45 941.472C1360.08 940.85 1359.83 940.159 1359.73 939.441C1359.63 938.722 1359.67 937.991 1359.85 937.289C1360.03 936.586 1360.36 935.928 1360.8 935.35C1361.23 934.773 1361.78 934.289 1362.41 933.927C1364 933.205 1365.7 932.771 1367.43 932.644C1369.35 932.401 1371.29 932.401 1373.2 932.644C1377.6 933.304 1381.71 935.246 1385.01 938.228C1388.86 941.648 1391.33 946.358 1391.95 951.47C1392.72 957.122 1391.38 962.856 1388.18 967.58C1386.42 970.046 1384.18 972.122 1381.58 973.68C1378.98 975.238 1376.09 976.244 1373.09 976.635C1370.41 977.014 1367.68 976.938 1365.02 976.409C1363.74 976.11 1362.48 975.732 1361.24 975.277L1359.43 974.447C1358.77 974.149 1358.18 973.712 1357.7 973.164C1356.81 972.058 1356.32 970.68 1356.32 969.259C1356.32 967.839 1356.81 966.461 1357.7 965.354C1358.63 964.326 1359.89 963.646 1361.26 963.426C1362.63 963.207 1364.04 963.461 1365.24 964.147L1364.26 964.751C1364.27 964.585 1364.33 964.427 1364.44 964.303C1364.55 964.18 1364.7 964.098 1364.87 964.072C1365.24 964.072 1365.28 964.072 1365.24 964.072H1365.51C1365.51 963.657 1366.04 965.128 1365.21 965.279H1364.79H1364.49V965.09C1364.11 963.581 1365.54 963.996 1365.13 963.958H1365.36L1365.88 964.147C1366.59 964.372 1367.31 964.548 1368.03 964.675C1368.03 964.675 1368.03 964.675 1368.41 964.864C1368.79 965.053 1368.64 964.864 1368.6 965.505C1368.56 966.147 1368.07 966.034 1368.03 966.034H1367.7H1367.39H1367.13C1367.13 966.034 1366.75 965.845 1366.94 965.204C1367.13 964.562 1367.43 964.902 1367.51 964.864H1369.2C1369.92 964.902 1370.64 964.902 1371.35 964.864V966.147H1371.13H1370.79C1370.62 966.146 1370.46 966.078 1370.34 965.958C1370.26 965.854 1370.22 965.729 1370.22 965.6C1370.22 965.471 1370.26 965.345 1370.34 965.241C1370.34 964.977 1370.34 965.053 1370.34 965.015L1370.64 964.826H1371.24L1372.34 964.524L1373.47 964.223H1373.96C1373.69 963.959 1373.96 965.505 1374.34 965.317H1374.6H1374.37L1373.77 964.185L1375.24 963.393L1375.92 962.978C1376.06 962.939 1376.2 962.939 1376.34 962.978C1376.46 963.017 1376.58 963.081 1376.67 963.166C1376.78 963.288 1376.83 963.442 1376.83 963.6C1376.83 963.759 1376.78 963.912 1376.67 964.034H1376.45C1376.33 964.08 1376.19 964.08 1376.07 964.034C1375.97 964.014 1375.87 963.97 1375.78 963.904C1375.7 963.839 1375.63 963.754 1375.58 963.657C1375.35 963.317 1375.81 962.827 1375.58 962.94C1376.02 962.629 1376.42 962.275 1376.79 961.883L1377.32 961.318C1377.32 961.318 1377.96 961.317 1378.11 961.733C1378.26 962.148 1378.11 962.034 1378.11 962.11L1377.88 962.374L1376.9 961.657C1377.58 960.714 1378.07 959.695 1378.64 958.752L1379.69 959.242V959.431C1379.69 959.431 1379.69 959.431 1379.24 959.431C1379.17 959.426 1379.09 959.407 1379.03 959.374C1378.96 959.341 1378.9 959.295 1378.85 959.239C1378.8 959.183 1378.76 959.118 1378.74 959.047C1378.72 958.976 1378.71 958.902 1378.71 958.827V958.412C1378.82 958.18 1378.9 957.94 1378.98 957.696C1378.98 957.205 1379.24 956.715 1379.35 956.224V955.847C1379.35 955.847 1379.35 955.847 1379.58 955.507C1379.66 955.461 1379.75 955.437 1379.84 955.437C1379.94 955.437 1380.03 955.461 1380.11 955.507H1380.33C1380.37 955.656 1380.37 955.812 1380.33 955.96V956.337C1380.71 956.752 1378.75 956.564 1379.28 956.337V955.998C1379.26 955.885 1379.26 955.771 1379.28 955.658C1379.28 955.168 1379.28 954.677 1379.28 954.225C1379.32 953.76 1379.32 953.293 1379.28 952.829V952.414C1379.29 952.324 1379.32 952.237 1379.36 952.159C1379.41 952.081 1379.47 952.013 1379.54 951.961C1379.62 951.906 1379.71 951.876 1379.81 951.876C1379.9 951.876 1379.99 951.906 1380.07 951.961C1380.11 951.976 1380.15 952 1380.19 952.033C1380.22 952.066 1380.24 952.106 1380.26 952.149C1380.26 952.338 1380.26 952.338 1380.26 952.338V952.565C1380.28 952.639 1380.28 952.716 1380.26 952.791C1380.26 952.791 1380.26 952.791 1379.96 952.979C1379.84 953.01 1379.72 953.001 1379.61 952.953C1379.5 952.905 1379.41 952.821 1379.35 952.715L1379.16 951.885C1378.98 951.029 1378.74 950.185 1378.45 949.358L1379.35 949.018V949.207C1379.36 949.264 1379.36 949.323 1379.35 949.38C1379.34 949.437 1379.31 949.49 1379.27 949.536C1379.24 949.583 1379.19 949.621 1379.14 949.649C1379.09 949.676 1379.03 949.693 1378.98 949.697C1378.6 949.697 1378.6 949.697 1378.56 949.697C1378.56 949.697 1378.56 949.395 1378.3 949.244L1377.92 948.452L1377.01 947.056L1377.77 946.566V946.754C1377.81 946.817 1377.82 946.889 1377.82 946.962C1377.82 947.035 1377.81 947.106 1377.77 947.169C1377.73 947.232 1377.67 947.283 1377.61 947.318C1377.54 947.353 1377.47 947.372 1377.39 947.372C1377.32 947.372 1377.24 947.353 1377.18 947.318C1377.11 947.283 1377.06 947.232 1377.01 947.169L1376.75 946.83C1376.58 946.611 1376.39 946.409 1376.18 946.226L1375.09 945.17L1375.62 944.566H1375.84C1374.94 945.811 1375.47 944.868 1375.28 945.132L1374.79 944.83L1373.85 944.227C1373.3 943.849 1372.72 943.521 1372.11 943.246L1372.41 942.604H1372.71H1372.94C1372.94 942.604 1373.13 943.057 1372.94 943.132H1372.75H1374.11L1373.51 942.906L1372.37 942.566L1371.32 942.302H1370.83C1371.05 942.302 1370.37 942.566 1370.83 941.774H1371.24V942.302H1368.75H1367.81C1367.81 942.302 1367.81 942.302 1367.81 942.076H1368.37C1368.37 942.076 1368.37 942.076 1368.37 942.265H1368.07C1367.6 942.373 1367.12 942.436 1366.64 942.453C1367.08 942.234 1367.55 942.081 1368.03 942H1368.22H1367.81H1371.24V942.529H1370.83C1371.28 941.699 1370.56 942.076 1370.83 942H1371.43L1372.56 942.227L1373.73 942.566L1374.34 942.755C1374.11 943.661 1374.11 943.321 1374.07 943.359H1373.69L1374 942.717C1374.62 943 1375.23 943.328 1375.81 943.698L1376.79 944.264L1377.32 944.566L1377.13 944.868L1376.86 944.642L1377.39 944.038C1377.8 944.369 1378.19 944.722 1378.56 945.094C1378.56 945.321 1378.98 945.472 1379.2 945.736L1379.47 946.075C1379.47 946.075 1379.28 946.075 1379.2 946.075V945.887L1379.96 945.396C1380.26 945.849 1380.6 946.302 1380.9 946.83L1381.32 947.622C1381.32 947.622 1381.58 947.848 1381.32 948.037L1381.05 948.263C1380.95 948.232 1380.85 948.232 1380.75 948.263H1380.56V947.999L1381.47 947.66C1381.8 948.532 1382.08 949.427 1382.3 950.339V950.678V950.942C1382.3 950.942 1382.3 950.942 1381.99 950.942C1381.69 950.942 1381.99 950.942 1381.81 950.942C1381.76 950.925 1381.72 950.915 1381.67 950.915C1381.63 950.915 1381.58 950.925 1381.54 950.942H1381.32H1381.62H1381.81C1381.81 950.942 1381.99 950.942 1382.03 950.942H1381.65V951.206C1381.65 951.659 1381.65 952.225 1381.65 952.715C1381.71 953.217 1381.71 953.723 1381.65 954.225C1381.68 954.362 1381.68 954.502 1381.65 954.64C1381.65 954.64 1381.47 954.64 1381.2 954.64H1380.56V954.3C1380.56 954.3 1380.94 954.3 1380.86 954.3C1381.69 954.3 1381.35 954.3 1381.43 954.3V954.677C1381.43 955.168 1381.16 955.734 1381.01 956.262C1380.95 956.535 1380.87 956.801 1380.75 957.054V957.394C1379.28 956.79 1379.81 956.941 1379.77 956.866V956.677L1380.82 957.167C1380.22 958.186 1379.73 959.28 1379.01 960.299L1378.03 959.582L1378.3 959.28H1378.52C1378.52 959.28 1378.79 959.28 1378.86 959.544V959.733C1378.86 959.733 1379.09 960.035 1379.05 959.959L1378.49 960.563C1378.1 960.969 1377.68 961.347 1377.24 961.695C1376.98 961.468 1376.98 961.28 1376.9 961.318C1376.83 961.355 1376.9 961.317 1376.9 961.129L1376.71 960.789C1376.71 960.789 1376.9 961.016 1376.71 961.053C1376.52 961.091 1376.71 961.393 1376.71 961.393C1376.71 961.472 1376.72 961.55 1376.76 961.618C1376.81 961.686 1376.87 961.739 1376.94 961.77H1376.75L1376.03 962.223L1374.52 963.053L1373.92 961.921H1374.18H1374.64C1375.2 961.921 1375.32 963.317 1375.01 963.015H1374.83L1374.22 963.242L1373.09 963.544L1371.92 963.845H1371.35C1371.35 963.845 1371.35 964.147 1371.13 963.279C1371.13 963.279 1371.13 962.525 1371.13 962.6H1371.66V963.883C1370.89 963.94 1370.12 963.94 1369.36 963.883C1368.97 963.92 1368.57 963.92 1368.19 963.883H1367.77V963.242C1367.77 963.242 1367.77 962.864 1367.77 962.676H1368.19C1368.19 962.676 1368.19 962.978 1368.19 963.015C1368.19 963.053 1368.19 963.015 1368.19 963.242C1368.19 963.242 1368.19 963.242 1368.19 963.506C1368.22 963.617 1368.22 963.734 1368.19 963.845C1367.41 963.697 1366.64 963.508 1365.88 963.279L1365.32 963.091H1364.98V962.864C1364.99 962.739 1364.99 962.613 1364.98 962.487C1365.47 961.506 1365.21 961.959 1365.28 961.846H1365.51C1365.51 961.846 1365.51 962.298 1365.32 962.374L1365.02 962.902H1364.75C1364.89 962.941 1365.03 962.941 1365.17 962.902C1365.27 962.88 1365.37 962.834 1365.46 962.769C1365.54 962.704 1365.61 962.62 1365.66 962.525V962.336C1365.66 962.336 1365.66 962.336 1365.13 962.336L1364.68 962.978C1363.76 962.483 1362.7 962.304 1361.68 962.467C1360.65 962.631 1359.7 963.128 1358.98 963.883C1358.32 964.73 1357.97 965.772 1357.97 966.845C1357.97 967.917 1358.32 968.959 1358.98 969.806C1359.86 970.559 1360.87 971.135 1361.96 971.504C1363.13 971.94 1364.32 972.281 1365.54 972.523C1368.03 973.045 1370.58 973.134 1373.09 972.787C1375.91 972.44 1378.63 971.509 1381.07 970.054C1383.51 968.599 1385.63 966.652 1387.28 964.336C1390.36 959.945 1391.7 954.568 1391.05 949.244C1390.5 944.429 1388.22 939.977 1384.64 936.719C1381.48 933.82 1377.55 931.917 1373.32 931.248C1369.91 930.611 1366.39 930.897 1363.13 932.078C1362.55 932.424 1362.03 932.882 1361.63 933.426C1361.22 933.97 1360.92 934.589 1360.75 935.247C1360.49 936.38 1360.68 937.572 1361.28 938.567C1361.66 939.273 1362.2 939.88 1362.85 940.338C1363.51 940.797 1364.26 941.095 1365.05 941.208C1365.43 942.146 1365.93 943.024 1366.56 943.811Z" fill="#263238"/>
<path d="M1345.32 902.725C1346.32 901.788 1347.22 900.751 1348 899.631C1348.97 898.07 1349.61 896.331 1349.9 894.517C1350.18 892.703 1350.1 890.85 1349.66 889.067C1349.01 886.627 1347.59 884.459 1345.62 882.88C1343.55 881.069 1340.91 879.635 1338.46 877.485C1337.2 876.36 1336.15 875.018 1335.36 873.523C1334.51 871.914 1334.27 870.052 1334.68 868.279C1335.16 866.478 1336.12 864.846 1337.47 863.563C1338.72 862.242 1340.12 861.111 1341.25 859.79C1342.53 858.659 1343.53 857.253 1344.19 855.678C1344.68 854.118 1344.68 852.446 1344.19 850.886C1343.18 847.824 1341.47 845.036 1339.21 842.737C1337.07 840.547 1335.35 837.991 1334.12 835.191C1333.19 832.673 1332.9 829.962 1333.29 827.306C1333.83 823.47 1335.69 819.939 1338.53 817.308C1339.3 816.624 1340.15 816.029 1341.06 815.535L1342.04 815.12C1340.92 815.901 1339.85 816.745 1338.83 817.647C1336.23 820.295 1334.57 823.731 1334.12 827.419C1333.79 829.971 1334.1 832.564 1335.02 834.965C1336.27 837.613 1337.97 840.026 1340.04 842.096C1342.45 844.496 1344.26 847.43 1345.32 850.66C1345.89 852.44 1345.89 854.351 1345.32 856.131C1344.62 857.89 1343.52 859.465 1342.12 860.733C1339.55 863.299 1336.49 865.412 1335.74 868.581C1335.54 870.118 1335.74 871.681 1336.34 873.113C1336.94 874.544 1337.9 875.792 1339.13 876.73C1341.4 878.768 1344.04 880.239 1346.19 882.163C1347.25 883.072 1348.17 884.141 1348.91 885.332C1349.58 886.431 1350.07 887.627 1350.38 888.879C1350.83 890.757 1350.88 892.711 1350.52 894.61C1350.17 896.509 1349.41 898.311 1348.3 899.896C1347.55 901.068 1346.53 902.039 1345.32 902.725Z" fill="#263238"/>
<path d="M1328.84 902.725C1329.81 901.78 1330.7 900.744 1331.48 899.631C1332.46 898.078 1333.12 896.339 1333.4 894.522C1333.69 892.705 1333.6 890.848 1333.14 889.067C1332.52 886.611 1331.1 884.433 1329.1 882.88C1327.02 881.069 1324.38 879.635 1321.97 877.485C1320.7 876.37 1319.65 875.026 1318.87 873.523C1318.01 871.919 1317.76 870.056 1318.16 868.279C1318.66 866.492 1319.63 864.866 1320.95 863.563C1322.23 862.242 1323.59 861.111 1324.72 859.79C1325.98 858.646 1326.97 857.243 1327.63 855.678C1328.15 854.123 1328.15 852.441 1327.63 850.886C1326.61 847.824 1324.91 845.036 1322.65 842.737C1320.51 840.538 1318.78 837.985 1317.52 835.191C1316.59 832.673 1316.3 829.962 1316.69 827.306C1317.23 823.46 1319.1 819.924 1321.97 817.308C1322.73 816.607 1323.58 816.011 1324.5 815.535C1324.8 815.343 1325.13 815.203 1325.48 815.12C1324.36 815.901 1323.29 816.745 1322.27 817.647C1319.66 820.299 1317.99 823.731 1317.52 827.419C1317.18 829.974 1317.51 832.571 1318.46 834.965C1319.71 837.613 1321.41 840.026 1323.48 842.096C1325.87 844.506 1327.68 847.437 1328.76 850.66C1329.32 852.44 1329.32 854.351 1328.76 856.131C1328.04 857.883 1326.95 859.454 1325.55 860.733C1322.99 863.299 1319.89 865.412 1319.14 868.581C1318.94 870.117 1319.15 871.678 1319.75 873.108C1320.35 874.538 1321.31 875.787 1322.53 876.73C1324.8 878.768 1327.48 880.239 1329.59 882.163C1330.67 883.071 1331.59 884.14 1332.34 885.332C1332.98 886.447 1333.48 887.639 1333.82 888.879C1334.25 890.759 1334.29 892.708 1333.93 894.605C1333.57 896.501 1332.83 898.302 1331.74 899.896C1331 901.051 1330.01 902.019 1328.84 902.725Z" fill="#263238"/>
<path d="M1449.97 675.924L1441.64 682.901L1547.19 808.918L1555.52 801.94L1449.97 675.924Z" fill="#263238"/>
<path d="M1462.27 658.243L1453.94 665.22L1559.5 791.237L1567.83 784.26L1462.27 658.243Z" fill="#263238"/>
<path d="M1561.23 806.814L1552.04 801.014L1446.54 968.162L1455.73 973.961L1561.23 806.814Z" fill="#263238"/>
<path d="M1585.03 811.434L1575.84 805.634L1472.39 969.527L1481.58 975.327L1585.03 811.434Z" fill="#263238"/>
<path d="M1561.77 785.842L1545.21 808.253C1543.18 810.983 1542.23 814.362 1542.53 817.748C1542.83 821.135 1544.36 824.294 1546.83 826.627C1548.91 828.582 1551.55 829.851 1554.37 830.262C1557.2 830.674 1560.08 830.208 1562.64 828.928L1584.94 817.61C1586.88 816.652 1588.58 815.253 1589.89 813.524C1591.2 811.794 1592.09 809.783 1592.48 807.649L1592.71 806.291C1593.15 803.812 1592.91 801.26 1592.01 798.907C1591.11 796.555 1589.59 794.49 1587.61 792.935L1576.3 783.918C1575.23 783.047 1574 782.404 1572.68 782.028C1571.36 781.651 1569.98 781.55 1568.62 781.731C1567.25 781.911 1565.94 782.369 1564.77 783.076C1563.59 783.784 1562.57 784.725 1561.77 785.842Z" fill="#263238"/>
<path d="M1561.77 785.842C1561.77 785.842 1561.96 785.314 1562.64 784.56C1563.67 783.413 1564.97 782.533 1566.41 781.994C1568.69 781.147 1571.19 781.147 1573.47 781.994C1574.85 782.494 1576.13 783.249 1577.24 784.22L1581.01 787.163L1585.24 790.407C1586.85 791.531 1588.37 792.793 1589.77 794.18C1591.28 795.853 1592.4 797.853 1593.02 800.025C1593.64 802.197 1593.75 804.483 1593.35 806.706C1593.1 809.198 1592.24 811.59 1590.83 813.664C1589.43 815.739 1587.53 817.432 1585.31 818.591L1571.81 825.419L1564.98 828.89C1562.74 830.23 1560.25 831.091 1557.66 831.418C1555.28 831.638 1552.88 831.276 1550.67 830.366C1548.46 829.456 1546.5 828.023 1544.97 826.191C1543.43 824.358 1542.36 822.181 1541.85 819.846C1541.34 817.51 1541.41 815.086 1542.04 812.78C1542.61 810.828 1543.56 809.007 1544.83 807.423L1548.04 803.197L1557.85 790.445C1558.99 788.858 1560.25 787.357 1561.62 785.955C1560.72 787.696 1559.66 789.351 1558.45 790.898L1549.13 804.027C1546.78 806.746 1544.9 809.846 1543.59 813.195C1543.09 815.133 1543.04 817.159 1543.44 819.119C1543.84 821.079 1544.67 822.924 1545.89 824.514C1547.24 826.246 1549 827.61 1551.02 828.481C1553.04 829.351 1555.24 829.7 1557.43 829.494C1559.78 829.183 1562.04 828.386 1564.07 827.155L1570.9 823.684L1584.37 816.855C1586.19 815.824 1587.77 814.408 1588.99 812.708C1590.21 811.007 1591.05 809.061 1591.44 807.005C1591.84 804.949 1591.78 802.832 1591.27 800.8C1590.77 798.768 1589.83 796.869 1588.52 795.237C1587.2 793.869 1585.77 792.608 1584.26 791.464C1582.82 790.294 1581.46 789.162 1580.11 788.106L1576.33 785.05C1575.31 784.123 1574.14 783.382 1572.86 782.862C1570.76 782.149 1568.48 782.149 1566.37 782.862C1564.66 783.556 1563.1 784.567 1561.77 785.842Z" fill="#455A64"/>
<path d="M1394.07 990.708C1394.07 990.708 1406.97 963.317 1457.64 963.393H1480.96C1480.96 963.393 1526.49 973.202 1531.96 990.783L1394.07 990.708Z" fill="#263238"/>
<path d="M1425.5 651.227L1435.98 692.728C1436.1 693.176 1436.33 693.584 1436.66 693.906C1436.99 694.229 1437.4 694.454 1437.85 694.556C1438.3 694.657 1438.77 694.632 1439.21 694.483C1439.64 694.333 1440.03 694.066 1440.32 693.709L1471.6 661.678C1471.89 661.341 1472.08 660.934 1472.16 660.498C1472.23 660.062 1472.19 659.613 1472.04 659.198C1471.89 658.783 1471.62 658.417 1471.28 658.136C1470.94 657.856 1470.53 657.672 1470.09 657.603L1428.29 648.36C1427.9 648.299 1427.5 648.332 1427.13 648.456C1426.76 648.58 1426.42 648.791 1426.15 649.072C1425.88 649.352 1425.67 649.695 1425.56 650.07C1425.45 650.445 1425.42 650.842 1425.5 651.227Z" fill="#263238"/>
<path d="M1425.5 651.227C1425.5 651.227 1425.23 650.925 1425.27 650.208C1425.32 649.66 1425.54 649.142 1425.9 648.723C1426.26 648.305 1426.74 648.006 1427.27 647.869C1428.02 647.719 1428.79 647.719 1429.53 647.869L1432.06 648.36L1438.25 649.605L1454.66 653.038L1464.54 655.151L1469.86 656.283C1470.47 656.35 1471.05 656.564 1471.56 656.906C1472.06 657.248 1472.48 657.707 1472.77 658.245C1473.07 658.849 1473.19 659.528 1473.1 660.199C1473.02 660.869 1472.75 661.501 1472.32 662.017L1458.39 676.317L1441 694.049C1440.62 694.501 1440.13 694.847 1439.57 695.053C1439.01 695.258 1438.41 695.316 1437.83 695.221C1437.24 695.126 1436.69 694.882 1436.23 694.511C1435.77 694.14 1435.41 693.656 1435.19 693.106C1434.7 691.257 1434.36 689.786 1433.95 688.201C1433.19 685.07 1432.47 682.051 1431.76 679.222C1430.44 673.638 1429.23 668.695 1428.21 664.432C1427.19 660.169 1426.63 657.301 1426.02 654.736C1425.68 653.584 1425.49 652.391 1425.46 651.189C1425.95 652.283 1426.34 653.42 1426.63 654.585C1427.34 657.113 1428.25 660.282 1429.31 664.13C1430.36 667.979 1431.8 673.298 1433.27 678.844L1435.64 687.748L1436.89 692.464C1436.99 692.716 1437.16 692.937 1437.37 693.106C1437.59 693.274 1437.84 693.385 1438.11 693.426C1438.38 693.468 1438.66 693.44 1438.91 693.344C1439.17 693.248 1439.39 693.088 1439.57 692.879L1456.89 675.072L1470.84 660.81C1471.04 660.566 1471.17 660.269 1471.2 659.956C1471.23 659.642 1471.17 659.327 1471.03 659.047C1470.88 658.767 1470.66 658.535 1470.39 658.379C1470.11 658.223 1469.8 658.15 1469.49 658.169L1464.2 656.962L1454.32 654.698L1437.98 650.925L1431.83 649.416L1429.34 648.812C1428.72 648.566 1428.05 648.462 1427.38 648.511C1426.95 648.598 1426.54 648.808 1426.22 649.115C1425.9 649.423 1425.68 649.815 1425.57 650.246C1425.46 650.85 1425.57 651.227 1425.5 651.227Z" fill="#455A64"/>
<path d="M1394.56 769.544C1415.27 741.813 1427 713.592 1425.04 684.73L1386.14 647.266C1348.42 634.702 1296.54 674.279 1296.54 674.279C1296.54 674.279 1309.4 744.077 1394.56 769.544Z" fill="#263238"/>
<path d="M1446.11 619.813L1447.32 620.949C1452.81 626.096 1456.03 633.213 1456.27 640.734C1456.52 648.255 1453.76 655.563 1448.61 661.052L1413.49 698.508L1370.89 658.558L1406.04 621.074C1408.58 618.358 1411.64 616.17 1415.04 614.636C1418.43 613.103 1422.09 612.253 1425.81 612.136C1429.54 612.019 1433.24 612.636 1436.73 613.954C1440.21 615.271 1443.4 617.262 1446.11 619.813Z" fill="#263238"/>
<path d="M1422.4 683.409C1419.6 683.504 1416.8 683.043 1414.18 682.051C1407.72 680.047 1401.77 676.69 1396.71 672.204C1391.62 667.727 1387.53 662.224 1384.71 656.056C1383.42 653.579 1382.63 650.876 1382.37 648.096C1383.76 650.481 1385.01 652.937 1386.14 655.453C1389.19 661.23 1393.25 666.407 1398.14 670.733C1403.05 675.032 1408.69 678.429 1414.78 680.768C1419.38 682.504 1422.44 683.07 1422.4 683.409Z" fill="#455A64"/>
<path d="M1575.24 799.274C1575.24 799.968 1575.03 800.646 1574.65 801.223C1574.26 801.8 1573.71 802.25 1573.07 802.515C1572.43 802.781 1571.73 802.85 1571.05 802.715C1570.37 802.58 1569.74 802.245 1569.25 801.755C1568.76 801.264 1568.42 800.639 1568.29 799.958C1568.15 799.278 1568.22 798.572 1568.49 797.931C1568.75 797.29 1569.2 796.742 1569.78 796.356C1570.36 795.971 1571.04 795.765 1571.73 795.765C1572.19 795.765 1572.65 795.856 1573.07 796.032C1573.5 796.208 1573.89 796.467 1574.21 796.793C1574.54 797.118 1574.8 797.505 1574.97 797.931C1575.15 798.357 1575.24 798.813 1575.24 799.274Z" fill="#455A64"/>
<path d="M1445.3 677.788C1445.3 678.482 1445.1 679.16 1444.71 679.737C1444.33 680.314 1443.78 680.764 1443.14 681.03C1442.5 681.295 1441.79 681.365 1441.11 681.229C1440.43 681.094 1439.8 680.76 1439.31 680.269C1438.82 679.778 1438.49 679.153 1438.35 678.472C1438.22 677.792 1438.29 677.086 1438.55 676.445C1438.82 675.804 1439.27 675.256 1439.84 674.871C1440.42 674.485 1441.1 674.279 1441.79 674.279C1442.72 674.279 1443.62 674.649 1444.27 675.307C1444.93 675.965 1445.3 676.857 1445.3 677.788Z" fill="#455A64"/>
<path d="M1458.62 664.168C1458.62 664.862 1458.41 665.54 1458.03 666.117C1457.64 666.694 1457.1 667.144 1456.45 667.41C1455.81 667.675 1455.11 667.745 1454.43 667.609C1453.75 667.474 1453.12 667.14 1452.63 666.649C1452.14 666.158 1451.81 665.533 1451.67 664.852C1451.54 664.172 1451.6 663.466 1451.87 662.825C1452.14 662.184 1452.59 661.636 1453.16 661.251C1453.74 660.865 1454.42 660.659 1455.11 660.659C1455.57 660.659 1456.03 660.75 1456.45 660.926C1456.88 661.103 1457.27 661.361 1457.59 661.687C1457.92 662.013 1458.18 662.4 1458.35 662.825C1458.53 663.251 1458.62 663.707 1458.62 664.168Z" fill="#455A64"/>
<path d="M1561.02 812.026C1561.02 812.72 1560.81 813.398 1560.42 813.975C1560.04 814.552 1559.49 815.002 1558.85 815.268C1558.21 815.533 1557.5 815.603 1556.82 815.467C1556.14 815.332 1555.52 814.998 1555.03 814.507C1554.54 814.016 1554.2 813.391 1554.07 812.71C1553.93 812.03 1554 811.324 1554.27 810.683C1554.53 810.042 1554.98 809.494 1555.56 809.108C1556.13 808.723 1556.81 808.517 1557.51 808.517C1558.44 808.517 1559.33 808.887 1559.99 809.545C1560.65 810.203 1561.02 811.095 1561.02 812.026Z" fill="#455A64"/>
<path d="M1421.91 1051.9L1420.85 1660.65H853.117V1050.24H816.708V1660.65V1694.5H853.117H1420.85H1457.26V1660.65L1458.32 1051.9H1421.91Z" fill="#E0E0E0"/>
<path d="M1421.91 1052.05H1458.32H1458.51C1458.51 1133.21 1458.24 1365.58 1458.02 1694.65V1695.4H1457.11H816.558H815.728V1694.46C815.728 1516.08 815.728 1321.96 815.728 1120.53V1049.22H854.097V1050.21C854.097 1265.56 854.097 1471.14 854.097 1660.61L853.192 1659.71L1420.93 1659.9L1420.21 1660.61C1421.31 1284.99 1421.99 1057.56 1421.99 1051.87C1421.99 1057.56 1421.99 1284.99 1421.68 1660.61V1661.33H1420.93L853.192 1661.52H852.286V1660.61C852.286 1471.14 852.286 1265.56 852.286 1050.21L853.267 1051.19H816.859L817.84 1050.21V1120.53C817.84 1321.96 817.84 1516.08 817.84 1694.46L816.897 1693.51L1457.45 1693.7L1456.7 1694.46C1457.53 1365.39 1458.09 1133.02 1458.32 1051.87L1458.51 1052.05H1421.91Z" fill="#263238"/>
<path d="M1567.96 990.708H745.326V1056.36H1567.96V990.708Z" fill="#AE7461"/>
<path d="M951.55 989.501L949.437 989.991C948.079 990.255 946.042 990.557 943.439 991.161C938.232 992.217 930.762 994.028 921.669 996.707C912.577 999.385 901.824 1003.01 889.977 1007.23C878.131 1011.46 865.152 1016.21 851.23 1020.48C838.164 1024.52 824.77 1027.43 811.2 1029.15C800.183 1030.56 789.038 1030.65 777.999 1029.42C770.503 1028.57 763.125 1026.89 756.003 1024.4C754.068 1023.74 752.166 1022.99 750.307 1022.14C749.024 1021.61 748.382 1021.27 748.382 1021.27C748.382 1021.27 749.099 1021.46 750.42 1021.95C751.74 1022.44 753.627 1023.27 756.154 1023.98C763.293 1026.28 770.653 1027.82 778.112 1028.59C789.16 1029.7 800.3 1029.55 811.313 1028.13C824.803 1026.34 838.118 1023.41 851.117 1019.38C865.001 1015.12 877.98 1010.4 889.864 1006.25C901.749 1002.1 912.501 998.518 921.632 995.952C928.858 993.847 936.187 992.11 943.59 990.746C946.193 990.217 948.268 989.991 949.626 989.765C950.984 989.538 951.55 989.501 951.55 989.501Z" fill="#6F4439"/>
<path d="M1371.13 1050.13C1370.83 1049.85 1370.55 1049.55 1370.3 1049.22C1369.55 1048.3 1368.76 1047.42 1367.92 1046.58C1364.72 1043.3 1361.04 1040.5 1357.02 1038.28C1350.65 1034.81 1343.71 1032.48 1336.53 1031.42C1327.01 1030.09 1317.34 1030.33 1307.9 1032.13C1296.41 1034.37 1285.08 1037.28 1273.94 1040.85C1261.17 1045.06 1247.97 1047.84 1234.59 1049.15C1227.3 1049.67 1219.97 1049.17 1212.82 1047.68C1205.39 1046.04 1198.15 1043.61 1191.24 1040.43C1177.09 1034.21 1163.43 1025.76 1148.34 1019.65C1117.97 1007.42 1085.86 1006.48 1057.98 1010.06C1033.14 1013.63 1008.82 1020.13 985.506 1029.42C965.51 1036.96 949.777 1044.51 938.873 1049.26L926.31 1054.96C923.442 1056.28 921.896 1056.92 921.896 1056.92C921.896 1056.92 923.367 1056.13 926.196 1054.77L938.647 1048.85C949.513 1043.79 965.246 1036.43 985.204 1028.66C1008.53 1019.24 1032.9 1012.67 1057.79 1009.08C1085.79 1005.31 1118.16 1006.33 1148.72 1018.63C1163.81 1024.81 1177.58 1033.27 1191.62 1039.45C1198.46 1042.61 1205.62 1045.02 1212.97 1046.66C1220.02 1048.16 1227.25 1048.65 1234.44 1048.13C1247.75 1046.85 1260.88 1044.13 1273.6 1040.02C1284.74 1036.48 1296.08 1033.61 1307.56 1031.42C1317.09 1029.64 1326.86 1029.45 1336.46 1030.85C1343.69 1031.99 1350.66 1034.39 1357.06 1037.94C1361.07 1040.23 1364.72 1043.1 1367.88 1046.47C1369.06 1047.61 1370.14 1048.83 1371.13 1050.13Z" fill="#6F4439"/>
<path d="M1563.17 1011.01C1554.47 1014.4 1545.53 1017.13 1536.42 1019.16C1532.19 1020.14 1527.55 1021.15 1522.53 1021.87C1517.51 1022.59 1512.08 1023.34 1506.39 1023.98C1481.59 1026.21 1456.6 1024.37 1432.4 1018.55C1426.85 1017.12 1421.57 1015.84 1416.78 1014.18C1411.99 1012.52 1407.46 1011.01 1403.42 1009.46C1394.7 1006.13 1386.25 1002.11 1378.15 997.461C1378.76 997.671 1379.35 997.936 1379.92 998.254L1384.94 1000.63C1387.09 1001.72 1389.77 1003.01 1392.94 1004.4C1396.1 1005.8 1399.65 1007.38 1403.73 1008.78C1407.8 1010.18 1412.18 1011.91 1417.04 1013.35C1421.91 1014.78 1427.16 1016.21 1432.66 1017.61C1456.73 1023.24 1481.54 1025.02 1506.16 1022.89C1511.82 1022.29 1517.21 1021.83 1522.23 1020.93C1527.25 1020.02 1531.85 1019.27 1536.08 1018.36C1540.3 1017.46 1544.08 1016.44 1547.4 1015.57C1550.72 1014.7 1553.55 1013.91 1555.81 1013.16L1561.13 1011.5C1561.79 1011.27 1562.47 1011.1 1563.17 1011.01Z" fill="#6F4439"/>
<path d="M1092.05 974.183H839.61C834.9 974.183 831.083 978 831.083 982.71V983.2C831.083 987.909 834.9 991.727 839.61 991.727H1092.05C1096.76 991.727 1100.58 987.909 1100.58 983.2V982.71C1100.58 978 1096.76 974.183 1092.05 974.183Z" fill="#455A64"/>
<path d="M1163.89 757.772L1100.8 984.521C1100.14 986.865 1098.58 988.855 1096.46 990.056C1094.34 991.257 1091.84 991.573 1089.49 990.934C1087.14 990.274 1085.15 988.714 1083.95 986.594C1082.75 984.475 1082.43 981.967 1083.07 979.616L1146.19 752.679C1146.84 750.329 1148.4 748.333 1150.52 747.13C1152.65 745.928 1155.16 745.617 1157.51 746.265C1158.69 746.595 1159.79 747.156 1160.75 747.915C1161.71 748.674 1162.51 749.616 1163.1 750.686C1163.7 751.757 1164.07 752.934 1164.21 754.151C1164.34 755.367 1164.23 756.598 1163.89 757.772Z" fill="#455A64"/>
<path d="M1112.54 775.316C1112.16 775.731 1094.5 759.206 1073.11 738.493C1051.72 717.78 1034.7 700.765 1035.08 700.236C1035.46 699.708 1053.08 716.309 1074.47 737.059C1095.86 757.81 1112.91 774.939 1112.54 775.316Z" fill="#263238"/>
<path d="M1103.94 802.443C1101.78 801.818 1099.67 801.023 1097.63 800.066L1080.85 793.011C1066.62 787.05 1046.89 778.938 1025.12 770.374C1003.35 761.809 983.28 754.415 968.83 749.133L951.55 742.681C949.424 742.019 947.354 741.187 945.363 740.191C947.561 740.59 949.72 741.183 951.814 741.964C955.927 743.247 961.85 745.171 969.132 747.661C983.732 752.604 1003.77 759.81 1025.72 768.412C1047.68 777.014 1067.23 785.352 1081.26 791.615C1088.32 794.784 1093.98 797.387 1097.86 799.16C1099.96 800.112 1101.99 801.209 1103.94 802.443Z" fill="#263238"/>
<path d="M1100.46 829.456C1095.32 830.249 1090.09 830.363 1084.92 829.796C1079.72 829.906 1074.52 829.361 1069.45 828.174C1079.8 827.292 1090.22 827.723 1100.46 829.456Z" fill="#263238"/>
<path d="M1559.81 1587.2C1559.81 1587.2 1544.15 1479.33 1545.43 1416.59C1546.72 1353.84 1545.43 1283.22 1545.43 1283.22H1552.68C1552.68 1283.22 1547.77 1407.72 1553.09 1482.91C1558.41 1558.11 1572.45 1587.2 1572.45 1587.2H1559.88" fill="#263238"/>
<path d="M1606.55 1161.84C1605.42 1158.03 1603.13 1154.67 1599.99 1152.22C1595.39 1149.32 1589.39 1150.53 1584.26 1152.22C1562.41 1159.96 1543.06 1200.67 1534.23 1222.1L1563.2 1319.81C1615.57 1271.37 1624.63 1207.65 1606.55 1161.84Z" fill="#455A64"/>
<path d="M1598.29 1156.19C1598.19 1156.62 1598.04 1157.04 1597.84 1157.43C1597.5 1158.37 1597.01 1159.58 1596.44 1161.01C1595.16 1164.07 1593.39 1168.56 1591.24 1174.11C1586.97 1185.2 1581.54 1200.52 1576.67 1218.17C1571.81 1235.83 1568.49 1251.79 1566.45 1263.45C1565.39 1269.3 1564.64 1274.05 1564.15 1277.33C1563.88 1278.88 1563.69 1280.12 1563.51 1281.1C1563.46 1281.54 1563.35 1281.97 1563.2 1282.39C1563.16 1281.95 1563.16 1281.51 1563.2 1281.07C1563.2 1280.05 1563.43 1278.8 1563.58 1277.29C1563.96 1273.97 1564.6 1269.18 1565.54 1263.3C1568.03 1248.04 1571.37 1232.94 1575.54 1218.06C1579.74 1203.1 1584.77 1188.39 1590.63 1173.99C1592.86 1168.45 1594.75 1164.03 1596.18 1161.01C1596.82 1159.62 1597.35 1158.45 1597.8 1157.54C1597.89 1157.07 1598.05 1156.61 1598.29 1156.19Z" fill="#263238"/>
<path d="M1550.34 1343.36C1537.13 1335.85 1526.08 1325.07 1518.25 1312.05C1510.42 1299.03 1506.07 1284.22 1505.63 1269.03C1504.57 1247.37 1511.25 1226.1 1518.8 1205.72C1519.25 1203.89 1520.33 1202.28 1521.85 1201.16C1523.1 1200.69 1524.45 1200.54 1525.77 1200.74C1527.1 1200.94 1528.34 1201.47 1529.4 1202.29C1549.13 1213.61 1561.13 1235 1567.47 1256.81C1572.06 1271.27 1573.59 1286.54 1571.96 1301.63C1569.47 1317.49 1561.92 1332.12 1550.45 1343.36" fill="#455A64"/>
<path d="M1550.34 1343.36C1550.29 1342.92 1550.29 1342.47 1550.34 1342.04V1338.26C1550.34 1334.98 1550.34 1330.26 1549.92 1324.45C1549.16 1309.27 1547.47 1294.15 1544.87 1279.18C1541.89 1261.67 1538.23 1246.02 1535.51 1234.7L1532.3 1221.27L1531.47 1217.49C1531.35 1217.08 1531.27 1216.65 1531.25 1216.21C1531.45 1216.59 1531.6 1217 1531.7 1217.42C1531.96 1218.4 1532.3 1219.57 1532.76 1221.19C1533.62 1224.32 1534.87 1228.74 1536.34 1234.51C1539.25 1245.83 1543.06 1261.49 1546.08 1279.03C1548.66 1294 1550.23 1309.12 1550.79 1324.3C1550.79 1330.11 1550.79 1334.83 1550.79 1338.11C1550.79 1339.62 1550.79 1340.87 1550.79 1341.88C1550.7 1342.39 1550.55 1342.89 1550.34 1343.36Z" fill="#263238"/>
<g opacity="0.3">
<path d="M1550.34 1343.36C1537.13 1335.85 1526.08 1325.07 1518.25 1312.05C1510.42 1299.03 1506.07 1284.22 1505.63 1269.03C1504.57 1247.37 1511.25 1226.1 1518.8 1205.72C1519.25 1203.89 1520.33 1202.28 1521.85 1201.16C1523.1 1200.69 1524.45 1200.54 1525.77 1200.74C1527.1 1200.94 1528.34 1201.47 1529.4 1202.29C1549.13 1213.61 1561.13 1235 1567.47 1256.81C1572.06 1271.27 1573.59 1286.54 1571.96 1301.63C1569.47 1317.49 1561.92 1332.12 1550.45 1343.36" fill="black"/>
</g>
<path d="M1581.01 1508.57C1607.76 1514.45 1629.76 1533.32 1655.6 1542.52C1672.65 1548.6 1691.97 1550.75 1705.59 1562.67C1702.35 1554.41 1694.57 1548.9 1687.03 1544.22C1665.77 1530.86 1643.06 1519.95 1619.34 1511.7C1607.23 1507.51 1594.03 1504.15 1581.62 1507.47" fill="#455A64"/>
<path d="M1542.3 1532.22C1508.8 1531.66 1473.52 1503.14 1440.21 1501.44C1475.07 1490.12 1525.06 1499.36 1542.3 1532.22Z" fill="#455A64"/>
<path d="M1555.39 1451.98C1572.66 1446.28 1591.08 1444.98 1608.97 1448.2C1626.77 1451.46 1644.26 1456.21 1661.26 1462.39C1659.52 1450.77 1650.13 1442.05 1641.26 1434.32C1634.81 1428.27 1627.78 1422.87 1620.29 1418.17C1612.74 1413.46 1604.01 1411 1595.12 1411.08C1589.78 1411.41 1584.56 1412.82 1579.79 1415.23C1575.01 1417.63 1570.76 1420.98 1567.32 1425.08C1560.55 1432.46 1556.36 1441.85 1555.39 1451.83" fill="#455A64"/>
<path d="M1486.65 1414.85C1465.56 1396.86 1433.61 1398.59 1405.88 1399.23C1450.43 1420.46 1492.45 1446.64 1531.13 1477.29C1532.27 1457.67 1513.29 1437.6 1486.65 1414.85Z" fill="#455A64"/>
<g opacity="0.3">
<path d="M1486.65 1414.85C1465.56 1396.86 1433.61 1398.59 1405.88 1399.23C1450.43 1420.46 1492.45 1446.64 1531.13 1477.29C1532.27 1457.67 1513.29 1437.6 1486.65 1414.85Z" fill="black"/>
</g>
<path d="M1564.9 1389.99C1575.19 1382.86 1586.03 1376.55 1597.31 1371.12C1608.44 1366.11 1618.78 1358.07 1629.49 1352.26C1643.41 1344.71 1655.45 1334.26 1668.2 1324.94C1680.95 1315.63 1694.99 1307.17 1710.61 1304.72C1697.75 1302.42 1684.52 1303.18 1672.01 1306.95C1659.56 1310.69 1647.43 1315.41 1635.72 1321.06C1619.27 1328.6 1602.52 1336.15 1589.09 1348.11C1575.65 1360.07 1563.47 1371.99 1564.9 1389.99Z" fill="#455A64"/>
<path d="M1654.96 1532.22L1653.9 1531.73L1651 1530.23C1648.47 1528.9 1644.85 1526.91 1640.28 1524.6C1638.02 1523.43 1635.53 1522.19 1632.74 1520.83C1629.95 1519.47 1627.12 1518.19 1624.02 1516.83C1617.36 1513.85 1610.46 1511.45 1603.38 1509.66C1596.38 1507.72 1589.01 1507.52 1581.92 1509.1C1578.81 1509.77 1575.76 1510.68 1572.79 1511.81C1570.24 1512.85 1567.79 1514.11 1565.47 1515.59C1562.07 1517.69 1558.97 1520.23 1556.22 1523.13C1554.26 1525.21 1553.32 1526.45 1553.24 1526.41C1553.39 1526.06 1553.6 1525.73 1553.85 1525.43C1554.47 1524.51 1555.15 1523.63 1555.88 1522.79C1558.53 1519.71 1561.59 1517.01 1564.98 1514.76C1567.37 1513.21 1569.89 1511.89 1572.52 1510.8C1575.53 1509.6 1578.62 1508.65 1581.77 1507.93C1589.03 1506.24 1596.61 1506.39 1603.8 1508.38C1610.94 1510.18 1617.9 1512.63 1624.59 1515.7C1627.68 1517.1 1630.59 1518.45 1633.27 1519.81C1635.94 1521.17 1638.47 1522.42 1640.81 1523.59C1645.34 1526 1648.92 1528.11 1651.38 1529.58L1654.17 1531.28C1654.66 1531.96 1655 1532.19 1654.96 1532.22Z" fill="#263238"/>
<path d="M1517.48 1515.59C1518.21 1515.7 1518.92 1515.91 1519.59 1516.23C1521.45 1516.9 1523.27 1517.69 1525.02 1518.6C1530.9 1521.56 1536.31 1525.37 1541.06 1529.92C1545.8 1534.46 1549.84 1539.69 1553.02 1545.43C1553.99 1547.16 1554.86 1548.95 1555.62 1550.79C1555.95 1551.44 1556.18 1552.14 1556.3 1552.86C1556.11 1552.86 1554.87 1550.11 1552.3 1545.88C1545.56 1534.8 1536.02 1525.7 1524.65 1519.47C1520.12 1516.94 1517.25 1515.81 1517.48 1515.59Z" fill="#263238"/>
<path d="M1443.19 1413.15C1443.68 1413.24 1444.16 1413.38 1444.62 1413.57L1448.66 1415L1455 1417.34C1457.45 1418.28 1460.13 1419.64 1463.19 1421.11C1478.9 1428.39 1493.57 1437.74 1506.8 1448.92C1514.04 1455.12 1520.83 1461.81 1527.14 1468.95C1532.27 1474.78 1537.09 1480.88 1541.59 1487.21C1545.36 1492.65 1548.3 1497.18 1550.3 1500.27L1552.56 1504.04C1552.87 1504.43 1553.13 1504.86 1553.32 1505.32C1552.96 1504.97 1552.65 1504.58 1552.38 1504.15C1551.81 1503.4 1550.94 1502.23 1549.89 1500.68C1547.77 1497.63 1544.79 1493.14 1540.87 1487.86C1536.95 1482.57 1532.08 1476.54 1526.31 1469.82C1519.98 1462.77 1513.2 1456.14 1506.01 1449.98C1492.86 1438.8 1478.34 1429.33 1462.81 1421.79C1459.83 1420.44 1457.19 1419.04 1454.73 1418.02L1448.47 1415.49L1444.7 1413.83C1444.17 1413.66 1443.67 1413.44 1443.19 1413.15Z" fill="#263238"/>
<path d="M1605.69 1433.11C1604.78 1433.11 1603.88 1432.99 1603.01 1432.77L1599.91 1432.21C1598.74 1431.98 1597.35 1431.98 1595.8 1431.83C1587.86 1431.12 1579.87 1432.69 1572.79 1436.36C1568.91 1438.39 1565.37 1441.01 1562.3 1444.13C1559.76 1446.66 1557.51 1449.45 1555.58 1452.47C1553.83 1455.28 1552.29 1458.22 1550.98 1461.26C1551.07 1460.36 1551.3 1459.48 1551.66 1458.65C1552.49 1456.33 1553.57 1454.11 1554.87 1452.01C1556.71 1448.86 1558.96 1445.95 1561.54 1443.37C1564.62 1440.1 1568.23 1437.37 1572.22 1435.3C1579.5 1431.52 1587.74 1430.01 1595.88 1430.96C1597.42 1431.19 1598.86 1431.26 1600.03 1431.57L1603.12 1432.32C1604 1432.5 1604.86 1432.77 1605.69 1433.11Z" fill="#263238"/>
<path d="M1639.34 1328.53C1638.97 1328.86 1638.55 1329.12 1638.1 1329.32L1634.32 1331.36C1631.04 1333.09 1626.36 1335.7 1620.7 1338.9C1615.04 1342.11 1608.37 1346.45 1601.27 1351.51C1593.54 1356.93 1586.29 1363.01 1579.62 1369.69C1576.17 1373.05 1573.19 1376.86 1570.75 1381.01C1568.56 1385.2 1566.45 1389.27 1564.52 1393.2C1561.06 1400.1 1557.97 1407.17 1555.24 1414.4C1553.43 1419.27 1551.9 1424.25 1550.68 1429.3C1550.35 1431.18 1549.92 1433.05 1549.4 1434.89C1549.36 1434.4 1549.36 1433.9 1549.4 1433.41C1549.4 1432.43 1549.62 1431.04 1550.07 1429.23C1551.13 1424.11 1552.53 1419.07 1554.26 1414.13C1556.89 1406.83 1559.94 1399.69 1563.39 1392.74C1565.32 1388.97 1567.39 1384.71 1569.58 1380.48C1572.05 1376.18 1575.08 1372.24 1578.6 1368.75C1585.32 1362.02 1592.65 1355.92 1600.48 1350.52C1607.65 1345.47 1614.4 1341.36 1620.14 1338.04C1625.87 1334.72 1630.62 1332.3 1633.94 1330.68L1637.72 1328.83L1639.34 1328.53Z" fill="#263238"/>
<path d="M1545.4 1429.98C1545.08 1429.06 1544.87 1428.11 1544.75 1427.15C1544.34 1425.11 1543.85 1422.51 1543.28 1419.42C1540.16 1402.38 1534.8 1385.82 1527.36 1370.18L1524.12 1363.01C1523.64 1362.16 1523.28 1361.24 1523.02 1360.3C1523.61 1361.07 1524.11 1361.91 1524.53 1362.79C1525.4 1364.45 1526.65 1366.82 1528.31 1369.8C1532.19 1377.59 1535.51 1385.65 1538.23 1393.91C1540.87 1402.2 1542.89 1410.68 1544.26 1419.27C1544.79 1422.59 1545.17 1425.23 1545.36 1427.11C1545.46 1428.07 1545.48 1429.03 1545.4 1429.98Z" fill="#263238"/>
<path d="M1542.98 1353.88C1541.93 1341.19 1538.21 1328.86 1532.08 1317.7C1523.82 1302.33 1512.3 1288.96 1498.32 1278.53C1484.33 1268.11 1468.23 1260.87 1451.15 1257.34L1526.08 1368.97L1535.78 1388.93C1541.83 1378.31 1544.36 1366.03 1542.98 1353.88Z" fill="#455A64"/>
<path d="M1668.99 1548.41H1457.98V1585.8H1668.99V1548.41Z" fill="#6299EB"/>
<path d="M1473.75 1578.37L1502.05 1694.42H1631.79L1653.22 1578.37H1473.75Z" fill="#6299EB"/>
<path d="M1668.88 1585.84C1668.88 1586.25 1621.27 1586.59 1562.6 1586.59C1503.93 1586.59 1456.28 1586.25 1456.28 1585.84C1456.28 1585.42 1503.86 1585.08 1562.6 1585.08C1621.34 1585.08 1668.88 1585.42 1668.88 1585.84Z" fill="#263238"/>
</svg>
