<svg width="1032" height="340" viewBox="0 0 1032 340" fill="none" xmlns="http://www.w3.org/2000/svg">
<g filter="url(#filter0_d_105_363)">
<rect x="9" y="6" width="959" height="90" rx="9" fill="white"/>
</g>
<path d="M43.0359 50.624C43.0359 48.992 43.4039 47.528 44.1399 46.232C44.8759 44.92 45.8759 43.896 47.1399 43.16C48.4199 42.424 49.8359 42.056 51.3879 42.056C53.2119 42.056 54.8039 42.496 56.1639 43.376C57.5239 44.256 58.5159 45.504 59.1399 47.12H56.5239C56.0599 46.112 55.3879 45.336 54.5079 44.792C53.6439 44.248 52.6039 43.976 51.3879 43.976C50.2199 43.976 49.1719 44.248 48.2439 44.792C47.3159 45.336 46.5879 46.112 46.0599 47.12C45.5319 48.112 45.2679 49.28 45.2679 50.624C45.2679 51.952 45.5319 53.12 46.0599 54.128C46.5879 55.12 47.3159 55.888 48.2439 56.432C49.1719 56.976 50.2199 57.248 51.3879 57.248C52.6039 57.248 53.6439 56.984 54.5079 56.456C55.3879 55.912 56.0599 55.136 56.5239 54.128H59.1399C58.5159 55.728 57.5239 56.968 56.1639 57.848C54.8039 58.712 53.2119 59.144 51.3879 59.144C49.8359 59.144 48.4199 58.784 47.1399 58.064C45.8759 57.328 44.8759 56.312 44.1399 55.016C43.4039 53.72 43.0359 52.256 43.0359 50.624ZM68.919 45.608C69.911 45.608 70.807 45.824 71.607 46.256C72.407 46.672 73.031 47.304 73.479 48.152C73.943 49 74.175 50.032 74.175 51.248V59H72.015V51.56C72.015 50.248 71.687 49.248 71.031 48.56C70.375 47.856 69.479 47.504 68.343 47.504C67.191 47.504 66.271 47.864 65.583 48.584C64.911 49.304 64.575 50.352 64.575 51.728V59H62.391V41.24H64.575V47.72C65.007 47.048 65.599 46.528 66.351 46.16C67.119 45.792 67.975 45.608 68.919 45.608ZM76.9265 52.376C76.9265 51.032 77.1985 49.856 77.7425 48.848C78.2865 47.824 79.0305 47.032 79.9745 46.472C80.9345 45.912 81.9985 45.632 83.1665 45.632C84.3185 45.632 85.3185 45.88 86.1665 46.376C87.0145 46.872 87.6465 47.496 88.0625 48.248V45.848H90.2705V59H88.0625V56.552C87.6305 57.32 86.9825 57.96 86.1185 58.472C85.2705 58.968 84.2785 59.216 83.1425 59.216C81.9745 59.216 80.9185 58.928 79.9745 58.352C79.0305 57.776 78.2865 56.968 77.7425 55.928C77.1985 54.888 76.9265 53.704 76.9265 52.376ZM88.0625 52.4C88.0625 51.408 87.8625 50.544 87.4625 49.808C87.0625 49.072 86.5185 48.512 85.8305 48.128C85.1585 47.728 84.4145 47.528 83.5985 47.528C82.7825 47.528 82.0385 47.72 81.3665 48.104C80.6945 48.488 80.1585 49.048 79.7585 49.784C79.3585 50.52 79.1585 51.384 79.1585 52.376C79.1585 53.384 79.3585 54.264 79.7585 55.016C80.1585 55.752 80.6945 56.32 81.3665 56.72C82.0385 57.104 82.7825 57.296 83.5985 57.296C84.4145 57.296 85.1585 57.104 85.8305 56.72C86.5185 56.32 87.0625 55.752 87.4625 55.016C87.8625 54.264 88.0625 53.392 88.0625 52.4ZM96.1453 48.272C96.5773 47.52 97.2173 46.896 98.0653 46.4C98.9293 45.888 99.9293 45.632 101.065 45.632C102.233 45.632 103.289 45.912 104.233 46.472C105.193 47.032 105.945 47.824 106.489 48.848C107.033 49.856 107.305 51.032 107.305 52.376C107.305 53.704 107.033 54.888 106.489 55.928C105.945 56.968 105.193 57.776 104.233 58.352C103.289 58.928 102.233 59.216 101.065 59.216C99.9453 59.216 98.9533 58.968 98.0893 58.472C97.2413 57.96 96.5933 57.328 96.1453 56.576V65.24H93.9613V45.848H96.1453V48.272ZM105.073 52.376C105.073 51.384 104.873 50.52 104.473 49.784C104.073 49.048 103.529 48.488 102.841 48.104C102.169 47.72 101.425 47.528 100.609 47.528C99.8093 47.528 99.0653 47.728 98.3773 48.128C97.7053 48.512 97.1613 49.08 96.7453 49.832C96.3453 50.568 96.1453 51.424 96.1453 52.4C96.1453 53.392 96.3453 54.264 96.7453 55.016C97.1613 55.752 97.7053 56.32 98.3773 56.72C99.0653 57.104 99.8093 57.296 100.609 57.296C101.425 57.296 102.169 57.104 102.841 56.72C103.529 56.32 104.073 55.752 104.473 55.016C104.873 54.264 105.073 53.384 105.073 52.376ZM112.844 47.648V55.4C112.844 56.04 112.98 56.496 113.252 56.768C113.524 57.024 113.996 57.152 114.668 57.152H116.276V59H114.308C113.092 59 112.18 58.72 111.572 58.16C110.964 57.6 110.66 56.68 110.66 55.4V47.648H108.956V45.848H110.66V42.536H112.844V45.848H116.276V47.648H112.844ZM130.922 51.92C130.922 52.336 130.898 52.776 130.85 53.24H120.338C120.418 54.536 120.858 55.552 121.658 56.288C122.474 57.008 123.458 57.368 124.61 57.368C125.554 57.368 126.338 57.152 126.962 56.72C127.602 56.272 128.05 55.68 128.306 54.944H130.658C130.306 56.208 129.602 57.24 128.546 58.04C127.49 58.824 126.178 59.216 124.61 59.216C123.362 59.216 122.242 58.936 121.25 58.376C120.274 57.816 119.506 57.024 118.946 56C118.386 54.96 118.106 53.76 118.106 52.4C118.106 51.04 118.378 49.848 118.922 48.824C119.466 47.8 120.226 47.016 121.202 46.472C122.194 45.912 123.33 45.632 124.61 45.632C125.858 45.632 126.962 45.904 127.922 46.448C128.882 46.992 129.618 47.744 130.13 48.704C130.658 49.648 130.922 50.72 130.922 51.92ZM128.666 51.464C128.666 50.632 128.482 49.92 128.114 49.328C127.746 48.72 127.242 48.264 126.602 47.96C125.978 47.64 125.282 47.48 124.514 47.48C123.41 47.48 122.466 47.832 121.682 48.536C120.914 49.24 120.474 50.216 120.362 51.464H128.666ZM135.989 47.984C136.373 47.232 136.917 46.648 137.621 46.232C138.341 45.816 139.213 45.608 140.237 45.608V47.864H139.661C137.213 47.864 135.989 49.192 135.989 51.848V59H133.805V45.848H135.989V47.984ZM148.221 43.64V41.648H152.733V59H150.525V43.64H148.221Z" fill="#4E5662"/>
<path d="M323.314 48.735C323.094 47.625 322.409 47.07 321.259 47.07C320.369 47.07 319.704 47.415 319.264 48.105C318.824 48.785 318.609 49.91 318.619 51.48C318.849 50.96 319.229 50.555 319.759 50.265C320.299 49.965 320.899 49.815 321.559 49.815C322.589 49.815 323.409 50.135 324.019 50.775C324.639 51.415 324.949 52.3 324.949 53.43C324.949 54.11 324.814 54.72 324.544 55.26C324.284 55.8 323.884 56.23 323.344 56.55C322.814 56.87 322.169 57.03 321.409 57.03C320.379 57.03 319.574 56.8 318.994 56.34C318.414 55.88 318.009 55.245 317.779 54.435C317.549 53.625 317.434 52.625 317.434 51.435C317.434 47.765 318.714 45.93 321.274 45.93C322.254 45.93 323.024 46.195 323.584 46.725C324.144 47.255 324.474 47.925 324.574 48.735H323.314ZM321.274 50.97C320.844 50.97 320.439 51.06 320.059 51.24C319.679 51.41 319.369 51.675 319.129 52.035C318.899 52.385 318.784 52.815 318.784 53.325C318.784 54.085 319.004 54.705 319.444 55.185C319.884 55.655 320.514 55.89 321.334 55.89C322.034 55.89 322.589 55.675 322.999 55.245C323.419 54.805 323.629 54.215 323.629 53.475C323.629 52.695 323.429 52.085 323.029 51.645C322.629 51.195 322.044 50.97 321.274 50.97ZM326.79 51.465C326.79 49.745 327.07 48.405 327.63 47.445C328.19 46.475 329.17 45.99 330.57 45.99C331.96 45.99 332.935 46.475 333.495 47.445C334.055 48.405 334.335 49.745 334.335 51.465C334.335 53.215 334.055 54.575 333.495 55.545C332.935 56.515 331.96 57 330.57 57C329.17 57 328.19 56.515 327.63 55.545C327.07 54.575 326.79 53.215 326.79 51.465ZM332.985 51.465C332.985 50.595 332.925 49.86 332.805 49.26C332.695 48.65 332.46 48.16 332.1 47.79C331.75 47.42 331.24 47.235 330.57 47.235C329.89 47.235 329.37 47.42 329.01 47.79C328.66 48.16 328.425 48.65 328.305 49.26C328.195 49.86 328.14 50.595 328.14 51.465C328.14 52.365 328.195 53.12 328.305 53.73C328.425 54.34 328.66 54.83 329.01 55.2C329.37 55.57 329.89 55.755 330.57 55.755C331.24 55.755 331.75 55.57 332.1 55.2C332.46 54.83 332.695 54.34 332.805 53.73C332.925 53.12 332.985 52.365 332.985 51.465ZM335.909 48.6C335.909 47.92 336.114 47.38 336.524 46.98C336.934 46.57 337.459 46.365 338.099 46.365C338.739 46.365 339.264 46.57 339.674 46.98C340.084 47.38 340.289 47.92 340.289 48.6C340.289 49.29 340.084 49.84 339.674 50.25C339.264 50.65 338.739 50.85 338.099 50.85C337.459 50.85 336.934 50.65 336.524 50.25C336.114 49.84 335.909 49.29 335.909 48.6ZM344.669 46.53L338.594 57H337.244L343.319 46.53H344.669ZM338.099 47.205C337.759 47.205 337.489 47.325 337.289 47.565C337.099 47.795 337.004 48.14 337.004 48.6C337.004 49.06 337.099 49.41 337.289 49.65C337.489 49.89 337.759 50.01 338.099 50.01C338.439 50.01 338.709 49.89 338.909 49.65C339.109 49.4 339.209 49.05 339.209 48.6C339.209 48.14 339.109 47.795 338.909 47.565C338.709 47.325 338.439 47.205 338.099 47.205ZM341.654 54.93C341.654 54.24 341.859 53.695 342.269 53.295C342.679 52.885 343.204 52.68 343.844 52.68C344.484 52.68 345.004 52.885 345.404 53.295C345.814 53.695 346.019 54.24 346.019 54.93C346.019 55.61 345.814 56.155 345.404 56.565C345.004 56.975 344.484 57.18 343.844 57.18C343.204 57.18 342.679 56.98 342.269 56.58C341.859 56.17 341.654 55.62 341.654 54.93ZM343.829 53.535C343.489 53.535 343.219 53.655 343.019 53.895C342.819 54.125 342.719 54.47 342.719 54.93C342.719 55.38 342.819 55.725 343.019 55.965C343.219 56.195 343.489 56.31 343.829 56.31C344.169 56.31 344.439 56.195 344.639 55.965C344.839 55.725 344.939 55.38 344.939 54.93C344.939 54.47 344.839 54.125 344.639 53.895C344.439 53.655 344.169 53.535 343.829 53.535Z" fill="#94D1B4"/>
<rect x="357" y="48" width="304" height="8" rx="4" fill="#F5F8FD"/>
<rect x="357" y="48" width="172" height="8" rx="4" fill="#94D1B4"/>
<rect x="792" y="35" width="96" height="32" rx="5" fill="#6299EB"/>
<path d="M816.984 46.576V48.22H814.752V55H812.7V48.22H810.468V46.576H816.984ZM817.606 51.64C817.606 50.952 817.734 50.348 817.99 49.828C818.254 49.308 818.61 48.908 819.058 48.628C819.506 48.348 820.006 48.208 820.558 48.208C821.03 48.208 821.442 48.304 821.794 48.496C822.154 48.688 822.43 48.94 822.622 49.252V48.304H824.674V55H822.622V54.052C822.422 54.364 822.142 54.616 821.782 54.808C821.43 55 821.018 55.096 820.546 55.096C820.002 55.096 819.506 54.956 819.058 54.676C818.61 54.388 818.254 53.984 817.99 53.464C817.734 52.936 817.606 52.328 817.606 51.64ZM822.622 51.652C822.622 51.14 822.478 50.736 822.19 50.44C821.91 50.144 821.566 49.996 821.158 49.996C820.75 49.996 820.402 50.144 820.114 50.44C819.834 50.728 819.694 51.128 819.694 51.64C819.694 52.152 819.834 52.56 820.114 52.864C820.402 53.16 820.75 53.308 821.158 53.308C821.566 53.308 821.91 53.16 822.19 52.864C822.478 52.568 822.622 52.164 822.622 51.652ZM830.25 55L828.21 52.192V55H826.158V46.12H828.21V51.028L830.238 48.304H832.77L829.986 51.664L832.794 55H830.25ZM839.888 51.544C839.888 51.736 839.876 51.936 839.852 52.144H835.208C835.24 52.56 835.372 52.88 835.604 53.104C835.844 53.32 836.136 53.428 836.48 53.428C836.992 53.428 837.348 53.212 837.548 52.78H839.732C839.62 53.22 839.416 53.616 839.12 53.968C838.832 54.32 838.468 54.596 838.028 54.796C837.588 54.996 837.096 55.096 836.552 55.096C835.896 55.096 835.312 54.956 834.8 54.676C834.288 54.396 833.888 53.996 833.6 53.476C833.312 52.956 833.168 52.348 833.168 51.652C833.168 50.956 833.308 50.348 833.588 49.828C833.876 49.308 834.276 48.908 834.788 48.628C835.3 48.348 835.888 48.208 836.552 48.208C837.2 48.208 837.776 48.344 838.28 48.616C838.784 48.888 839.176 49.276 839.456 49.78C839.744 50.284 839.888 50.872 839.888 51.544ZM837.788 51.004C837.788 50.652 837.668 50.372 837.428 50.164C837.188 49.956 836.888 49.852 836.528 49.852C836.184 49.852 835.892 49.952 835.652 50.152C835.42 50.352 835.276 50.636 835.22 51.004H837.788ZM849.574 46.576V48.22H847.342V55H845.29V48.22H843.058V46.576H849.574ZM856.915 51.544C856.915 51.736 856.903 51.936 856.879 52.144H852.235C852.267 52.56 852.399 52.88 852.631 53.104C852.871 53.32 853.163 53.428 853.507 53.428C854.019 53.428 854.375 53.212 854.575 52.78H856.759C856.647 53.22 856.443 53.616 856.147 53.968C855.859 54.32 855.495 54.596 855.055 54.796C854.615 54.996 854.123 55.096 853.579 55.096C852.923 55.096 852.339 54.956 851.827 54.676C851.315 54.396 850.915 53.996 850.627 53.476C850.339 52.956 850.195 52.348 850.195 51.652C850.195 50.956 850.335 50.348 850.615 49.828C850.903 49.308 851.303 48.908 851.815 48.628C852.327 48.348 852.915 48.208 853.579 48.208C854.227 48.208 854.803 48.344 855.307 48.616C855.811 48.888 856.203 49.276 856.483 49.78C856.771 50.284 856.915 50.872 856.915 51.544ZM854.815 51.004C854.815 50.652 854.695 50.372 854.455 50.164C854.215 49.956 853.915 49.852 853.555 49.852C853.211 49.852 852.919 49.952 852.679 50.152C852.447 50.352 852.303 50.636 852.247 51.004H854.815ZM860.722 55.096C860.138 55.096 859.618 54.996 859.162 54.796C858.706 54.596 858.346 54.324 858.082 53.98C857.818 53.628 857.67 53.236 857.638 52.804H859.666C859.69 53.036 859.798 53.224 859.99 53.368C860.182 53.512 860.418 53.584 860.698 53.584C860.954 53.584 861.15 53.536 861.286 53.44C861.43 53.336 861.502 53.204 861.502 53.044C861.502 52.852 861.402 52.712 861.202 52.624C861.002 52.528 860.678 52.424 860.23 52.312C859.75 52.2 859.35 52.084 859.03 51.964C858.71 51.836 858.434 51.64 858.202 51.376C857.97 51.104 857.854 50.74 857.854 50.284C857.854 49.9 857.958 49.552 858.166 49.24C858.382 48.92 858.694 48.668 859.102 48.484C859.518 48.3 860.01 48.208 860.578 48.208C861.418 48.208 862.078 48.416 862.558 48.832C863.046 49.248 863.326 49.8 863.398 50.488H861.502C861.47 50.256 861.366 50.072 861.19 49.936C861.022 49.8 860.798 49.732 860.518 49.732C860.278 49.732 860.094 49.78 859.966 49.876C859.838 49.964 859.774 50.088 859.774 50.248C859.774 50.44 859.874 50.584 860.074 50.68C860.282 50.776 860.602 50.872 861.034 50.968C861.53 51.096 861.934 51.224 862.246 51.352C862.558 51.472 862.83 51.672 863.062 51.952C863.302 52.224 863.426 52.592 863.434 53.056C863.434 53.448 863.322 53.8 863.098 54.112C862.882 54.416 862.566 54.656 862.15 54.832C861.742 55.008 861.266 55.096 860.722 55.096ZM868.421 53.26V55H867.377C866.633 55 866.053 54.82 865.637 54.46C865.221 54.092 865.013 53.496 865.013 52.672V50.008H864.197V48.304H865.013V46.672H867.065V48.304H868.409V50.008H867.065V52.696C867.065 52.896 867.113 53.04 867.209 53.128C867.305 53.216 867.465 53.26 867.689 53.26H868.421Z" fill="white"/>
<path d="M924.821 51.5L931.536 58.2747C932.155 58.8982 932.155 59.909 931.536 60.5324C930.918 61.1559 929.916 61.1559 929.298 60.5324L921.464 52.629C920.845 52.0055 920.845 50.9945 921.464 50.371L929.298 42.4676C929.916 41.8441 930.918 41.8441 931.536 42.4676C932.155 43.091 932.155 44.1018 931.536 44.7253L924.821 51.5Z" fill="#B3BAC5"/>
<g filter="url(#filter1_d_105_363)">
<rect x="9" y="121" width="959" height="90" rx="9" fill="white"/>
</g>
<path d="M39.4773 165.624C39.4773 163.992 39.8453 162.528 40.5813 161.232C41.3173 159.92 42.3173 158.896 43.5813 158.16C44.8613 157.424 46.2773 157.056 47.8293 157.056C49.6533 157.056 51.2453 157.496 52.6053 158.376C53.9653 159.256 54.9573 160.504 55.5813 162.12H52.9653C52.5013 161.112 51.8293 160.336 50.9493 159.792C50.0853 159.248 49.0453 158.976 47.8293 158.976C46.6613 158.976 45.6133 159.248 44.6853 159.792C43.7573 160.336 43.0293 161.112 42.5013 162.12C41.9733 163.112 41.7093 164.28 41.7093 165.624C41.7093 166.952 41.9733 168.12 42.5013 169.128C43.0293 170.12 43.7573 170.888 44.6853 171.432C45.6133 171.976 46.6613 172.248 47.8293 172.248C49.0453 172.248 50.0853 171.984 50.9493 171.456C51.8293 170.912 52.5013 170.136 52.9653 169.128H55.5813C54.9573 170.728 53.9653 171.968 52.6053 172.848C51.2453 173.712 49.6533 174.144 47.8293 174.144C46.2773 174.144 44.8613 173.784 43.5813 173.064C42.3173 172.328 41.3173 171.312 40.5813 170.016C39.8453 168.72 39.4773 167.256 39.4773 165.624ZM65.3604 160.608C66.3524 160.608 67.2484 160.824 68.0484 161.256C68.8484 161.672 69.4724 162.304 69.9204 163.152C70.3844 164 70.6164 165.032 70.6164 166.248V174H68.4564V166.56C68.4564 165.248 68.1284 164.248 67.4724 163.56C66.8164 162.856 65.9204 162.504 64.7844 162.504C63.6324 162.504 62.7124 162.864 62.0244 163.584C61.3524 164.304 61.0164 165.352 61.0164 166.728V174H58.8324V156.24H61.0164V162.72C61.4484 162.048 62.0404 161.528 62.7924 161.16C63.5604 160.792 64.4164 160.608 65.3604 160.608ZM73.3679 167.376C73.3679 166.032 73.6399 164.856 74.1839 163.848C74.7279 162.824 75.4719 162.032 76.4159 161.472C77.3759 160.912 78.4399 160.632 79.6079 160.632C80.7599 160.632 81.7599 160.88 82.6079 161.376C83.4559 161.872 84.0879 162.496 84.5039 163.248V160.848H86.7119V174H84.5039V171.552C84.0719 172.32 83.4239 172.96 82.5599 173.472C81.7119 173.968 80.7199 174.216 79.5839 174.216C78.4159 174.216 77.3599 173.928 76.4159 173.352C75.4719 172.776 74.7279 171.968 74.1839 170.928C73.6399 169.888 73.3679 168.704 73.3679 167.376ZM84.5039 167.4C84.5039 166.408 84.3039 165.544 83.9039 164.808C83.5039 164.072 82.9599 163.512 82.2719 163.128C81.5999 162.728 80.8559 162.528 80.0399 162.528C79.2239 162.528 78.4799 162.72 77.8079 163.104C77.1359 163.488 76.5999 164.048 76.1999 164.784C75.7999 165.52 75.5999 166.384 75.5999 167.376C75.5999 168.384 75.7999 169.264 76.1999 170.016C76.5999 170.752 77.1359 171.32 77.8079 171.72C78.4799 172.104 79.2239 172.296 80.0399 172.296C80.8559 172.296 81.5999 172.104 82.2719 171.72C82.9599 171.32 83.5039 170.752 83.9039 170.016C84.3039 169.264 84.5039 168.392 84.5039 167.4ZM92.5867 163.272C93.0187 162.52 93.6587 161.896 94.5067 161.4C95.3707 160.888 96.3707 160.632 97.5067 160.632C98.6747 160.632 99.7307 160.912 100.675 161.472C101.635 162.032 102.387 162.824 102.931 163.848C103.475 164.856 103.747 166.032 103.747 167.376C103.747 168.704 103.475 169.888 102.931 170.928C102.387 171.968 101.635 172.776 100.675 173.352C99.7307 173.928 98.6747 174.216 97.5067 174.216C96.3867 174.216 95.3947 173.968 94.5307 173.472C93.6827 172.96 93.0347 172.328 92.5867 171.576V180.24H90.4027V160.848H92.5867V163.272ZM101.515 167.376C101.515 166.384 101.315 165.52 100.915 164.784C100.515 164.048 99.9707 163.488 99.2827 163.104C98.6107 162.72 97.8667 162.528 97.0507 162.528C96.2507 162.528 95.5067 162.728 94.8187 163.128C94.1467 163.512 93.6027 164.08 93.1867 164.832C92.7867 165.568 92.5867 166.424 92.5867 167.4C92.5867 168.392 92.7867 169.264 93.1867 170.016C93.6027 170.752 94.1467 171.32 94.8187 171.72C95.5067 172.104 96.2507 172.296 97.0507 172.296C97.8667 172.296 98.6107 172.104 99.2827 171.72C99.9707 171.32 100.515 170.752 100.915 170.016C101.315 169.264 101.515 168.384 101.515 167.376ZM109.285 162.648V170.4C109.285 171.04 109.421 171.496 109.693 171.768C109.965 172.024 110.437 172.152 111.109 172.152H112.717V174H110.749C109.533 174 108.621 173.72 108.013 173.16C107.405 172.6 107.101 171.68 107.101 170.4V162.648H105.397V160.848H107.101V157.536H109.285V160.848H112.717V162.648H109.285ZM127.364 166.92C127.364 167.336 127.34 167.776 127.292 168.24H116.78C116.86 169.536 117.3 170.552 118.1 171.288C118.916 172.008 119.9 172.368 121.052 172.368C121.996 172.368 122.78 172.152 123.404 171.72C124.044 171.272 124.492 170.68 124.748 169.944H127.1C126.748 171.208 126.044 172.24 124.988 173.04C123.932 173.824 122.62 174.216 121.052 174.216C119.804 174.216 118.684 173.936 117.692 173.376C116.716 172.816 115.948 172.024 115.388 171C114.828 169.96 114.548 168.76 114.548 167.4C114.548 166.04 114.82 164.848 115.364 163.824C115.908 162.8 116.668 162.016 117.644 161.472C118.636 160.912 119.772 160.632 121.052 160.632C122.3 160.632 123.404 160.904 124.364 161.448C125.324 161.992 126.06 162.744 126.572 163.704C127.1 164.648 127.364 165.72 127.364 166.92ZM125.108 166.464C125.108 165.632 124.924 164.92 124.556 164.328C124.188 163.72 123.684 163.264 123.044 162.96C122.42 162.64 121.724 162.48 120.956 162.48C119.852 162.48 118.908 162.832 118.124 163.536C117.356 164.24 116.916 165.216 116.804 166.464H125.108ZM132.43 162.984C132.814 162.232 133.358 161.648 134.062 161.232C134.782 160.816 135.654 160.608 136.678 160.608V162.864H136.102C133.654 162.864 132.43 164.192 132.43 166.848V174H130.246V160.848H132.43V162.984ZM144.974 172.248C147.006 170.616 148.598 169.28 149.75 168.24C150.902 167.184 151.87 166.088 152.654 164.952C153.454 163.8 153.854 162.672 153.854 161.568C153.854 160.528 153.598 159.712 153.086 159.12C152.59 158.512 151.782 158.208 150.662 158.208C149.574 158.208 148.726 158.552 148.118 159.24C147.526 159.912 147.206 160.816 147.158 161.952H145.046C145.11 160.16 145.654 158.776 146.678 157.8C147.702 156.824 149.022 156.336 150.638 156.336C152.286 156.336 153.59 156.792 154.55 157.704C155.526 158.616 156.014 159.872 156.014 161.472C156.014 162.8 155.614 164.096 154.814 165.36C154.03 166.608 153.134 167.712 152.126 168.672C151.118 169.616 149.83 170.72 148.262 171.984H156.518V173.808H144.974V172.248Z" fill="#4E5662"/>
<path d="M323.314 163.735C323.094 162.625 322.409 162.07 321.259 162.07C320.369 162.07 319.704 162.415 319.264 163.105C318.824 163.785 318.609 164.91 318.619 166.48C318.849 165.96 319.229 165.555 319.759 165.265C320.299 164.965 320.899 164.815 321.559 164.815C322.589 164.815 323.409 165.135 324.019 165.775C324.639 166.415 324.949 167.3 324.949 168.43C324.949 169.11 324.814 169.72 324.544 170.26C324.284 170.8 323.884 171.23 323.344 171.55C322.814 171.87 322.169 172.03 321.409 172.03C320.379 172.03 319.574 171.8 318.994 171.34C318.414 170.88 318.009 170.245 317.779 169.435C317.549 168.625 317.434 167.625 317.434 166.435C317.434 162.765 318.714 160.93 321.274 160.93C322.254 160.93 323.024 161.195 323.584 161.725C324.144 162.255 324.474 162.925 324.574 163.735H323.314ZM321.274 165.97C320.844 165.97 320.439 166.06 320.059 166.24C319.679 166.41 319.369 166.675 319.129 167.035C318.899 167.385 318.784 167.815 318.784 168.325C318.784 169.085 319.004 169.705 319.444 170.185C319.884 170.655 320.514 170.89 321.334 170.89C322.034 170.89 322.589 170.675 322.999 170.245C323.419 169.805 323.629 169.215 323.629 168.475C323.629 167.695 323.429 167.085 323.029 166.645C322.629 166.195 322.044 165.97 321.274 165.97ZM326.79 166.465C326.79 164.745 327.07 163.405 327.63 162.445C328.19 161.475 329.17 160.99 330.57 160.99C331.96 160.99 332.935 161.475 333.495 162.445C334.055 163.405 334.335 164.745 334.335 166.465C334.335 168.215 334.055 169.575 333.495 170.545C332.935 171.515 331.96 172 330.57 172C329.17 172 328.19 171.515 327.63 170.545C327.07 169.575 326.79 168.215 326.79 166.465ZM332.985 166.465C332.985 165.595 332.925 164.86 332.805 164.26C332.695 163.65 332.46 163.16 332.1 162.79C331.75 162.42 331.24 162.235 330.57 162.235C329.89 162.235 329.37 162.42 329.01 162.79C328.66 163.16 328.425 163.65 328.305 164.26C328.195 164.86 328.14 165.595 328.14 166.465C328.14 167.365 328.195 168.12 328.305 168.73C328.425 169.34 328.66 169.83 329.01 170.2C329.37 170.57 329.89 170.755 330.57 170.755C331.24 170.755 331.75 170.57 332.1 170.2C332.46 169.83 332.695 169.34 332.805 168.73C332.925 168.12 332.985 167.365 332.985 166.465ZM335.909 163.6C335.909 162.92 336.114 162.38 336.524 161.98C336.934 161.57 337.459 161.365 338.099 161.365C338.739 161.365 339.264 161.57 339.674 161.98C340.084 162.38 340.289 162.92 340.289 163.6C340.289 164.29 340.084 164.84 339.674 165.25C339.264 165.65 338.739 165.85 338.099 165.85C337.459 165.85 336.934 165.65 336.524 165.25C336.114 164.84 335.909 164.29 335.909 163.6ZM344.669 161.53L338.594 172H337.244L343.319 161.53H344.669ZM338.099 162.205C337.759 162.205 337.489 162.325 337.289 162.565C337.099 162.795 337.004 163.14 337.004 163.6C337.004 164.06 337.099 164.41 337.289 164.65C337.489 164.89 337.759 165.01 338.099 165.01C338.439 165.01 338.709 164.89 338.909 164.65C339.109 164.4 339.209 164.05 339.209 163.6C339.209 163.14 339.109 162.795 338.909 162.565C338.709 162.325 338.439 162.205 338.099 162.205ZM341.654 169.93C341.654 169.24 341.859 168.695 342.269 168.295C342.679 167.885 343.204 167.68 343.844 167.68C344.484 167.68 345.004 167.885 345.404 168.295C345.814 168.695 346.019 169.24 346.019 169.93C346.019 170.61 345.814 171.155 345.404 171.565C345.004 171.975 344.484 172.18 343.844 172.18C343.204 172.18 342.679 171.98 342.269 171.58C341.859 171.17 341.654 170.62 341.654 169.93ZM343.829 168.535C343.489 168.535 343.219 168.655 343.019 168.895C342.819 169.125 342.719 169.47 342.719 169.93C342.719 170.38 342.819 170.725 343.019 170.965C343.219 171.195 343.489 171.31 343.829 171.31C344.169 171.31 344.439 171.195 344.639 170.965C344.839 170.725 344.939 170.38 344.939 169.93C344.939 169.47 344.839 169.125 344.639 168.895C344.439 168.655 344.169 168.535 343.829 168.535Z" fill="#94D1B4"/>
<rect x="357" y="163" width="304" height="8" rx="4" fill="#F5F8FD"/>
<rect x="357" y="163" width="172" height="8" rx="4" fill="#94D1B4"/>
<rect x="792" y="150" width="96" height="32" rx="5" fill="#6299EB"/>
<path d="M816.984 161.576V163.22H814.752V170H812.7V163.22H810.468V161.576H816.984ZM817.606 166.64C817.606 165.952 817.734 165.348 817.99 164.828C818.254 164.308 818.61 163.908 819.058 163.628C819.506 163.348 820.006 163.208 820.558 163.208C821.03 163.208 821.442 163.304 821.794 163.496C822.154 163.688 822.43 163.94 822.622 164.252V163.304H824.674V170H822.622V169.052C822.422 169.364 822.142 169.616 821.782 169.808C821.43 170 821.018 170.096 820.546 170.096C820.002 170.096 819.506 169.956 819.058 169.676C818.61 169.388 818.254 168.984 817.99 168.464C817.734 167.936 817.606 167.328 817.606 166.64ZM822.622 166.652C822.622 166.14 822.478 165.736 822.19 165.44C821.91 165.144 821.566 164.996 821.158 164.996C820.75 164.996 820.402 165.144 820.114 165.44C819.834 165.728 819.694 166.128 819.694 166.64C819.694 167.152 819.834 167.56 820.114 167.864C820.402 168.16 820.75 168.308 821.158 168.308C821.566 168.308 821.91 168.16 822.19 167.864C822.478 167.568 822.622 167.164 822.622 166.652ZM830.25 170L828.21 167.192V170H826.158V161.12H828.21V166.028L830.238 163.304H832.77L829.986 166.664L832.794 170H830.25ZM839.888 166.544C839.888 166.736 839.876 166.936 839.852 167.144H835.208C835.24 167.56 835.372 167.88 835.604 168.104C835.844 168.32 836.136 168.428 836.48 168.428C836.992 168.428 837.348 168.212 837.548 167.78H839.732C839.62 168.22 839.416 168.616 839.12 168.968C838.832 169.32 838.468 169.596 838.028 169.796C837.588 169.996 837.096 170.096 836.552 170.096C835.896 170.096 835.312 169.956 834.8 169.676C834.288 169.396 833.888 168.996 833.6 168.476C833.312 167.956 833.168 167.348 833.168 166.652C833.168 165.956 833.308 165.348 833.588 164.828C833.876 164.308 834.276 163.908 834.788 163.628C835.3 163.348 835.888 163.208 836.552 163.208C837.2 163.208 837.776 163.344 838.28 163.616C838.784 163.888 839.176 164.276 839.456 164.78C839.744 165.284 839.888 165.872 839.888 166.544ZM837.788 166.004C837.788 165.652 837.668 165.372 837.428 165.164C837.188 164.956 836.888 164.852 836.528 164.852C836.184 164.852 835.892 164.952 835.652 165.152C835.42 165.352 835.276 165.636 835.22 166.004H837.788ZM849.574 161.576V163.22H847.342V170H845.29V163.22H843.058V161.576H849.574ZM856.915 166.544C856.915 166.736 856.903 166.936 856.879 167.144H852.235C852.267 167.56 852.399 167.88 852.631 168.104C852.871 168.32 853.163 168.428 853.507 168.428C854.019 168.428 854.375 168.212 854.575 167.78H856.759C856.647 168.22 856.443 168.616 856.147 168.968C855.859 169.32 855.495 169.596 855.055 169.796C854.615 169.996 854.123 170.096 853.579 170.096C852.923 170.096 852.339 169.956 851.827 169.676C851.315 169.396 850.915 168.996 850.627 168.476C850.339 167.956 850.195 167.348 850.195 166.652C850.195 165.956 850.335 165.348 850.615 164.828C850.903 164.308 851.303 163.908 851.815 163.628C852.327 163.348 852.915 163.208 853.579 163.208C854.227 163.208 854.803 163.344 855.307 163.616C855.811 163.888 856.203 164.276 856.483 164.78C856.771 165.284 856.915 165.872 856.915 166.544ZM854.815 166.004C854.815 165.652 854.695 165.372 854.455 165.164C854.215 164.956 853.915 164.852 853.555 164.852C853.211 164.852 852.919 164.952 852.679 165.152C852.447 165.352 852.303 165.636 852.247 166.004H854.815ZM860.722 170.096C860.138 170.096 859.618 169.996 859.162 169.796C858.706 169.596 858.346 169.324 858.082 168.98C857.818 168.628 857.67 168.236 857.638 167.804H859.666C859.69 168.036 859.798 168.224 859.99 168.368C860.182 168.512 860.418 168.584 860.698 168.584C860.954 168.584 861.15 168.536 861.286 168.44C861.43 168.336 861.502 168.204 861.502 168.044C861.502 167.852 861.402 167.712 861.202 167.624C861.002 167.528 860.678 167.424 860.23 167.312C859.75 167.2 859.35 167.084 859.03 166.964C858.71 166.836 858.434 166.64 858.202 166.376C857.97 166.104 857.854 165.74 857.854 165.284C857.854 164.9 857.958 164.552 858.166 164.24C858.382 163.92 858.694 163.668 859.102 163.484C859.518 163.3 860.01 163.208 860.578 163.208C861.418 163.208 862.078 163.416 862.558 163.832C863.046 164.248 863.326 164.8 863.398 165.488H861.502C861.47 165.256 861.366 165.072 861.19 164.936C861.022 164.8 860.798 164.732 860.518 164.732C860.278 164.732 860.094 164.78 859.966 164.876C859.838 164.964 859.774 165.088 859.774 165.248C859.774 165.44 859.874 165.584 860.074 165.68C860.282 165.776 860.602 165.872 861.034 165.968C861.53 166.096 861.934 166.224 862.246 166.352C862.558 166.472 862.83 166.672 863.062 166.952C863.302 167.224 863.426 167.592 863.434 168.056C863.434 168.448 863.322 168.8 863.098 169.112C862.882 169.416 862.566 169.656 862.15 169.832C861.742 170.008 861.266 170.096 860.722 170.096ZM868.421 168.26V170H867.377C866.633 170 866.053 169.82 865.637 169.46C865.221 169.092 865.013 168.496 865.013 167.672V165.008H864.197V163.304H865.013V161.672H867.065V163.304H868.409V165.008H867.065V167.696C867.065 167.896 867.113 168.04 867.209 168.128C867.305 168.216 867.465 168.26 867.689 168.26H868.421Z" fill="white"/>
<path d="M924.821 166.5L931.536 173.275C932.155 173.898 932.155 174.909 931.536 175.532C930.918 176.156 929.916 176.156 929.298 175.532L921.464 167.629C920.845 167.005 920.845 165.995 921.464 165.371L929.298 157.468C929.916 156.844 930.918 156.844 931.536 157.468C932.155 158.091 932.155 159.102 931.536 159.725L924.821 166.5Z" fill="#B3BAC5"/>
<g filter="url(#filter2_d_105_363)">
<rect x="9" y="236" width="959" height="90" rx="9" fill="white"/>
</g>
<path d="M39.3133 280.624C39.3133 278.992 39.6813 277.528 40.4173 276.232C41.1533 274.92 42.1533 273.896 43.4173 273.16C44.6973 272.424 46.1133 272.056 47.6653 272.056C49.4893 272.056 51.0813 272.496 52.4413 273.376C53.8013 274.256 54.7933 275.504 55.4173 277.12H52.8013C52.3373 276.112 51.6653 275.336 50.7853 274.792C49.9213 274.248 48.8813 273.976 47.6653 273.976C46.4973 273.976 45.4493 274.248 44.5213 274.792C43.5933 275.336 42.8653 276.112 42.3373 277.12C41.8093 278.112 41.5453 279.28 41.5453 280.624C41.5453 281.952 41.8093 283.12 42.3373 284.128C42.8653 285.12 43.5933 285.888 44.5213 286.432C45.4493 286.976 46.4973 287.248 47.6653 287.248C48.8813 287.248 49.9213 286.984 50.7853 286.456C51.6653 285.912 52.3373 285.136 52.8013 284.128H55.4173C54.7933 285.728 53.8013 286.968 52.4413 287.848C51.0813 288.712 49.4893 289.144 47.6653 289.144C46.1133 289.144 44.6973 288.784 43.4173 288.064C42.1533 287.328 41.1533 286.312 40.4173 285.016C39.6813 283.72 39.3133 282.256 39.3133 280.624ZM65.1963 275.608C66.1883 275.608 67.0843 275.824 67.8843 276.256C68.6843 276.672 69.3083 277.304 69.7563 278.152C70.2203 279 70.4523 280.032 70.4523 281.248V289H68.2923V281.56C68.2923 280.248 67.9643 279.248 67.3083 278.56C66.6523 277.856 65.7563 277.504 64.6203 277.504C63.4683 277.504 62.5483 277.864 61.8603 278.584C61.1883 279.304 60.8523 280.352 60.8523 281.728V289H58.6683V271.24H60.8523V277.72C61.2843 277.048 61.8763 276.528 62.6283 276.16C63.3963 275.792 64.2523 275.608 65.1963 275.608ZM73.2039 282.376C73.2039 281.032 73.4759 279.856 74.0199 278.848C74.5639 277.824 75.3079 277.032 76.2519 276.472C77.2119 275.912 78.2759 275.632 79.4439 275.632C80.5959 275.632 81.5959 275.88 82.4439 276.376C83.2919 276.872 83.9239 277.496 84.3399 278.248V275.848H86.5479V289H84.3399V286.552C83.9079 287.32 83.2599 287.96 82.3959 288.472C81.5479 288.968 80.5559 289.216 79.4199 289.216C78.2519 289.216 77.1959 288.928 76.2519 288.352C75.3079 287.776 74.5639 286.968 74.0199 285.928C73.4759 284.888 73.2039 283.704 73.2039 282.376ZM84.3399 282.4C84.3399 281.408 84.1399 280.544 83.7399 279.808C83.3399 279.072 82.7959 278.512 82.1079 278.128C81.4359 277.728 80.6919 277.528 79.8759 277.528C79.0599 277.528 78.3159 277.72 77.6439 278.104C76.9719 278.488 76.4359 279.048 76.0359 279.784C75.6359 280.52 75.4359 281.384 75.4359 282.376C75.4359 283.384 75.6359 284.264 76.0359 285.016C76.4359 285.752 76.9719 286.32 77.6439 286.72C78.3159 287.104 79.0599 287.296 79.8759 287.296C80.6919 287.296 81.4359 287.104 82.1079 286.72C82.7959 286.32 83.3399 285.752 83.7399 285.016C84.1399 284.264 84.3399 283.392 84.3399 282.4ZM92.4226 278.272C92.8546 277.52 93.4946 276.896 94.3426 276.4C95.2066 275.888 96.2066 275.632 97.3426 275.632C98.5106 275.632 99.5666 275.912 100.511 276.472C101.471 277.032 102.223 277.824 102.767 278.848C103.311 279.856 103.583 281.032 103.583 282.376C103.583 283.704 103.311 284.888 102.767 285.928C102.223 286.968 101.471 287.776 100.511 288.352C99.5666 288.928 98.5106 289.216 97.3426 289.216C96.2226 289.216 95.2306 288.968 94.3666 288.472C93.5186 287.96 92.8706 287.328 92.4226 286.576V295.24H90.2386V275.848H92.4226V278.272ZM101.351 282.376C101.351 281.384 101.151 280.52 100.751 279.784C100.351 279.048 99.8066 278.488 99.1186 278.104C98.4466 277.72 97.7026 277.528 96.8866 277.528C96.0866 277.528 95.3426 277.728 94.6546 278.128C93.9826 278.512 93.4386 279.08 93.0226 279.832C92.6226 280.568 92.4226 281.424 92.4226 282.4C92.4226 283.392 92.6226 284.264 93.0226 285.016C93.4386 285.752 93.9826 286.32 94.6546 286.72C95.3426 287.104 96.0866 287.296 96.8866 287.296C97.7026 287.296 98.4466 287.104 99.1186 286.72C99.8066 286.32 100.351 285.752 100.751 285.016C101.151 284.264 101.351 283.384 101.351 282.376ZM109.121 277.648V285.4C109.121 286.04 109.257 286.496 109.529 286.768C109.801 287.024 110.273 287.152 110.945 287.152H112.553V289H110.585C109.369 289 108.457 288.72 107.849 288.16C107.241 287.6 106.937 286.68 106.937 285.4V277.648H105.233V275.848H106.937V272.536H109.121V275.848H112.553V277.648H109.121ZM127.2 281.92C127.2 282.336 127.176 282.776 127.128 283.24H116.616C116.696 284.536 117.136 285.552 117.936 286.288C118.752 287.008 119.736 287.368 120.888 287.368C121.832 287.368 122.616 287.152 123.24 286.72C123.88 286.272 124.328 285.68 124.584 284.944H126.936C126.584 286.208 125.88 287.24 124.824 288.04C123.768 288.824 122.456 289.216 120.888 289.216C119.64 289.216 118.52 288.936 117.528 288.376C116.552 287.816 115.784 287.024 115.224 286C114.664 284.96 114.384 283.76 114.384 282.4C114.384 281.04 114.656 279.848 115.2 278.824C115.744 277.8 116.504 277.016 117.48 276.472C118.472 275.912 119.608 275.632 120.888 275.632C122.136 275.632 123.24 275.904 124.2 276.448C125.16 276.992 125.896 277.744 126.408 278.704C126.936 279.648 127.2 280.72 127.2 281.92ZM124.944 281.464C124.944 280.632 124.76 279.92 124.392 279.328C124.024 278.72 123.52 278.264 122.88 277.96C122.256 277.64 121.56 277.48 120.792 277.48C119.688 277.48 118.744 277.832 117.96 278.536C117.192 279.24 116.752 280.216 116.64 281.464H124.944ZM132.266 277.984C132.65 277.232 133.194 276.648 133.898 276.232C134.618 275.816 135.49 275.608 136.514 275.608V277.864H135.938C133.49 277.864 132.266 279.192 132.266 281.848V289H130.082V275.848H132.266V277.984ZM145.026 276.016C145.138 274.544 145.706 273.392 146.73 272.56C147.754 271.728 149.082 271.312 150.714 271.312C151.802 271.312 152.738 271.512 153.522 271.912C154.322 272.296 154.922 272.824 155.322 273.496C155.738 274.168 155.946 274.928 155.946 275.776C155.946 276.768 155.658 277.624 155.082 278.344C154.522 279.064 153.786 279.528 152.874 279.736V279.856C153.914 280.112 154.738 280.616 155.346 281.368C155.954 282.12 156.258 283.104 156.258 284.32C156.258 285.232 156.05 286.056 155.634 286.792C155.218 287.512 154.594 288.08 153.762 288.496C152.93 288.912 151.93 289.12 150.762 289.12C149.066 289.12 147.674 288.68 146.586 287.8C145.498 286.904 144.89 285.64 144.762 284.008H146.874C146.986 284.968 147.378 285.752 148.05 286.36C148.722 286.968 149.618 287.272 150.738 287.272C151.858 287.272 152.706 286.984 153.282 286.408C153.874 285.816 154.17 285.056 154.17 284.128C154.17 282.928 153.77 282.064 152.97 281.536C152.17 281.008 150.962 280.744 149.346 280.744H148.794V278.92H149.37C150.842 278.904 151.954 278.664 152.706 278.2C153.458 277.72 153.834 276.984 153.834 275.992C153.834 275.144 153.554 274.464 152.994 273.952C152.45 273.44 151.666 273.184 150.642 273.184C149.65 273.184 148.85 273.44 148.242 273.952C147.634 274.464 147.274 275.152 147.162 276.016H145.026Z" fill="#4E5662"/>
<path d="M323.314 278.735C323.094 277.625 322.409 277.07 321.259 277.07C320.369 277.07 319.704 277.415 319.264 278.105C318.824 278.785 318.609 279.91 318.619 281.48C318.849 280.96 319.229 280.555 319.759 280.265C320.299 279.965 320.899 279.815 321.559 279.815C322.589 279.815 323.409 280.135 324.019 280.775C324.639 281.415 324.949 282.3 324.949 283.43C324.949 284.11 324.814 284.72 324.544 285.26C324.284 285.8 323.884 286.23 323.344 286.55C322.814 286.87 322.169 287.03 321.409 287.03C320.379 287.03 319.574 286.8 318.994 286.34C318.414 285.88 318.009 285.245 317.779 284.435C317.549 283.625 317.434 282.625 317.434 281.435C317.434 277.765 318.714 275.93 321.274 275.93C322.254 275.93 323.024 276.195 323.584 276.725C324.144 277.255 324.474 277.925 324.574 278.735H323.314ZM321.274 280.97C320.844 280.97 320.439 281.06 320.059 281.24C319.679 281.41 319.369 281.675 319.129 282.035C318.899 282.385 318.784 282.815 318.784 283.325C318.784 284.085 319.004 284.705 319.444 285.185C319.884 285.655 320.514 285.89 321.334 285.89C322.034 285.89 322.589 285.675 322.999 285.245C323.419 284.805 323.629 284.215 323.629 283.475C323.629 282.695 323.429 282.085 323.029 281.645C322.629 281.195 322.044 280.97 321.274 280.97ZM326.79 281.465C326.79 279.745 327.07 278.405 327.63 277.445C328.19 276.475 329.17 275.99 330.57 275.99C331.96 275.99 332.935 276.475 333.495 277.445C334.055 278.405 334.335 279.745 334.335 281.465C334.335 283.215 334.055 284.575 333.495 285.545C332.935 286.515 331.96 287 330.57 287C329.17 287 328.19 286.515 327.63 285.545C327.07 284.575 326.79 283.215 326.79 281.465ZM332.985 281.465C332.985 280.595 332.925 279.86 332.805 279.26C332.695 278.65 332.46 278.16 332.1 277.79C331.75 277.42 331.24 277.235 330.57 277.235C329.89 277.235 329.37 277.42 329.01 277.79C328.66 278.16 328.425 278.65 328.305 279.26C328.195 279.86 328.14 280.595 328.14 281.465C328.14 282.365 328.195 283.12 328.305 283.73C328.425 284.34 328.66 284.83 329.01 285.2C329.37 285.57 329.89 285.755 330.57 285.755C331.24 285.755 331.75 285.57 332.1 285.2C332.46 284.83 332.695 284.34 332.805 283.73C332.925 283.12 332.985 282.365 332.985 281.465ZM335.909 278.6C335.909 277.92 336.114 277.38 336.524 276.98C336.934 276.57 337.459 276.365 338.099 276.365C338.739 276.365 339.264 276.57 339.674 276.98C340.084 277.38 340.289 277.92 340.289 278.6C340.289 279.29 340.084 279.84 339.674 280.25C339.264 280.65 338.739 280.85 338.099 280.85C337.459 280.85 336.934 280.65 336.524 280.25C336.114 279.84 335.909 279.29 335.909 278.6ZM344.669 276.53L338.594 287H337.244L343.319 276.53H344.669ZM338.099 277.205C337.759 277.205 337.489 277.325 337.289 277.565C337.099 277.795 337.004 278.14 337.004 278.6C337.004 279.06 337.099 279.41 337.289 279.65C337.489 279.89 337.759 280.01 338.099 280.01C338.439 280.01 338.709 279.89 338.909 279.65C339.109 279.4 339.209 279.05 339.209 278.6C339.209 278.14 339.109 277.795 338.909 277.565C338.709 277.325 338.439 277.205 338.099 277.205ZM341.654 284.93C341.654 284.24 341.859 283.695 342.269 283.295C342.679 282.885 343.204 282.68 343.844 282.68C344.484 282.68 345.004 282.885 345.404 283.295C345.814 283.695 346.019 284.24 346.019 284.93C346.019 285.61 345.814 286.155 345.404 286.565C345.004 286.975 344.484 287.18 343.844 287.18C343.204 287.18 342.679 286.98 342.269 286.58C341.859 286.17 341.654 285.62 341.654 284.93ZM343.829 283.535C343.489 283.535 343.219 283.655 343.019 283.895C342.819 284.125 342.719 284.47 342.719 284.93C342.719 285.38 342.819 285.725 343.019 285.965C343.219 286.195 343.489 286.31 343.829 286.31C344.169 286.31 344.439 286.195 344.639 285.965C344.839 285.725 344.939 285.38 344.939 284.93C344.939 284.47 344.839 284.125 344.639 283.895C344.439 283.655 344.169 283.535 343.829 283.535Z" fill="#94D1B4"/>
<rect x="357" y="278" width="304" height="8" rx="4" fill="#F5F8FD"/>
<rect x="357" y="278" width="172" height="8" rx="4" fill="#94D1B4"/>
<rect x="792" y="265" width="96" height="32" rx="5" fill="#6299EB"/>
<path d="M816.984 276.576V278.22H814.752V285H812.7V278.22H810.468V276.576H816.984ZM817.606 281.64C817.606 280.952 817.734 280.348 817.99 279.828C818.254 279.308 818.61 278.908 819.058 278.628C819.506 278.348 820.006 278.208 820.558 278.208C821.03 278.208 821.442 278.304 821.794 278.496C822.154 278.688 822.43 278.94 822.622 279.252V278.304H824.674V285H822.622V284.052C822.422 284.364 822.142 284.616 821.782 284.808C821.43 285 821.018 285.096 820.546 285.096C820.002 285.096 819.506 284.956 819.058 284.676C818.61 284.388 818.254 283.984 817.99 283.464C817.734 282.936 817.606 282.328 817.606 281.64ZM822.622 281.652C822.622 281.14 822.478 280.736 822.19 280.44C821.91 280.144 821.566 279.996 821.158 279.996C820.75 279.996 820.402 280.144 820.114 280.44C819.834 280.728 819.694 281.128 819.694 281.64C819.694 282.152 819.834 282.56 820.114 282.864C820.402 283.16 820.75 283.308 821.158 283.308C821.566 283.308 821.91 283.16 822.19 282.864C822.478 282.568 822.622 282.164 822.622 281.652ZM830.25 285L828.21 282.192V285H826.158V276.12H828.21V281.028L830.238 278.304H832.77L829.986 281.664L832.794 285H830.25ZM839.888 281.544C839.888 281.736 839.876 281.936 839.852 282.144H835.208C835.24 282.56 835.372 282.88 835.604 283.104C835.844 283.32 836.136 283.428 836.48 283.428C836.992 283.428 837.348 283.212 837.548 282.78H839.732C839.62 283.22 839.416 283.616 839.12 283.968C838.832 284.32 838.468 284.596 838.028 284.796C837.588 284.996 837.096 285.096 836.552 285.096C835.896 285.096 835.312 284.956 834.8 284.676C834.288 284.396 833.888 283.996 833.6 283.476C833.312 282.956 833.168 282.348 833.168 281.652C833.168 280.956 833.308 280.348 833.588 279.828C833.876 279.308 834.276 278.908 834.788 278.628C835.3 278.348 835.888 278.208 836.552 278.208C837.2 278.208 837.776 278.344 838.28 278.616C838.784 278.888 839.176 279.276 839.456 279.78C839.744 280.284 839.888 280.872 839.888 281.544ZM837.788 281.004C837.788 280.652 837.668 280.372 837.428 280.164C837.188 279.956 836.888 279.852 836.528 279.852C836.184 279.852 835.892 279.952 835.652 280.152C835.42 280.352 835.276 280.636 835.22 281.004H837.788ZM849.574 276.576V278.22H847.342V285H845.29V278.22H843.058V276.576H849.574ZM856.915 281.544C856.915 281.736 856.903 281.936 856.879 282.144H852.235C852.267 282.56 852.399 282.88 852.631 283.104C852.871 283.32 853.163 283.428 853.507 283.428C854.019 283.428 854.375 283.212 854.575 282.78H856.759C856.647 283.22 856.443 283.616 856.147 283.968C855.859 284.32 855.495 284.596 855.055 284.796C854.615 284.996 854.123 285.096 853.579 285.096C852.923 285.096 852.339 284.956 851.827 284.676C851.315 284.396 850.915 283.996 850.627 283.476C850.339 282.956 850.195 282.348 850.195 281.652C850.195 280.956 850.335 280.348 850.615 279.828C850.903 279.308 851.303 278.908 851.815 278.628C852.327 278.348 852.915 278.208 853.579 278.208C854.227 278.208 854.803 278.344 855.307 278.616C855.811 278.888 856.203 279.276 856.483 279.78C856.771 280.284 856.915 280.872 856.915 281.544ZM854.815 281.004C854.815 280.652 854.695 280.372 854.455 280.164C854.215 279.956 853.915 279.852 853.555 279.852C853.211 279.852 852.919 279.952 852.679 280.152C852.447 280.352 852.303 280.636 852.247 281.004H854.815ZM860.722 285.096C860.138 285.096 859.618 284.996 859.162 284.796C858.706 284.596 858.346 284.324 858.082 283.98C857.818 283.628 857.67 283.236 857.638 282.804H859.666C859.69 283.036 859.798 283.224 859.99 283.368C860.182 283.512 860.418 283.584 860.698 283.584C860.954 283.584 861.15 283.536 861.286 283.44C861.43 283.336 861.502 283.204 861.502 283.044C861.502 282.852 861.402 282.712 861.202 282.624C861.002 282.528 860.678 282.424 860.23 282.312C859.75 282.2 859.35 282.084 859.03 281.964C858.71 281.836 858.434 281.64 858.202 281.376C857.97 281.104 857.854 280.74 857.854 280.284C857.854 279.9 857.958 279.552 858.166 279.24C858.382 278.92 858.694 278.668 859.102 278.484C859.518 278.3 860.01 278.208 860.578 278.208C861.418 278.208 862.078 278.416 862.558 278.832C863.046 279.248 863.326 279.8 863.398 280.488H861.502C861.47 280.256 861.366 280.072 861.19 279.936C861.022 279.8 860.798 279.732 860.518 279.732C860.278 279.732 860.094 279.78 859.966 279.876C859.838 279.964 859.774 280.088 859.774 280.248C859.774 280.44 859.874 280.584 860.074 280.68C860.282 280.776 860.602 280.872 861.034 280.968C861.53 281.096 861.934 281.224 862.246 281.352C862.558 281.472 862.83 281.672 863.062 281.952C863.302 282.224 863.426 282.592 863.434 283.056C863.434 283.448 863.322 283.8 863.098 284.112C862.882 284.416 862.566 284.656 862.15 284.832C861.742 285.008 861.266 285.096 860.722 285.096ZM868.421 283.26V285H867.377C866.633 285 866.053 284.82 865.637 284.46C865.221 284.092 865.013 283.496 865.013 282.672V280.008H864.197V278.304H865.013V276.672H867.065V278.304H868.409V280.008H867.065V282.696C867.065 282.896 867.113 283.04 867.209 283.128C867.305 283.216 867.465 283.26 867.689 283.26H868.421Z" fill="white"/>
<path d="M924.821 281.5L931.536 288.275C932.155 288.898 932.155 289.909 931.536 290.532C930.918 291.156 929.916 291.156 929.298 290.532L921.464 282.629C920.845 282.005 920.845 280.995 921.464 280.371L929.298 272.468C929.916 271.844 930.918 271.844 931.536 272.468C932.155 273.091 932.155 274.102 931.536 274.725L924.821 281.5Z" fill="#B3BAC5"/>
<defs>
<filter id="filter0_d_105_363" x="0" y="0" width="979" height="110" filterUnits="userSpaceOnUse" color-interpolation-filters="sRGB">
<feFlood flood-opacity="0" result="BackgroundImageFix"/>
<feColorMatrix in="SourceAlpha" type="matrix" values="0 0 0 0 0 0 0 0 0 0 0 0 0 0 0 0 0 0 127 0" result="hardAlpha"/>
<feMorphology radius="1" operator="dilate" in="SourceAlpha" result="effect1_dropShadow_105_363"/>
<feOffset dx="1" dy="4"/>
<feGaussianBlur stdDeviation="4.5"/>
<feComposite in2="hardAlpha" operator="out"/>
<feColorMatrix type="matrix" values="0 0 0 0 0.525 0 0 0 0 0.525 0 0 0 0 0.525 0 0 0 0.19 0"/>
<feBlend mode="normal" in2="BackgroundImageFix" result="effect1_dropShadow_105_363"/>
<feBlend mode="normal" in="SourceGraphic" in2="effect1_dropShadow_105_363" result="shape"/>
</filter>
<filter id="filter1_d_105_363" x="0" y="115" width="979" height="110" filterUnits="userSpaceOnUse" color-interpolation-filters="sRGB">
<feFlood flood-opacity="0" result="BackgroundImageFix"/>
<feColorMatrix in="SourceAlpha" type="matrix" values="0 0 0 0 0 0 0 0 0 0 0 0 0 0 0 0 0 0 127 0" result="hardAlpha"/>
<feMorphology radius="1" operator="dilate" in="SourceAlpha" result="effect1_dropShadow_105_363"/>
<feOffset dx="1" dy="4"/>
<feGaussianBlur stdDeviation="4.5"/>
<feComposite in2="hardAlpha" operator="out"/>
<feColorMatrix type="matrix" values="0 0 0 0 0.525 0 0 0 0 0.525 0 0 0 0 0.525 0 0 0 0.19 0"/>
<feBlend mode="normal" in2="BackgroundImageFix" result="effect1_dropShadow_105_363"/>
<feBlend mode="normal" in="SourceGraphic" in2="effect1_dropShadow_105_363" result="shape"/>
</filter>
<filter id="filter2_d_105_363" x="0" y="230" width="979" height="110" filterUnits="userSpaceOnUse" color-interpolation-filters="sRGB">
<feFlood flood-opacity="0" result="BackgroundImageFix"/>
<feColorMatrix in="SourceAlpha" type="matrix" values="0 0 0 0 0 0 0 0 0 0 0 0 0 0 0 0 0 0 127 0" result="hardAlpha"/>
<feMorphology radius="1" operator="dilate" in="SourceAlpha" result="effect1_dropShadow_105_363"/>
<feOffset dx="1" dy="4"/>
<feGaussianBlur stdDeviation="4.5"/>
<feComposite in2="hardAlpha" operator="out"/>
<feColorMatrix type="matrix" values="0 0 0 0 0.525 0 0 0 0 0.525 0 0 0 0 0.525 0 0 0 0.19 0"/>
<feBlend mode="normal" in2="BackgroundImageFix" result="effect1_dropShadow_105_363"/>
<feBlend mode="normal" in="SourceGraphic" in2="effect1_dropShadow_105_363" result="shape"/>
</filter>
</defs>
</svg>
