<svg width="144" height="61" viewBox="0 0 144 61" fill="none" xmlns="http://www.w3.org/2000/svg">
<path d="M76.88 21.44V44H68V40.56C67.3067 41.6267 66.3733 42.4933 65.2 43.16C64.0533 43.8267 62.68 44.16 61.08 44.16C58.4933 44.16 56.4667 43.2933 55 41.56C53.56 39.8267 52.84 37.48 52.84 34.52V21.44H61.68V33.4C61.68 34.4667 61.96 35.32 62.52 35.96C63.1067 36.5733 63.88 36.88 64.84 36.88C65.8267 36.88 66.6 36.5733 67.16 35.96C67.72 35.32 68 34.4667 68 33.4V21.44H76.88ZM94.2906 21.28C96.8773 21.28 98.8906 22.1467 100.331 23.88C101.797 25.6133 102.531 27.96 102.531 30.92V44H93.6906V32.04C93.6906 30.9733 93.3973 30.1333 92.8106 29.52C92.2506 28.88 91.4906 28.56 90.5306 28.56C89.544 28.56 88.7706 28.88 88.2106 29.52C87.6506 30.1333 87.3706 30.9733 87.3706 32.04V44H78.4906V21.44H87.3706V24.88C88.064 23.8133 88.984 22.9467 90.1306 22.28C91.304 21.6133 92.6906 21.28 94.2906 21.28ZM112.861 15.68V44H103.981V15.68H112.861ZM133.112 48.6L130.392 44.12C129.779 44.2267 129.072 44.28 128.272 44.28C125.605 44.28 123.152 43.6533 120.912 42.4C118.699 41.1467 116.939 39.4133 115.632 37.2C114.325 34.9867 113.672 32.4933 113.672 29.72C113.672 26.9467 114.325 24.4533 115.632 22.24C116.939 20.0267 118.699 18.3067 120.912 17.08C123.152 15.8267 125.605 15.2 128.272 15.2C130.939 15.2 133.379 15.8267 135.592 17.08C137.805 18.3067 139.552 20.0267 140.832 22.24C142.139 24.4533 142.792 26.9467 142.792 29.72C142.792 31.9867 142.352 34.08 141.472 36C140.592 37.8933 139.379 39.5067 137.832 40.84L143.592 48.6H133.112ZM122.712 29.72C122.712 31.64 123.192 33.1733 124.152 34.32C125.112 35.44 126.485 36 128.272 36C130.032 36 131.392 35.44 132.352 34.32C133.312 33.1733 133.792 31.64 133.792 29.72C133.792 27.7733 133.312 26.24 132.352 25.12C131.392 23.9733 130.032 23.4 128.272 23.4C126.485 23.4 125.112 23.9733 124.152 25.12C123.192 26.24 122.712 27.7733 122.712 29.72Z" fill="#6299EB"/>
<path d="M21.3333 17.336C26.9913 17.336 32.4175 19.5836 36.4183 23.5844C40.4191 27.5852 42.6667 33.0114 42.6667 38.6693C42.6667 44.3273 40.4191 49.7535 36.4183 53.7543C32.4175 57.7551 26.9913 60.0027 21.3333 60.0027C15.6754 60.0027 10.2492 57.7551 6.24839 53.7543C2.24761 49.7535 0 44.3273 0 38.6693C0 33.0114 2.24761 27.5852 6.24839 23.5844C10.2492 19.5836 15.6754 17.336 21.3333 17.336ZM21.3333 26.6693L17.8053 33.816L9.92 34.9627L15.6267 40.5227L14.28 48.3787L21.3333 44.6693L28.3867 48.376L27.04 40.5227L32.7467 34.96L24.8613 33.8133L21.3333 26.6693ZM24 4L37.3333 4.00267V12.0027L33.6987 15.0373C30.6825 13.4549 27.3895 12.4689 24 12.1333V4.00267V4ZM18.6667 4V12.1333C15.2783 12.4684 11.9862 13.4535 8.97067 15.0347L5.33333 12.0027V4.00267L18.6667 4Z" fill="#6299EB"/>
</svg>
