<svg width="548" height="547" viewBox="0 0 548 547" fill="none" xmlns="http://www.w3.org/2000/svg">
<g filter="url(#filter0_d_105_362)">
<rect x="280" y="280" width="257" height="116" rx="9" fill="white"/>
</g>
<path d="M312.488 312.098C311.583 312.098 310.747 311.888 309.982 311.468C309.226 311.039 308.624 310.446 308.176 309.69C307.737 308.925 307.518 308.066 307.518 307.114C307.518 306.162 307.737 305.308 308.176 304.552C308.624 303.796 309.226 303.208 309.982 302.788C310.747 302.359 311.583 302.144 312.488 302.144C313.403 302.144 314.238 302.359 314.994 302.788C315.759 303.208 316.361 303.796 316.8 304.552C317.239 305.308 317.458 306.162 317.458 307.114C317.458 308.066 317.239 308.925 316.8 309.69C316.361 310.446 315.759 311.039 314.994 311.468C314.238 311.888 313.403 312.098 312.488 312.098ZM312.488 310.712C313.132 310.712 313.706 310.567 314.21 310.278C314.714 309.979 315.106 309.559 315.386 309.018C315.675 308.467 315.82 307.833 315.82 307.114C315.82 306.395 315.675 305.765 315.386 305.224C315.106 304.683 314.714 304.267 314.21 303.978C313.706 303.689 313.132 303.544 312.488 303.544C311.844 303.544 311.27 303.689 310.766 303.978C310.262 304.267 309.865 304.683 309.576 305.224C309.296 305.765 309.156 306.395 309.156 307.114C309.156 307.833 309.296 308.467 309.576 309.018C309.865 309.559 310.262 309.979 310.766 310.278C311.27 310.567 311.844 310.712 312.488 310.712ZM322.011 310.572L324.195 304.286H325.889L322.949 312H321.045L318.119 304.286H319.827L322.011 310.572ZM334.165 307.954C334.165 308.243 334.146 308.505 334.109 308.738H328.215C328.262 309.354 328.49 309.849 328.901 310.222C329.312 310.595 329.816 310.782 330.413 310.782C331.272 310.782 331.878 310.423 332.233 309.704H333.955C333.722 310.413 333.297 310.997 332.681 311.454C332.074 311.902 331.318 312.126 330.413 312.126C329.676 312.126 329.013 311.963 328.425 311.636C327.846 311.3 327.389 310.833 327.053 310.236C326.726 309.629 326.563 308.929 326.563 308.136C326.563 307.343 326.722 306.647 327.039 306.05C327.366 305.443 327.818 304.977 328.397 304.65C328.985 304.323 329.657 304.16 330.413 304.16C331.141 304.16 331.79 304.319 332.359 304.636C332.928 304.953 333.372 305.401 333.689 305.98C334.006 306.549 334.165 307.207 334.165 307.954ZM332.499 307.45C332.49 306.862 332.28 306.391 331.869 306.036C331.458 305.681 330.95 305.504 330.343 305.504C329.792 305.504 329.321 305.681 328.929 306.036C328.537 306.381 328.304 306.853 328.229 307.45H332.499ZM337.332 305.406C337.565 305.014 337.873 304.711 338.256 304.496C338.648 304.272 339.11 304.16 339.642 304.16V305.812H339.236C338.61 305.812 338.134 305.971 337.808 306.288C337.49 306.605 337.332 307.156 337.332 307.94V312H335.736V304.286H337.332V305.406ZM340.577 308.108C340.577 307.333 340.735 306.647 341.053 306.05C341.379 305.453 341.818 304.991 342.369 304.664C342.929 304.328 343.545 304.16 344.217 304.16C344.823 304.16 345.351 304.281 345.799 304.524C346.256 304.757 346.62 305.051 346.891 305.406V304.286H348.501V312H346.891V310.852C346.62 311.216 346.251 311.519 345.785 311.762C345.318 312.005 344.786 312.126 344.189 312.126C343.526 312.126 342.919 311.958 342.369 311.622C341.818 311.277 341.379 310.801 341.053 310.194C340.735 309.578 340.577 308.883 340.577 308.108ZM346.891 308.136C346.891 307.604 346.779 307.142 346.555 306.75C346.34 306.358 346.055 306.059 345.701 305.854C345.346 305.649 344.963 305.546 344.553 305.546C344.142 305.546 343.759 305.649 343.405 305.854C343.05 306.05 342.761 306.344 342.537 306.736C342.322 307.119 342.215 307.576 342.215 308.108C342.215 308.64 342.322 309.107 342.537 309.508C342.761 309.909 343.05 310.217 343.405 310.432C343.769 310.637 344.151 310.74 344.553 310.74C344.963 310.74 345.346 310.637 345.701 310.432C346.055 310.227 346.34 309.928 346.555 309.536C346.779 309.135 346.891 308.668 346.891 308.136ZM352.193 301.64V312H350.597V301.64H352.193ZM355.884 301.64V312H354.288V301.64H355.884ZM363.478 305.588V309.858C363.478 310.147 363.544 310.357 363.674 310.488C363.814 310.609 364.048 310.67 364.374 310.67H365.354V312H364.094C363.376 312 362.825 311.832 362.442 311.496C362.06 311.16 361.868 310.614 361.868 309.858V305.588H360.958V304.286H361.868V302.368H363.478V304.286H365.354V305.588H363.478ZM367.637 303.264C367.348 303.264 367.105 303.166 366.909 302.97C366.713 302.774 366.615 302.531 366.615 302.242C366.615 301.953 366.713 301.71 366.909 301.514C367.105 301.318 367.348 301.22 367.637 301.22C367.917 301.22 368.155 301.318 368.351 301.514C368.547 301.71 368.645 301.953 368.645 302.242C368.645 302.531 368.547 302.774 368.351 302.97C368.155 303.166 367.917 303.264 367.637 303.264ZM368.421 304.286V312H366.825V304.286H368.421ZM379.855 304.16C380.461 304.16 381.003 304.286 381.479 304.538C381.964 304.79 382.342 305.163 382.613 305.658C382.893 306.153 383.033 306.75 383.033 307.45V312H381.451V307.688C381.451 306.997 381.278 306.47 380.933 306.106C380.587 305.733 380.116 305.546 379.519 305.546C378.921 305.546 378.445 305.733 378.091 306.106C377.745 306.47 377.573 306.997 377.573 307.688V312H375.991V307.688C375.991 306.997 375.818 306.47 375.473 306.106C375.127 305.733 374.656 305.546 374.059 305.546C373.461 305.546 372.985 305.733 372.631 306.106C372.285 306.47 372.113 306.997 372.113 307.688V312H370.517V304.286H372.113V305.168C372.374 304.851 372.705 304.603 373.107 304.426C373.508 304.249 373.937 304.16 374.395 304.16C375.011 304.16 375.561 304.291 376.047 304.552C376.532 304.813 376.905 305.191 377.167 305.686C377.4 305.219 377.764 304.851 378.259 304.58C378.753 304.3 379.285 304.16 379.855 304.16ZM392.134 307.954C392.134 308.243 392.115 308.505 392.078 308.738H386.184C386.23 309.354 386.459 309.849 386.87 310.222C387.28 310.595 387.784 310.782 388.382 310.782C389.24 310.782 389.847 310.423 390.202 309.704H391.924C391.69 310.413 391.266 310.997 390.65 311.454C390.043 311.902 389.287 312.126 388.382 312.126C387.644 312.126 386.982 311.963 386.394 311.636C385.815 311.3 385.358 310.833 385.022 310.236C384.695 309.629 384.532 308.929 384.532 308.136C384.532 307.343 384.69 306.647 385.008 306.05C385.334 305.443 385.787 304.977 386.366 304.65C386.954 304.323 387.626 304.16 388.382 304.16C389.11 304.16 389.758 304.319 390.328 304.636C390.897 304.953 391.34 305.401 391.658 305.98C391.975 306.549 392.134 307.207 392.134 307.954ZM390.468 307.45C390.458 306.862 390.248 306.391 389.838 306.036C389.427 305.681 388.918 305.504 388.312 305.504C387.761 305.504 387.29 305.681 386.898 306.036C386.506 306.381 386.272 306.853 386.198 307.45H390.468ZM400.141 312.126C399.534 312.126 398.988 312.019 398.503 311.804C398.027 311.58 397.649 311.281 397.369 310.908C397.089 310.525 396.94 310.101 396.921 309.634H398.573C398.601 309.961 398.755 310.236 399.035 310.46C399.324 310.675 399.684 310.782 400.113 310.782C400.561 310.782 400.906 310.698 401.149 310.53C401.401 310.353 401.527 310.129 401.527 309.858C401.527 309.569 401.387 309.354 401.107 309.214C400.836 309.074 400.402 308.92 399.805 308.752C399.226 308.593 398.755 308.439 398.391 308.29C398.027 308.141 397.71 307.912 397.439 307.604C397.178 307.296 397.047 306.89 397.047 306.386C397.047 305.975 397.168 305.602 397.411 305.266C397.654 304.921 397.999 304.65 398.447 304.454C398.904 304.258 399.427 304.16 400.015 304.16C400.892 304.16 401.597 304.384 402.129 304.832C402.67 305.271 402.96 305.873 402.997 306.638H401.401C401.373 306.293 401.233 306.017 400.981 305.812C400.729 305.607 400.388 305.504 399.959 305.504C399.539 305.504 399.217 305.583 398.993 305.742C398.769 305.901 398.657 306.111 398.657 306.372C398.657 306.577 398.732 306.75 398.881 306.89C399.03 307.03 399.212 307.142 399.427 307.226C399.642 307.301 399.959 307.399 400.379 307.52C400.939 307.669 401.396 307.823 401.751 307.982C402.115 308.131 402.428 308.355 402.689 308.654C402.95 308.953 403.086 309.349 403.095 309.844C403.095 310.283 402.974 310.675 402.731 311.02C402.488 311.365 402.143 311.636 401.695 311.832C401.256 312.028 400.738 312.126 400.141 312.126ZM406.416 305.42C406.686 305.065 407.055 304.767 407.522 304.524C407.988 304.281 408.516 304.16 409.104 304.16C409.776 304.16 410.387 304.328 410.938 304.664C411.498 304.991 411.936 305.453 412.254 306.05C412.571 306.647 412.73 307.333 412.73 308.108C412.73 308.883 412.571 309.578 412.254 310.194C411.936 310.801 411.498 311.277 410.938 311.622C410.387 311.958 409.776 312.126 409.104 312.126C408.516 312.126 407.993 312.009 407.536 311.776C407.078 311.533 406.705 311.235 406.416 310.88V315.668H404.82V304.286H406.416V305.42ZM411.106 308.108C411.106 307.576 410.994 307.119 410.77 306.736C410.555 306.344 410.266 306.05 409.902 305.854C409.547 305.649 409.164 305.546 408.754 305.546C408.352 305.546 407.97 305.649 407.606 305.854C407.251 306.059 406.962 306.358 406.738 306.75C406.523 307.142 406.416 307.604 406.416 308.136C406.416 308.668 406.523 309.135 406.738 309.536C406.962 309.928 407.251 310.227 407.606 310.432C407.97 310.637 408.352 310.74 408.754 310.74C409.164 310.74 409.547 310.637 409.902 310.432C410.266 310.217 410.555 309.909 410.77 309.508C410.994 309.107 411.106 308.64 411.106 308.108ZM421.378 307.954C421.378 308.243 421.359 308.505 421.322 308.738H415.428C415.474 309.354 415.703 309.849 416.114 310.222C416.524 310.595 417.028 310.782 417.626 310.782C418.484 310.782 419.091 310.423 419.446 309.704H421.168C420.934 310.413 420.51 310.997 419.894 311.454C419.287 311.902 418.531 312.126 417.626 312.126C416.888 312.126 416.226 311.963 415.638 311.636C415.059 311.3 414.602 310.833 414.266 310.236C413.939 309.629 413.776 308.929 413.776 308.136C413.776 307.343 413.934 306.647 414.252 306.05C414.578 305.443 415.031 304.977 415.61 304.65C416.198 304.323 416.87 304.16 417.626 304.16C418.354 304.16 419.002 304.319 419.572 304.636C420.141 304.953 420.584 305.401 420.902 305.98C421.219 306.549 421.378 307.207 421.378 307.954ZM419.712 307.45C419.702 306.862 419.492 306.391 419.082 306.036C418.671 305.681 418.162 305.504 417.556 305.504C417.005 305.504 416.534 305.681 416.142 306.036C415.75 306.381 415.516 306.853 415.442 307.45H419.712ZM426.84 304.16C427.447 304.16 427.988 304.286 428.464 304.538C428.95 304.79 429.328 305.163 429.598 305.658C429.869 306.153 430.004 306.75 430.004 307.45V312H428.422V307.688C428.422 306.997 428.25 306.47 427.904 306.106C427.559 305.733 427.088 305.546 426.49 305.546C425.893 305.546 425.417 305.733 425.062 306.106C424.717 306.47 424.544 306.997 424.544 307.688V312H422.948V304.286H424.544V305.168C424.806 304.851 425.137 304.603 425.538 304.426C425.949 304.249 426.383 304.16 426.84 304.16ZM433.902 305.588V309.858C433.902 310.147 433.968 310.357 434.098 310.488C434.238 310.609 434.472 310.67 434.798 310.67H435.778V312H434.518C433.8 312 433.249 311.832 432.866 311.496C432.484 311.16 432.292 310.614 432.292 309.858V305.588H431.382V304.286H432.292V302.368H433.902V304.286H435.778V305.588H433.902Z" fill="#B3BAC5"/>
<path d="M354.732 356.616C355.458 356.04 355.788 355.773 355.724 355.816C357.815 354.088 359.458 352.669 360.652 351.56C361.868 350.451 362.892 349.288 363.724 348.072C364.556 346.856 364.972 345.672 364.972 344.52C364.972 343.645 364.77 342.963 364.364 342.472C363.959 341.981 363.351 341.736 362.54 341.736C361.73 341.736 361.09 342.045 360.62 342.664C360.172 343.261 359.948 344.115 359.948 345.224H354.668C354.711 343.411 355.095 341.896 355.82 340.68C356.567 339.464 357.538 338.568 358.732 337.992C359.948 337.416 361.292 337.128 362.764 337.128C365.303 337.128 367.212 337.779 368.492 339.08C369.794 340.381 370.444 342.077 370.444 344.168C370.444 346.451 369.666 348.573 368.108 350.536C366.551 352.477 364.567 354.376 362.156 356.232H370.796V360.68H354.732V356.616ZM372.662 352.04C372.662 350.205 373.003 348.595 373.686 347.208C374.39 345.821 375.339 344.755 376.534 344.008C377.728 343.261 379.062 342.888 380.534 342.888C381.707 342.888 382.774 343.133 383.734 343.624C384.715 344.115 385.483 344.776 386.038 345.608V337.32H391.51V361H386.038V358.44C385.526 359.293 384.79 359.976 383.83 360.488C382.891 361 381.792 361.256 380.534 361.256C379.062 361.256 377.728 360.883 376.534 360.136C375.339 359.368 374.39 358.291 373.686 356.904C373.003 355.496 372.662 353.875 372.662 352.04ZM386.038 352.072C386.038 350.707 385.654 349.629 384.886 348.84C384.139 348.051 383.222 347.656 382.134 347.656C381.046 347.656 380.118 348.051 379.35 348.84C378.603 349.608 378.23 350.675 378.23 352.04C378.23 353.405 378.603 354.493 379.35 355.304C380.118 356.093 381.046 356.488 382.134 356.488C383.222 356.488 384.139 356.093 384.886 355.304C385.654 354.515 386.038 353.437 386.038 352.072ZM418.154 342.408H408.17V346.824C408.596 346.355 409.194 345.971 409.962 345.672C410.73 345.373 411.562 345.224 412.458 345.224C414.058 345.224 415.38 345.587 416.426 346.312C417.492 347.037 418.271 347.976 418.762 349.128C419.252 350.28 419.498 351.528 419.498 352.872C419.498 355.368 418.794 357.352 417.386 358.824C415.978 360.275 413.994 361 411.434 361C409.727 361 408.244 360.712 406.986 360.136C405.727 359.539 404.756 358.717 404.074 357.672C403.391 356.627 403.018 355.421 402.954 354.056H408.298C408.426 354.717 408.735 355.272 409.226 355.72C409.716 356.147 410.388 356.36 411.242 356.36C412.244 356.36 412.991 356.04 413.482 355.4C413.972 354.76 414.218 353.907 414.218 352.84C414.218 351.795 413.962 350.995 413.45 350.44C412.938 349.885 412.191 349.608 411.21 349.608C410.484 349.608 409.887 349.789 409.418 350.152C408.948 350.493 408.639 350.952 408.49 351.528H403.21V337.608H418.154V342.408ZM422.518 349C422.518 345.331 423.222 342.44 424.63 340.328C426.059 338.216 428.353 337.16 431.51 337.16C434.667 337.16 436.95 338.216 438.358 340.328C439.787 342.44 440.502 345.331 440.502 349C440.502 352.712 439.787 355.624 438.358 357.736C436.95 359.848 434.667 360.904 431.51 360.904C428.353 360.904 426.059 359.848 424.63 357.736C423.222 355.624 422.518 352.712 422.518 349ZM435.126 349C435.126 346.845 434.891 345.192 434.422 344.04C433.953 342.867 432.982 342.28 431.51 342.28C430.038 342.28 429.067 342.867 428.598 344.04C428.129 345.192 427.894 346.845 427.894 349C427.894 350.451 427.979 351.656 428.15 352.616C428.321 353.555 428.662 354.323 429.174 354.92C429.707 355.496 430.486 355.784 431.51 355.784C432.534 355.784 433.302 355.496 433.814 354.92C434.347 354.323 434.699 353.555 434.87 352.616C435.041 351.656 435.126 350.451 435.126 349ZM454.913 342.952C456.961 342.952 458.604 343.635 459.841 345C461.078 346.344 461.697 348.2 461.697 350.568V361H456.257V351.304C456.257 350.109 455.948 349.181 455.329 348.52C454.71 347.859 453.878 347.528 452.833 347.528C451.788 347.528 450.956 347.859 450.337 348.52C449.718 349.181 449.409 350.109 449.409 351.304V361H443.937V337.32H449.409V345.544C449.964 344.755 450.721 344.125 451.681 343.656C452.641 343.187 453.718 342.952 454.913 342.952Z" fill="#6299EB"/>
<g filter="url(#filter1_d_105_362)">
<rect x="9" y="280" width="246" height="116" rx="9" fill="white"/>
</g>
<path d="M36.518 307.114C36.518 306.162 36.7373 305.308 37.176 304.552C37.624 303.796 38.226 303.208 38.982 302.788C39.7473 302.359 40.5827 302.144 41.488 302.144C42.524 302.144 43.4433 302.401 44.246 302.914C45.058 303.418 45.646 304.137 46.01 305.07H44.092C43.84 304.557 43.49 304.174 43.042 303.922C42.594 303.67 42.076 303.544 41.488 303.544C40.844 303.544 40.27 303.689 39.766 303.978C39.262 304.267 38.8653 304.683 38.576 305.224C38.296 305.765 38.156 306.395 38.156 307.114C38.156 307.833 38.296 308.463 38.576 309.004C38.8653 309.545 39.262 309.965 39.766 310.264C40.27 310.553 40.844 310.698 41.488 310.698C42.076 310.698 42.594 310.572 43.042 310.32C43.49 310.068 43.84 309.685 44.092 309.172H46.01C45.646 310.105 45.058 310.824 44.246 311.328C43.4433 311.832 42.524 312.084 41.488 312.084C40.5733 312.084 39.738 311.874 38.982 311.454C38.226 311.025 37.624 310.432 37.176 309.676C36.7373 308.92 36.518 308.066 36.518 307.114ZM51.2241 312.126C50.4961 312.126 49.8381 311.963 49.2501 311.636C48.6621 311.3 48.2001 310.833 47.8641 310.236C47.5281 309.629 47.3601 308.929 47.3601 308.136C47.3601 307.352 47.5328 306.657 47.8781 306.05C48.2235 305.443 48.6948 304.977 49.2921 304.65C49.8895 304.323 50.5568 304.16 51.2941 304.16C52.0315 304.16 52.6988 304.323 53.2961 304.65C53.8935 304.977 54.3648 305.443 54.7101 306.05C55.0555 306.657 55.2281 307.352 55.2281 308.136C55.2281 308.92 55.0508 309.615 54.6961 310.222C54.3415 310.829 53.8561 311.3 53.2401 311.636C52.6335 311.963 51.9615 312.126 51.2241 312.126ZM51.2241 310.74C51.6348 310.74 52.0175 310.642 52.3721 310.446C52.7361 310.25 53.0301 309.956 53.2541 309.564C53.4781 309.172 53.5901 308.696 53.5901 308.136C53.5901 307.576 53.4828 307.105 53.2681 306.722C53.0535 306.33 52.7688 306.036 52.4141 305.84C52.0595 305.644 51.6768 305.546 51.2661 305.546C50.8555 305.546 50.4728 305.644 50.1181 305.84C49.7728 306.036 49.4975 306.33 49.2921 306.722C49.0868 307.105 48.9841 307.576 48.9841 308.136C48.9841 308.967 49.1941 309.611 49.6141 310.068C50.0435 310.516 50.5801 310.74 51.2241 310.74ZM66.1439 304.16C66.7505 304.16 67.2919 304.286 67.7679 304.538C68.2532 304.79 68.6312 305.163 68.9019 305.658C69.1819 306.153 69.3219 306.75 69.3219 307.45V312H67.7399V307.688C67.7399 306.997 67.5672 306.47 67.2219 306.106C66.8765 305.733 66.4052 305.546 65.8079 305.546C65.2105 305.546 64.7345 305.733 64.3799 306.106C64.0345 306.47 63.8619 306.997 63.8619 307.688V312H62.2799V307.688C62.2799 306.997 62.1072 306.47 61.7619 306.106C61.4165 305.733 60.9452 305.546 60.3479 305.546C59.7505 305.546 59.2745 305.733 58.9199 306.106C58.5745 306.47 58.4019 306.997 58.4019 307.688V312H56.8059V304.286H58.4019V305.168C58.6632 304.851 58.9945 304.603 59.3959 304.426C59.7972 304.249 60.2265 304.16 60.6839 304.16C61.2999 304.16 61.8505 304.291 62.3359 304.552C62.8212 304.813 63.1945 305.191 63.4559 305.686C63.6892 305.219 64.0532 304.851 64.5479 304.58C65.0425 304.3 65.5745 304.16 66.1439 304.16ZM72.9487 305.42C73.2194 305.065 73.5881 304.767 74.0547 304.524C74.5214 304.281 75.0487 304.16 75.6367 304.16C76.3087 304.16 76.9201 304.328 77.4707 304.664C78.0307 304.991 78.4694 305.453 78.7867 306.05C79.1041 306.647 79.2627 307.333 79.2627 308.108C79.2627 308.883 79.1041 309.578 78.7867 310.194C78.4694 310.801 78.0307 311.277 77.4707 311.622C76.9201 311.958 76.3087 312.126 75.6367 312.126C75.0487 312.126 74.5261 312.009 74.0687 311.776C73.6114 311.533 73.2381 311.235 72.9487 310.88V315.668H71.3527V304.286H72.9487V305.42ZM77.6387 308.108C77.6387 307.576 77.5267 307.119 77.3027 306.736C77.0881 306.344 76.7987 306.05 76.4347 305.854C76.0801 305.649 75.6974 305.546 75.2867 305.546C74.8854 305.546 74.5027 305.649 74.1387 305.854C73.7841 306.059 73.4947 306.358 73.2707 306.75C73.0561 307.142 72.9487 307.604 72.9487 308.136C72.9487 308.668 73.0561 309.135 73.2707 309.536C73.4947 309.928 73.7841 310.227 74.1387 310.432C74.5027 310.637 74.8854 310.74 75.2867 310.74C75.6974 310.74 76.0801 310.637 76.4347 310.432C76.7987 310.217 77.0881 309.909 77.3027 309.508C77.5267 309.107 77.6387 308.64 77.6387 308.108ZM82.437 301.64V312H80.841V301.64H82.437ZM91.6024 307.954C91.6024 308.243 91.5838 308.505 91.5464 308.738H85.6524C85.6991 309.354 85.9278 309.849 86.3384 310.222C86.7491 310.595 87.2531 310.782 87.8504 310.782C88.7091 310.782 89.3158 310.423 89.6704 309.704H91.3924C91.1591 310.413 90.7344 310.997 90.1184 311.454C89.5118 311.902 88.7558 312.126 87.8504 312.126C87.1131 312.126 86.4504 311.963 85.8624 311.636C85.2838 311.3 84.8264 310.833 84.4904 310.236C84.1638 309.629 84.0004 308.929 84.0004 308.136C84.0004 307.343 84.1591 306.647 84.4764 306.05C84.8031 305.443 85.2558 304.977 85.8344 304.65C86.4224 304.323 87.0944 304.16 87.8504 304.16C88.5784 304.16 89.2271 304.319 89.7964 304.636C90.3658 304.953 90.8091 305.401 91.1264 305.98C91.4438 306.549 91.6024 307.207 91.6024 307.954ZM89.9364 307.45C89.9271 306.862 89.7171 306.391 89.3064 306.036C88.8958 305.681 88.3871 305.504 87.7804 305.504C87.2298 305.504 86.7584 305.681 86.3664 306.036C85.9744 306.381 85.7411 306.853 85.6664 307.45H89.9364ZM95.035 305.588V309.858C95.035 310.147 95.1004 310.357 95.231 310.488C95.371 310.609 95.6044 310.67 95.931 310.67H96.911V312H95.651C94.9324 312 94.3817 311.832 93.999 311.496C93.6164 311.16 93.425 310.614 93.425 309.858V305.588H92.515V304.286H93.425V302.368H95.035V304.286H96.911V305.588H95.035ZM105.452 307.954C105.452 308.243 105.433 308.505 105.396 308.738H99.502C99.5487 309.354 99.7774 309.849 100.188 310.222C100.599 310.595 101.103 310.782 101.7 310.782C102.559 310.782 103.165 310.423 103.52 309.704H105.242C105.009 310.413 104.584 310.997 103.968 311.454C103.361 311.902 102.605 312.126 101.7 312.126C100.963 312.126 100.3 311.963 99.712 311.636C99.1334 311.3 98.676 310.833 98.34 310.236C98.0134 309.629 97.85 308.929 97.85 308.136C97.85 307.343 98.0087 306.647 98.326 306.05C98.6527 305.443 99.1054 304.977 99.684 304.65C100.272 304.323 100.944 304.16 101.7 304.16C102.428 304.16 103.077 304.319 103.646 304.636C104.215 304.953 104.659 305.401 104.976 305.98C105.293 306.549 105.452 307.207 105.452 307.954ZM103.786 307.45C103.777 306.862 103.567 306.391 103.156 306.036C102.745 305.681 102.237 305.504 101.63 305.504C101.079 305.504 100.608 305.681 100.216 306.036C99.824 306.381 99.5907 306.853 99.516 307.45H103.786ZM106.491 308.108C106.491 307.333 106.649 306.647 106.967 306.05C107.293 305.453 107.732 304.991 108.283 304.664C108.843 304.328 109.463 304.16 110.145 304.16C110.649 304.16 111.143 304.272 111.629 304.496C112.123 304.711 112.515 305 112.805 305.364V301.64H114.415V312H112.805V310.838C112.543 311.211 112.179 311.519 111.713 311.762C111.255 312.005 110.728 312.126 110.131 312.126C109.459 312.126 108.843 311.958 108.283 311.622C107.732 311.277 107.293 310.801 106.967 310.194C106.649 309.578 106.491 308.883 106.491 308.108ZM112.805 308.136C112.805 307.604 112.693 307.142 112.469 306.75C112.254 306.358 111.969 306.059 111.615 305.854C111.26 305.649 110.877 305.546 110.467 305.546C110.056 305.546 109.673 305.649 109.319 305.854C108.964 306.05 108.675 306.344 108.451 306.736C108.236 307.119 108.129 307.576 108.129 308.108C108.129 308.64 108.236 309.107 108.451 309.508C108.675 309.909 108.964 310.217 109.319 310.432C109.683 310.637 110.065 310.74 110.467 310.74C110.877 310.74 111.26 310.637 111.615 310.432C111.969 310.227 112.254 309.928 112.469 309.536C112.693 309.135 112.805 308.668 112.805 308.136ZM119.616 308.136C119.616 307.343 119.774 306.647 120.092 306.05C120.418 305.443 120.866 304.977 121.436 304.65C122.005 304.323 122.658 304.16 123.396 304.16C124.329 304.16 125.099 304.384 125.706 304.832C126.322 305.271 126.737 305.901 126.952 306.722H125.23C125.09 306.339 124.866 306.041 124.558 305.826C124.25 305.611 123.862 305.504 123.396 305.504C122.742 305.504 122.22 305.737 121.828 306.204C121.445 306.661 121.254 307.305 121.254 308.136C121.254 308.967 121.445 309.615 121.828 310.082C122.22 310.549 122.742 310.782 123.396 310.782C124.32 310.782 124.931 310.376 125.23 309.564H126.952C126.728 310.348 126.308 310.973 125.692 311.44C125.076 311.897 124.31 312.126 123.396 312.126C122.658 312.126 122.005 311.963 121.436 311.636C120.866 311.3 120.418 310.833 120.092 310.236C119.774 309.629 119.616 308.929 119.616 308.136ZM132.532 304.16C133.12 304.16 133.643 304.286 134.1 304.538C134.567 304.79 134.931 305.163 135.192 305.658C135.463 306.153 135.598 306.75 135.598 307.45V312H134.016V307.688C134.016 306.997 133.844 306.47 133.498 306.106C133.153 305.733 132.682 305.546 132.084 305.546C131.487 305.546 131.011 305.733 130.656 306.106C130.311 306.47 130.138 306.997 130.138 307.688V312H128.542V301.64H130.138V305.182C130.409 304.855 130.75 304.603 131.16 304.426C131.58 304.249 132.038 304.16 132.532 304.16ZM137.102 308.108C137.102 307.333 137.261 306.647 137.578 306.05C137.905 305.453 138.343 304.991 138.894 304.664C139.454 304.328 140.07 304.16 140.742 304.16C141.349 304.16 141.876 304.281 142.324 304.524C142.781 304.757 143.145 305.051 143.416 305.406V304.286H145.026V312H143.416V310.852C143.145 311.216 142.777 311.519 142.31 311.762C141.843 312.005 141.311 312.126 140.714 312.126C140.051 312.126 139.445 311.958 138.894 311.622C138.343 311.277 137.905 310.801 137.578 310.194C137.261 309.578 137.102 308.883 137.102 308.108ZM143.416 308.136C143.416 307.604 143.304 307.142 143.08 306.75C142.865 306.358 142.581 306.059 142.226 305.854C141.871 305.649 141.489 305.546 141.078 305.546C140.667 305.546 140.285 305.649 139.93 305.854C139.575 306.05 139.286 306.344 139.062 306.736C138.847 307.119 138.74 307.576 138.74 308.108C138.74 308.64 138.847 309.107 139.062 309.508C139.286 309.909 139.575 310.217 139.93 310.432C140.294 310.637 140.677 310.74 141.078 310.74C141.489 310.74 141.871 310.637 142.226 310.432C142.581 310.227 142.865 309.928 143.08 309.536C143.304 309.135 143.416 308.668 143.416 308.136ZM148.718 305.42C148.989 305.065 149.358 304.767 149.824 304.524C150.291 304.281 150.818 304.16 151.406 304.16C152.078 304.16 152.69 304.328 153.24 304.664C153.8 304.991 154.239 305.453 154.556 306.05C154.874 306.647 155.032 307.333 155.032 308.108C155.032 308.883 154.874 309.578 154.556 310.194C154.239 310.801 153.8 311.277 153.24 311.622C152.69 311.958 152.078 312.126 151.406 312.126C150.818 312.126 150.296 312.009 149.838 311.776C149.381 311.533 149.008 311.235 148.718 310.88V315.668H147.122V304.286H148.718V305.42ZM153.408 308.108C153.408 307.576 153.296 307.119 153.072 306.736C152.858 306.344 152.568 306.05 152.204 305.854C151.85 305.649 151.467 305.546 151.056 305.546C150.655 305.546 150.272 305.649 149.908 305.854C149.554 306.059 149.264 306.358 149.04 306.75C148.826 307.142 148.718 307.604 148.718 308.136C148.718 308.668 148.826 309.135 149.04 309.536C149.264 309.928 149.554 310.227 149.908 310.432C150.272 310.637 150.655 310.74 151.056 310.74C151.467 310.74 151.85 310.637 152.204 310.432C152.568 310.217 152.858 309.909 153.072 309.508C153.296 309.107 153.408 308.64 153.408 308.108ZM158.473 305.588V309.858C158.473 310.147 158.538 310.357 158.669 310.488C158.809 310.609 159.042 310.67 159.369 310.67H160.349V312H159.089C158.37 312 157.819 311.832 157.437 311.496C157.054 311.16 156.863 310.614 156.863 309.858V305.588H155.953V304.286H156.863V302.368H158.473V304.286H160.349V305.588H158.473ZM168.89 307.954C168.89 308.243 168.871 308.505 168.834 308.738H162.94C162.986 309.354 163.215 309.849 163.626 310.222C164.036 310.595 164.54 310.782 165.138 310.782C165.996 310.782 166.603 310.423 166.958 309.704H168.68C168.446 310.413 168.022 310.997 167.406 311.454C166.799 311.902 166.043 312.126 165.138 312.126C164.4 312.126 163.738 311.963 163.15 311.636C162.571 311.3 162.114 310.833 161.778 310.236C161.451 309.629 161.288 308.929 161.288 308.136C161.288 307.343 161.446 306.647 161.764 306.05C162.09 305.443 162.543 304.977 163.122 304.65C163.71 304.323 164.382 304.16 165.138 304.16C165.866 304.16 166.514 304.319 167.084 304.636C167.653 304.953 168.096 305.401 168.414 305.98C168.731 306.549 168.89 307.207 168.89 307.954ZM167.224 307.45C167.214 306.862 167.004 306.391 166.594 306.036C166.183 305.681 165.674 305.504 165.068 305.504C164.517 305.504 164.046 305.681 163.654 306.036C163.262 306.381 163.028 306.853 162.954 307.45H167.224ZM172.056 305.406C172.289 305.014 172.597 304.711 172.98 304.496C173.372 304.272 173.834 304.16 174.366 304.16V305.812H173.96C173.335 305.812 172.859 305.971 172.532 306.288C172.215 306.605 172.056 307.156 172.056 307.94V312H170.46V304.286H172.056V305.406ZM178.633 312.126C178.027 312.126 177.481 312.019 176.995 311.804C176.519 311.58 176.141 311.281 175.861 310.908C175.581 310.525 175.432 310.101 175.413 309.634H177.065C177.093 309.961 177.247 310.236 177.527 310.46C177.817 310.675 178.176 310.782 178.605 310.782C179.053 310.782 179.399 310.698 179.641 310.53C179.893 310.353 180.019 310.129 180.019 309.858C180.019 309.569 179.879 309.354 179.599 309.214C179.329 309.074 178.895 308.92 178.297 308.752C177.719 308.593 177.247 308.439 176.883 308.29C176.519 308.141 176.202 307.912 175.931 307.604C175.67 307.296 175.539 306.89 175.539 306.386C175.539 305.975 175.661 305.602 175.903 305.266C176.146 304.921 176.491 304.65 176.939 304.454C177.397 304.258 177.919 304.16 178.507 304.16C179.385 304.16 180.089 304.384 180.621 304.832C181.163 305.271 181.452 305.873 181.489 306.638H179.893C179.865 306.293 179.725 306.017 179.473 305.812C179.221 305.607 178.881 305.504 178.451 305.504C178.031 305.504 177.709 305.583 177.485 305.742C177.261 305.901 177.149 306.111 177.149 306.372C177.149 306.577 177.224 306.75 177.373 306.89C177.523 307.03 177.705 307.142 177.919 307.226C178.134 307.301 178.451 307.399 178.871 307.52C179.431 307.669 179.889 307.823 180.243 307.982C180.607 308.131 180.92 308.355 181.181 308.654C181.443 308.953 181.578 309.349 181.587 309.844C181.587 310.283 181.466 310.675 181.223 311.02C180.981 311.365 180.635 311.636 180.187 311.832C179.749 312.028 179.231 312.126 178.633 312.126Z" fill="#B3BAC5"/>
<path d="M106.212 342.444V336.72H116.184V363H109.776V342.444H106.212ZM142.352 328.8L132.704 369.732H126.764L136.412 328.8H142.352ZM170.47 342.084H159.238V347.052C159.718 346.524 160.39 346.092 161.254 345.756C162.118 345.42 163.054 345.252 164.062 345.252C165.862 345.252 167.35 345.66 168.526 346.476C169.726 347.292 170.602 348.348 171.154 349.644C171.706 350.94 171.982 352.344 171.982 353.856C171.982 356.664 171.19 358.896 169.606 360.552C168.022 362.184 165.79 363 162.91 363C160.99 363 159.322 362.676 157.906 362.028C156.49 361.356 155.398 360.432 154.63 359.256C153.862 358.08 153.442 356.724 153.37 355.188H159.382C159.526 355.932 159.874 356.556 160.426 357.06C160.978 357.54 161.734 357.78 162.694 357.78C163.822 357.78 164.662 357.42 165.214 356.7C165.766 355.98 166.042 355.02 166.042 353.82C166.042 352.644 165.754 351.744 165.178 351.12C164.602 350.496 163.762 350.184 162.658 350.184C161.842 350.184 161.17 350.388 160.642 350.796C160.114 351.18 159.766 351.696 159.598 352.344H153.658V336.684H170.47V342.084Z" fill="#6299EB"/>
<g filter="url(#filter2_d_105_362)">
<rect x="9" y="421" width="528" height="112" rx="9" fill="white"/>
</g>
<path d="M42.9756 454.012H38.9016L38.2016 456H36.5356L40.0216 446.256H41.8696L45.3556 456H43.6756L42.9756 454.012ZM42.5276 452.71L40.9456 448.188L39.3496 452.71H42.5276ZM49.8533 454.572L52.0373 448.286H53.7313L50.7913 456H48.8873L45.9613 448.286H47.6693L49.8533 454.572ZM62.0077 451.954C62.0077 452.243 61.989 452.505 61.9517 452.738H56.0577C56.1044 453.354 56.333 453.849 56.7437 454.222C57.1544 454.595 57.6584 454.782 58.2557 454.782C59.1144 454.782 59.721 454.423 60.0757 453.704H61.7977C61.5644 454.413 61.1397 454.997 60.5237 455.454C59.917 455.902 59.161 456.126 58.2557 456.126C57.5184 456.126 56.8557 455.963 56.2677 455.636C55.689 455.3 55.2317 454.833 54.8957 454.236C54.569 453.629 54.4057 452.929 54.4057 452.136C54.4057 451.343 54.5644 450.647 54.8817 450.05C55.2084 449.443 55.661 448.977 56.2397 448.65C56.8277 448.323 57.4997 448.16 58.2557 448.16C58.9837 448.16 59.6324 448.319 60.2017 448.636C60.771 448.953 61.2144 449.401 61.5317 449.98C61.849 450.549 62.0077 451.207 62.0077 451.954ZM60.3417 451.45C60.3324 450.862 60.1224 450.391 59.7117 450.036C59.301 449.681 58.7924 449.504 58.1857 449.504C57.635 449.504 57.1637 449.681 56.7717 450.036C56.3797 450.381 56.1464 450.853 56.0717 451.45H60.3417ZM65.1743 449.406C65.4077 449.014 65.7157 448.711 66.0983 448.496C66.4903 448.272 66.9523 448.16 67.4843 448.16V449.812H67.0783C66.453 449.812 65.977 449.971 65.6503 450.288C65.333 450.605 65.1743 451.156 65.1743 451.94V456H63.5783V448.286H65.1743V449.406ZM68.4194 452.108C68.4194 451.333 68.578 450.647 68.8954 450.05C69.222 449.453 69.6607 448.991 70.2114 448.664C70.7714 448.328 71.3874 448.16 72.0594 448.16C72.666 448.16 73.1934 448.281 73.6414 448.524C74.0987 448.757 74.4627 449.051 74.7334 449.406V448.286H76.3434V456H74.7334V454.852C74.4627 455.216 74.094 455.519 73.6274 455.762C73.1607 456.005 72.6287 456.126 72.0314 456.126C71.3687 456.126 70.762 455.958 70.2114 455.622C69.6607 455.277 69.222 454.801 68.8954 454.194C68.578 453.578 68.4194 452.883 68.4194 452.108ZM74.7334 452.136C74.7334 451.604 74.6214 451.142 74.3974 450.75C74.1827 450.358 73.898 450.059 73.5434 449.854C73.1887 449.649 72.806 449.546 72.3954 449.546C71.9847 449.546 71.602 449.649 71.2474 449.854C70.8927 450.05 70.6034 450.344 70.3794 450.736C70.1647 451.119 70.0574 451.576 70.0574 452.108C70.0574 452.64 70.1647 453.107 70.3794 453.508C70.6034 453.909 70.8927 454.217 71.2474 454.432C71.6114 454.637 71.994 454.74 72.3954 454.74C72.806 454.74 73.1887 454.637 73.5434 454.432C73.898 454.227 74.1827 453.928 74.3974 453.536C74.6214 453.135 74.7334 452.668 74.7334 452.136ZM81.5476 448.16C82.145 448.16 82.6723 448.281 83.1296 448.524C83.5963 448.757 83.9603 449.051 84.2216 449.406V448.286H85.8316V456.126C85.8316 456.835 85.6823 457.465 85.3836 458.016C85.085 458.576 84.651 459.015 84.0816 459.332C83.5216 459.649 82.8496 459.808 82.0656 459.808C81.0203 459.808 80.1523 459.561 79.4616 459.066C78.771 458.581 78.379 457.918 78.2856 457.078H79.8676C79.989 457.479 80.2456 457.801 80.6376 458.044C81.039 458.296 81.515 458.422 82.0656 458.422C82.7096 458.422 83.2276 458.226 83.6196 457.834C84.021 457.442 84.2216 456.873 84.2216 456.126V454.838C83.951 455.202 83.5823 455.51 83.1156 455.762C82.6583 456.005 82.1356 456.126 81.5476 456.126C80.8756 456.126 80.2596 455.958 79.6996 455.622C79.149 455.277 78.7103 454.801 78.3836 454.194C78.0663 453.578 77.9076 452.883 77.9076 452.108C77.9076 451.333 78.0663 450.647 78.3836 450.05C78.7103 449.453 79.149 448.991 79.6996 448.664C80.2596 448.328 80.8756 448.16 81.5476 448.16ZM84.2216 452.136C84.2216 451.604 84.1096 451.142 83.8856 450.75C83.671 450.358 83.3863 450.059 83.0316 449.854C82.677 449.649 82.2943 449.546 81.8836 449.546C81.473 449.546 81.0903 449.649 80.7356 449.854C80.381 450.05 80.0916 450.344 79.8676 450.736C79.653 451.119 79.5456 451.576 79.5456 452.108C79.5456 452.64 79.653 453.107 79.8676 453.508C80.0916 453.909 80.381 454.217 80.7356 454.432C81.0996 454.637 81.4823 454.74 81.8836 454.74C82.2943 454.74 82.677 454.637 83.0316 454.432C83.3863 454.227 83.671 453.928 83.8856 453.536C84.1096 453.135 84.2216 452.668 84.2216 452.136ZM94.9979 451.954C94.9979 452.243 94.9793 452.505 94.9419 452.738H89.0479C89.0946 453.354 89.3233 453.849 89.7339 454.222C90.1446 454.595 90.6486 454.782 91.2459 454.782C92.1046 454.782 92.7113 454.423 93.0659 453.704H94.7879C94.5546 454.413 94.1299 454.997 93.5139 455.454C92.9073 455.902 92.1513 456.126 91.2459 456.126C90.5086 456.126 89.8459 455.963 89.2579 455.636C88.6793 455.3 88.2219 454.833 87.8859 454.236C87.5593 453.629 87.3959 452.929 87.3959 452.136C87.3959 451.343 87.5546 450.647 87.8719 450.05C88.1986 449.443 88.6513 448.977 89.2299 448.65C89.8179 448.323 90.4899 448.16 91.2459 448.16C91.9739 448.16 92.6226 448.319 93.1919 448.636C93.7613 448.953 94.2046 449.401 94.5219 449.98C94.8393 450.549 94.9979 451.207 94.9979 451.954ZM93.3319 451.45C93.3226 450.862 93.1126 450.391 92.7019 450.036C92.2913 449.681 91.7826 449.504 91.1759 449.504C90.6253 449.504 90.1539 449.681 89.7619 450.036C89.3699 450.381 89.1366 450.853 89.0619 451.45H93.3319ZM103.411 456.098C102.758 456.098 102.17 455.986 101.647 455.762C101.125 455.529 100.714 455.202 100.415 454.782C100.117 454.362 99.9673 453.872 99.9673 453.312H101.675C101.713 453.732 101.876 454.077 102.165 454.348C102.464 454.619 102.879 454.754 103.411 454.754C103.962 454.754 104.391 454.623 104.699 454.362C105.007 454.091 105.161 453.746 105.161 453.326C105.161 452.999 105.063 452.733 104.867 452.528C104.681 452.323 104.443 452.164 104.153 452.052C103.873 451.94 103.481 451.819 102.977 451.688C102.343 451.52 101.825 451.352 101.423 451.184C101.031 451.007 100.695 450.736 100.415 450.372C100.135 450.008 99.9953 449.523 99.9953 448.916C99.9953 448.356 100.135 447.866 100.415 447.446C100.695 447.026 101.087 446.704 101.591 446.48C102.095 446.256 102.679 446.144 103.341 446.144C104.284 446.144 105.054 446.382 105.651 446.858C106.258 447.325 106.594 447.969 106.659 448.79H104.895C104.867 448.435 104.699 448.132 104.391 447.88C104.083 447.628 103.677 447.502 103.173 447.502C102.716 447.502 102.343 447.619 102.053 447.852C101.764 448.085 101.619 448.421 101.619 448.86C101.619 449.159 101.708 449.406 101.885 449.602C102.072 449.789 102.305 449.938 102.585 450.05C102.865 450.162 103.248 450.283 103.733 450.414C104.377 450.591 104.9 450.769 105.301 450.946C105.712 451.123 106.057 451.399 106.337 451.772C106.627 452.136 106.771 452.626 106.771 453.242C106.771 453.737 106.636 454.203 106.365 454.642C106.104 455.081 105.717 455.435 105.203 455.706C104.699 455.967 104.102 456.098 103.411 456.098ZM108.122 452.136C108.122 451.343 108.281 450.647 108.598 450.05C108.925 449.443 109.373 448.977 109.942 448.65C110.512 448.323 111.165 448.16 111.902 448.16C112.836 448.16 113.606 448.384 114.212 448.832C114.828 449.271 115.244 449.901 115.458 450.722H113.736C113.596 450.339 113.372 450.041 113.064 449.826C112.756 449.611 112.369 449.504 111.902 449.504C111.249 449.504 110.726 449.737 110.334 450.204C109.952 450.661 109.76 451.305 109.76 452.136C109.76 452.967 109.952 453.615 110.334 454.082C110.726 454.549 111.249 454.782 111.902 454.782C112.826 454.782 113.438 454.376 113.736 453.564H115.458C115.234 454.348 114.814 454.973 114.198 455.44C113.582 455.897 112.817 456.126 111.902 456.126C111.165 456.126 110.512 455.963 109.942 455.636C109.373 455.3 108.925 454.833 108.598 454.236C108.281 453.629 108.122 452.929 108.122 452.136ZM120.395 456.126C119.667 456.126 119.009 455.963 118.421 455.636C117.833 455.3 117.371 454.833 117.035 454.236C116.699 453.629 116.531 452.929 116.531 452.136C116.531 451.352 116.704 450.657 117.049 450.05C117.394 449.443 117.866 448.977 118.463 448.65C119.06 448.323 119.728 448.16 120.465 448.16C121.202 448.16 121.87 448.323 122.467 448.65C123.064 448.977 123.536 449.443 123.881 450.05C124.226 450.657 124.399 451.352 124.399 452.136C124.399 452.92 124.222 453.615 123.867 454.222C123.512 454.829 123.027 455.3 122.411 455.636C121.804 455.963 121.132 456.126 120.395 456.126ZM120.395 454.74C120.806 454.74 121.188 454.642 121.543 454.446C121.907 454.25 122.201 453.956 122.425 453.564C122.649 453.172 122.761 452.696 122.761 452.136C122.761 451.576 122.654 451.105 122.439 450.722C122.224 450.33 121.94 450.036 121.585 449.84C121.23 449.644 120.848 449.546 120.437 449.546C120.026 449.546 119.644 449.644 119.289 449.84C118.944 450.036 118.668 450.33 118.463 450.722C118.258 451.105 118.155 451.576 118.155 452.136C118.155 452.967 118.365 453.611 118.785 454.068C119.214 454.516 119.751 454.74 120.395 454.74ZM127.573 449.406C127.806 449.014 128.114 448.711 128.497 448.496C128.889 448.272 129.351 448.16 129.883 448.16V449.812H129.477C128.851 449.812 128.375 449.971 128.049 450.288C127.731 450.605 127.573 451.156 127.573 451.94V456H125.977V448.286H127.573V449.406ZM138.42 451.954C138.42 452.243 138.401 452.505 138.364 452.738H132.47C132.516 453.354 132.745 453.849 133.156 454.222C133.566 454.595 134.07 454.782 134.668 454.782C135.526 454.782 136.133 454.423 136.488 453.704H138.21C137.976 454.413 137.552 454.997 136.936 455.454C136.329 455.902 135.573 456.126 134.668 456.126C133.93 456.126 133.268 455.963 132.68 455.636C132.101 455.3 131.644 454.833 131.308 454.236C130.981 453.629 130.818 452.929 130.818 452.136C130.818 451.343 130.976 450.647 131.294 450.05C131.62 449.443 132.073 448.977 132.652 448.65C133.24 448.323 133.912 448.16 134.668 448.16C135.396 448.16 136.044 448.319 136.614 448.636C137.183 448.953 137.626 449.401 137.944 449.98C138.261 450.549 138.42 451.207 138.42 451.954ZM136.754 451.45C136.744 450.862 136.534 450.391 136.124 450.036C135.713 449.681 135.204 449.504 134.598 449.504C134.047 449.504 133.576 449.681 133.184 450.036C132.792 450.381 132.558 450.853 132.484 451.45H136.754Z" fill="#B3BAC5"/>
<path d="M54.2318 480.408H44.2478V484.824C44.6744 484.355 45.2718 483.971 46.0398 483.672C46.8078 483.373 47.6398 483.224 48.5358 483.224C50.1358 483.224 51.4584 483.587 52.5037 484.312C53.5704 485.037 54.3491 485.976 54.8398 487.128C55.3304 488.28 55.5758 489.528 55.5758 490.872C55.5758 493.368 54.8718 495.352 53.4638 496.824C52.0558 498.275 50.0718 499 47.5118 499C45.8051 499 44.3224 498.712 43.0638 498.136C41.8051 497.539 40.8344 496.717 40.1518 495.672C39.4691 494.627 39.0958 493.421 39.0318 492.056H44.3758C44.5038 492.717 44.8131 493.272 45.3038 493.72C45.7944 494.147 46.4664 494.36 47.3198 494.36C48.3224 494.36 49.0691 494.04 49.5598 493.4C50.0504 492.76 50.2958 491.907 50.2958 490.84C50.2958 489.795 50.0398 488.995 49.5278 488.44C49.0158 487.885 48.2691 487.608 47.2878 487.608C46.5624 487.608 45.9651 487.789 45.4958 488.152C45.0264 488.493 44.7171 488.952 44.5677 489.528H39.2878V475.608H54.2318V480.408ZM58.7243 494.84V490.424L68.8363 475.96H74.9483V490.104H77.5723V494.84H74.9483V499H69.4763V494.84H58.7243ZM69.8603 481.976L64.4843 490.104H69.8603V481.976ZM79.8045 481.528C79.8045 479.8 80.2952 478.467 81.2765 477.528C82.2792 476.589 83.5698 476.12 85.1485 476.12C86.7272 476.12 88.0072 476.589 88.9885 477.528C89.9698 478.467 90.4605 479.8 90.4605 481.528C90.4605 483.256 89.9698 484.589 88.9885 485.528C88.0072 486.467 86.7272 486.936 85.1485 486.936C83.5698 486.936 82.2792 486.467 81.2765 485.528C80.2952 484.589 79.8045 483.256 79.8045 481.528ZM101.533 476.472L89.2125 499H83.9325L96.2525 476.472H101.533ZM85.1165 479.32C84.0925 479.32 83.5805 480.056 83.5805 481.528C83.5805 482.979 84.0925 483.704 85.1165 483.704C85.6072 483.704 85.9912 483.523 86.2685 483.16C86.5458 482.797 86.6845 482.253 86.6845 481.528C86.6845 480.056 86.1618 479.32 85.1165 479.32ZM95.0365 493.944C95.0365 492.216 95.5272 490.883 96.5085 489.944C97.4898 489.005 98.7698 488.536 100.349 488.536C101.927 488.536 103.207 489.005 104.189 489.944C105.17 490.883 105.661 492.216 105.661 493.944C105.661 495.672 105.17 497.005 104.189 497.944C103.207 498.883 101.927 499.352 100.349 499.352C98.7698 499.352 97.4898 498.883 96.5085 497.944C95.5272 497.005 95.0365 495.672 95.0365 493.944ZM100.317 491.736C99.8258 491.736 99.4418 491.917 99.1645 492.28C98.9085 492.643 98.7805 493.197 98.7805 493.944C98.7805 495.395 99.2925 496.12 100.317 496.12C100.807 496.12 101.191 495.939 101.469 495.576C101.746 495.213 101.885 494.669 101.885 493.944C101.885 493.219 101.746 492.675 101.469 492.312C101.191 491.928 100.807 491.736 100.317 491.736Z" fill="#94D1B4"/>
<g clip-path="url(#clip0_105_362)">
<path d="M484.5 509.583C466.78 509.583 452.417 495.22 452.417 477.5C452.417 459.78 466.78 445.417 484.5 445.417C502.22 445.417 516.583 459.78 516.583 477.5C516.583 495.22 502.22 509.583 484.5 509.583ZM468.458 480.708C468.458 484.963 470.148 489.043 473.157 492.052C476.165 495.06 480.245 496.75 484.5 496.75C488.754 496.75 492.835 495.06 495.843 492.052C498.852 489.043 500.542 484.963 500.542 480.708H494.125C494.125 483.261 493.111 485.709 491.306 487.514C489.501 489.319 487.053 490.333 484.5 490.333C481.947 490.333 479.499 489.319 477.694 487.514C475.889 485.709 474.875 483.261 474.875 480.708H468.458ZM471.667 474.292C472.943 474.292 474.167 473.785 475.07 472.882C475.972 471.98 476.479 470.756 476.479 469.479C476.479 468.203 475.972 466.979 475.07 466.076C474.167 465.174 472.943 464.667 471.667 464.667C470.39 464.667 469.166 465.174 468.264 466.076C467.361 466.979 466.854 468.203 466.854 469.479C466.854 470.756 467.361 471.98 468.264 472.882C469.166 473.785 470.39 474.292 471.667 474.292V474.292ZM497.333 474.292C498.61 474.292 499.834 473.785 500.736 472.882C501.639 471.98 502.146 470.756 502.146 469.479C502.146 468.203 501.639 466.979 500.736 466.076C499.834 465.174 498.61 464.667 497.333 464.667C496.057 464.667 494.833 465.174 493.93 466.076C493.028 466.979 492.521 468.203 492.521 469.479C492.521 470.756 493.028 471.98 493.93 472.882C494.833 473.785 496.057 474.292 497.333 474.292Z" fill="#94D1B4"/>
</g>
<g filter="url(#filter3_d_105_362)">
<rect x="9" y="6" width="528" height="256" rx="9" fill="white"/>
</g>
<path d="M38.9831 40.098C38.0778 40.098 37.2425 39.888 36.4771 39.468C35.7211 39.0387 35.1191 38.446 34.6711 37.69C34.2325 36.9247 34.0131 36.066 34.0131 35.114C34.0131 34.162 34.2325 33.308 34.6711 32.552C35.1191 31.796 35.7211 31.208 36.4771 30.788C37.2425 30.3587 38.0778 30.144 38.9831 30.144C39.8978 30.144 40.7331 30.3587 41.4891 30.788C42.2545 31.208 42.8565 31.796 43.2951 32.552C43.7338 33.308 43.9531 34.162 43.9531 35.114C43.9531 36.066 43.7338 36.9247 43.2951 37.69C42.8565 38.446 42.2545 39.0387 41.4891 39.468C40.7331 39.888 39.8978 40.098 38.9831 40.098ZM38.9831 38.712C39.6271 38.712 40.2011 38.5673 40.7051 38.278C41.2091 37.9793 41.6011 37.5593 41.8811 37.018C42.1705 36.4673 42.3151 35.8327 42.3151 35.114C42.3151 34.3953 42.1705 33.7653 41.8811 33.224C41.6011 32.6827 41.2091 32.2673 40.7051 31.978C40.2011 31.6887 39.6271 31.544 38.9831 31.544C38.3391 31.544 37.7651 31.6887 37.2611 31.978C36.7571 32.2673 36.3605 32.6827 36.0711 33.224C35.7911 33.7653 35.6511 34.3953 35.6511 35.114C35.6511 35.8327 35.7911 36.4673 36.0711 37.018C36.3605 37.5593 36.7571 37.9793 37.2611 38.278C37.7651 38.5673 38.3391 38.712 38.9831 38.712ZM48.5056 38.572L50.6896 32.286H52.3836L49.4436 40H47.5396L44.6136 32.286H46.3216L48.5056 38.572ZM60.66 35.954C60.66 36.2433 60.6414 36.5047 60.604 36.738H54.71C54.7567 37.354 54.9854 37.8487 55.396 38.222C55.8067 38.5953 56.3107 38.782 56.908 38.782C57.7667 38.782 58.3734 38.4227 58.728 37.704H60.45C60.2167 38.4133 59.792 38.9967 59.176 39.454C58.5694 39.902 57.8134 40.126 56.908 40.126C56.1707 40.126 55.508 39.9627 54.92 39.636C54.3414 39.3 53.884 38.8333 53.548 38.236C53.2214 37.6293 53.058 36.9293 53.058 36.136C53.058 35.3427 53.2167 34.6473 53.534 34.05C53.8607 33.4433 54.3134 32.9767 54.892 32.65C55.48 32.3233 56.152 32.16 56.908 32.16C57.636 32.16 58.2847 32.3187 58.854 32.636C59.4234 32.9533 59.8667 33.4013 60.184 33.98C60.5014 34.5493 60.66 35.2073 60.66 35.954ZM58.994 35.45C58.9847 34.862 58.7747 34.3907 58.364 34.036C57.9534 33.6813 57.4447 33.504 56.838 33.504C56.2874 33.504 55.816 33.6813 55.424 34.036C55.032 34.3813 54.7987 34.8527 54.724 35.45H58.994ZM63.8267 33.406C64.06 33.014 64.368 32.7107 64.7507 32.496C65.1427 32.272 65.6047 32.16 66.1367 32.16V33.812H65.7307C65.1053 33.812 64.6293 33.9707 64.3027 34.288C63.9853 34.6053 63.8267 35.156 63.8267 35.94V40H62.2307V32.286H63.8267V33.406ZM70.5857 38.572L72.7697 32.286H74.4637L71.5237 40H69.6197L66.6937 32.286H68.4017L70.5857 38.572ZM76.4821 31.264C76.1928 31.264 75.9501 31.166 75.7541 30.97C75.5581 30.774 75.4601 30.5313 75.4601 30.242C75.4601 29.9527 75.5581 29.71 75.7541 29.514C75.9501 29.318 76.1928 29.22 76.4821 29.22C76.7621 29.22 77.0001 29.318 77.1961 29.514C77.3921 29.71 77.4901 29.9527 77.4901 30.242C77.4901 30.5313 77.3921 30.774 77.1961 30.97C77.0001 31.166 76.7621 31.264 76.4821 31.264ZM77.2661 32.286V40H75.6701V32.286H77.2661ZM86.4315 35.954C86.4315 36.2433 86.4129 36.5047 86.3755 36.738H80.4815C80.5282 37.354 80.7569 37.8487 81.1675 38.222C81.5782 38.5953 82.0822 38.782 82.6795 38.782C83.5382 38.782 84.1449 38.4227 84.4995 37.704H86.2215C85.9882 38.4133 85.5635 38.9967 84.9475 39.454C84.3409 39.902 83.5849 40.126 82.6795 40.126C81.9422 40.126 81.2795 39.9627 80.6915 39.636C80.1129 39.3 79.6555 38.8333 79.3195 38.236C78.9929 37.6293 78.8295 36.9293 78.8295 36.136C78.8295 35.3427 78.9882 34.6473 79.3055 34.05C79.6322 33.4433 80.0849 32.9767 80.6635 32.65C81.2515 32.3233 81.9235 32.16 82.6795 32.16C83.4075 32.16 84.0562 32.3187 84.6255 32.636C85.1949 32.9533 85.6382 33.4013 85.9555 33.98C86.2729 34.5493 86.4315 35.2073 86.4315 35.954ZM84.7655 35.45C84.7562 34.862 84.5462 34.3907 84.1355 34.036C83.7249 33.6813 83.2162 33.504 82.6095 33.504C82.0589 33.504 81.5875 33.6813 81.1955 34.036C80.8035 34.3813 80.5702 34.8527 80.4955 35.45H84.7655ZM98.3621 32.286L95.9681 40H94.2881L92.7341 34.302L91.1801 40H89.5001L87.0921 32.286H88.7161L90.3261 38.488L91.9641 32.286H93.6301L95.1981 38.46L96.7941 32.286H98.3621Z" fill="#B3BAC5"/>
<path d="M67.2999 232.855H65.2779C65.241 232.594 65.1656 232.362 65.0517 232.158C64.9378 231.952 64.7917 231.777 64.6131 231.632C64.4346 231.487 64.2284 231.377 63.9945 231.3C63.7637 231.223 63.5129 231.184 63.2421 231.184C62.7527 231.184 62.3265 231.306 61.9633 231.549C61.6001 231.789 61.3185 232.14 61.1185 232.602C60.9184 233.06 60.8184 233.617 60.8184 234.273C60.8184 234.947 60.9184 235.513 61.1185 235.972C61.3216 236.43 61.6047 236.776 61.9679 237.01C62.3311 237.244 62.7512 237.361 63.2282 237.361C63.496 237.361 63.7437 237.326 63.9715 237.255C64.2023 237.184 64.4069 237.081 64.5854 236.946C64.764 236.807 64.9117 236.639 65.0286 236.442C65.1487 236.246 65.2318 236.021 65.2779 235.768L67.2999 235.778C67.2476 236.212 67.1168 236.63 66.9075 237.033C66.7013 237.433 66.4228 237.792 66.072 238.109C65.7242 238.423 65.3087 238.672 64.8255 238.857C64.3454 239.038 63.8022 239.129 63.1959 239.129C62.3526 239.129 61.5986 238.938 60.9338 238.557C60.2721 238.175 59.7489 237.623 59.3642 236.9C58.9826 236.176 58.7918 235.301 58.7918 234.273C58.7918 233.242 58.9857 232.365 59.3734 231.641C59.7612 230.918 60.2875 230.367 60.9523 229.989C61.6171 229.607 62.3649 229.416 63.1959 229.416C63.7437 229.416 64.2515 229.493 64.7193 229.647C65.1902 229.801 65.6072 230.026 65.9704 230.321C66.3336 230.613 66.629 230.972 66.8568 231.397C67.0876 231.821 67.2353 232.308 67.2999 232.855ZM70.663 234.901V239H68.6964V229.545H70.6076V233.16H70.6907C70.8508 232.742 71.1093 232.414 71.4663 232.177C71.8233 231.937 72.2711 231.817 72.8097 231.817C73.3021 231.817 73.7315 231.924 74.0977 232.14C74.467 232.352 74.7532 232.658 74.9564 233.059C75.1626 233.456 75.2641 233.931 75.2611 234.485V239H73.2944V234.836C73.2975 234.399 73.1867 234.059 72.962 233.816C72.7405 233.573 72.4296 233.451 72.0295 233.451C71.7618 233.451 71.5248 233.508 71.3186 233.622C71.1155 233.736 70.9554 233.902 70.8385 234.12C70.7246 234.336 70.6661 234.596 70.663 234.901ZM80.383 229.545V239H78.3841V231.443H78.3287L76.1636 232.8V231.027L78.5041 229.545H80.383Z" fill="#B3BAC5"/>
<rect x="40" y="142" width="61" height="72" rx="6" fill="#6299EB"/>
<path d="M60.504 139.139C60.0864 139.133 59.6688 139.053 59.2512 138.901C58.8335 138.748 58.4524 138.491 58.1077 138.13C57.763 137.765 57.4862 137.273 57.2774 136.653C57.0686 136.03 56.9642 135.248 56.9642 134.307C56.9642 133.405 57.0487 132.607 57.2178 131.911C57.3868 131.211 57.6321 130.623 57.9536 130.146C58.2751 129.665 58.6628 129.3 59.1169 129.052C59.5743 128.803 60.0897 128.679 60.6631 128.679C61.2332 128.679 61.7403 128.793 62.1844 129.022C62.6318 129.247 62.9964 129.562 63.2781 129.967C63.5599 130.371 63.7422 130.837 63.825 131.364H62.6119C62.4993 130.906 62.2805 130.527 61.9557 130.225C61.6309 129.924 61.2 129.773 60.6631 129.773C59.8743 129.773 59.2528 130.116 58.7987 130.802C58.348 131.488 58.1209 132.451 58.1176 133.69H58.1972C58.3828 133.409 58.6032 133.168 58.8584 132.969C59.1169 132.767 59.402 132.612 59.7135 132.502C60.0251 132.393 60.3548 132.338 60.7029 132.338C61.2862 132.338 61.8198 132.484 62.3037 132.776C62.7876 133.064 63.1754 133.463 63.4671 133.974C63.7587 134.481 63.9046 135.062 63.9046 135.719C63.9046 136.348 63.7637 136.925 63.482 137.449C63.2003 137.969 62.8042 138.384 62.2938 138.692C61.7867 138.997 61.1901 139.146 60.504 139.139ZM60.504 138.045C60.9216 138.045 61.2961 137.941 61.6276 137.732C61.9623 137.523 62.2258 137.243 62.4181 136.892C62.6136 136.541 62.7114 136.15 62.7114 135.719C62.7114 135.298 62.6169 134.915 62.428 134.57C62.2424 134.222 61.9855 133.946 61.6574 133.74C61.3326 133.535 60.9614 133.432 60.5438 133.432C60.2289 133.432 59.9356 133.495 59.6638 133.621C59.392 133.743 59.1534 133.912 58.9479 134.128C58.7457 134.343 58.5866 134.59 58.4706 134.869C58.3546 135.144 58.2966 135.434 58.2966 135.739C58.2966 136.143 58.3911 136.521 58.58 136.872C58.7722 137.223 59.0341 137.507 59.3655 137.722C59.7003 137.938 60.0798 138.045 60.504 138.045ZM69.1807 139.139C68.4316 139.139 67.7936 138.935 67.2666 138.528C66.7396 138.117 66.3369 137.522 66.0585 136.743C65.7801 135.961 65.6409 135.016 65.6409 133.909C65.6409 132.809 65.7801 131.869 66.0585 131.09C66.3402 130.308 66.7446 129.711 67.2716 129.3C67.8019 128.886 68.4382 128.679 69.1807 128.679C69.9231 128.679 70.5578 128.886 71.0848 129.3C71.6151 129.711 72.0194 130.308 72.2979 131.09C72.5796 131.869 72.7204 132.809 72.7204 133.909C72.7204 135.016 72.5812 135.961 72.3028 136.743C72.0244 137.522 71.6217 138.117 71.0947 138.528C70.5677 138.935 69.9297 139.139 69.1807 139.139ZM69.1807 138.045C69.9231 138.045 70.4998 137.687 70.9108 136.972C71.3218 136.256 71.5273 135.235 71.5273 133.909C71.5273 133.027 71.4328 132.277 71.2439 131.657C71.0583 131.037 70.7898 130.565 70.4385 130.24C70.0905 129.915 69.6712 129.753 69.1807 129.753C68.4449 129.753 67.8698 130.116 67.4555 130.842C67.0412 131.564 66.8341 132.587 66.8341 133.909C66.8341 134.791 66.9269 135.54 67.1125 136.156C67.2981 136.773 67.5649 137.242 67.9129 137.563C68.2642 137.885 68.6868 138.045 69.1807 138.045ZM79.8 137.091V136.554C79.8 136.183 79.8762 135.843 80.0287 135.535C80.1845 135.223 80.4098 134.975 80.7048 134.789C81.0031 134.6 81.3644 134.506 81.7886 134.506C82.2195 134.506 82.5808 134.6 82.8724 134.789C83.1641 134.975 83.3845 135.223 83.5336 135.535C83.6828 135.843 83.7574 136.183 83.7574 136.554V137.091C83.7574 137.462 83.6811 137.804 83.5287 138.115C83.3795 138.423 83.1575 138.672 82.8625 138.861C82.5708 139.046 82.2129 139.139 81.7886 139.139C81.3577 139.139 80.9948 139.046 80.6998 138.861C80.4049 138.672 80.1811 138.423 80.0287 138.115C79.8762 137.804 79.8 137.462 79.8 137.091ZM80.8142 136.554V137.091C80.8142 137.399 80.8871 137.676 81.0329 137.921C81.1788 138.163 81.4307 138.284 81.7886 138.284C82.1366 138.284 82.3819 138.163 82.5244 137.921C82.6702 137.676 82.7432 137.399 82.7432 137.091V136.554C82.7432 136.246 82.6736 135.971 82.5344 135.729C82.3952 135.483 82.1466 135.361 81.7886 135.361C81.4406 135.361 81.1904 135.483 81.0379 135.729C80.8888 135.971 80.8142 136.246 80.8142 136.554ZM74.729 131.264V130.727C74.729 130.356 74.8052 130.016 74.9577 129.708C75.1134 129.397 75.3388 129.148 75.6338 128.962C75.9321 128.773 76.2934 128.679 76.7176 128.679C77.1485 128.679 77.5097 128.773 77.8014 128.962C78.0931 129.148 78.3135 129.397 78.4626 129.708C78.6118 130.016 78.6863 130.356 78.6863 130.727V131.264C78.6863 131.635 78.6101 131.977 78.4577 132.288C78.3085 132.597 78.0864 132.845 77.7915 133.034C77.4998 133.22 77.1418 133.312 76.7176 133.312C76.2867 133.312 75.9238 133.22 75.6288 133.034C75.3338 132.845 75.1101 132.597 74.9577 132.288C74.8052 131.977 74.729 131.635 74.729 131.264ZM75.7432 130.727V131.264C75.7432 131.572 75.8161 131.849 75.9619 132.094C76.1077 132.336 76.3596 132.457 76.7176 132.457C77.0656 132.457 77.3109 132.336 77.4534 132.094C77.5992 131.849 77.6721 131.572 77.6721 131.264V130.727C77.6721 130.419 77.6025 130.144 77.4633 129.902C77.3241 129.657 77.0756 129.534 76.7176 129.534C76.3696 129.534 76.1193 129.657 75.9669 129.902C75.8177 130.144 75.7432 130.419 75.7432 130.727ZM75.1068 139L82.1068 128.818H83.2403L76.2403 139H75.1068Z" fill="#B3BAC5"/>
<path d="M166.626 232.855H164.604C164.567 232.594 164.491 232.362 164.377 232.158C164.264 231.952 164.117 231.777 163.939 231.632C163.76 231.487 163.554 231.377 163.32 231.3C163.089 231.223 162.839 231.184 162.568 231.184C162.078 231.184 161.652 231.306 161.289 231.549C160.926 231.789 160.644 232.14 160.444 232.602C160.244 233.06 160.144 233.617 160.144 234.273C160.144 234.947 160.244 235.513 160.444 235.972C160.647 236.43 160.93 236.776 161.294 237.01C161.657 237.244 162.077 237.361 162.554 237.361C162.822 237.361 163.069 237.326 163.297 237.255C163.528 237.184 163.733 237.081 163.911 236.946C164.09 236.807 164.237 236.639 164.354 236.442C164.474 236.246 164.557 236.021 164.604 235.768L166.626 235.778C166.573 236.212 166.443 236.63 166.233 237.033C166.027 237.433 165.748 237.792 165.398 238.109C165.05 238.423 164.634 238.672 164.151 238.857C163.671 239.038 163.128 239.129 162.522 239.129C161.678 239.129 160.924 238.938 160.259 238.557C159.598 238.175 159.075 237.623 158.69 236.9C158.308 236.176 158.117 235.301 158.117 234.273C158.117 233.242 158.311 232.365 158.699 231.641C159.087 230.918 159.613 230.367 160.278 229.989C160.943 229.607 161.691 229.416 162.522 229.416C163.069 229.416 163.577 229.493 164.045 229.647C164.516 229.801 164.933 230.026 165.296 230.321C165.659 230.613 165.955 230.972 166.182 231.397C166.413 231.821 166.561 232.308 166.626 232.855ZM169.989 234.901V239H168.022V229.545H169.933V233.16H170.016C170.176 232.742 170.435 232.414 170.792 232.177C171.149 231.937 171.597 231.817 172.135 231.817C172.628 231.817 173.057 231.924 173.423 232.14C173.793 232.352 174.079 232.658 174.282 233.059C174.488 233.456 174.59 233.931 174.587 234.485V239H172.62V234.836C172.623 234.399 172.512 234.059 172.288 233.816C172.066 233.573 171.755 233.451 171.355 233.451C171.087 233.451 170.85 233.508 170.644 233.622C170.441 233.736 170.281 233.902 170.164 234.12C170.05 234.336 169.992 234.596 169.989 234.901ZM176.116 239V237.56L179.481 234.444C179.768 234.167 180.008 233.917 180.202 233.696C180.398 233.474 180.548 233.257 180.649 233.045C180.751 232.829 180.802 232.597 180.802 232.348C180.802 232.071 180.739 231.832 180.612 231.632C180.486 231.429 180.314 231.274 180.095 231.166C179.877 231.055 179.629 231 179.352 231C179.063 231 178.81 231.058 178.595 231.175C178.38 231.292 178.213 231.46 178.096 231.678C177.979 231.897 177.921 232.157 177.921 232.458H176.024C176.024 231.84 176.164 231.303 176.444 230.847C176.724 230.392 177.116 230.039 177.621 229.79C178.126 229.541 178.707 229.416 179.366 229.416C180.043 229.416 180.632 229.536 181.134 229.776C181.639 230.013 182.031 230.343 182.311 230.764C182.591 231.186 182.731 231.669 182.731 232.214C182.731 232.571 182.661 232.923 182.519 233.271C182.381 233.619 182.133 234.005 181.776 234.43C181.419 234.851 180.916 235.358 180.266 235.949L178.886 237.301V237.366H182.856V239H176.116Z" fill="#B3BAC5"/>
<rect x="140" y="142" width="61" height="72" rx="6" fill="#6299EB"/>
<path d="M160.504 139.139C160.086 139.133 159.669 139.053 159.251 138.901C158.834 138.748 158.452 138.491 158.108 138.13C157.763 137.765 157.486 137.273 157.277 136.653C157.069 136.03 156.964 135.248 156.964 134.307C156.964 133.405 157.049 132.607 157.218 131.911C157.387 131.211 157.632 130.623 157.954 130.146C158.275 129.665 158.663 129.3 159.117 129.052C159.574 128.803 160.09 128.679 160.663 128.679C161.233 128.679 161.74 128.793 162.184 129.022C162.632 129.247 162.996 129.562 163.278 129.967C163.56 130.371 163.742 130.837 163.825 131.364H162.612C162.499 130.906 162.281 130.527 161.956 130.225C161.631 129.924 161.2 129.773 160.663 129.773C159.874 129.773 159.253 130.116 158.799 130.802C158.348 131.488 158.121 132.451 158.118 133.69H158.197C158.383 133.409 158.603 133.168 158.858 132.969C159.117 132.767 159.402 132.612 159.714 132.502C160.025 132.393 160.355 132.338 160.703 132.338C161.286 132.338 161.82 132.484 162.304 132.776C162.788 133.064 163.175 133.463 163.467 133.974C163.759 134.481 163.905 135.062 163.905 135.719C163.905 136.348 163.764 136.925 163.482 137.449C163.2 137.969 162.804 138.384 162.294 138.692C161.787 138.997 161.19 139.146 160.504 139.139ZM160.504 138.045C160.922 138.045 161.296 137.941 161.628 137.732C161.962 137.523 162.226 137.243 162.418 136.892C162.614 136.541 162.711 136.15 162.711 135.719C162.711 135.298 162.617 134.915 162.428 134.57C162.242 134.222 161.986 133.946 161.657 133.74C161.333 133.535 160.961 133.432 160.544 133.432C160.229 133.432 159.936 133.495 159.664 133.621C159.392 133.743 159.153 133.912 158.948 134.128C158.746 134.343 158.587 134.59 158.471 134.869C158.355 135.144 158.297 135.434 158.297 135.739C158.297 136.143 158.391 136.521 158.58 136.872C158.772 137.223 159.034 137.507 159.366 137.722C159.7 137.938 160.08 138.045 160.504 138.045ZM169.181 139.139C168.432 139.139 167.794 138.935 167.267 138.528C166.74 138.117 166.337 137.522 166.059 136.743C165.78 135.961 165.641 135.016 165.641 133.909C165.641 132.809 165.78 131.869 166.059 131.09C166.34 130.308 166.745 129.711 167.272 129.3C167.802 128.886 168.438 128.679 169.181 128.679C169.923 128.679 170.558 128.886 171.085 129.3C171.615 129.711 172.019 130.308 172.298 131.09C172.58 131.869 172.72 132.809 172.72 133.909C172.72 135.016 172.581 135.961 172.303 136.743C172.024 137.522 171.622 138.117 171.095 138.528C170.568 138.935 169.93 139.139 169.181 139.139ZM169.181 138.045C169.923 138.045 170.5 137.687 170.911 136.972C171.322 136.256 171.527 135.235 171.527 133.909C171.527 133.027 171.433 132.277 171.244 131.657C171.058 131.037 170.79 130.565 170.438 130.24C170.09 129.915 169.671 129.753 169.181 129.753C168.445 129.753 167.87 130.116 167.456 130.842C167.041 131.564 166.834 132.587 166.834 133.909C166.834 134.791 166.927 135.54 167.112 136.156C167.298 136.773 167.565 137.242 167.913 137.563C168.264 137.885 168.687 138.045 169.181 138.045ZM179.8 137.091V136.554C179.8 136.183 179.876 135.843 180.029 135.535C180.184 135.223 180.41 134.975 180.705 134.789C181.003 134.6 181.364 134.506 181.789 134.506C182.219 134.506 182.581 134.6 182.872 134.789C183.164 134.975 183.384 135.223 183.534 135.535C183.683 135.843 183.757 136.183 183.757 136.554V137.091C183.757 137.462 183.681 137.804 183.529 138.115C183.38 138.423 183.157 138.672 182.862 138.861C182.571 139.046 182.213 139.139 181.789 139.139C181.358 139.139 180.995 139.046 180.7 138.861C180.405 138.672 180.181 138.423 180.029 138.115C179.876 137.804 179.8 137.462 179.8 137.091ZM180.814 136.554V137.091C180.814 137.399 180.887 137.676 181.033 137.921C181.179 138.163 181.431 138.284 181.789 138.284C182.137 138.284 182.382 138.163 182.524 137.921C182.67 137.676 182.743 137.399 182.743 137.091V136.554C182.743 136.246 182.674 135.971 182.534 135.729C182.395 135.483 182.147 135.361 181.789 135.361C181.441 135.361 181.19 135.483 181.038 135.729C180.889 135.971 180.814 136.246 180.814 136.554ZM174.729 131.264V130.727C174.729 130.356 174.805 130.016 174.958 129.708C175.113 129.397 175.339 129.148 175.634 128.962C175.932 128.773 176.293 128.679 176.718 128.679C177.148 128.679 177.51 128.773 177.801 128.962C178.093 129.148 178.313 129.397 178.463 129.708C178.612 130.016 178.686 130.356 178.686 130.727V131.264C178.686 131.635 178.61 131.977 178.458 132.288C178.309 132.597 178.086 132.845 177.791 133.034C177.5 133.22 177.142 133.312 176.718 133.312C176.287 133.312 175.924 133.22 175.629 133.034C175.334 132.845 175.11 132.597 174.958 132.288C174.805 131.977 174.729 131.635 174.729 131.264ZM175.743 130.727V131.264C175.743 131.572 175.816 131.849 175.962 132.094C176.108 132.336 176.36 132.457 176.718 132.457C177.066 132.457 177.311 132.336 177.453 132.094C177.599 131.849 177.672 131.572 177.672 131.264V130.727C177.672 130.419 177.603 130.144 177.463 129.902C177.324 129.657 177.076 129.534 176.718 129.534C176.37 129.534 176.119 129.657 175.967 129.902C175.818 130.144 175.743 130.419 175.743 130.727ZM175.107 139L182.107 128.818H183.24L176.24 139H175.107Z" fill="#B3BAC5"/>
<path d="M266.435 232.855H264.413C264.376 232.594 264.301 232.362 264.187 232.158C264.073 231.952 263.927 231.777 263.748 231.632C263.57 231.487 263.364 231.377 263.13 231.3C262.899 231.223 262.648 231.184 262.377 231.184C261.888 231.184 261.462 231.306 261.099 231.549C260.735 231.789 260.454 232.14 260.254 232.602C260.054 233.06 259.954 233.617 259.954 234.273C259.954 234.947 260.054 235.513 260.254 235.972C260.457 236.43 260.74 236.776 261.103 237.01C261.466 237.244 261.886 237.361 262.363 237.361C262.631 237.361 262.879 237.326 263.107 237.255C263.338 237.184 263.542 237.081 263.721 236.946C263.899 236.807 264.047 236.639 264.164 236.442C264.284 236.246 264.367 236.021 264.413 235.768L266.435 235.778C266.383 236.212 266.252 236.63 266.043 237.033C265.837 237.433 265.558 237.792 265.207 238.109C264.859 238.423 264.444 238.672 263.961 238.857C263.481 239.038 262.937 239.129 262.331 239.129C261.488 239.129 260.734 238.938 260.069 238.557C259.407 238.175 258.884 237.623 258.499 236.9C258.118 236.176 257.927 235.301 257.927 234.273C257.927 233.242 258.121 232.365 258.509 231.641C258.896 230.918 259.423 230.367 260.088 229.989C260.752 229.607 261.5 229.416 262.331 229.416C262.879 229.416 263.387 229.493 263.855 229.647C264.325 229.801 264.742 230.026 265.106 230.321C265.469 230.613 265.764 230.972 265.992 231.397C266.223 231.821 266.371 232.308 266.435 232.855ZM269.798 234.901V239H267.832V229.545H269.743V233.16H269.826C269.986 232.742 270.245 232.414 270.602 232.177C270.959 231.937 271.406 231.817 271.945 231.817C272.437 231.817 272.867 231.924 273.233 232.14C273.602 232.352 273.888 232.658 274.092 233.059C274.298 233.456 274.399 233.931 274.396 234.485V239H272.43V234.836C272.433 234.399 272.322 234.059 272.097 233.816C271.876 233.573 271.565 233.451 271.165 233.451C270.897 233.451 270.66 233.508 270.454 233.622C270.251 233.736 270.091 233.902 269.974 234.12C269.86 234.336 269.801 234.596 269.798 234.901ZM279.42 239.129C278.731 239.129 278.117 239.011 277.578 238.774C277.043 238.534 276.62 238.204 276.309 237.786C276.001 237.364 275.842 236.878 275.833 236.327H277.846C277.858 236.558 277.934 236.761 278.072 236.936C278.214 237.109 278.401 237.243 278.635 237.338C278.869 237.433 279.132 237.481 279.425 237.481C279.729 237.481 279.999 237.427 280.233 237.32C280.467 237.212 280.65 237.063 280.782 236.872C280.914 236.681 280.981 236.461 280.981 236.212C280.981 235.959 280.91 235.736 280.768 235.542C280.63 235.345 280.43 235.191 280.168 235.081C279.91 234.97 279.602 234.914 279.245 234.914H278.363V233.446H279.245C279.546 233.446 279.813 233.394 280.043 233.289C280.277 233.185 280.459 233.04 280.588 232.855C280.717 232.668 280.782 232.449 280.782 232.2C280.782 231.963 280.725 231.755 280.611 231.577C280.5 231.395 280.343 231.254 280.14 231.152C279.94 231.05 279.706 231 279.439 231C279.168 231 278.92 231.049 278.695 231.147C278.471 231.243 278.291 231.38 278.155 231.558C278.02 231.737 277.948 231.946 277.938 232.186H276.022C276.032 231.641 276.187 231.161 276.489 230.746C276.79 230.33 277.197 230.006 277.707 229.772C278.221 229.535 278.802 229.416 279.448 229.416C280.1 229.416 280.671 229.535 281.161 229.772C281.65 230.009 282.03 230.329 282.301 230.732C282.575 231.132 282.71 231.581 282.707 232.08C282.71 232.609 282.546 233.051 282.213 233.405C281.884 233.759 281.455 233.983 280.925 234.079V234.153C281.621 234.242 282.15 234.484 282.513 234.877C282.879 235.268 283.061 235.758 283.058 236.346C283.061 236.884 282.906 237.363 282.592 237.781C282.281 238.2 281.852 238.529 281.304 238.769C280.756 239.009 280.128 239.129 279.42 239.129Z" fill="#B3BAC5"/>
<rect x="240" y="102" width="61" height="113" rx="6" fill="#6299EB"/>
<path d="M260.439 98.1392C259.757 98.1392 259.153 98.0182 258.63 97.7763C258.109 97.531 257.703 97.1946 257.412 96.767C257.12 96.3362 256.976 95.8456 256.979 95.2955C256.976 94.8646 257.06 94.4669 257.233 94.1023C257.405 93.7344 257.64 93.4278 257.939 93.1825C258.24 92.9339 258.577 92.7765 258.948 92.7102V92.6506C258.461 92.5246 258.073 92.2512 257.785 91.8303C257.496 91.406 257.354 90.9238 257.357 90.3835C257.354 89.8665 257.485 89.4041 257.75 88.9964C258.015 88.5888 258.379 88.2673 258.843 88.032C259.311 87.7966 259.843 87.679 260.439 87.679C261.029 87.679 261.556 87.7966 262.02 88.032C262.484 88.2673 262.849 88.5888 263.114 88.9964C263.383 89.4041 263.518 89.8665 263.522 90.3835C263.518 90.9238 263.371 91.406 263.079 91.8303C262.791 92.2512 262.408 92.5246 261.931 92.6506V92.7102C262.299 92.7765 262.63 92.9339 262.925 93.1825C263.22 93.4278 263.455 93.7344 263.631 94.1023C263.807 94.4669 263.896 94.8646 263.9 95.2955C263.896 95.8456 263.747 96.3362 263.452 96.767C263.16 97.1946 262.754 97.531 262.234 97.7763C261.717 98.0182 261.119 98.1392 260.439 98.1392ZM260.439 97.0455C260.9 97.0455 261.298 96.9709 261.633 96.8217C261.967 96.6726 262.226 96.4621 262.408 96.1903C262.59 95.9186 262.683 95.6004 262.687 95.2358C262.683 94.8513 262.584 94.5116 262.388 94.2166C262.193 93.9216 261.926 93.6896 261.588 93.5206C261.253 93.3516 260.87 93.267 260.439 93.267C260.005 93.267 259.617 93.3516 259.276 93.5206C258.938 93.6896 258.671 93.9216 258.476 94.2166C258.283 94.5116 258.189 94.8513 258.192 95.2358C258.189 95.6004 258.277 95.9186 258.456 96.1903C258.638 96.4621 258.898 96.6726 259.236 96.8217C259.574 96.9709 259.975 97.0455 260.439 97.0455ZM260.439 92.2131C260.804 92.2131 261.127 92.1402 261.409 91.9943C261.694 91.8485 261.918 91.6446 262.08 91.3828C262.242 91.121 262.325 90.8144 262.329 90.4631C262.325 90.1184 262.244 89.8184 262.085 89.5632C261.926 89.3047 261.705 89.1058 261.424 88.9666C261.142 88.8241 260.814 88.7528 260.439 88.7528C260.058 88.7528 259.725 88.8241 259.44 88.9666C259.155 89.1058 258.935 89.3047 258.779 89.5632C258.623 89.8184 258.547 90.1184 258.55 90.4631C258.547 90.8144 258.625 91.121 258.784 91.3828C258.946 91.6446 259.17 91.8485 259.455 91.9943C259.74 92.1402 260.068 92.2131 260.439 92.2131ZM269.126 98.1392C268.377 98.1392 267.739 97.9354 267.212 97.5277C266.685 97.1167 266.282 96.5218 266.004 95.7429C265.725 94.9607 265.586 94.0161 265.586 92.9091C265.586 91.8087 265.725 90.8691 266.004 90.0902C266.286 89.308 266.69 88.7114 267.217 88.3004C267.747 87.8861 268.384 87.679 269.126 87.679C269.868 87.679 270.503 87.8861 271.03 88.3004C271.56 88.7114 271.965 89.308 272.243 90.0902C272.525 90.8691 272.666 91.8087 272.666 92.9091C272.666 94.0161 272.527 94.9607 272.248 95.7429C271.97 96.5218 271.567 97.1167 271.04 97.5277C270.513 97.9354 269.875 98.1392 269.126 98.1392ZM269.126 97.0455C269.868 97.0455 270.445 96.6875 270.856 95.9716C271.267 95.2557 271.473 94.2348 271.473 92.9091C271.473 92.0275 271.378 91.2768 271.189 90.657C271.004 90.0372 270.735 89.5649 270.384 89.2401C270.036 88.9152 269.617 88.7528 269.126 88.7528C268.39 88.7528 267.815 89.1158 267.401 89.8416C266.987 90.5642 266.779 91.5866 266.779 92.9091C266.779 93.7907 266.872 94.5398 267.058 95.1562C267.243 95.7727 267.51 96.2417 267.858 96.5632C268.21 96.8847 268.632 97.0455 269.126 97.0455ZM279.745 96.0909V95.554C279.745 95.1828 279.822 94.843 279.974 94.5348C280.13 94.2232 280.355 93.9747 280.65 93.7891C280.948 93.6001 281.31 93.5057 281.734 93.5057C282.165 93.5057 282.526 93.6001 282.818 93.7891C283.109 93.9747 283.33 94.2232 283.479 94.5348C283.628 94.843 283.703 95.1828 283.703 95.554V96.0909C283.703 96.4621 283.626 96.8035 283.474 97.1151C283.325 97.4233 283.103 97.6719 282.808 97.8608C282.516 98.0464 282.158 98.1392 281.734 98.1392C281.303 98.1392 280.94 98.0464 280.645 97.8608C280.35 97.6719 280.126 97.4233 279.974 97.1151C279.822 96.8035 279.745 96.4621 279.745 96.0909ZM280.759 95.554V96.0909C280.759 96.3991 280.832 96.6759 280.978 96.9212C281.124 97.1631 281.376 97.2841 281.734 97.2841C282.082 97.2841 282.327 97.1631 282.47 96.9212C282.616 96.6759 282.688 96.3991 282.688 96.0909V95.554C282.688 95.2457 282.619 94.9706 282.48 94.7287C282.34 94.4834 282.092 94.3608 281.734 94.3608C281.386 94.3608 281.136 94.4834 280.983 94.7287C280.834 94.9706 280.759 95.2457 280.759 95.554ZM274.674 90.2642V89.7273C274.674 89.3561 274.751 89.0163 274.903 88.7081C275.059 88.3965 275.284 88.148 275.579 87.9624C275.877 87.7734 276.239 87.679 276.663 87.679C277.094 87.679 277.455 87.7734 277.747 87.9624C278.038 88.148 278.259 88.3965 278.408 88.7081C278.557 89.0163 278.632 89.3561 278.632 89.7273V90.2642C278.632 90.6354 278.555 90.9768 278.403 91.2884C278.254 91.5966 278.032 91.8452 277.737 92.0341C277.445 92.2197 277.087 92.3125 276.663 92.3125C276.232 92.3125 275.869 92.2197 275.574 92.0341C275.279 91.8452 275.055 91.5966 274.903 91.2884C274.751 90.9768 274.674 90.6354 274.674 90.2642ZM275.688 89.7273V90.2642C275.688 90.5724 275.761 90.8492 275.907 91.0945C276.053 91.3364 276.305 91.4574 276.663 91.4574C277.011 91.4574 277.256 91.3364 277.399 91.0945C277.545 90.8492 277.617 90.5724 277.617 90.2642V89.7273C277.617 89.419 277.548 89.1439 277.409 88.902C277.269 88.6567 277.021 88.5341 276.663 88.5341C276.315 88.5341 276.065 88.6567 275.912 88.902C275.763 89.1439 275.688 89.419 275.688 89.7273ZM275.052 98L282.052 87.8182H283.186L276.186 98H275.052Z" fill="#B3BAC5"/>
<path d="M366.315 232.855H364.293C364.256 232.594 364.18 232.362 364.066 232.158C363.952 231.952 363.806 231.777 363.628 231.632C363.449 231.487 363.243 231.377 363.009 231.3C362.778 231.223 362.528 231.184 362.257 231.184C361.767 231.184 361.341 231.306 360.978 231.549C360.615 231.789 360.333 232.14 360.133 232.602C359.933 233.06 359.833 233.617 359.833 234.273C359.833 234.947 359.933 235.513 360.133 235.972C360.336 236.43 360.619 236.776 360.983 237.01C361.346 237.244 361.766 237.361 362.243 237.361C362.511 237.361 362.758 237.326 362.986 237.255C363.217 237.184 363.422 237.081 363.6 236.946C363.779 236.807 363.926 236.639 364.043 236.442C364.163 236.246 364.246 236.021 364.293 235.768L366.315 235.778C366.262 236.212 366.131 236.63 365.922 237.033C365.716 237.433 365.437 237.792 365.087 238.109C364.739 238.423 364.323 238.672 363.84 238.857C363.36 239.038 362.817 239.129 362.211 239.129C361.367 239.129 360.613 238.938 359.948 238.557C359.287 238.175 358.764 237.623 358.379 236.9C357.997 236.176 357.806 235.301 357.806 234.273C357.806 233.242 358 232.365 358.388 231.641C358.776 230.918 359.302 230.367 359.967 229.989C360.632 229.607 361.38 229.416 362.211 229.416C362.758 229.416 363.266 229.493 363.734 229.647C364.205 229.801 364.622 230.026 364.985 230.321C365.348 230.613 365.644 230.972 365.871 231.397C366.102 231.821 366.25 232.308 366.315 232.855ZM369.678 234.901V239H367.711V229.545H369.622V233.16H369.705C369.865 232.742 370.124 232.414 370.481 232.177C370.838 231.937 371.286 231.817 371.824 231.817C372.317 231.817 372.746 231.924 373.112 232.14C373.482 232.352 373.768 232.658 373.971 233.059C374.177 233.456 374.279 233.931 374.276 234.485V239H372.309V234.836C372.312 234.399 372.201 234.059 371.977 233.816C371.755 233.573 371.444 233.451 371.044 233.451C370.776 233.451 370.539 233.508 370.333 233.622C370.13 233.736 369.97 233.902 369.853 234.12C369.739 234.336 369.681 234.596 369.678 234.901ZM375.662 237.338V235.764L379.609 229.545H380.966V231.724H380.163L377.675 235.662V235.736H383.284V237.338H375.662ZM380.2 239V236.858L380.237 236.161V229.545H382.111V239H380.2Z" fill="#B3BAC5"/>
<rect x="340" y="142" width="61" height="72" rx="6" fill="#6299EB"/>
<path d="M360.504 139.139C360.086 139.133 359.669 139.053 359.251 138.901C358.834 138.748 358.452 138.491 358.108 138.13C357.763 137.765 357.486 137.273 357.277 136.653C357.069 136.03 356.964 135.248 356.964 134.307C356.964 133.405 357.049 132.607 357.218 131.911C357.387 131.211 357.632 130.623 357.954 130.146C358.275 129.665 358.663 129.3 359.117 129.052C359.574 128.803 360.09 128.679 360.663 128.679C361.233 128.679 361.74 128.793 362.184 129.022C362.632 129.247 362.996 129.562 363.278 129.967C363.56 130.371 363.742 130.837 363.825 131.364H362.612C362.499 130.906 362.281 130.527 361.956 130.225C361.631 129.924 361.2 129.773 360.663 129.773C359.874 129.773 359.253 130.116 358.799 130.802C358.348 131.488 358.121 132.451 358.118 133.69H358.197C358.383 133.409 358.603 133.168 358.858 132.969C359.117 132.767 359.402 132.612 359.714 132.502C360.025 132.393 360.355 132.338 360.703 132.338C361.286 132.338 361.82 132.484 362.304 132.776C362.788 133.064 363.175 133.463 363.467 133.974C363.759 134.481 363.905 135.062 363.905 135.719C363.905 136.348 363.764 136.925 363.482 137.449C363.2 137.969 362.804 138.384 362.294 138.692C361.787 138.997 361.19 139.146 360.504 139.139ZM360.504 138.045C360.922 138.045 361.296 137.941 361.628 137.732C361.962 137.523 362.226 137.243 362.418 136.892C362.614 136.541 362.711 136.15 362.711 135.719C362.711 135.298 362.617 134.915 362.428 134.57C362.242 134.222 361.986 133.946 361.657 133.74C361.333 133.535 360.961 133.432 360.544 133.432C360.229 133.432 359.936 133.495 359.664 133.621C359.392 133.743 359.153 133.912 358.948 134.128C358.746 134.343 358.587 134.59 358.471 134.869C358.355 135.144 358.297 135.434 358.297 135.739C358.297 136.143 358.391 136.521 358.58 136.872C358.772 137.223 359.034 137.507 359.366 137.722C359.7 137.938 360.08 138.045 360.504 138.045ZM369.181 139.139C368.432 139.139 367.794 138.935 367.267 138.528C366.74 138.117 366.337 137.522 366.059 136.743C365.78 135.961 365.641 135.016 365.641 133.909C365.641 132.809 365.78 131.869 366.059 131.09C366.34 130.308 366.745 129.711 367.272 129.3C367.802 128.886 368.438 128.679 369.181 128.679C369.923 128.679 370.558 128.886 371.085 129.3C371.615 129.711 372.019 130.308 372.298 131.09C372.58 131.869 372.72 132.809 372.72 133.909C372.72 135.016 372.581 135.961 372.303 136.743C372.024 137.522 371.622 138.117 371.095 138.528C370.568 138.935 369.93 139.139 369.181 139.139ZM369.181 138.045C369.923 138.045 370.5 137.687 370.911 136.972C371.322 136.256 371.527 135.235 371.527 133.909C371.527 133.027 371.433 132.277 371.244 131.657C371.058 131.037 370.79 130.565 370.438 130.24C370.09 129.915 369.671 129.753 369.181 129.753C368.445 129.753 367.87 130.116 367.456 130.842C367.041 131.564 366.834 132.587 366.834 133.909C366.834 134.791 366.927 135.54 367.112 136.156C367.298 136.773 367.565 137.242 367.913 137.563C368.264 137.885 368.687 138.045 369.181 138.045ZM379.8 137.091V136.554C379.8 136.183 379.876 135.843 380.029 135.535C380.184 135.223 380.41 134.975 380.705 134.789C381.003 134.6 381.364 134.506 381.789 134.506C382.219 134.506 382.581 134.6 382.872 134.789C383.164 134.975 383.384 135.223 383.534 135.535C383.683 135.843 383.757 136.183 383.757 136.554V137.091C383.757 137.462 383.681 137.804 383.529 138.115C383.38 138.423 383.157 138.672 382.862 138.861C382.571 139.046 382.213 139.139 381.789 139.139C381.358 139.139 380.995 139.046 380.7 138.861C380.405 138.672 380.181 138.423 380.029 138.115C379.876 137.804 379.8 137.462 379.8 137.091ZM380.814 136.554V137.091C380.814 137.399 380.887 137.676 381.033 137.921C381.179 138.163 381.431 138.284 381.789 138.284C382.137 138.284 382.382 138.163 382.524 137.921C382.67 137.676 382.743 137.399 382.743 137.091V136.554C382.743 136.246 382.674 135.971 382.534 135.729C382.395 135.483 382.147 135.361 381.789 135.361C381.441 135.361 381.19 135.483 381.038 135.729C380.889 135.971 380.814 136.246 380.814 136.554ZM374.729 131.264V130.727C374.729 130.356 374.805 130.016 374.958 129.708C375.113 129.397 375.339 129.148 375.634 128.962C375.932 128.773 376.293 128.679 376.718 128.679C377.148 128.679 377.51 128.773 377.801 128.962C378.093 129.148 378.313 129.397 378.463 129.708C378.612 130.016 378.686 130.356 378.686 130.727V131.264C378.686 131.635 378.61 131.977 378.458 132.288C378.309 132.597 378.086 132.845 377.791 133.034C377.5 133.22 377.142 133.312 376.718 133.312C376.287 133.312 375.924 133.22 375.629 133.034C375.334 132.845 375.11 132.597 374.958 132.288C374.805 131.977 374.729 131.635 374.729 131.264ZM375.743 130.727V131.264C375.743 131.572 375.816 131.849 375.962 132.094C376.108 132.336 376.36 132.457 376.718 132.457C377.066 132.457 377.311 132.336 377.453 132.094C377.599 131.849 377.672 131.572 377.672 131.264V130.727C377.672 130.419 377.603 130.144 377.463 129.902C377.324 129.657 377.076 129.534 376.718 129.534C376.37 129.534 376.119 129.657 375.967 129.902C375.818 130.144 375.743 130.419 375.743 130.727ZM375.107 139L382.107 128.818H383.24L376.24 139H375.107Z" fill="#B3BAC5"/>
<path d="M466.53 232.855H464.508C464.471 232.594 464.396 232.362 464.282 232.158C464.168 231.952 464.022 231.777 463.844 231.632C463.665 231.487 463.459 231.377 463.225 231.3C462.994 231.223 462.743 231.184 462.473 231.184C461.983 231.184 461.557 231.306 461.194 231.549C460.831 231.789 460.549 232.14 460.349 232.602C460.149 233.06 460.049 233.617 460.049 234.273C460.049 234.947 460.149 235.513 460.349 235.972C460.552 236.43 460.835 236.776 461.198 237.01C461.562 237.244 461.982 237.361 462.459 237.361C462.726 237.361 462.974 237.326 463.202 237.255C463.433 237.184 463.637 237.081 463.816 236.946C463.994 236.807 464.142 236.639 464.259 236.442C464.379 236.246 464.462 236.021 464.508 235.768L466.53 235.778C466.478 236.212 466.347 236.63 466.138 237.033C465.932 237.433 465.653 237.792 465.302 238.109C464.955 238.423 464.539 238.672 464.056 238.857C463.576 239.038 463.033 239.129 462.426 239.129C461.583 239.129 460.829 238.938 460.164 238.557C459.503 238.175 458.979 237.623 458.595 236.9C458.213 236.176 458.022 235.301 458.022 234.273C458.022 233.242 458.216 232.365 458.604 231.641C458.992 230.918 459.518 230.367 460.183 229.989C460.848 229.607 461.595 229.416 462.426 229.416C462.974 229.416 463.482 229.493 463.95 229.647C464.421 229.801 464.838 230.026 465.201 230.321C465.564 230.613 465.859 230.972 466.087 231.397C466.318 231.821 466.466 232.308 466.53 232.855ZM469.894 234.901V239H467.927V229.545H469.838V233.16H469.921C470.081 232.742 470.34 232.414 470.697 232.177C471.054 231.937 471.502 231.817 472.04 231.817C472.533 231.817 472.962 231.924 473.328 232.14C473.697 232.352 473.984 232.658 474.187 233.059C474.393 233.456 474.495 233.931 474.492 234.485V239H472.525V234.836C472.528 234.399 472.417 234.059 472.193 233.816C471.971 233.573 471.66 233.451 471.26 233.451C470.992 233.451 470.755 233.508 470.549 233.622C470.346 233.736 470.186 233.902 470.069 234.12C469.955 234.336 469.897 234.596 469.894 234.901ZM479.474 239.129C478.821 239.129 478.24 239.009 477.729 238.769C477.221 238.529 476.818 238.198 476.519 237.777C476.221 237.355 476.065 236.872 476.053 236.327H477.992C478.014 236.693 478.167 236.99 478.454 237.218C478.74 237.446 479.08 237.56 479.474 237.56C479.788 237.56 480.065 237.49 480.305 237.352C480.548 237.21 480.737 237.015 480.873 236.766C481.011 236.513 481.08 236.224 481.08 235.898C481.08 235.565 481.01 235.273 480.868 235.021C480.73 234.768 480.537 234.571 480.291 234.43C480.045 234.288 479.763 234.216 479.446 234.213C479.169 234.213 478.9 234.27 478.638 234.384C478.38 234.497 478.178 234.653 478.034 234.85L476.256 234.531L476.704 229.545H482.484V231.18H478.352L478.107 233.548H478.163C478.329 233.314 478.58 233.12 478.915 232.966C479.251 232.812 479.626 232.735 480.042 232.735C480.611 232.735 481.119 232.869 481.565 233.137C482.011 233.405 482.364 233.773 482.622 234.24C482.881 234.705 483.009 235.241 483.005 235.847C483.009 236.484 482.861 237.05 482.562 237.546C482.267 238.038 481.853 238.426 481.32 238.709C480.791 238.989 480.176 239.129 479.474 239.129Z" fill="#B3BAC5"/>
<rect x="440" y="142" width="61" height="72" rx="6" fill="#6299EB"/>
<path d="M460.504 139.139C460.086 139.133 459.669 139.053 459.251 138.901C458.834 138.748 458.452 138.491 458.108 138.13C457.763 137.765 457.486 137.273 457.277 136.653C457.069 136.03 456.964 135.248 456.964 134.307C456.964 133.405 457.049 132.607 457.218 131.911C457.387 131.211 457.632 130.623 457.954 130.146C458.275 129.665 458.663 129.3 459.117 129.052C459.574 128.803 460.09 128.679 460.663 128.679C461.233 128.679 461.74 128.793 462.184 129.022C462.632 129.247 462.996 129.562 463.278 129.967C463.56 130.371 463.742 130.837 463.825 131.364H462.612C462.499 130.906 462.281 130.527 461.956 130.225C461.631 129.924 461.2 129.773 460.663 129.773C459.874 129.773 459.253 130.116 458.799 130.802C458.348 131.488 458.121 132.451 458.118 133.69H458.197C458.383 133.409 458.603 133.168 458.858 132.969C459.117 132.767 459.402 132.612 459.714 132.502C460.025 132.393 460.355 132.338 460.703 132.338C461.286 132.338 461.82 132.484 462.304 132.776C462.788 133.064 463.175 133.463 463.467 133.974C463.759 134.481 463.905 135.062 463.905 135.719C463.905 136.348 463.764 136.925 463.482 137.449C463.2 137.969 462.804 138.384 462.294 138.692C461.787 138.997 461.19 139.146 460.504 139.139ZM460.504 138.045C460.922 138.045 461.296 137.941 461.628 137.732C461.962 137.523 462.226 137.243 462.418 136.892C462.614 136.541 462.711 136.15 462.711 135.719C462.711 135.298 462.617 134.915 462.428 134.57C462.242 134.222 461.986 133.946 461.657 133.74C461.333 133.535 460.961 133.432 460.544 133.432C460.229 133.432 459.936 133.495 459.664 133.621C459.392 133.743 459.153 133.912 458.948 134.128C458.746 134.343 458.587 134.59 458.471 134.869C458.355 135.144 458.297 135.434 458.297 135.739C458.297 136.143 458.391 136.521 458.58 136.872C458.772 137.223 459.034 137.507 459.366 137.722C459.7 137.938 460.08 138.045 460.504 138.045ZM469.181 139.139C468.432 139.139 467.794 138.935 467.267 138.528C466.74 138.117 466.337 137.522 466.059 136.743C465.78 135.961 465.641 135.016 465.641 133.909C465.641 132.809 465.78 131.869 466.059 131.09C466.34 130.308 466.745 129.711 467.272 129.3C467.802 128.886 468.438 128.679 469.181 128.679C469.923 128.679 470.558 128.886 471.085 129.3C471.615 129.711 472.019 130.308 472.298 131.09C472.58 131.869 472.72 132.809 472.72 133.909C472.72 135.016 472.581 135.961 472.303 136.743C472.024 137.522 471.622 138.117 471.095 138.528C470.568 138.935 469.93 139.139 469.181 139.139ZM469.181 138.045C469.923 138.045 470.5 137.687 470.911 136.972C471.322 136.256 471.527 135.235 471.527 133.909C471.527 133.027 471.433 132.277 471.244 131.657C471.058 131.037 470.79 130.565 470.438 130.24C470.09 129.915 469.671 129.753 469.181 129.753C468.445 129.753 467.87 130.116 467.456 130.842C467.041 131.564 466.834 132.587 466.834 133.909C466.834 134.791 466.927 135.54 467.112 136.156C467.298 136.773 467.565 137.242 467.913 137.563C468.264 137.885 468.687 138.045 469.181 138.045ZM479.8 137.091V136.554C479.8 136.183 479.876 135.843 480.029 135.535C480.184 135.223 480.41 134.975 480.705 134.789C481.003 134.6 481.364 134.506 481.789 134.506C482.219 134.506 482.581 134.6 482.872 134.789C483.164 134.975 483.384 135.223 483.534 135.535C483.683 135.843 483.757 136.183 483.757 136.554V137.091C483.757 137.462 483.681 137.804 483.529 138.115C483.38 138.423 483.157 138.672 482.862 138.861C482.571 139.046 482.213 139.139 481.789 139.139C481.358 139.139 480.995 139.046 480.7 138.861C480.405 138.672 480.181 138.423 480.029 138.115C479.876 137.804 479.8 137.462 479.8 137.091ZM480.814 136.554V137.091C480.814 137.399 480.887 137.676 481.033 137.921C481.179 138.163 481.431 138.284 481.789 138.284C482.137 138.284 482.382 138.163 482.524 137.921C482.67 137.676 482.743 137.399 482.743 137.091V136.554C482.743 136.246 482.674 135.971 482.534 135.729C482.395 135.483 482.147 135.361 481.789 135.361C481.441 135.361 481.19 135.483 481.038 135.729C480.889 135.971 480.814 136.246 480.814 136.554ZM474.729 131.264V130.727C474.729 130.356 474.805 130.016 474.958 129.708C475.113 129.397 475.339 129.148 475.634 128.962C475.932 128.773 476.293 128.679 476.718 128.679C477.148 128.679 477.51 128.773 477.801 128.962C478.093 129.148 478.313 129.397 478.463 129.708C478.612 130.016 478.686 130.356 478.686 130.727V131.264C478.686 131.635 478.61 131.977 478.458 132.288C478.309 132.597 478.086 132.845 477.791 133.034C477.5 133.22 477.142 133.312 476.718 133.312C476.287 133.312 475.924 133.22 475.629 133.034C475.334 132.845 475.11 132.597 474.958 132.288C474.805 131.977 474.729 131.635 474.729 131.264ZM475.743 130.727V131.264C475.743 131.572 475.816 131.849 475.962 132.094C476.108 132.336 476.36 132.457 476.718 132.457C477.066 132.457 477.311 132.336 477.453 132.094C477.599 131.849 477.672 131.572 477.672 131.264V130.727C477.672 130.419 477.603 130.144 477.463 129.902C477.324 129.657 477.076 129.534 476.718 129.534C476.37 129.534 476.119 129.657 475.967 129.902C475.818 130.144 475.743 130.419 475.743 130.727ZM475.107 139L482.107 128.818H483.24L476.24 139H475.107Z" fill="#B3BAC5"/>
<defs>
<filter id="filter0_d_105_362" x="271" y="274" width="277" height="136" filterUnits="userSpaceOnUse" color-interpolation-filters="sRGB">
<feFlood flood-opacity="0" result="BackgroundImageFix"/>
<feColorMatrix in="SourceAlpha" type="matrix" values="0 0 0 0 0 0 0 0 0 0 0 0 0 0 0 0 0 0 127 0" result="hardAlpha"/>
<feMorphology radius="1" operator="dilate" in="SourceAlpha" result="effect1_dropShadow_105_362"/>
<feOffset dx="1" dy="4"/>
<feGaussianBlur stdDeviation="4.5"/>
<feComposite in2="hardAlpha" operator="out"/>
<feColorMatrix type="matrix" values="0 0 0 0 0.525 0 0 0 0 0.525 0 0 0 0 0.525 0 0 0 0.19 0"/>
<feBlend mode="normal" in2="BackgroundImageFix" result="effect1_dropShadow_105_362"/>
<feBlend mode="normal" in="SourceGraphic" in2="effect1_dropShadow_105_362" result="shape"/>
</filter>
<filter id="filter1_d_105_362" x="0" y="274" width="266" height="136" filterUnits="userSpaceOnUse" color-interpolation-filters="sRGB">
<feFlood flood-opacity="0" result="BackgroundImageFix"/>
<feColorMatrix in="SourceAlpha" type="matrix" values="0 0 0 0 0 0 0 0 0 0 0 0 0 0 0 0 0 0 127 0" result="hardAlpha"/>
<feMorphology radius="1" operator="dilate" in="SourceAlpha" result="effect1_dropShadow_105_362"/>
<feOffset dx="1" dy="4"/>
<feGaussianBlur stdDeviation="4.5"/>
<feComposite in2="hardAlpha" operator="out"/>
<feColorMatrix type="matrix" values="0 0 0 0 0.525 0 0 0 0 0.525 0 0 0 0 0.525 0 0 0 0.19 0"/>
<feBlend mode="normal" in2="BackgroundImageFix" result="effect1_dropShadow_105_362"/>
<feBlend mode="normal" in="SourceGraphic" in2="effect1_dropShadow_105_362" result="shape"/>
</filter>
<filter id="filter2_d_105_362" x="0" y="415" width="548" height="132" filterUnits="userSpaceOnUse" color-interpolation-filters="sRGB">
<feFlood flood-opacity="0" result="BackgroundImageFix"/>
<feColorMatrix in="SourceAlpha" type="matrix" values="0 0 0 0 0 0 0 0 0 0 0 0 0 0 0 0 0 0 127 0" result="hardAlpha"/>
<feMorphology radius="1" operator="dilate" in="SourceAlpha" result="effect1_dropShadow_105_362"/>
<feOffset dx="1" dy="4"/>
<feGaussianBlur stdDeviation="4.5"/>
<feComposite in2="hardAlpha" operator="out"/>
<feColorMatrix type="matrix" values="0 0 0 0 0.525 0 0 0 0 0.525 0 0 0 0 0.525 0 0 0 0.19 0"/>
<feBlend mode="normal" in2="BackgroundImageFix" result="effect1_dropShadow_105_362"/>
<feBlend mode="normal" in="SourceGraphic" in2="effect1_dropShadow_105_362" result="shape"/>
</filter>
<filter id="filter3_d_105_362" x="0" y="0" width="548" height="276" filterUnits="userSpaceOnUse" color-interpolation-filters="sRGB">
<feFlood flood-opacity="0" result="BackgroundImageFix"/>
<feColorMatrix in="SourceAlpha" type="matrix" values="0 0 0 0 0 0 0 0 0 0 0 0 0 0 0 0 0 0 127 0" result="hardAlpha"/>
<feMorphology radius="1" operator="dilate" in="SourceAlpha" result="effect1_dropShadow_105_362"/>
<feOffset dx="1" dy="4"/>
<feGaussianBlur stdDeviation="4.5"/>
<feComposite in2="hardAlpha" operator="out"/>
<feColorMatrix type="matrix" values="0 0 0 0 0.525 0 0 0 0 0.525 0 0 0 0 0.525 0 0 0 0.19 0"/>
<feBlend mode="normal" in2="BackgroundImageFix" result="effect1_dropShadow_105_362"/>
<feBlend mode="normal" in="SourceGraphic" in2="effect1_dropShadow_105_362" result="shape"/>
</filter>
<clipPath id="clip0_105_362">
<rect width="77" height="77" fill="white" transform="translate(446 439)"/>
</clipPath>
</defs>
</svg>
