<svg xmlns="http://www.w3.org/2000/svg" xmlns:xlink="http://www.w3.org/1999/xlink" width="1152" height="935" fill="none" xmlns:v="https://vecta.io/nano"><style><![CDATA[.B{color-interpolation-filters:sRGB}.C{flood-opacity:0}.D{fill:#b3bac5}.E{fill:#fff}.F{fill:#e4e4e4}.G{fill:#6299eb}.H{fill:#94d1b4}.I{fill:#f5f8fd}]]></style><g filter="url(#A)" class="F"><rect width="177.156" height="102.846" rx="9" transform="matrix(.852122 -.523343 .678661 .734451 628.711 111.713)"/></g><g filter="url(#B)" class="E"><rect width="177.156" height="102.846" rx="9" transform="matrix(.852122 -.523343 .678661 .734451 628.711 92.7133)"/></g><path d="M673.033 100.227a5.95 5.95 0 0 1-2.563.848 6.42 6.42 0 0 1-2.746-.36c-.893-.333-1.663-.849-2.309-1.548s-1.039-1.441-1.178-2.226c-.131-.79-.017-1.537.342-2.241.361-.716.927-1.311 1.698-1.784.78-.479 1.637-.758 2.573-.839.937-.092 1.849.025 2.736.351a5.82 5.82 0 0 1 2.299 1.537c.646.699 1.042 1.445 1.188 2.236a3.52 3.52 0 0 1-.332 2.251c-.36.704-.929 1.296-1.708 1.775zm-.941-1.018c.549-.337.94-.744 1.173-1.22.227-.483.276-.997.147-1.541-.127-.556-.435-1.098-.922-1.626s-1.039-.915-1.653-1.161a3.93 3.93 0 0 0-1.848-.3c-.625.051-1.213.246-1.762.583s-.939.744-1.172 1.22-.29.989-.169 1.538c.129.544.437 1.08.925 1.608s1.038.921 1.65 1.179a4.18 4.18 0 0 0 1.869.303 3.94 3.94 0 0 0 1.762-.582zm8.019-5.086l-2.405-5.76 1.444-.886 2.73 7.204-1.623.996-7.728-4.134 1.455-.894 6.127 3.474zm8.581-8.284a4.86 4.86 0 0 1 .484.605l-5.022 3.085c.458.428.988.672 1.591.731s1.16-.067 1.669-.38c.732-.449 1.005-1.031.819-1.744l1.467-.901c.283.643.317 1.294.103 1.952-.213.647-.706 1.207-1.477 1.68-.628.386-1.304.613-2.027.681a4.84 4.84 0 0 1-2.119-.31c-.69-.275-1.304-.703-1.843-1.286s-.875-1.176-1.01-1.781a2.57 2.57 0 0 1 .207-1.739c.28-.548.742-1.019 1.386-1.415.62-.381 1.281-.604 1.981-.669s1.382.032 2.045.291c.657.252 1.239.652 1.746 1.201zm-1.762.502c-.407-.427-.906-.663-1.496-.709s-1.145.09-1.662.408c-.469.288-.75.665-.844 1.131-.099.459.022.927.364 1.405l3.638-2.235zm2.731-4.03c-.067-.41-.011-.794.17-1.152.182-.37.499-.694.953-.972l1.121 1.213-.346.213c-.533.327-.831.693-.894 1.097-.055.399.184.887.716 1.462l2.755 2.982-1.36.835-5.235-5.666 1.36-.835.76.823zm4.599.286c-.526-.569-.856-1.156-.991-1.761a2.65 2.65 0 0 1 .18-1.707c.25-.54.661-.986 1.233-1.337.517-.317 1.049-.504 1.595-.561.548-.068 1.058-.043 1.529.076l-.76-.823 1.372-.843 5.235 5.666-1.372.843-.779-.843c.017.409-.092.825-.325 1.247s-.603.79-1.112 1.103c-.565.347-1.196.541-1.893.582-.704.035-1.401-.085-2.091-.36a5.16 5.16 0 0 1-1.821-1.283zm5.399-3.284c-.361-.391-.77-.671-1.227-.842-.449-.175-.894-.246-1.336-.211a2.63 2.63 0 0 0-1.187.375c-.35.215-.606.491-.769.827a1.68 1.68 0 0 0-.141 1.102c.077.393.296.785.657 1.176s.769.677 1.224.86c.463.178.919.252 1.367.224.449-.04.845-.165 1.187-.375.35-.215.606-.491.769-.827s.203-.705.12-1.105c-.082-.412-.303-.813-.664-1.204zm.11-7.546l7.031 7.609-1.36.835-7.031-7.609 1.36-.835zm3.145-1.932l7.031 7.609-1.36.835-7.031-7.609 1.36-.835zm9.151-1.075l2.898 3.136c.196.213.394.333.594.36.202.016.442-.062.72-.233l.835-.513.903.977-1.074.659c-.612.376-1.195.541-1.75.494s-1.087-.347-1.6-.903l-2.898-3.136-.776.476-.883-.956.775-.476-1.302-1.409 1.372-.843 1.302 1.409 1.599-.982.883.956-1.598.982zm1.966-3.883c-.246.151-.519.206-.819.165s-.549-.168-.745-.381-.278-.442-.244-.689.175-.445.421-.597c.239-.147.508-.199.808-.158s.548.168.745.381.277.442.243.689-.17.443-.409.59zm1.362.34l5.235 5.665-1.36.835-5.235-5.666 1.36-.835zm9.657-6.076c.517-.317 1.064-.508 1.641-.572.584-.069 1.16.007 1.726.229.574.217 1.099.582 1.574 1.096l3.088 3.342-1.348.828-2.926-3.167c-.469-.507-.974-.804-1.515-.891-.548-.093-1.076.016-1.585.329s-.788.699-.837 1.159c-.047.448.163.926.632 1.433l2.926 3.167-1.348.828-2.926-3.167c-.469-.507-.974-.804-1.515-.891-.548-.094-1.076.016-1.585.329s-.788.699-.837 1.159c-.047.448.164.926.632 1.433l2.927 3.167-1.36.835-5.235-5.666 1.36-.835.598.648c.008-.37.122-.725.344-1.065s.527-.63.917-.869a3.95 3.95 0 0 1 1.673-.577c.591-.062 1.166.02 1.724.247-.118-.465-.058-.926.18-1.384.232-.465.59-.846 1.075-1.144zm13.038-3.64c.197.213.358.414.485.605l-5.023 3.085a2.66 2.66 0 0 0 1.592.731c.603.059 1.159-.067 1.668-.38.732-.449 1.005-1.031.82-1.744l1.467-.901a2.66 2.66 0 0 1 .102 1.952c-.213.647-.705 1.207-1.477 1.681a4.65 4.65 0 0 1-2.026.681c-.721.056-1.428-.047-2.119-.31-.69-.275-1.305-.703-1.843-1.286s-.875-1.176-1.01-1.781c-.134-.616-.065-1.196.207-1.739.279-.548.741-1.019 1.385-1.415.621-.381 1.281-.604 1.981-.669a4.43 4.43 0 0 1 2.046.291c.657.252 1.238.652 1.745 1.201zm-1.761.502a2.24 2.24 0 0 0-1.497-.709c-.591-.046-1.144.09-1.661.408-.47.288-.751.665-.844 1.131-.1.459.021.927.363 1.405l3.639-2.235zm11.416-1.628a4.54 4.54 0 0 1-1.615.621 3.89 3.89 0 0 1-1.574-.065c-.498-.135-.914-.368-1.246-.701l1.407-.864c.246.225.564.347.955.365.392.006.771-.103 1.137-.328.382-.234.619-.477.712-.727.094-.262.049-.493-.134-.691-.197-.213-.462-.297-.795-.253-.326.039-.8.153-1.423.342l-1.519.401a3.32 3.32 0 0 1-1.277-.006c-.431-.089-.818-.319-1.16-.689-.279-.302-.429-.639-.45-1.013-.028-.381.083-.76.332-1.139.256-.383.635-.729 1.136-1.037.748-.459 1.5-.663 2.258-.613a2.93 2.93 0 0 1 1.965.872l-1.36.835a1.42 1.42 0 0 0-.918-.387c-.355-.019-.715.084-1.08.309-.358.22-.579.447-.662.68a.59.59 0 0 0 .141.639c.14.151.32.239.543.263a2.18 2.18 0 0 0 .693-.039l1.011-.282c.578-.183 1.072-.31 1.482-.379a3.25 3.25 0 0 1 1.256.003c.425.083.81.303 1.153.662.298.322.461.673.488 1.054s-.083.76-.332 1.139c-.24.374-.615.717-1.124 1.029zm.795-8.209c-.01-.402.102-.814.335-1.237s.6-.788 1.101-1.095c.572-.352 1.207-.548 1.905-.59a4.53 4.53 0 0 1 2.062.329c.675.273 1.276.693 1.802 1.262s.862 1.163 1.01 1.781c.141.612.091 1.191-.152 1.738-.242.535-.648.978-1.221 1.33-.501.308-1.026.495-1.574.563a4.74 4.74 0 0 1-1.562-.072l3.249 3.517-1.36.835-7.724-8.36 1.36-.835.769.833zm5.821-.48c-.361-.391-.767-.668-1.217-.832-.449-.176-.895-.24-1.339-.194a2.63 2.63 0 0 0-1.187.375 2.02 2.02 0 0 0-.769.827c-.163.337-.207.707-.132 1.112.083.4.306.796.667 1.186s.769.677 1.224.86a3.12 3.12 0 0 0 1.348.204c.449-.04.845-.165 1.187-.375.35-.215.606-.491.769-.827.165-.348.202-.726.113-1.133-.082-.412-.303-.813-.664-1.204zm8.649-5.489c.196.212.358.414.484.605l-5.022 3.085c.458.428.988.672 1.591.731s1.16-.067 1.669-.38c.732-.449 1.005-1.031.819-1.744l1.467-.901c.283.643.317 1.294.103 1.952-.213.646-.706 1.207-1.477 1.68-.628.386-1.304.613-2.027.681a4.84 4.84 0 0 1-2.119-.31c-.69-.275-1.304-.703-1.843-1.286s-.875-1.176-1.01-1.781a2.57 2.57 0 0 1 .207-1.739c.28-.548.742-1.019 1.386-1.415.62-.381 1.281-.604 1.981-.669s1.382.032 2.045.291c.657.252 1.239.652 1.746 1.201zm-1.762.502c-.407-.427-.906-.663-1.496-.709s-1.145.09-1.662.408c-.469.288-.75.665-.844 1.131-.099.459.022.927.364 1.405l3.638-2.235zm3.842-6.147a3.93 3.93 0 0 1 1.64-.572c.585-.069 1.16.008 1.727.229s1.087.59 1.562 1.104l3.088 3.342-1.349.828-2.926-3.167c-.469-.507-.974-.804-1.515-.891-.548-.093-1.076.016-1.585.329s-.788.699-.837 1.159c-.047.448.164.926.633 1.433l2.926 3.167-1.36.835-5.235-5.666 1.36-.835.598.648c.008-.37.122-.725.344-1.065.229-.345.539-.637.929-.877zm6.986-2.647l2.898 3.136c.197.212.395.332.595.36.201.016.441-.062.72-.233l.835-.513.903.977-1.074.659c-.613.376-1.196.541-1.75.494s-1.088-.347-1.601-.903l-2.898-3.136-.775.476-.884-.956.776-.476-1.302-1.409 1.372-.843 1.302 1.409 1.598-.982.884.956-1.599.982z" class="D"/><path d="M701.689 130.093l.302-1.107 1.311-5.705c.283-1.451.367-2.841.251-4.169s-.566-2.416-1.347-3.262c-.594-.643-1.23-1.038-1.908-1.186s-1.363-.01-2.054.414-1.026.986-1.006 1.686c.023.673.411 1.417 1.164 2.232l-4.499 2.763c-1.194-1.354-1.895-2.667-2.102-3.94-.189-1.284.03-2.45.657-3.498.645-1.059 1.595-1.974 2.849-2.745 2.164-1.328 4.232-1.85 6.206-1.564 1.992.275 3.698 1.18 5.116 2.716 1.55 1.676 2.327 3.643 2.332 5.899-.01 2.241-.412 4.674-1.207 7.298l7.363-4.521 3.018 3.267-13.688 8.407-2.758-2.985zm12.172-12.744c-1.245-1.348-2.047-2.709-2.406-4.085-.342-1.387-.257-2.667.255-3.841s1.394-2.145 2.648-2.916a7.96 7.96 0 0 1 3.226-1.134c1.17-.153 2.273-.069 3.31.252l-5.625-6.088 4.663-2.864 16.071 17.392-4.663 2.863-1.737-1.88c.143.895-.021 1.781-.492 2.66-.452.867-1.215 1.63-2.287 2.289-1.255.77-2.644 1.194-4.169 1.271-1.539.061-3.079-.234-4.62-.884-1.537-.677-2.929-1.689-4.174-3.036zm11.42-6.977c-.927-1.003-1.985-1.593-3.175-1.771-1.172-.189-2.222.001-3.149.571s-1.45 1.345-1.568 2.326c-.116.955.29 1.934 1.217 2.937s1.983 1.606 3.169 1.811c1.191.178 2.249-.018 3.176-.587s1.441-1.34 1.542-2.31c.118-.982-.285-1.974-1.212-2.977zm20.808-23.905l-8.507 5.225 2.997 3.243c.045-.568.293-1.163.745-1.784s1.059-1.166 1.823-1.635c1.363-.837 2.736-1.263 4.119-1.278 1.401-.025 2.702.256 3.902.846a10.7 10.7 0 0 1 3.168 2.365c1.694 1.833 2.44 3.659 2.24 5.477-.216 1.803-1.414 3.374-3.595 4.713-1.455.894-2.914 1.458-4.377 1.694-1.478.22-2.863.124-4.154-.286s-2.427-1.1-3.408-2.07l4.554-2.796c.558.418 1.198.664 1.92.736.707.057 1.425-.138 2.152-.585.854-.525 1.273-1.151 1.257-1.877s-.386-1.482-1.11-2.265c-.709-.768-1.471-1.221-2.283-1.361s-1.637.048-2.474.561c-.618.38-1.004.825-1.157 1.337-.169.496-.121.995.143 1.496l-4.5 2.764-9.447-10.224 12.735-7.821 3.257 3.525zm8.193 2.557c-2.49-2.695-3.852-5.186-4.086-7.474-.215-2.299 1.022-4.275 3.713-5.927s5.352-2.071 7.985-1.257c2.652.803 5.222 2.552 7.713 5.247 2.519 2.726 3.886 5.239 4.101 7.538.234 2.288-.995 4.258-3.685 5.911s-5.361 2.077-8.013 1.274c-2.633-.814-5.209-2.585-7.728-5.311zm10.743-6.598c-1.462-1.583-2.784-2.674-3.966-3.274-1.196-.616-2.421-.539-3.675.231s-1.684 1.709-1.287 2.817c.382 1.092 1.304 2.429 2.766 4.011.984 1.066 1.875 1.906 2.672 2.522.783.6 1.595.986 2.436 1.156.846.144 1.705-.052 2.577-.588s1.332-1.149 1.377-1.84c.049-.718-.172-1.466-.664-2.245-.506-.794-1.251-1.724-2.236-2.79zm12.757-14.797c1.745-1.072 3.608-1.43 5.589-1.075 1.967.34 3.753 1.379 5.36 3.118l7.08 7.662-4.635 2.847-6.581-7.121c-.81-.877-1.704-1.397-2.68-1.559s-1.909.031-2.8.578-1.375 1.225-1.454 2.035.288 1.653 1.099 2.53l6.58 7.121-4.663 2.864-16.07-17.392 4.663-2.864 5.581 6.04c-.063-.87.155-1.728.655-2.576s1.258-1.583 2.276-2.209z" class="G"/><g filter="url(#C)" class="F"><rect width="183.717" height="102.846" rx="9" transform="matrix(.852122 -.523343 .678661 .734451 455 218.147)"/></g><g filter="url(#D)" class="E"><rect width="183.717" height="102.846" rx="9" transform="matrix(.852122 -.523343 .678661 .734451 454.591 199.652)"/></g><path d="M493.691 204.634c-.646-.699-1.039-1.441-1.178-2.226-.132-.789-.018-1.536.341-2.24.361-.716.927-1.311 1.699-1.785a5.87 5.87 0 0 1 2.872-.878c1.034-.055 2.023.166 2.967.661l-1.635 1.003c-.563-.245-1.121-.343-1.673-.293s-1.08.228-1.581.535c-.549.337-.94.744-1.173 1.22s-.289.989-.168 1.538c.128.544.437 1.08.924 1.608s1.035.917 1.641 1.168c.614.247 1.237.347 1.869.303.626-.051 1.213-.245 1.762-.582.501-.308.857-.672 1.068-1.091s.249-.884.115-1.393l1.635-1.004c.323.876.31 1.712-.04 2.507-.342.79-.955 1.456-1.837 1.999a5.89 5.89 0 0 1-2.563.848 6.42 6.42 0 0 1-2.746-.36c-.887-.326-1.653-.838-2.299-1.538zm15.932-4.015c-.62.381-1.291.605-2.014.673-.729.061-1.44-.04-2.131-.303-.698-.269-1.317-.696-1.855-1.278-.532-.576-.857-1.177-.974-1.803a2.66 2.66 0 0 1 .255-1.769c.287-.552.745-1.021 1.373-1.407s1.308-.615 2.038-.688a4.72 4.72 0 0 1 2.155.288c.706.265 1.325.685 1.858 1.261s.852 1.179.962 1.811a2.77 2.77 0 0 1-.281 1.8c-.295.558-.757 1.029-1.386 1.415zm-.94-1.018c.35-.215.609-.487.779-.817.177-.334.228-.704.153-1.109s-.303-.813-.683-1.225-.792-.701-1.234-.87c-.449-.175-.891-.242-1.327-.2a2.7 2.7 0 0 0-1.177.384c-.35.215-.61.488-.779.817a1.57 1.57 0 0 0-.105 1.08c.084.389.317.789.697 1.2.564.61 1.18.973 1.848 1.089.67.104 1.279-.012 1.828-.349zm8.248-12.641c.517-.317 1.063-.508 1.64-.572.585-.069 1.16.007 1.726.229.575.217 1.099.582 1.575 1.096l3.087 3.342-1.348.828-2.926-3.167c-.469-.507-.974-.804-1.515-.891-.548-.093-1.076.016-1.585.329s-.788.699-.837 1.159c-.047.448.164.925.632 1.433l2.927 3.167-1.348.828-2.927-3.167c-.468-.508-.973-.805-1.515-.891-.547-.094-1.076.016-1.585.329s-.787.698-.836 1.158c-.048.448.163.926.632 1.433l2.926 3.167-1.36.835-5.235-5.665 1.36-.835.599.647a1.99 1.99 0 0 1 .343-1.065 2.85 2.85 0 0 1 .917-.869c.525-.323 1.083-.515 1.674-.577s1.165.02 1.724.247c-.118-.465-.058-.926.18-1.384.231-.465.59-.846 1.075-1.144zm6.653-2.636c-.01-.402.102-.814.335-1.237s.6-.787 1.101-1.095c.572-.351 1.207-.548 1.905-.589a4.51 4.51 0 0 1 2.062.329c.675.272 1.276.693 1.802 1.262s.862 1.163 1.01 1.781c.141.612.091 1.191-.152 1.738-.241.535-.648.978-1.221 1.33-.501.308-1.026.495-1.574.563-.554.062-1.075.038-1.562-.072l3.249 3.517-1.36.835-7.724-8.359 1.36-.835.769.832zm5.821-.48a3.09 3.09 0 0 0-1.217-.832c-.449-.175-.895-.24-1.339-.193a2.63 2.63 0 0 0-1.187.374c-.342.21-.598.486-.769.827-.163.337-.207.708-.132 1.113.084.4.306.795.667 1.186s.769.677 1.224.86c.457.171.906.238 1.348.204.449-.04.845-.165 1.187-.375.35-.215.606-.491.769-.827.165-.348.202-.726.113-1.133-.082-.412-.303-.813-.664-1.204zm-.301-7.261l7.031 7.608-1.36.836-7.031-7.609 1.36-.835zm12.095-.16c.197.213.358.414.485.605l-5.023 3.085c.458.428.989.672 1.592.731a2.62 2.62 0 0 0 1.668-.38c.732-.45 1.005-1.031.82-1.744l1.467-.902a2.65 2.65 0 0 1 .102 1.952c-.213.647-.705 1.207-1.476 1.681-.629.386-1.304.613-2.027.68-.721.057-1.428-.047-2.119-.31-.69-.274-1.305-.703-1.843-1.286s-.875-1.176-1.01-1.781a2.57 2.57 0 0 1 .207-1.739c.279-.547.741-1.019 1.385-1.415a4.55 4.55 0 0 1 1.982-.669c.7-.064 1.382.033 2.045.292.657.252 1.239.652 1.745 1.2zm-1.761.502a2.24 2.24 0 0 0-1.497-.709 2.71 2.71 0 0 0-1.661.408c-.469.288-.751.665-.844 1.131-.1.459.021.927.363 1.405l3.639-2.235zm3.081-4.036l2.898 3.136c.196.213.394.333.594.36.202.016.442-.061.72-.232l.835-.513.903.977-1.074.659c-.612.376-1.196.541-1.75.494s-1.087-.347-1.6-.902l-2.898-3.136-.776.476-.883-.956.775-.477-1.302-1.408 1.372-.843 1.302 1.409 1.599-.982.883.956-1.598.982zm10.482-3.714a4.88 4.88 0 0 1 .484.605l-5.022 3.085a2.66 2.66 0 0 0 1.592.731 2.62 2.62 0 0 0 1.668-.38c.732-.45 1.005-1.031.819-1.745l1.468-.901a2.66 2.66 0 0 1 .102 1.952c-.213.647-.705 1.207-1.477 1.681-.628.386-1.304.613-2.026.68a4.84 4.84 0 0 1-2.12-.31c-.69-.274-1.304-.703-1.842-1.286s-.876-1.176-1.01-1.781a2.56 2.56 0 0 1 .207-1.739c.279-.548.741-1.019 1.385-1.415.62-.381 1.281-.604 1.981-.669a4.43 4.43 0 0 1 2.046.291c.656.252 1.238.653 1.745 1.201zm-1.762.502a2.24 2.24 0 0 0-1.496-.709 2.7 2.7 0 0 0-1.662.408c-.469.288-.75.665-.843 1.131-.1.458.021.927.363 1.404l3.638-2.234zm2.751-.932c-.525-.569-.856-1.156-.991-1.761-.127-.61-.066-1.179.181-1.707.249-.539.664-.988 1.245-1.344.429-.264.927-.441 1.492-.53.568-.101 1.098-.094 1.592.022l-2.528-2.735 1.372-.843 7.031 7.609-1.372.843-.789-.854c.031.411-.07.828-.303 1.25-.225.418-.592.783-1.101 1.096a4.14 4.14 0 0 1-1.917.597 4.96 4.96 0 0 1-2.09-.36c-.689-.287-1.296-.714-1.822-1.283zm5.4-3.284c-.361-.391-.77-.672-1.227-.842-.449-.176-.894-.246-1.336-.211s-.837.159-1.187.374-.607.491-.769.827c-.17.33-.217.697-.142 1.102.077.394.296.786.657 1.176a3.35 3.35 0 0 0 1.225.86c.463.178.919.252 1.366.224.45-.039.846-.164 1.188-.374.35-.215.606-.491.769-.827s.203-.705.12-1.105c-.082-.412-.303-.813-.664-1.204zm5.804-3.565c-.539-.582-.876-1.176-1.011-1.781-.133-.616-.068-1.194.196-1.731s.709-1 1.337-1.386c.796-.489 1.604-.727 2.425-.715.822-.001 1.604.245 2.344.736l-1.467.901c-.379-.208-.773-.31-1.181-.307s-.811.128-1.209.372c-.556.342-.843.787-.861 1.335-.015.536.259 1.109.822 1.719s1.167.986 1.81 1.129a2.39 2.39 0 0 0 1.811-.307c.788-.483 1.033-1.101.736-1.854l1.468-.901c.341.693.408 1.372.199 2.037-.214.658-.711 1.227-1.491 1.706-.628.385-1.295.607-2.002.665a4.75 4.75 0 0 1-2.096-.324c-.682-.28-1.292-.711-1.83-1.294zm8.308-9.68a3.71 3.71 0 0 1 1.592-.543c.569-.059 1.133.025 1.691.251.566.222 1.087.59 1.562 1.104l3.088 3.342-1.348.828-2.926-3.167c-.469-.507-.974-.804-1.516-.891-.547-.093-1.075.016-1.584.329s-.788.699-.837 1.158c-.047.448.163.926.632 1.433l2.926 3.167-1.36.836-7.031-7.609 1.36-.836 2.404 2.602a2.02 2.02 0 0 1 .358-1.09c.238-.35.567-.655.989-.914zm6.573.508c-.526-.569-.856-1.155-.991-1.76-.127-.61-.067-1.179.181-1.707.249-.54.66-.985 1.232-1.337.517-.318 1.049-.505 1.595-.561.549-.068 1.058-.042 1.53.077l-.761-.823 1.372-.843 5.236 5.666-1.372.843-.779-.844c.016.409-.092.825-.325 1.248s-.604.79-1.113 1.102c-.565.347-1.196.541-1.893.582a4.93 4.93 0 0 1-2.091-.36c-.688-.286-1.295-.714-1.821-1.283zm5.399-3.283c-.361-.391-.77-.672-1.227-.843-.449-.175-.894-.245-1.335-.211a2.63 2.63 0 0 0-1.188.375c-.35.215-.606.491-.769.827-.169.33-.216.697-.141 1.102.077.393.296.785.657 1.176s.769.677 1.224.86c.464.177.919.252 1.367.224.45-.039.845-.164 1.187-.374a1.98 1.98 0 0 0 .77-.827 1.69 1.69 0 0 0 .119-1.105c-.081-.412-.303-.814-.664-1.204zm2.675-4.77c-.01-.402.102-.815.335-1.237s.6-.788 1.101-1.095c.572-.352 1.207-.548 1.905-.59a4.54 4.54 0 0 1 2.062.329c.675.273 1.276.694 1.802 1.263s.862 1.162 1.01 1.781c.141.612.09 1.191-.152 1.737-.242.535-.648.979-1.221 1.33-.501.308-1.026.496-1.574.564-.554.061-1.075.037-1.562-.072l3.249 3.517-1.36.835-7.724-8.36 1.36-.835.769.833zm5.821-.48a3.09 3.09 0 0 0-1.217-.832c-.449-.176-.895-.24-1.339-.194a2.63 2.63 0 0 0-1.187.375c-.342.21-.598.486-.769.827-.163.336-.207.707-.132 1.112.083.4.305.796.667 1.187s.769.677 1.224.859c.457.171.906.239 1.348.204.449-.039.845-.164 1.187-.374.35-.215.606-.491.769-.827.165-.349.202-.726.113-1.133-.082-.412-.303-.814-.664-1.204zm2.605-4.502l2.898 3.137c.196.212.395.332.595.36.201.016.441-.062.72-.233l.835-.513.902.977-1.073.659c-.613.376-1.196.541-1.75.495s-1.088-.348-1.601-.903l-2.898-3.136-.775.476-.884-.956.776-.476-1.302-1.409 1.372-.842 1.302 1.408 1.598-.982.884.957-1.599.981zm10.482-3.713c.197.212.358.414.485.605l-5.023 3.084c.458.428.989.672 1.592.731s1.159-.067 1.668-.38c.732-.449 1.005-1.031.82-1.744l1.467-.901a2.65 2.65 0 0 1 .102 1.952c-.213.646-.705 1.206-1.476 1.68a4.66 4.66 0 0 1-2.027.681c-.721.056-1.427-.048-2.119-.31-.69-.275-1.305-.704-1.843-1.286s-.875-1.177-1.01-1.782c-.133-.616-.064-1.196.207-1.738.279-.548.741-1.02 1.385-1.415a4.55 4.55 0 0 1 1.982-.669c.7-.065 1.382.032 2.045.291a4.59 4.59 0 0 1 1.745 1.201zm-1.761.501a2.24 2.24 0 0 0-1.497-.709 2.71 2.71 0 0 0-1.661.408c-.469.289-.751.665-.844 1.131-.1.459.021.927.363 1.405l3.639-2.235zm2.731-4.03c-.068-.41-.011-.794.169-1.152.182-.37.5-.694.953-.972l1.121 1.213-.346.213c-.532.327-.83.693-.893 1.097-.055.399.183.886.715 1.462l2.756 2.982-1.36.835-5.236-5.665 1.36-.836.761.823zm10.165 1.493c-.517.318-1.055.525-1.615.621-.557.085-1.082.063-1.574-.065a2.72 2.72 0 0 1-1.246-.701l1.407-.864c.246.225.564.347.954.365a2.08 2.08 0 0 0 1.138-.328c.381-.235.619-.477.711-.727a.63.63 0 0 0-.134-.692c-.196-.212-.461-.297-.795-.253-.325.039-.8.153-1.423.342l-1.518.401c-.412.081-.837.079-1.277-.006-.431-.089-.818-.319-1.16-.689-.279-.302-.429-.639-.45-1.013-.028-.381.083-.76.331-1.139.257-.383.636-.729 1.137-1.036.748-.459 1.5-.664 2.257-.613a2.93 2.93 0 0 1 1.966.872l-1.36.835c-.258-.239-.565-.368-.919-.387s-.714.084-1.08.309c-.358.22-.578.447-.661.68a.59.59 0 0 0 .141.639.83.83 0 0 0 .542.263c.223.025.454.012.694-.039l1.01-.282c.579-.183 1.073-.31 1.483-.379.412-.081.83-.08 1.255.003s.81.303 1.154.661c.298.323.46.674.488 1.055s-.083.76-.332 1.138c-.241.374-.615.717-1.124 1.029z" class="D"/><path d="M548.864 206.516l-3.885-4.204 8.497-5.218 17.835 19.301-5.46 3.354-13.95-15.098-3.037 1.865zm21.536-28.934l19.557 35.112-5.061 3.108-19.558-35.111 5.062-3.109zm32.974-4.959l-9.571 5.878 3.372 3.649c.051-.639.33-1.308.838-2.007s1.192-1.312 2.051-1.839c1.534-.942 3.079-1.421 4.635-1.438 1.576-.028 3.039.289 4.389.952a12.03 12.03 0 0 1 3.564 2.66c1.906 2.062 2.746 4.116 2.52 6.161-.242 2.028-1.591 3.795-4.045 5.303-1.636 1.004-3.277 1.639-4.923 1.904-1.663.248-3.221.141-4.673-.321a9.48 9.48 0 0 1-3.835-2.328l5.123-3.147a4.23 4.23 0 0 0 2.16.829c.797.064 1.604-.156 2.422-.658.961-.591 1.432-1.295 1.414-2.112s-.435-1.667-1.249-2.549c-.798-.864-1.654-1.374-2.569-1.531s-1.841.054-2.782.632c-.695.427-1.13.928-1.303 1.504-.189.559-.135 1.12.161 1.684l-5.061 3.108-10.628-11.501 14.326-8.799 3.664 3.966z" class="G"/><g filter="url(#E)" class="F"><rect width="381.494" height="121.686" rx="9" transform="matrix(.852122 -.523343 .678661 .734451 546.743 314.838)"/></g><g filter="url(#F)" class="E"><rect width="381.494" height="121.686" rx="9" transform="matrix(.852122 -.523343 .678661 .734451 547.174 294.652)"/></g><path d="M599.537 302.49l-3.472 2.132.753 1.826-1.42.872-3.642-8.981 1.575-.967 9.583 5.332-1.431.88-1.946-1.094zm-1.265-.722l-4.417-2.493 1.709 4.156 2.708-1.663zm7.506-2.466l-2.405-5.76 1.443-.886 2.73 7.204-1.622.996-7.729-4.134 1.456-.894 6.127 3.474zm8.58-8.284a4.88 4.88 0 0 1 .484.605l-5.022 3.085a2.66 2.66 0 0 0 1.592.731 2.62 2.62 0 0 0 1.668-.38c.732-.45 1.005-1.031.819-1.745l1.468-.901a2.66 2.66 0 0 1 .102 1.952c-.213.647-.705 1.207-1.477 1.681-.628.386-1.304.613-2.026.68a4.84 4.84 0 0 1-2.12-.31c-.69-.274-1.304-.703-1.842-1.286s-.875-1.176-1.01-1.781c-.134-.617-.065-1.196.207-1.739.279-.548.741-1.019 1.385-1.415.62-.381 1.281-.604 1.981-.669s1.383.032 2.046.291c.656.252 1.238.653 1.745 1.201zm-1.762.502a2.24 2.24 0 0 0-1.496-.709 2.7 2.7 0 0 0-1.662.408c-.469.288-.75.665-.843 1.131-.1.458.021.927.363 1.404l3.638-2.234zm2.731-4.031a1.83 1.83 0 0 1 .17-1.151c.182-.37.5-.694.953-.973l1.121 1.214-.346.212c-.533.327-.831.693-.894 1.097-.055.399.184.887.716 1.463l2.755 2.981-1.36.836-5.235-5.666 1.36-.835.76.822zm4.599.287c-.526-.569-.856-1.156-.991-1.761-.127-.61-.067-1.178.181-1.707.249-.539.66-.985 1.232-1.337.517-.317 1.049-.504 1.595-.56.549-.068 1.058-.043 1.53.076l-.761-.823 1.372-.842 5.236 5.665-1.372.843-.779-.843c.016.409-.092.824-.325 1.247s-.604.79-1.113 1.102a4.02 4.02 0 0 1-1.893.583c-.704.034-1.401-.086-2.091-.36-.688-.287-1.295-.714-1.821-1.283zm5.399-3.284c-.361-.391-.77-.672-1.227-.842-.449-.176-.894-.246-1.335-.211s-.838.159-1.188.374-.606.491-.769.827c-.169.33-.216.697-.141 1.102.077.394.296.786.657 1.176s.769.678 1.224.86a3.24 3.24 0 0 0 1.367.225c.45-.04.845-.165 1.187-.375.35-.215.607-.491.769-.827s.203-.705.12-1.105c-.081-.412-.303-.813-.664-1.204zm3.109-6.487c.509-.312 1.04-.499 1.595-.56.556-.073 1.065-.048 1.529.076l-.76-.822 1.372-.843 5.32 5.758c.482.521.782 1.062.901 1.623a2.39 2.39 0 0 1-.216 1.648c-.262.526-.727.994-1.395 1.404-.891.547-1.798.82-2.723.818-.917.005-1.701-.276-2.351-.845l1.348-.827c.376.231.813.333 1.312.306.513-.025 1.004-.182 1.473-.47.549-.337.857-.752.925-1.245.076-.498-.139-1.021-.646-1.569l-.874-.946c.017.409-.089.828-.315 1.257-.225.418-.588.78-1.089 1.088-.573.352-1.212.551-1.917.597-.704.035-1.4-.085-2.091-.36-.688-.286-1.295-.714-1.821-1.283s-.856-1.156-.991-1.761c-.127-.609-.067-1.178.181-1.706.249-.54.66-.986 1.233-1.338zm4.976 1.521c-.361-.391-.77-.671-1.226-.842-.449-.175-.895-.246-1.336-.211a2.63 2.63 0 0 0-1.188.375c-.349.214-.606.49-.769.827-.169.329-.216.696-.141 1.102.077.393.296.785.657 1.176s.769.677 1.224.86c.464.177.919.252 1.367.224.45-.04.845-.165 1.187-.375.35-.215.607-.49.77-.827s.202-.704.119-1.105c-.081-.412-.302-.813-.664-1.204zm9.06-5.773a4.9 4.9 0 0 1 .484.605l-5.022 3.085a2.65 2.65 0 0 0 1.591.73 2.61 2.61 0 0 0 1.669-.38c.731-.449 1.005-1.03.819-1.744l1.467-.901a2.65 2.65 0 0 1 .102 1.952c-.213.647-.705 1.207-1.476 1.681a4.67 4.67 0 0 1-2.027.68 4.84 4.84 0 0 1-2.119-.31c-.69-.275-1.304-.703-1.843-1.286s-.875-1.176-1.01-1.781a2.57 2.57 0 0 1 .207-1.739c.28-.548.741-1.019 1.386-1.415a4.54 4.54 0 0 1 1.981-.669c.7-.065 1.382.032 2.045.291a4.6 4.6 0 0 1 1.746 1.201zm-1.762.502c-.407-.427-.906-.664-1.496-.709a2.7 2.7 0 0 0-1.662.408c-.469.288-.75.665-.844 1.13-.099.459.022.927.363 1.405l3.639-2.234zm11.743-1.862c-.557.342-1.134.568-1.731.677-.604.102-1.175.077-1.715-.075s-.999-.434-1.379-.845l1.455-.894c.317.289.691.457 1.121.504.438.043.884-.075 1.337-.354.469-.288.746-.609.832-.962.078-.36-.025-.694-.31-1.002-.222-.24-.486-.384-.792-.433-.298-.053-.609-.045-.931.024-.315.065-.731.181-1.25.349l-1.666.443c-.454.075-.924.052-1.41-.069s-.934-.404-1.346-.85c-.38-.411-.593-.844-.64-1.299s.07-.897.347-1.325.698-.816 1.263-1.163c.803-.493 1.621-.721 2.453-.684.834.025 1.557.322 2.17.891l-1.503.923c-.264-.245-.613-.38-1.047-.404s-.865.096-1.294.36c-.39.239-.629.52-.717.843s.016.645.314.967c.203.22.446.355.73.406a2.68 2.68 0 0 0 .901-.037c.314-.065.723-.176 1.225-.334.669-.207 1.235-.35 1.697-.43.471-.084.952-.063 1.444.065.493.116.949.4 1.367.852.336.364.537.777.604 1.241.075.459-.014.922-.268 1.39-.252.455-.672.864-1.261 1.225zm1.326-5.375c-.539-.583-.875-1.177-1.01-1.781-.134-.617-.069-1.194.195-1.732s.709-1 1.338-1.386c.795-.488 1.603-.726 2.424-.715.823 0 1.604.245 2.344.736l-1.467.901c-.379-.207-.772-.31-1.181-.306s-.811.127-1.208.372c-.557.341-.844.786-.861 1.334-.016.536.258 1.11.822 1.72s1.167.986 1.809 1.128c.651.138 1.255.036 1.812-.306.787-.484 1.032-1.102.736-1.854l1.467-.902c.341.693.408 1.373.2 2.038-.215.658-.712 1.226-1.491 1.705-.629.386-1.296.608-2.003.666-.713.051-1.412-.057-2.095-.325-.682-.279-1.293-.71-1.831-1.293zm13.165-3.492c-.62.381-1.291.605-2.014.673-.729.061-1.44-.04-2.131-.303a4.92 4.92 0 0 1-1.855-1.279c-.532-.575-.857-1.177-.974-1.803a2.66 2.66 0 0 1 .254-1.768c.288-.553.746-1.022 1.374-1.408s1.308-.615 2.038-.688 1.449.024 2.155.289 1.325.685 1.857 1.261.853 1.179.963 1.81.016 1.231-.281 1.801c-.295.557-.757 1.029-1.386 1.415zm-.94-1.018a2.07 2.07 0 0 0 .779-.817c.177-.335.228-.704.153-1.109s-.303-.814-.683-1.225-.792-.701-1.234-.87a2.85 2.85 0 0 0-1.327-.201c-.435.042-.827.17-1.177.385s-.61.487-.779.817c-.161.324-.196.684-.105 1.08.084.388.317.788.697 1.199.564.61 1.18.974 1.848 1.09.67.104 1.279-.012 1.828-.349zm2.496-7.674a1.84 1.84 0 0 1 .17-1.152c.182-.37.5-.694.953-.972l1.121 1.213-.346.212c-.533.328-.831.693-.894 1.097-.055.399.184.887.716 1.463l2.755 2.982-1.36.835-5.235-5.666 1.36-.835.76.823zm10.972-3.806a4.97 4.97 0 0 1 .485.605l-5.023 3.085c.458.428.989.672 1.592.731s1.159-.067 1.668-.38c.732-.449 1.005-1.031.82-1.744l1.467-.902a2.65 2.65 0 0 1 .102 1.953c-.213.646-.705 1.206-1.476 1.68a4.66 4.66 0 0 1-2.027.681c-.721.056-1.428-.048-2.119-.311-.69-.274-1.305-.703-1.843-1.286s-.875-1.176-1.01-1.781a2.57 2.57 0 0 1 .207-1.739c.279-.547.741-1.019 1.385-1.415.621-.381 1.281-.604 1.982-.668s1.382.032 2.045.291c.657.252 1.239.652 1.745 1.2zm-1.761.502a2.24 2.24 0 0 0-1.497-.709 2.71 2.71 0 0 0-1.661.408c-.469.288-.751.665-.844 1.131-.1.459.021.927.363 1.405l3.639-2.235z" class="D"/><path d="M628.445 324.377c-2.433.267-4.424-.439-5.973-2.115-.782-.846-1.237-1.77-1.365-2.772-.142-1.018.116-2.049.776-3.093.645-1.059 1.722-2.052 3.231-2.979s2.968-1.491 4.377-1.693c1.412-.229 2.699-.147 3.859.245 1.146.377 2.11.988 2.892 1.835s1.226 1.727 1.333 2.644c.124.906-.038 1.779-.486 2.62 1.358-.196 2.633-.095 3.826.302 1.179.381 2.21 1.05 3.093 2.005 1.028 1.113 1.591 2.277 1.69 3.494.084 1.201-.242 2.359-.979 3.475-.718 1.104-1.758 2.074-3.122 2.912s-2.804 1.39-4.322 1.659c-1.499.258-2.946.189-4.339-.208-1.407-.413-2.625-1.176-3.652-2.288-.898-.972-1.409-1.972-1.533-3.001-.139-1.044.092-2.058.694-3.042zm3.835-7.181c-.593-.643-1.268-1.002-2.022-1.079-.751-.104-1.481.062-2.19.498s-1.116.967-1.219 1.595c-.085.617.169 1.247.763 1.89.565.611 1.232.962 2.001 1.055.755.077 1.477-.097 2.168-.521s1.088-.951 1.191-1.579-.127-1.248-.692-1.859zm2.107 6.258c-.854.525-1.357 1.153-1.507 1.884-.166.715.077 1.425.729 2.131.608.658 1.362 1.042 2.262 1.152.918.1 1.813-.119 2.686-.655s1.359-1.166 1.459-1.89c.118-.736-.127-1.433-.735-2.091-.637-.689-1.408-1.076-2.311-1.159-.886-.095-1.747.114-2.583.628zm4.089-11.832l-3.453-3.737 7.553-4.639 15.854 17.157-4.854 2.981-12.401-13.42-2.699 1.658zm10.904-5.776c-1.173-1.269-1.66-2.505-1.46-3.708.217-1.214.998-2.234 2.343-3.06s2.755-1.152 4.228-.976 2.796.898 3.969 2.168 1.66 2.505 1.46 3.708-.971 2.217-2.316 3.044-2.764 1.156-4.255.992c-1.473-.176-2.796-.899-3.969-2.168zm15.083-15.084l4.791 22.993-4.499 2.763-4.791-22.993 4.499-2.763zm-12.055 10.683c-.873.536-.809 1.344.19 2.425.984 1.066 1.913 1.33 2.785.795.418-.257.622-.591.613-1.003s-.261-.884-.754-1.416c-.998-1.081-1.943-1.348-2.834-.801zm18.378 5.549c-1.173-1.269-1.66-2.505-1.461-3.708s.972-2.218 2.317-3.044 2.754-1.152 4.228-.976 2.796.899 3.969 2.168 1.659 2.505 1.46 3.708-.971 2.217-2.317 3.044-2.754 1.151-4.227.975-2.797-.898-3.969-2.167zm3-4.385c-.418.257-.622.591-.612 1.002.028.401.295.875.802 1.423.985 1.066 1.913 1.331 2.786.795.418-.257.622-.591.612-1.003s-.261-.883-.753-1.416-.98-.86-1.462-.981c-.497-.137-.954-.077-1.373.18z" class="H"/><g clip-path="url(#N)" class="H"><path d="M886.053 197.327c-14.153 8.692-36.216 4.277-49.282-9.863s-12.184-32.648 1.969-41.34 36.217-4.276 49.282 9.863 12.185 32.648-1.969 41.34zm-34.103-15.172c3.137 3.395 7.495 5.822 12.116 6.747s9.127.272 12.525-1.815 5.411-5.438 5.595-9.314-1.474-7.961-4.611-11.356l-5.125 3.147c1.882 2.037 2.878 4.488 2.767 6.814s-1.319 4.336-3.358 5.588-4.742 1.644-7.514 1.089-5.388-2.011-7.27-4.048l-5.125 3.148zm-2.169-6.694c1.019-.626 1.623-1.631 1.678-2.794s-.442-2.389-1.383-3.407-2.249-1.747-3.635-2.024-2.738-.082-3.757.544-1.624 1.632-1.679 2.794.442 2.389 1.383 3.407a6.84 6.84 0 0 0 3.635 2.024c1.387.278 2.738.082 3.758-.544h0zm20.5-12.591c1.02-.626 1.624-1.631 1.679-2.794s-.442-2.388-1.383-3.407-2.249-1.746-3.635-2.024-2.738-.081-3.758.545-1.623 1.631-1.678 2.794.442 2.388 1.383 3.407 2.249 1.746 3.635 2.024 2.738.081 3.757-.545z"/></g><g filter="url(#G)" class="F"><rect width="494.911" height="254.463" rx="9" transform="matrix(.852122 -.523343 .678661 .734451 15 495.008)"/></g><g filter="url(#H)" class="E"><rect width="494.911" height="254.463" rx="9" transform="matrix(.852122 -.523343 .678661 .734451 15.2944 469.452)"/></g><path d="M67 474.472a5.94 5.94 0 0 1-2.563.849 6.42 6.42 0 0 1-2.746-.361 5.9 5.9 0 0 1-2.309-1.547c-.646-.7-1.039-1.442-1.178-2.226-.131-.79-.017-1.537.342-2.241.361-.716.927-1.311 1.698-1.785.779-.478 1.637-.758 2.572-.838.937-.092 1.849.025 2.736.35a5.82 5.82 0 0 1 2.299 1.538c.646.699 1.042 1.444 1.188 2.236a3.52 3.52 0 0 1-.332 2.251c-.359.704-.928 1.295-1.708 1.774zm-.941-1.018c.549-.337.94-.744 1.173-1.22.227-.483.276-.997.147-1.541-.127-.556-.435-1.097-.922-1.625s-1.038-.915-1.653-1.161c-.606-.251-1.222-.351-1.848-.3s-1.213.246-1.762.583-.94.743-1.173 1.22-.289.988-.168 1.537c.129.545.437 1.081.925 1.608s1.038.921 1.65 1.179c.614.246 1.237.347 1.869.303a3.95 3.95 0 0 0 1.762-.583zm8.019-5.086l-2.405-5.76 1.444-.887 2.73 7.205-1.622.996-7.728-4.134 1.455-.894 6.127 3.474zm8.58-8.284a4.88 4.88 0 0 1 .484.605l-5.022 3.085a2.66 2.66 0 0 0 1.592.731 2.62 2.62 0 0 0 1.668-.38c.732-.45 1.005-1.031.819-1.745l1.467-.901a2.65 2.65 0 0 1 .102 1.952c-.213.647-.705 1.207-1.477 1.681-.628.386-1.304.613-2.026.68a4.84 4.84 0 0 1-2.119-.31c-.69-.275-1.304-.703-1.843-1.286s-.875-1.176-1.01-1.781a2.57 2.57 0 0 1 .207-1.739c.279-.548.741-1.019 1.385-1.415.62-.381 1.281-.604 1.981-.669s1.382.032 2.045.291a4.6 4.6 0 0 1 1.745 1.201zm-1.762.502a2.24 2.24 0 0 0-1.496-.709c-.591-.046-1.144.09-1.661.408-.469.288-.751.665-.844 1.131-.1.458.021.927.363 1.404l3.639-2.234zm2.731-4.031a1.83 1.83 0 0 1 .17-1.151c.182-.37.5-.694.953-.973l1.121 1.214-.346.212c-.533.327-.831.693-.894 1.097-.055.399.183.887.716 1.463l2.755 2.981-1.36.836-5.235-5.666 1.36-.835.76.822zm9.266.257l-2.405-5.759 1.444-.887 2.73 7.204-1.622.997-7.728-4.135 1.455-.893 6.127 3.473zm.065-8.453a1.2 1.2 0 0 1-.82.165 1.2 1.2 0 0 1-.745-.381c-.196-.212-.278-.442-.244-.688s.174-.446.421-.597c.239-.147.508-.199.808-.158s.548.168.745.381.277.442.243.689-.17.443-.409.589zm1.362.34l5.235 5.666-1.36.835-5.235-5.665 1.36-.836zm10.299-2.102c.197.212.358.414.485.605l-5.023 3.084c.458.428.988.672 1.592.731a2.61 2.61 0 0 0 1.668-.38c.732-.449 1.005-1.03.82-1.744l1.467-.901a2.66 2.66 0 0 1 .102 1.952c-.213.646-.705 1.207-1.477 1.68-.628.386-1.303.613-2.026.681-.721.056-1.428-.047-2.119-.31a5.02 5.02 0 0 1-1.843-1.286c-.538-.583-.875-1.177-1.01-1.781a2.57 2.57 0 0 1 .207-1.739c.279-.548.741-1.02 1.385-1.415.62-.381 1.281-.604 1.981-.669a4.43 4.43 0 0 1 2.046.291c.657.252 1.238.652 1.745 1.201zm-1.762.501a2.23 2.23 0 0 0-1.496-.708c-.591-.046-1.144.09-1.661.408-.469.288-.751.665-.844 1.13-.1.459.021.927.363 1.405l3.638-2.235zm9.439-9.439l3.195 6.918-1.431.88-5.191-3.372 2.542 4.998-1.431.879-7.287-4.405 1.384-.85 5.581 3.713-2.814-5.413 1.42-.872 5.526 3.714-2.83-5.369 1.336-.821zm86.817 149.258l-1.723 1.058c-.209-.172-.431-.304-.665-.393s-.481-.144-.731-.157a2.48 2.48 0 0 0-.753.079c-.251.065-.489.168-.72.309-.417.257-.697.569-.842.938s-.148.771-.005 1.215.433.903.878 1.384c.458.495.927.859 1.409 1.091s.96.336 1.429.318a2.66 2.66 0 0 0 1.312-.402c.228-.14.415-.295.561-.467a1.53 1.53 0 0 0 .313-.548 1.33 1.33 0 0 0 .036-.602c-.031-.207-.113-.416-.245-.625l1.73-1.052a3.15 3.15 0 0 1 .517 1.128 2.82 2.82 0 0 1 .018 1.227c-.083.413-.268.813-.554 1.202s-.687.736-1.204 1.053c-.719.441-1.491.696-2.316.763s-1.644-.066-2.462-.396-1.573-.874-2.271-1.629-1.13-1.503-1.29-2.237-.086-1.414.224-2.04.815-1.16 1.523-1.595c.467-.287.952-.496 1.455-.628a4.93 4.93 0 0 1 1.523-.159 4.56 4.56 0 0 1 1.486.326c.485.191.94.471 1.367.839zm4.254-.258l2.782 3.011-1.676 1.029-6.416-6.944 1.629-1 2.453 2.655.071-.044c-.148-.391-.15-.767-.007-1.128s.441-.685.9-.967a2.9 2.9 0 0 1 1.317-.437c.459-.037.911.038 1.355.225s.855.48 1.228.889l3.064 3.316-1.676 1.029-2.826-3.058c-.294-.323-.619-.515-.975-.576a1.46 1.46 0 0 0-1.042.22c-.228.141-.392.306-.49.498a.9.9 0 0 0-.071.617c.049.218.176.44.38.665zm4.648-9.02l6.417 6.944-1.704 1.046-5.128-5.55-.048.029-.923 2.13-1.203-1.302.988-2.313 1.601-.984z" class="D"/><rect width="61" height="72" rx="6" transform="matrix(.852122 -.523343 .678661 .734451 114.19 534.476)" class="G"/><path d="M129.721 521.644c-.361.213-.77.374-1.23.48s-.958.118-1.497.033-1.111-.304-1.71-.65-1.22-.869-1.859-1.56c-.612-.662-1.082-1.293-1.41-1.893s-.521-1.162-.571-1.681.031-.992.249-1.412.576-.783 1.064-1.083a3.76 3.76 0 0 1 1.53-.544 3.83 3.83 0 0 1 1.573.121c.514.15.985.396 1.414.74l-1.034.635c-.406-.277-.85-.441-1.332-.493s-.951.063-1.408.344c-.672.413-.969.99-.891 1.732s.542 1.566 1.38 2.478l.068-.042c-.033-.304-.008-.596.074-.875a2.36 2.36 0 0 1 .412-.791 2.72 2.72 0 0 1 .732-.638c.497-.306 1.05-.478 1.661-.517s1.209.049 1.804.271a3.99 3.99 0 0 1 1.557 1.053c.428.462.699.96.814 1.492a2.39 2.39 0 0 1-.169 1.534c-.225.49-.632.912-1.221 1.266zm-.742-.804c.355-.218.604-.491.744-.818s.178-.672.104-1.03-.254-.699-.547-1.016c-.285-.309-.626-.54-1.02-.695s-.801-.227-1.221-.206a2.4 2.4 0 0 0-1.158.356 1.87 1.87 0 0 0-.621.599c-.149.233-.237.482-.266.748a1.87 1.87 0 0 0 .096.793 2.01 2.01 0 0 0 .442.73c.274.297.611.525 1.011.685a3.09 3.09 0 0 0 1.246.213 2.42 2.42 0 0 0 1.19-.359zm8.135-3.737c-.638.392-1.32.576-2.046.552s-1.475-.252-2.24-.678-1.528-1.05-2.279-1.863-1.266-1.571-1.558-2.289-.351-1.371-.181-1.949.573-1.067 1.205-1.456a3.57 3.57 0 0 1 2.045-.54c.731.025 1.48.251 2.248.68s1.526 1.041 2.273 1.849 1.274 1.58 1.568 2.3.352 1.365.181 1.943-.577 1.059-1.216 1.451zm-.742-.803c.633-.389.881-.954.746-1.695s-.654-1.598-1.554-2.571c-.598-.648-1.188-1.15-1.769-1.506s-1.129-.565-1.648-.619-.985.043-1.403.3c-.627.385-.87.953-.731 1.703s.655 1.606 1.552 2.578c.599.647 1.186 1.149 1.763 1.504s1.122.561 1.637.615a2.19 2.19 0 0 0 1.407-.309zm8.401-6.259l-.364-.394c-.252-.273-.418-.562-.497-.869a1.37 1.37 0 0 1 .07-.901c.125-.291.37-.553.731-.776.367-.225.739-.345 1.116-.359s.731.051 1.07.202.63.359.882.632l.364.394c.252.273.419.563.501.872a1.35 1.35 0 0 1-.062.896c-.123.289-.365.545-.726.767-.367.225-.74.347-1.117.365a2.42 2.42 0 0 1-1.078-.197 2.63 2.63 0 0 1-.89-.632zm.5-.925l.364.394a1.85 1.85 0 0 0 .75.495c.289.102.586.059.891-.128.296-.183.423-.4.38-.652s-.168-.498-.377-.724l-.364-.395a1.89 1.89 0 0 0-.738-.497c-.285-.107-.58-.067-.885.121-.297.182-.427.403-.39.663s.16.496.369.723zm-8.775-.701l-.365-.394c-.252-.273-.417-.562-.496-.868s-.056-.611.07-.902.369-.553.731-.775.739-.345 1.116-.359a2.34 2.34 0 0 1 1.069.202c.336.148.631.358.883.631l.364.394a2.06 2.06 0 0 1 .5.872 1.35 1.35 0 0 1-.061.897c-.123.289-.365.544-.727.766s-.739.347-1.116.365-.739-.049-1.078-.196-.638-.36-.89-.633zm.5-.925l.364.395a1.86 1.86 0 0 0 .75.495c.288.101.585.058.89-.129.297-.182.424-.399.381-.652s-.168-.497-.377-.724l-.365-.394a1.88 1.88 0 0 0-.738-.497c-.285-.107-.58-.067-.885.12-.296.182-.426.403-.39.663s.16.497.37.723zm5.072 6.409l-.945-11.141.965-.593.946 11.141-.966.593zm135.716 24.7l-1.723 1.058c-.209-.172-.431-.304-.665-.393s-.481-.144-.731-.157a2.48 2.48 0 0 0-.753.079c-.251.065-.489.168-.72.309-.417.257-.697.569-.842.938s-.148.771-.005 1.215.433.903.878 1.384c.458.495.927.859 1.409 1.091s.96.336 1.429.318a2.66 2.66 0 0 0 1.312-.402c.228-.14.415-.295.561-.467a1.53 1.53 0 0 0 .313-.548 1.33 1.33 0 0 0 .036-.602c-.031-.207-.113-.416-.245-.625l1.73-1.052a3.13 3.13 0 0 1 .517 1.128 2.82 2.82 0 0 1 .018 1.227c-.083.413-.268.813-.554 1.202s-.687.736-1.204 1.053c-.719.441-1.491.696-2.316.763s-1.644-.066-2.462-.396-1.573-.874-2.271-1.629-1.13-1.503-1.29-2.237-.086-1.414.224-2.04.815-1.16 1.523-1.595c.467-.287.952-.496 1.455-.628a4.93 4.93 0 0 1 1.523-.159 4.56 4.56 0 0 1 1.486.326 4.75 4.75 0 0 1 1.367.839zm4.254-.258l2.782 3.011-1.676 1.029-6.416-6.944 1.629-1 2.453 2.655.071-.044c-.148-.391-.15-.767-.007-1.128s.442-.685.9-.967a2.9 2.9 0 0 1 1.317-.437c.459-.037.911.038 1.355.225s.855.48 1.228.889l3.064 3.316-1.676 1.029-2.826-3.058c-.293-.323-.619-.515-.975-.576a1.46 1.46 0 0 0-1.042.22c-.228.141-.392.306-.49.498a.9.9 0 0 0-.071.617c.049.218.176.44.38.665zm8.003-.196l-.977-1.058.753-4.049.106-.927c.017-.265-.003-.503-.06-.712a1.45 1.45 0 0 0-.344-.592c-.188-.203-.403-.345-.646-.426a1.67 1.67 0 0 0-.757-.072c-.259.035-.511.122-.747.267-.246.151-.421.326-.526.525a.9.9 0 0 0-.083.63c.049.222.175.444.38.665l-1.617.993c-.42-.454-.665-.922-.735-1.403s.024-.945.285-1.392.672-.844 1.234-1.188c.577-.355 1.16-.575 1.751-.661s1.148-.054 1.673.109.972.445 1.342.845a2.52 2.52 0 0 1 .536.888c.118.328.169.741.153 1.24s-.103 1.131-.255 1.905l-.258 1.716.044.047 3.383-2.077 1.109 1.2-5.744 3.527z" class="D"/><rect width="61" height="72" rx="6" transform="matrix(.852122 -.523343 .678661 .734451 193.438 485.805)" class="G"/><path d="M208.968 472.973a4.27 4.27 0 0 1-1.229.48c-.46.107-.959.118-1.498.033s-1.111-.304-1.709-.65-1.221-.868-1.86-1.56c-.611-.662-1.081-1.293-1.41-1.892s-.521-1.163-.571-1.682.031-.992.249-1.412.576-.783 1.065-1.083a3.74 3.74 0 0 1 1.529-.544 3.83 3.83 0 0 1 1.573.121 4.04 4.04 0 0 1 1.414.74l-1.033.635c-.407-.277-.851-.441-1.332-.493s-.951.063-1.409.344c-.672.413-.969.99-.89 1.732s.542 1.566 1.38 2.478l.068-.042c-.033-.304-.009-.596.074-.875a2.33 2.33 0 0 1 .411-.791c.192-.243.436-.456.732-.638a3.55 3.55 0 0 1 1.661-.517c.608-.041 1.21.049 1.805.271s1.111.571 1.557 1.053c.427.463.698.96.814 1.492s.057 1.041-.169 1.535c-.225.489-.633.911-1.222 1.265zm-.742-.803c.356-.219.604-.492.745-.819a1.68 1.68 0 0 0 .103-1.03c-.075-.358-.254-.699-.546-1.016a2.73 2.73 0 0 0-1.021-.695 2.86 2.86 0 0 0-1.22-.206c-.416.019-.802.138-1.158.356-.268.165-.476.365-.622.6a1.72 1.72 0 0 0-.266.747 1.87 1.87 0 0 0 .096.793c.088.263.236.507.443.731.274.297.611.525 1.01.684a3.1 3.1 0 0 0 1.247.213c.431-.017.828-.136 1.189-.358zm8.136-3.738c-.638.392-1.32.576-2.046.553s-1.475-.253-2.241-.679-1.528-1.05-2.279-1.863-1.266-1.571-1.557-2.289-.351-1.371-.181-1.949.572-1.067 1.205-1.456a3.57 3.57 0 0 1 2.044-.54c.731.025 1.481.251 2.249.68s1.526 1.041 2.273 1.849 1.274 1.58 1.567 2.3.352 1.366.182 1.943-.578 1.059-1.216 1.451zm-.742-.803c.632-.389.881-.954.745-1.694s-.653-1.599-1.553-2.572c-.598-.648-1.188-1.15-1.77-1.506s-1.128-.565-1.648-.619a2.15 2.15 0 0 0-1.402.3c-.627.385-.871.953-.731 1.703s.654 1.607 1.552 2.578c.598.647 1.186 1.149 1.762 1.505s1.122.56 1.637.614a2.2 2.2 0 0 0 1.408-.309zm8.401-6.259l-.365-.394c-.252-.273-.417-.562-.496-.869a1.36 1.36 0 0 1 .07-.901c.126-.295.369-.553.731-.775s.739-.346 1.116-.359a2.33 2.33 0 0 1 1.069.201c.337.149.631.359.883.632l.364.394c.252.273.419.563.5.872a1.35 1.35 0 0 1-.061.896c-.123.289-.365.545-.727.767s-.739.347-1.116.365a2.43 2.43 0 0 1-1.078-.196c-.342-.149-.638-.36-.89-.633zm.5-.925l.364.394a1.85 1.85 0 0 0 .75.496c.288.101.585.058.89-.129.297-.182.424-.4.381-.652s-.168-.498-.377-.724l-.365-.395c-.209-.226-.455-.392-.738-.496s-.58-.068-.885.12c-.296.182-.426.403-.39.663s.16.497.37.723zm-8.776-.7l-.364-.395c-.252-.272-.418-.562-.497-.868a1.37 1.37 0 0 1 .07-.902c.126-.294.37-.553.731-.775.368-.225.739-.345 1.116-.359s.731.051 1.07.202a2.63 2.63 0 0 1 .882.631l.364.394c.252.273.419.564.501.872a1.35 1.35 0 0 1-.062.897c-.122.289-.365.544-.726.766-.367.226-.739.347-1.117.365a2.42 2.42 0 0 1-1.078-.196c-.341-.149-.638-.36-.89-.632zm.5-.926l.365.395a1.86 1.86 0 0 0 .749.495c.289.101.586.058.891-.129.296-.182.423-.399.38-.652s-.168-.497-.377-.724l-.364-.394a1.88 1.88 0 0 0-.738-.497c-.285-.107-.58-.067-.885.12-.297.182-.427.403-.39.663s.16.497.369.723zm5.072 6.409l-.945-11.141.966-.593.945 11.141-.966.593zm135.555 24.8l-1.723 1.058c-.209-.173-.431-.304-.666-.393a2.39 2.39 0 0 0-.731-.157c-.25-.012-.501.013-.753.079s-.489.167-.719.309c-.417.256-.698.569-.842.937s-.149.772-.006 1.215.434.903.878 1.385c.458.495.927.859 1.409 1.091s.961.336 1.429.318.905-.152 1.312-.402c.228-.14.415-.296.561-.467s.253-.356.313-.548a1.3 1.3 0 0 0 .037-.602 1.64 1.64 0 0 0-.245-.625l1.729-1.052c.25.346.422.722.518 1.128s.101.811.018 1.227-.268.813-.555 1.202-.687.735-1.204 1.053a5.18 5.18 0 0 1-2.316.763c-.823.066-1.643-.066-2.462-.396s-1.573-.874-2.27-1.629-1.13-1.503-1.291-2.237-.085-1.415.224-2.041.815-1.159 1.523-1.594c.467-.287.952-.496 1.455-.628s1.014-.187 1.524-.16a4.6 4.6 0 0 1 1.485.326c.485.192.941.471 1.368.84zm4.253-.258l2.783 3.011-1.676 1.029-6.417-6.944 1.629-1 2.453 2.655.071-.044c-.148-.391-.15-.767-.007-1.128s.442-.686.901-.967a2.88 2.88 0 0 1 1.317-.437 2.86 2.86 0 0 1 1.355.225c.445.184.854.48 1.227.888l3.065 3.316-1.676 1.03-2.826-3.059c-.294-.322-.619-.514-.976-.575s-.701.011-1.042.22c-.228.14-.391.306-.49.498s-.119.395-.071.617.176.44.38.665zm11.069-1.93a5.12 5.12 0 0 1-1.811.703c-.619.104-1.203.084-1.752-.061a2.93 2.93 0 0 1-1.395-.823l1.715-1.053c.167.163.369.273.606.329a1.8 1.8 0 0 0 .753 0c.264-.052.521-.155.77-.308.259-.159.452-.34.578-.541a1 1 0 0 0 .165-.617c-.016-.21-.11-.405-.279-.588a1.32 1.32 0 0 0-.635-.381 1.79 1.79 0 0 0-.825-.025c-.296.054-.595.175-.9.361l-.751.462-.996-1.078.751-.462c.257-.158.448-.335.574-.533a.97.97 0 0 0 .17-.604c-.018-.205-.111-.4-.28-.583a1.32 1.32 0 0 0-.568-.368c-.218-.076-.448-.097-.69-.066a1.75 1.75 0 0 0-.701.256c-.228.14-.409.307-.533.497s-.188.383-.182.585.086.393.241.574l-1.632 1.003c-.362-.405-.555-.839-.58-1.302s.101-.914.377-1.353.691-.834 1.242-1.172 1.123-.553 1.701-.635 1.119-.046 1.623.108.925.41 1.261.778c.362.387.521.797.478 1.231s-.254.822-.64 1.169l.05.054c.654-.298 1.269-.398 1.845-.298s1.065.359 1.461.793c.368.394.56.827.577 1.298s-.123.937-.427 1.4-.758.88-1.361 1.25z" class="D"/><rect width="61" height="113" rx="6" transform="matrix(.852122 -.523343 .678661 .734451 245.539 407.756)" class="G"/><path d="M260.336 394.223c-.582.358-1.178.584-1.789.681a3.84 3.84 0 0 1-1.723-.104 2.98 2.98 0 0 1-1.367-.854c-.295-.315-.493-.652-.594-1.01s-.11-.708-.022-1.044a1.74 1.74 0 0 1 .539-.876l-.04-.043c-.501.162-1.017.164-1.548.006s-.983-.44-1.346-.839c-.354-.378-.556-.786-.607-1.224s.042-.865.277-1.281.612-.782 1.121-1.094a3.94 3.94 0 0 1 1.586-.568c.556-.07 1.084-.025 1.587.136s.935.427 1.289.805c.364.398.565.83.605 1.294s-.101.861-.422 1.204l.04.043a2.64 2.64 0 0 1 1.168-.173c.418.026.826.128 1.226.306a3.16 3.16 0 0 1 1.038.736c.371.406.577.844.618 1.315s-.076.926-.353 1.378-.704.851-1.283 1.206zm-.743-.803c.393-.241.681-.504.865-.789s.262-.574.233-.869-.166-.578-.411-.847c-.264-.281-.579-.478-.946-.593a2.67 2.67 0 0 0-1.154-.092 2.87 2.87 0 0 0-1.151.415c-.37.227-.643.492-.819.795a1.51 1.51 0 0 0-.21.93c.037.317.187.616.45.897a1.96 1.96 0 0 0 .873.563c.339.104.704.123 1.093.055a3.35 3.35 0 0 0 1.177-.465zm-3.279-3.549c.31-.191.536-.414.677-.668s.197-.523.157-.801-.176-.545-.412-.805c-.237-.252-.51-.429-.818-.534a2.1 2.1 0 0 0-.969-.092c-.336.043-.664.162-.984.358s-.56.427-.706.68a1.16 1.16 0 0 0-.159.785c.041.269.18.529.416.78.236.26.51.444.824.553a2.17 2.17 0 0 0 .987.098 2.45 2.45 0 0 0 .987-.354zm11.424-.194c-.639.392-1.321.576-2.046.553s-1.475-.253-2.241-.679-1.528-1.05-2.279-1.863-1.266-1.571-1.557-2.288-.351-1.372-.181-1.95.572-1.067 1.205-1.455a3.55 3.55 0 0 1 2.044-.54c.731.024 1.48.25 2.248.679s1.527 1.041 2.274 1.849 1.273 1.58 1.567 2.3.352 1.366.182 1.943-.578 1.059-1.216 1.451zm-.743-.803c.633-.389.882-.953.746-1.694s-.653-1.598-1.553-2.572c-.599-.648-1.188-1.15-1.77-1.506s-1.128-.564-1.648-.619-.984.044-1.402.3c-.627.385-.871.953-.732 1.703s.655 1.607 1.553 2.578c.598.647 1.185 1.149 1.762 1.505s1.122.56 1.637.614.987-.051 1.407-.309zm8.402-6.259l-.365-.394a2.04 2.04 0 0 1-.497-.868c-.078-.311-.055-.611.07-.902s.37-.553.732-.775.739-.345 1.115-.359.731.051 1.07.201a2.65 2.65 0 0 1 .882.632l.365.394c.252.273.418.563.5.872a1.35 1.35 0 0 1-.062.896c-.122.289-.364.545-.726.767a2.35 2.35 0 0 1-1.117.365 2.41 2.41 0 0 1-1.078-.196 2.62 2.62 0 0 1-.889-.633zm.499-.925l.365.394a1.85 1.85 0 0 0 .75.496c.288.101.585.058.89-.129.296-.182.423-.4.381-.652a1.4 1.4 0 0 0-.378-.724l-.364-.394a1.88 1.88 0 0 0-.738-.497c-.285-.108-.58-.068-.885.12-.297.182-.427.403-.39.663s.16.497.369.723zm-8.775-.7l-.364-.395c-.252-.272-.418-.562-.497-.868a1.37 1.37 0 0 1 .07-.901c.126-.295.37-.554.731-.776.367-.225.739-.345 1.116-.359a2.35 2.35 0 0 1 1.07.202c.336.148.63.359.882.631l.364.395a2.05 2.05 0 0 1 .5.871c.083.305.062.604-.061.897s-.365.544-.726.766c-.367.226-.74.348-1.117.366a2.43 2.43 0 0 1-1.078-.197c-.341-.149-.638-.36-.89-.632zm.5-.925l.364.394a1.86 1.86 0 0 0 .75.495c.289.102.585.059.89-.129.297-.182.424-.399.381-.651s-.168-.498-.377-.725l-.364-.394c-.21-.226-.456-.392-.738-.497s-.581-.067-.886.12c-.296.182-.426.403-.39.663s.161.497.37.724zm5.072 6.409l-.945-11.142.966-.593.945 11.141-.966.594zm163.323 54.946l-1.723 1.058c-.209-.173-.431-.304-.666-.393a2.31 2.31 0 0 0-.731-.157c-.25-.013-.501.013-.752.079a2.68 2.68 0 0 0-.72.309c-.417.256-.698.569-.842.937s-.149.772-.006 1.216.434.903.879 1.384c.457.495.927.859 1.408 1.091s.961.336 1.429.318a2.66 2.66 0 0 0 1.312-.402c.228-.14.415-.296.561-.467a1.54 1.54 0 0 0 .314-.548 1.33 1.33 0 0 0 .036-.602c-.031-.207-.113-.416-.245-.625l1.729-1.052c.25.346.423.722.518 1.128a2.82 2.82 0 0 1 .018 1.227c-.083.413-.268.813-.555 1.202s-.687.735-1.203 1.053c-.719.441-1.491.695-2.316.763s-1.644-.066-2.463-.396-1.573-.874-2.27-1.629-1.13-1.503-1.29-2.237-.086-1.415.223-2.04.816-1.16 1.524-1.595a5.36 5.36 0 0 1 1.455-.628c.505-.133 1.013-.187 1.523-.16s1.003.134 1.485.327a4.77 4.77 0 0 1 1.368.839zm4.254-.258l2.782 3.011-1.676 1.029-6.416-6.944 1.628-1 2.453 2.655.071-.044c-.148-.391-.15-.767-.006-1.128s.441-.685.9-.967c.42-.258.859-.404 1.317-.437a2.91 2.91 0 0 1 1.355.225c.445.187.854.48 1.228.889l3.064 3.316-1.676 1.029-2.826-3.059c-.294-.322-.619-.514-.976-.575s-.701.011-1.042.22c-.228.14-.391.306-.49.498s-.119.396-.07.617.176.44.38.665zm6.753-1.342l-1.068-1.156-.857-6.632 1.156-.711 1.479 1.601-.684.42.552 4.194.05.055 4.78-2.936 1.087 1.177-6.495 3.988zm4.995-1.154l-1.454-1.573-.441-.531-4.49-4.859 1.597-.981 6.417 6.944-1.629 1z" class="D"/><rect width="61" height="72" rx="6" transform="matrix(.852122 -.523343 .678661 .734451 351.933 388.463)" class="G"/><path d="M367.463 375.631c-.36.214-.77.374-1.23.48s-.958.118-1.497.033-1.111-.304-1.709-.65-1.221-.868-1.86-1.56c-.612-.662-1.082-1.293-1.41-1.892s-.521-1.163-.571-1.682.031-.992.249-1.412.576-.783 1.065-1.083a3.75 3.75 0 0 1 1.529-.544 3.83 3.83 0 0 1 1.573.121 4.05 4.05 0 0 1 1.414.74l-1.034.635c-.406-.277-.85-.441-1.332-.493s-.951.063-1.408.344c-.672.413-.969.99-.89 1.732s.541 1.566 1.38 2.478l.067-.042c-.033-.304-.008-.596.075-.875a2.33 2.33 0 0 1 .411-.791c.191-.243.435-.456.732-.638a3.55 3.55 0 0 1 1.661-.517c.608-.041 1.209.049 1.804.271a3.99 3.99 0 0 1 1.557 1.053c.428.463.699.96.814 1.492a2.39 2.39 0 0 1-.169 1.535c-.225.489-.632.911-1.221 1.265zm-.742-.803c.356-.219.604-.492.745-.818a1.67 1.67 0 0 0 .103-1.031c-.072-.361-.254-.699-.546-1.015a2.72 2.72 0 0 0-1.021-.696 2.86 2.86 0 0 0-1.22-.206c-.417.019-.803.138-1.159.356-.268.165-.475.365-.621.6a1.76 1.76 0 0 0-.266.747c-.029.266.006.528.096.794a2.02 2.02 0 0 0 .442.73c.275.297.612.525 1.011.684s.818.228 1.246.213a2.42 2.42 0 0 0 1.19-.358zm8.136-3.738c-.639.392-1.321.576-2.046.553s-1.475-.253-2.241-.679-1.528-1.05-2.279-1.863-1.266-1.571-1.557-2.289-.352-1.371-.181-1.949.572-1.067 1.205-1.455a3.56 3.56 0 0 1 2.044-.541c.731.025 1.48.251 2.248.68s1.527 1.041 2.273 1.849c.752.813 1.274 1.58 1.568 2.3s.352 1.366.182 1.943-.578 1.059-1.216 1.451zm-.743-.803c.633-.389.881-.954.746-1.694s-.654-1.599-1.553-2.572c-.599-.648-1.189-1.15-1.77-1.506s-1.128-.565-1.648-.619a2.16 2.16 0 0 0-1.403.3c-.627.385-.87.953-.731 1.703s.655 1.607 1.553 2.578c.598.647 1.185 1.149 1.762 1.505s1.122.56 1.637.614a2.19 2.19 0 0 0 1.407-.309zm8.401-6.259l-.364-.394a2.03 2.03 0 0 1-.497-.868c-.078-.311-.055-.611.07-.902s.37-.553.731-.775c.368-.226.74-.346 1.116-.359a2.33 2.33 0 0 1 1.07.201 2.65 2.65 0 0 1 .882.632l.365.394c.252.273.418.563.5.872a1.35 1.35 0 0 1-.062.896c-.122.289-.364.545-.726.767s-.739.347-1.117.365a2.41 2.41 0 0 1-1.078-.196 2.61 2.61 0 0 1-.89-.633zm.5-.925l.365.394a1.85 1.85 0 0 0 .75.496c.288.101.585.058.89-.129.296-.182.423-.4.38-.652s-.167-.498-.377-.724l-.364-.395c-.209-.226-.455-.392-.738-.496s-.58-.068-.885.12c-.297.182-.427.403-.39.663s.16.497.369.723zm-8.775-.7l-.364-.395c-.252-.272-.418-.562-.497-.868s-.056-.611.07-.902.369-.553.731-.775.739-.345 1.116-.359a2.34 2.34 0 0 1 1.069.202 2.64 2.64 0 0 1 .883.631l.364.395a2.05 2.05 0 0 1 .5.871 1.35 1.35 0 0 1-.061.897c-.123.289-.365.544-.726.766-.368.226-.74.347-1.117.366a2.43 2.43 0 0 1-1.078-.197c-.342-.149-.638-.36-.89-.632zm.5-.926l.364.395a1.86 1.86 0 0 0 .75.495c.288.101.585.059.89-.129.297-.182.424-.399.381-.651s-.168-.498-.377-.725l-.365-.394a1.89 1.89 0 0 0-.738-.497c-.285-.107-.58-.067-.885.12-.296.182-.426.403-.39.663s.161.497.37.723zm5.072 6.409l-.945-11.141.966-.593.945 11.141-.966.593zm135.635 24.75l-1.723 1.058a2.37 2.37 0 0 0-.666-.393 2.34 2.34 0 0 0-.731-.157c-.25-.013-.501.014-.752.079s-.489.168-.72.309c-.417.257-.698.569-.842.938s-.149.771-.006 1.215.434.903.879 1.384c.457.495.927.859 1.408 1.091s.961.336 1.429.318a2.66 2.66 0 0 0 1.312-.402c.228-.14.415-.295.561-.467s.254-.355.314-.548a1.33 1.33 0 0 0 .036-.602 1.64 1.64 0 0 0-.245-.625l1.729-1.052c.25.347.423.722.518 1.128a2.82 2.82 0 0 1 .018 1.227c-.083.413-.268.813-.555 1.202s-.687.736-1.203 1.053c-.719.441-1.491.696-2.316.763s-1.644-.066-2.463-.396-1.573-.874-2.27-1.629-1.13-1.503-1.29-2.237-.086-1.414.223-2.04.816-1.16 1.524-1.595a5.36 5.36 0 0 1 1.455-.628c.505-.133 1.013-.186 1.523-.159s1.003.133 1.485.326a4.77 4.77 0 0 1 1.368.839zm4.254-.258l2.782 3.011-1.676 1.029-6.416-6.944 1.628-1 2.453 2.655.071-.044c-.148-.391-.15-.767-.006-1.128s.441-.685.9-.967a2.9 2.9 0 0 1 1.317-.437c.459-.037.91.038 1.355.225s.854.48 1.228.889l3.064 3.316-1.676 1.029-2.826-3.058c-.294-.323-.619-.515-.976-.576s-.701.011-1.042.22c-.228.141-.391.306-.49.498s-.119.396-.07.617.175.44.38.665zm11.033-1.908c-.556.342-1.133.558-1.731.649a4.01 4.01 0 0 1-1.704-.096c-.541-.154-1.001-.427-1.382-.821l1.653-1.014c.267.257.599.395.998.412s.765-.077 1.101-.283c.267-.164.456-.36.567-.587s.14-.474.086-.728-.191-.506-.412-.746-.484-.422-.776-.533a1.98 1.98 0 0 0-.893-.132 1.97 1.97 0 0 0-.867.283 1.81 1.81 0 0 0-.573.548c-.143.219-.209.438-.199.659l-1.73.696-3.002-3.896 4.925-3.025 1.109 1.2-3.521 2.163 1.399 1.867.047-.029c-.017-.259.065-.532.247-.821s.449-.542.803-.759a3.38 3.38 0 0 1 1.57-.502c.562-.037 1.112.049 1.65.257s1.008.532 1.417.979c.435.466.693.96.775 1.48s-.007 1.018-.268 1.504-.691.908-1.289 1.275z" class="D"/><rect width="61" height="72" rx="6" transform="matrix(.852122 -.523343 .678661 .734451 431.18 339.792)" class="G"/><path d="M446.71 326.96a4.27 4.27 0 0 1-1.229.48c-.46.107-.959.118-1.498.033s-1.111-.304-1.709-.65-1.221-.868-1.86-1.56c-.612-.662-1.082-1.293-1.41-1.892s-.521-1.163-.571-1.682.031-.992.249-1.412.576-.783 1.065-1.083.995-.479 1.529-.544a3.83 3.83 0 0 1 1.573.121c.514.15.986.397 1.414.74l-1.034.635c-.406-.277-.85-.441-1.332-.493s-.951.064-1.408.345c-.672.412-.969.99-.89 1.731s.541 1.566 1.38 2.478l.067-.042c-.033-.304-.008-.596.075-.875a2.34 2.34 0 0 1 .411-.791c.191-.243.435-.456.732-.638a3.56 3.56 0 0 1 1.661-.517c.608-.041 1.209.049 1.804.272a3.97 3.97 0 0 1 1.557 1.052c.428.463.699.96.814 1.492a2.39 2.39 0 0 1-.169 1.535c-.225.489-.632.911-1.221 1.265zm-.742-.803c.356-.219.604-.492.745-.818a1.67 1.67 0 0 0 .103-1.031c-.072-.36-.254-.699-.546-1.015-.286-.309-.626-.541-1.021-.696a2.86 2.86 0 0 0-1.22-.206c-.417.019-.803.138-1.158.356-.269.165-.476.365-.622.6a1.72 1.72 0 0 0-.266.747c-.026.264.006.528.096.794a2.02 2.02 0 0 0 .442.73c.275.297.612.525 1.011.684s.818.228 1.246.213a2.42 2.42 0 0 0 1.19-.358zm8.136-3.738c-.639.392-1.321.576-2.046.553s-1.475-.252-2.241-.679-1.528-1.05-2.279-1.863-1.266-1.571-1.557-2.288-.351-1.372-.181-1.95.572-1.067 1.205-1.455a3.55 3.55 0 0 1 2.044-.54c.731.024 1.48.25 2.248.679s1.527 1.041 2.273 1.849c.752.813 1.274 1.58 1.568 2.3s.352 1.366.182 1.943-.578 1.059-1.216 1.451zm-.743-.803c.633-.389.881-.953.746-1.694s-.654-1.598-1.553-2.572c-.599-.648-1.189-1.15-1.77-1.506s-1.128-.564-1.648-.619a2.16 2.16 0 0 0-1.403.3c-.627.385-.87.953-.731 1.703s.655 1.607 1.553 2.578c.598.647 1.185 1.149 1.762 1.505s1.122.56 1.637.614.987-.051 1.407-.309zm8.401-6.259l-.364-.394a2.04 2.04 0 0 1-.497-.868c-.078-.311-.055-.611.07-.902s.37-.553.732-.775c.367-.226.739-.345 1.115-.359s.731.051 1.07.201a2.65 2.65 0 0 1 .882.632l.365.394c.252.273.418.563.5.872a1.35 1.35 0 0 1-.062.896c-.122.289-.364.545-.726.767s-.739.347-1.117.365-.738-.05-1.078-.196-.638-.36-.89-.633zm.5-.925l.365.394a1.85 1.85 0 0 0 .75.496c.288.101.585.058.89-.129.296-.182.423-.4.38-.652s-.167-.498-.377-.724l-.364-.394a1.88 1.88 0 0 0-.738-.497c-.285-.108-.58-.068-.885.12-.297.182-.427.403-.39.663s.16.497.369.723zm-8.775-.7l-.364-.395c-.252-.272-.418-.562-.497-.868a1.36 1.36 0 0 1 .07-.901c.126-.295.37-.554.731-.776.367-.225.739-.345 1.116-.359a2.34 2.34 0 0 1 1.069.202 2.64 2.64 0 0 1 .883.631l.364.395a2.05 2.05 0 0 1 .5.871 1.35 1.35 0 0 1-.061.897c-.123.289-.365.544-.726.766-.367.226-.74.348-1.117.366a2.43 2.43 0 0 1-1.078-.197c-.341-.149-.638-.36-.89-.632zm.5-.925l.364.394a1.86 1.86 0 0 0 .75.495c.289.102.585.059.89-.129.297-.182.424-.399.381-.651s-.168-.498-.377-.725l-.364-.394c-.21-.226-.456-.392-.738-.497s-.581-.067-.886.12c-.296.182-.426.403-.39.663s.161.497.37.724zm5.072 6.409l-.945-11.142.966-.593.945 11.141-.966.594z" class="D"/><g filter="url(#I)" class="F"><use xlink:href="#O"/></g><g filter="url(#J)" class="E"><path d="M253.299 709c-3.751-4.14-2.864-10.662 1.858-13.649l731.908-463a9 9 0 0 1 11.406 1.481l36.769 39.588c3.82 4.115 2.98 10.687-1.75 13.71L303.523 753.269a9 9 0 0 1-11.513-1.542L253.299 709z"/></g><path d="M498.462 580.037c-.771-.828-1.646-.94-2.624-.335-.757.468-1.141 1.111-1.152 1.93-.017.809.392 1.879 1.226 3.209-.078-.563.033-1.107.331-1.633a3.64 3.64 0 0 1 1.294-1.329c.876-.542 1.742-.701 2.597-.477.864.218 1.593.808 2.188 1.769.357.578.563 1.168.618 1.769.062.596-.052 1.172-.343 1.729-.282.55-.747 1.026-1.393 1.425-.876.542-1.682.77-2.417.684s-1.413-.414-2.035-.982-1.245-1.358-1.871-2.37c-1.93-3.121-1.807-5.355.37-6.701.834-.516 1.628-.695 2.383-.539s1.388.552 1.899 1.189l-1.071.662zm-.56 2.974a2.79 2.79 0 0 0-.891.869c-.234.344-.358.733-.373 1.165-.012.419.117.845.385 1.279.4.646.913 1.058 1.539 1.235.622.168 1.281.037 1.979-.395.595-.368.954-.843 1.077-1.424.125-.595-.006-1.207-.395-1.837-.411-.663-.902-1.077-1.473-1.241-.577-.172-1.193-.056-1.848.349zm4.952-2.48c-.904-1.463-1.371-2.75-1.399-3.861-.034-1.119.544-2.047 1.735-2.784 1.182-.731 2.267-.831 3.253-.301.981.522 1.924 1.515 2.829 2.978.92 1.488 1.397 2.792 1.431 3.912s-.54 2.045-1.723 2.776c-1.19.736-2.279.839-3.265.308s-1.94-1.54-2.861-3.028zm5.269-3.258c-.457-.74-.895-1.334-1.312-1.781-.415-.461-.872-.754-1.373-.879-.492-.131-1.023-.02-1.593.332-.579.358-.924.789-1.035 1.293-.103.498-.045 1.039.173 1.621.222.568.562 1.222 1.02 1.962.473.765.917 1.379 1.331 1.84.423.455.881.749 1.373.879.501.125 1.04.009 1.619-.348.569-.353.906-.778 1.009-1.277.112-.504.054-1.044-.173-1.621-.219-.582-.565-1.256-1.039-2.021zm.981-3.975c-.358-.578-.468-1.145-.329-1.701.133-.564.471-1.015 1.016-1.351s1.098-.439 1.663-.306c.559.125 1.017.476 1.375 1.055.363.587.478 1.162.345 1.727-.139.555-.48 1.002-1.024 1.338s-1.097.443-1.656.318c-.564-.133-1.028-.493-1.39-1.08zm6.362-6.367l.339 12.1-1.148.71-.34-12.1 1.149-.71zm-5.233 4.029c-.29.179-.456.423-.5.732-.041.296.06.639.302 1.03s.507.639.795.744c.296.099.589.059.878-.12s.455-.423.499-.732c.039-.318-.06-.669-.297-1.051-.242-.392-.508-.632-.799-.723-.297-.099-.589-.059-.878.12zm7.086 4.701c-.363-.587-.475-1.159-.337-1.714.133-.565.472-1.015 1.016-1.352s1.095-.436 1.651-.297c.559.124 1.02.48 1.383 1.067.357.578.469 1.15.336 1.714-.124.559-.459 1.007-1.003 1.344s-1.096.442-1.655.318c-.565-.133-1.028-.493-1.391-1.08zm1.116-2.331c-.289.179-.456.423-.499.732-.05.301.047.647.289 1.039.236.382.503.623.799.722.291.091.581.046.871-.132s.458-.419.507-.72c.044-.309-.052-.655-.289-1.038-.242-.391-.508-.632-.8-.723a1 1 0 0 0-.878.12z" class="H"/><g transform="rotate(328.269 527.884 557.394)"><rect x="527.884" y="557.394" width="285.634" height="4.95" rx="2.475" class="I"/><rect x="527.884" y="557.394" width="161.608" height="4.95" rx="2.475" class="H"/></g><path d="M854.714 344.318a5 5 0 0 1 1.192-7.447l78.831-49.168a5 5 0 0 1 6.543 1.109l16.482 20.501c1.883 2.343 1.289 5.805-1.267 7.386l-78.646 48.631a5 5 0 0 1-6.468-1.048l-16.667-19.964z" class="F"/><path d="M854.9 332.316c-1.95-2.33-1.39-5.845 1.187-7.453l78.831-49.164a5 5 0 0 1 6.538 1.105l16.273 20.187a5 5 0 0 1-1.264 7.39l-78.645 48.631a5 5 0 0 1-6.463-1.043L854.9 332.316z" class="G"/><path d="M885.351 321.207l.865 1.398-1.899 1.174 3.566 5.767-1.745 1.079-3.566-5.767-1.898 1.174-.865-1.398 5.542-3.427zm3.192 3.98c-.361-.585-.57-1.166-.626-1.743-.049-.581.044-1.109.277-1.583s.586-.855 1.055-1.146c.402-.248.803-.383 1.203-.405.407-.026.774.043 1.102.208l-.499-.807 1.745-1.079 3.522 5.695-1.745 1.08-.499-.807c-.006.371-.111.732-.317 1.085-.198.349-.498.647-.899.895a2.75 2.75 0 0 1-1.487.425 3.03 3.03 0 0 1-1.546-.469c-.495-.314-.924-.764-1.286-1.349zm4.273-2.628c-.269-.435-.604-.703-1.005-.804-.394-.104-.764-.049-1.111.166s-.565.523-.655.926c-.086.392.005.806.274 1.242s.603.709 1.001.82c.401.1.775.043 1.122-.172a1.36 1.36 0 0 0 .644-.92c.089-.403-.001-.822-.27-1.258zm8.249-1.164l-3.212-1.316 1.477 2.388-1.745 1.08-4.671-7.553 1.746-1.079 2.581 4.174.292-3.383 2.154-1.332-.601 4.322 4.143 1.361-2.164 1.338zm6.38-8.009c.101.164.196.34.285.53l-3.95 2.442c.246.337.526.54.842.608.317.058.623-.004.915-.185.436-.269.625-.64.568-1.113l1.857-1.148c.136.433.171.877.104 1.332-.059.451-.224.877-.493 1.278s-.635.746-1.097 1.032c-.558.345-1.129.533-1.711.564s-1.134-.099-1.652-.389-.961-.733-1.327-1.325-.567-1.182-.602-1.772a2.98 2.98 0 0 1 .39-1.652c.288-.507.714-.935 1.279-1.285.551-.34 1.113-.528 1.684-.561s1.109.09 1.613.371c.51.277.941.702 1.295 1.273zm-2.07.645c-.185-.299-.435-.474-.748-.525a1.33 1.33 0 0 0-.93.208c-.292.181-.488.42-.587.716-.092.292-.065.61.081.952l2.184-1.351zm4.87-2.235c-.35-.565-.545-1.14-.587-1.725-.036-.589.068-1.129.311-1.618a2.84 2.84 0 0 1 1.073-1.185c.361-.223.724-.358 1.09-.406.361-.054.7-.024 1.016.092l-.404-.654 1.745-1.079 5.2 8.41-1.745 1.079-2.12-3.429c-.051.36-.174.7-.372 1.02-.19.315-.466.584-.827.807a2.81 2.81 0 0 1-1.513.428c-.546-.001-1.075-.149-1.586-.444-.505-.299-.932-.731-1.281-1.296zm4.259-2.648c-.189-.306-.408-.524-.657-.652a1.33 1.33 0 0 0-.749-.185 1.39 1.39 0 0 0-.703.209 1.38 1.38 0 0 0-.491.529c-.128.22-.187.473-.179.76s.106.583.295.889.411.527.664.662c.248.128.502.188.76.179a1.44 1.44 0 0 0 .686-.213 1.46 1.46 0 0 0 .498-.519c.13-.231.187-.487.172-.77-.008-.286-.106-.583-.296-.889zm6.871-8.185l3.522 5.695-1.745 1.079-.48-.775c-.021.361-.137.714-.346 1.06-.207.335-.494.616-.861.843-.436.269-.879.412-1.33.427a2.34 2.34 0 0 1-1.3-.367c-.411-.254-.77-.629-1.077-1.126l-2.057-3.327 1.735-1.073 1.912 3.093c.236.381.517.616.845.704s.658.031.992-.175c.34-.211.543-.482.61-.815s-.017-.69-.253-1.071l-1.912-3.093 1.745-1.079zm1.766-1.91c-.307.189-.613.257-.92.202a1.06 1.06 0 0 1-.702-.497c-.168-.272-.212-.556-.131-.851.084-.305.279-.553.585-.742.299-.185.601-.245.905-.179.307.055.545.218.713.491a1.04 1.04 0 0 1 .12.856c-.081.295-.271.535-.57.72zm1.233.056l3.522 5.695-1.745 1.079-3.522-5.695 1.745-1.079zm5.53 2.464l2.47-1.528.89 1.44-4.42 2.732-.858-1.388.594-4.332-2.347 1.452-.89-1.44 4.348-2.688.858 1.388-.645 4.364z" class="E"/><path d="M982.793 278.645l7.572.247c.697.023 1.026.555.735 1.188s-1.092 1.129-1.789 1.106l-8.833-.288c-.697-.022-1.026-.554-.735-1.188l3.689-8.031c.291-.634 1.092-1.129 1.789-1.106s1.026.555.734 1.188l-3.162 6.884z" class="D"/><g filter="url(#I)" class="F"><use xlink:href="#O"/></g><g filter="url(#K)" class="E"><path d="M253.299 709c-3.751-4.14-2.864-10.662 1.858-13.649l731.908-463a9 9 0 0 1 11.406 1.481l36.769 39.588c3.82 4.116 2.98 10.688-1.75 13.71L303.523 753.269a9 9 0 0 1-11.513-1.542L253.299 709z"/></g><use xlink:href="#P" class="H"/><g transform="rotate(328.269 527.884 557.394)"><rect x="527.884" y="557.394" width="285.634" height="4.95" rx="2.475" class="I"/><rect x="527.884" y="557.394" width="161.608" height="4.95" rx="2.475" class="H"/></g><path d="M854.714 344.318a5 5 0 0 1 1.192-7.447l78.831-49.168a5 5 0 0 1 6.543 1.11l16.482 20.5c1.883 2.343 1.289 5.805-1.267 7.386l-78.646 48.631a5 5 0 0 1-6.468-1.048l-16.667-19.964z" class="F"/><path d="M854.9 332.316c-1.95-2.329-1.39-5.845 1.187-7.453l78.831-49.163a5 5 0 0 1 6.538 1.104l16.273 20.187a5 5 0 0 1-1.264 7.39l-78.645 48.631a5 5 0 0 1-6.463-1.043L854.9 332.316z" class="G"/><path d="M885.351 321.207l.865 1.398-1.899 1.174 3.566 5.767-1.745 1.079-3.566-5.767-1.898 1.174-.865-1.398 5.542-3.427zm3.192 3.98c-.361-.585-.57-1.166-.626-1.743-.049-.581.044-1.109.277-1.582s.586-.856 1.055-1.147c.402-.248.803-.383 1.203-.405.407-.026.774.044 1.102.208l-.499-.806 1.745-1.08 3.522 5.696-1.745 1.079-.499-.807c-.006.371-.111.733-.317 1.085-.198.349-.498.647-.899.895a2.76 2.76 0 0 1-1.487.426c-.532-.01-1.048-.166-1.546-.47-.495-.314-.924-.764-1.286-1.349zm4.273-2.628c-.269-.435-.604-.703-1.005-.803a1.36 1.36 0 0 0-1.111.165c-.347.214-.565.523-.655.926-.086.393.005.806.274 1.242s.603.709 1.001.82c.401.1.775.043 1.122-.171s.562-.522.644-.921c.089-.403-.001-.822-.27-1.258zm8.249-1.164l-3.212-1.316 1.477 2.389-1.745 1.079-4.671-7.553 1.746-1.079 2.581 4.174.292-3.383 2.154-1.332-.601 4.322 4.143 1.361-2.164 1.338zm6.38-8.009c.101.164.196.34.285.53l-3.95 2.442c.246.337.526.54.842.608.317.058.623-.004.915-.185.436-.269.625-.64.568-1.113l1.857-1.148c.136.433.171.877.104 1.332-.059.451-.224.877-.493 1.279s-.635.745-1.097 1.031c-.558.345-1.129.533-1.711.564s-1.134-.099-1.652-.389-.961-.733-1.327-1.325-.567-1.182-.602-1.772a2.98 2.98 0 0 1 .39-1.652c.288-.507.714-.935 1.279-1.284.551-.341 1.113-.529 1.684-.562s1.109.09 1.613.371c.51.277.941.702 1.295 1.273zm-2.07.646c-.185-.3-.435-.475-.748-.526a1.33 1.33 0 0 0-.93.208c-.292.181-.488.42-.587.716-.092.292-.065.61.081.952l2.184-1.35zm4.87-2.236c-.35-.564-.545-1.14-.587-1.725-.036-.589.068-1.129.311-1.618a2.84 2.84 0 0 1 1.073-1.185c.361-.223.724-.358 1.09-.406.361-.054.7-.023 1.016.092l-.404-.654 1.745-1.079 5.2 8.41-1.745 1.079-2.12-3.429c-.051.36-.174.7-.372 1.02-.19.315-.466.584-.827.807a2.81 2.81 0 0 1-1.513.428c-.546-.001-1.075-.149-1.586-.444-.505-.299-.932-.731-1.281-1.296zm4.259-2.648c-.189-.306-.408-.523-.657-.652a1.33 1.33 0 0 0-.749-.185 1.4 1.4 0 0 0-.703.209 1.38 1.38 0 0 0-.491.529c-.128.22-.187.473-.179.76s.106.583.295.889.411.527.664.662c.248.129.502.188.76.179a1.44 1.44 0 0 0 .686-.213 1.46 1.46 0 0 0 .498-.519c.13-.231.187-.487.172-.77-.008-.286-.106-.583-.296-.889zm6.871-8.185l3.522 5.695-1.745 1.079-.48-.775c-.021.361-.137.714-.346 1.06-.207.335-.494.616-.861.843-.436.269-.879.412-1.33.428a2.35 2.35 0 0 1-1.3-.368c-.411-.254-.77-.629-1.077-1.126l-2.057-3.327 1.735-1.073 1.912 3.093c.236.381.517.616.845.705s.658.03.992-.176c.34-.211.543-.482.61-.815s-.017-.69-.253-1.071l-1.912-3.093 1.745-1.079zm1.766-1.91c-.307.189-.613.257-.92.202a1.06 1.06 0 0 1-.702-.497c-.168-.272-.212-.556-.131-.85.084-.306.279-.554.585-.743.299-.185.601-.245.905-.179.307.055.545.219.713.491a1.04 1.04 0 0 1 .12.856c-.081.295-.271.535-.57.72zm1.233.056l3.522 5.695-1.745 1.079-3.522-5.695 1.745-1.079zm5.53 2.464l2.47-1.527.89 1.439-4.42 2.732-.858-1.388.594-4.332-2.347 1.452-.89-1.439 4.348-2.689.858 1.388-.645 4.364z" class="E"/><path d="M982.793 278.645l7.572.247c.697.023 1.026.555.735 1.188s-1.092 1.129-1.789 1.106l-8.833-.287c-.697-.023-1.026-.555-.735-1.189l3.689-8.031a2.06 2.06 0 0 1 1.789-1.106c.697.023 1.026.555.734 1.188l-3.162 6.884z" class="D"/><path d="M297.926 710.977c-.923-.999-1.489-2.055-1.7-3.169a4.98 4.98 0 0 1 .393-3.189c.493-1.009 1.29-1.851 2.392-2.528 1.296-.796 2.675-1.221 4.138-1.275s2.874.276 4.231.993l-1.858 1.141c-.899-.414-1.815-.596-2.748-.545-.921.043-1.813.33-2.677.861-.829.509-1.419 1.133-1.771 1.87s-.429 1.531-.234 2.378c.186.837.659 1.667 1.419 2.49.751.813 1.599 1.412 2.544 1.799.936.377 1.888.529 2.854.458a5.92 5.92 0 0 0 2.694-.872c.864-.53 1.453-1.146 1.768-1.846.317-.716.355-1.484.115-2.304l1.857-1.141c.462 1.252.459 2.443-.009 3.575-.477 1.122-1.363 2.081-2.658 2.876-1.102.677-2.312 1.074-3.628 1.192a8.89 8.89 0 0 1-3.854-.557c-1.255-.472-2.345-1.208-3.268-2.207zm15.543-14.358a5.36 5.36 0 0 1 2.275-.776c.804-.094 1.604.021 2.402.344.809.317 1.557.847 2.245 1.592l4.384 4.744-1.534.942-4.207-4.553c-.742-.803-1.541-1.272-2.396-1.407-.864-.145-1.699.03-2.506.526-.818.502-1.267 1.124-1.349 1.864-.07.734.284 1.522 1.063 2.364l4.112 4.451-1.551.952-10.044-10.869 1.551-.953 3.665 3.966c-.073-.6.053-1.176.379-1.729.337-.56.841-1.046 1.511-1.458zm9.514.65c-.76-.823-1.232-1.661-1.416-2.515-.193-.864-.112-1.673.241-2.428.365-.761.963-1.397 1.792-1.906.818-.502 1.668-.787 2.551-.853s1.684.04 2.405.319l-1.357-1.469 1.568-.963 7.438 8.05-1.568.963-1.385-1.499c.128.659.03 1.333-.294 2.023-.322.674-.886 1.258-1.693 1.754-.829.509-1.742.793-2.738.852s-1.981-.111-2.956-.51-1.837-1.005-2.588-1.818zm7.921-4.842c-.561-.607-1.191-1.049-1.892-1.325s-1.403-.381-2.109-.316a4.16 4.16 0 0 0-1.924.606c-.579.356-.999.798-1.259 1.326s-.324 1.105-.192 1.73.479 1.241 1.04 1.848c.57.617 1.21 1.068 1.919 1.354.7.276 1.402.39 2.106.341.694-.058 1.331-.265 1.91-.62s.999-.798 1.259-1.326c.263-.545.328-1.13.196-1.755-.142-.635-.493-1.256-1.054-1.863zm3.405-6.051c-.118-.649-.017-1.31.305-1.984.324-.69.889-1.282 1.696-1.778.829-.509 1.737-.798 2.725-.867.998-.076 1.98.08 2.945.47.957.38 1.815.981 2.575 1.803.751.813 1.227 1.656 1.429 2.53s.125 1.696-.231 2.468c-.344.764-.931 1.401-1.761 1.91-.795.489-1.64.769-2.534.843-.891.056-1.709-.048-2.452-.313l4.899 5.303-1.55.952-10.968-11.869 1.551-.952 1.371 1.484zm8.661-1.382c-.561-.607-1.192-1.049-1.892-1.325s-1.403-.382-2.109-.316c-.694.058-1.331.265-1.911.62-.568.349-.983.796-1.245 1.341-.26.528-.325 1.113-.195 1.755.132.625.474 1.236 1.026 1.833.561.607 1.196 1.054 1.905 1.34.712.269 1.42.379 2.123.331a4.36 4.36 0 0 0 1.911-.621c.579-.356.999-.798 1.259-1.326a2.67 2.67 0 0 0 .195-1.755c-.141-.635-.497-1.26-1.067-1.877zm2.844-6.283l4.384 4.745c.362.391.717.611 1.064.659.338.038.745-.09 1.222-.383l1.142-.701 1.045 1.131-1.397.858c-.864.531-1.67.757-2.418.68s-1.485-.509-2.209-1.292l-4.384-4.744-1.21.743-1.018-1.102 1.21-.743-1.873-2.027 1.551-.953 1.873 2.027 2.437-1.496 1.018 1.101-2.437 1.497zm15.253-5.27c.236.255.468.535.696.84l-7.465 4.584c.79.759 1.677 1.188 2.661 1.29.987.085 1.889-.124 2.707-.626.671-.412 1.105-.886 1.304-1.423.201-.553.185-1.111-.05-1.673l1.67-1.026c.465.928.549 1.866.251 2.816-.306.941-1.016 1.753-2.129 2.437-.887.544-1.84.861-2.861.951a6.6 6.6 0 0 1-2.98-.449c-.986-.393-1.864-1.005-2.633-1.837s-1.25-1.681-1.443-2.545-.096-1.675.289-2.434c.388-.775 1.036-1.442 1.945-2 .886-.545 1.824-.86 2.813-.945s1.938.053 2.844.417c.909.348 1.703.889 2.381 1.623zm-1.859.705c-.471-.509-1.004-.865-1.6-1.066-.606-.212-1.221-.271-1.848-.178a4.31 4.31 0 0 0-1.754.617c-.784.481-1.255 1.108-1.414 1.881-.147.766.093 1.555.719 2.368l5.897-3.622zm3.231-5.323c-.152-.628-.096-1.223.168-1.784.276-.569.778-1.077 1.505-1.523l1.276 1.381-.409.251c-1.738 1.067-1.856 2.414-.354 4.04l4.045 4.377-1.551.952-7.438-8.049 1.55-.953 1.208 1.308zm6.229-7.993l-1.126-1.22 3.204-1.967 9.813 10.62-1.568.963-8.687-9.401-1.636 1.005z" fill="#8e8e8e"/><g filter="url(#L)" class="F"><path d="M323.944 813c-3.751-4.14-2.864-10.662 1.858-13.649l731.908-463a9.01 9.01 0 0 1 11.41 1.481l36.76 39.588c3.82 4.116 2.98 10.688-1.75 13.71L374.168 857.269a9 9 0 0 1-11.513-1.542L323.944 813z"/></g><g filter="url(#M)" class="E"><path d="M324.299 789c-3.751-4.14-2.864-10.662 1.858-13.649l731.903-463c3.67-2.317 8.46-1.694 11.41 1.481l36.77 39.588c3.82 4.116 2.98 10.688-1.75 13.71L374.523 833.269a9 9 0 0 1-11.513-1.542L324.299 789z"/></g><use xlink:href="#P" x="71" y="80" class="H"/><g transform="rotate(328.269 598.884 637.394)"><rect x="598.884" y="637.394" width="285.634" height="4.95" rx="2.475" class="I"/><rect x="598.884" y="637.394" width="161.608" height="4.95" rx="2.475" class="H"/></g><path d="M925.714 424.318a5 5 0 0 1 1.192-7.447l78.834-49.168a5 5 0 0 1 6.54 1.11l16.48 20.5c1.88 2.343 1.29 5.805-1.27 7.386l-78.641 48.631a5 5 0 0 1-6.468-1.048l-16.667-19.964z" class="F"/><path d="M925.9 412.316c-1.95-2.329-1.39-5.845 1.187-7.453l78.833-49.163c2.14-1.338 4.95-.864 6.54 1.104l16.27 20.187c1.89 2.342 1.29 5.808-1.26 7.39l-78.65 48.631a5 5 0 0 1-6.463-1.043L925.9 412.316z" class="G"/><path d="M956.351 401.207l.865 1.398-1.899 1.174 3.566 5.767-1.745 1.079-3.566-5.767-1.898 1.174-.865-1.398 5.542-3.427zm3.192 3.98c-.361-.585-.57-1.166-.626-1.743-.049-.581.044-1.109.277-1.582s.586-.856 1.055-1.147c.402-.248.803-.383 1.203-.405.407-.026.774.044 1.102.208l-.499-.806 1.745-1.08 3.522 5.696-1.745 1.079-.499-.807c-.006.371-.111.733-.317 1.085-.198.349-.498.647-.899.895a2.76 2.76 0 0 1-1.487.426c-.532-.01-1.048-.166-1.546-.47-.495-.314-.924-.764-1.286-1.349zm4.273-2.628c-.269-.435-.604-.703-1.005-.803a1.36 1.36 0 0 0-1.111.165c-.347.214-.565.523-.655.926-.086.393.005.806.274 1.242s.603.709 1.001.82c.401.1.775.043 1.122-.171s.562-.522.644-.921c.089-.403-.001-.822-.27-1.258zm8.249-1.164l-3.212-1.316 1.477 2.389-1.745 1.079-4.671-7.553 1.746-1.079 2.581 4.174.292-3.383 2.154-1.332-.601 4.322 4.143 1.361-2.164 1.338zm6.38-8.009c.101.164.196.34.285.53l-3.95 2.442c.246.337.526.54.842.608.317.058.623-.004.915-.185.436-.269.625-.64.568-1.113l1.857-1.148c.136.433.171.877.104 1.332-.059.451-.224.877-.493 1.279s-.635.745-1.097 1.031c-.558.345-1.129.533-1.711.564s-1.134-.099-1.652-.389-.961-.733-1.327-1.325-.567-1.182-.602-1.772a2.98 2.98 0 0 1 .39-1.652c.288-.507.714-.935 1.279-1.284.551-.341 1.113-.529 1.684-.562s1.109.09 1.613.371c.51.277.941.702 1.295 1.273zm-2.07.646c-.185-.3-.435-.475-.748-.526a1.33 1.33 0 0 0-.93.208c-.292.181-.488.42-.587.716-.092.292-.065.61.081.952l2.184-1.35zm4.87-2.236c-.35-.564-.545-1.14-.587-1.725-.036-.589.068-1.129.311-1.618a2.84 2.84 0 0 1 1.073-1.185c.361-.223.724-.358 1.09-.406.361-.054.7-.023 1.016.092l-.404-.654 1.745-1.079 5.2 8.41-1.745 1.079-2.12-3.429c-.051.36-.174.7-.372 1.02-.19.315-.466.584-.827.807a2.81 2.81 0 0 1-1.513.428c-.546-.001-1.075-.149-1.586-.444-.505-.299-.932-.731-1.281-1.296zm4.259-2.648c-.189-.306-.408-.523-.657-.652a1.33 1.33 0 0 0-.749-.185 1.4 1.4 0 0 0-.703.209 1.38 1.38 0 0 0-.491.529c-.128.22-.187.473-.179.76s.106.583.295.889.411.527.664.662c.248.129.502.188.76.179a1.44 1.44 0 0 0 .686-.213 1.46 1.46 0 0 0 .498-.519c.13-.231.187-.487.172-.77-.008-.286-.106-.583-.296-.889zm6.871-8.185l3.522 5.695-1.745 1.079-.48-.775c-.021.361-.137.714-.346 1.06-.207.335-.494.616-.861.843-.436.269-.879.412-1.33.428a2.35 2.35 0 0 1-1.3-.368c-.411-.254-.77-.629-1.077-1.126l-2.057-3.327 1.735-1.073 1.912 3.093c.236.381.517.616.845.705s.658.03.992-.176c.34-.211.543-.482.61-.815s-.017-.69-.253-1.071l-1.912-3.093 1.745-1.079zm1.766-1.91c-.307.189-.613.257-.92.202a1.06 1.06 0 0 1-.702-.497c-.168-.272-.212-.556-.131-.85.084-.306.279-.554.585-.743.299-.185.601-.245.905-.179.307.055.545.219.713.491a1.04 1.04 0 0 1 .12.856c-.081.295-.271.535-.57.72zm1.233.056l3.522 5.695-1.745 1.079-3.522-5.695 1.745-1.079zm5.526 2.464l2.47-1.527.89 1.439-4.416 2.732-.858-1.388.594-4.332-2.347 1.452-.89-1.439 4.347-2.689.86 1.388-.65 4.364z" class="E"/><path d="M1053.79 358.645l7.57.247c.7.023 1.03.555.74 1.188s-1.09 1.129-1.79 1.106l-8.83-.287c-.7-.023-1.03-.555-.74-1.189l3.69-8.031c.29-.633 1.09-1.129 1.79-1.106s1.03.555.74 1.188l-3.17 6.884z" class="D"/><path d="M368.926 790.977c-.923-.999-1.489-2.055-1.7-3.169a4.98 4.98 0 0 1 .393-3.189c.493-1.009 1.29-1.851 2.392-2.528 1.296-.796 2.675-1.221 4.138-1.275s2.874.276 4.231.993l-1.858 1.141c-.899-.414-1.815-.596-2.748-.545-.921.044-1.813.331-2.677.861-.829.509-1.419 1.133-1.771 1.871s-.429 1.53-.234 2.377c.186.837.659 1.667 1.419 2.49.751.813 1.599 1.412 2.544 1.799.936.377 1.888.529 2.854.458a5.92 5.92 0 0 0 2.694-.872c.864-.53 1.453-1.146 1.768-1.845.317-.717.355-1.485.115-2.305l1.857-1.14c.462 1.251.459 2.443-.009 3.574-.477 1.122-1.363 2.081-2.658 2.876-1.102.677-2.312 1.074-3.628 1.192a8.89 8.89 0 0 1-3.854-.557c-1.255-.472-2.345-1.208-3.268-2.207zm15.543-14.358c.705-.432 1.463-.691 2.275-.776.804-.094 1.604.021 2.402.344.809.317 1.557.848 2.245 1.592l4.384 4.744-1.534.942-4.207-4.553c-.742-.803-1.541-1.272-2.396-1.407-.864-.145-1.699.03-2.506.526-.818.502-1.267 1.124-1.349 1.864-.07.734.284 1.522 1.063 2.364l4.112 4.451-1.551.953-10.044-10.87 1.551-.953 3.665 3.966c-.073-.599.053-1.176.379-1.729.337-.56.841-1.046 1.511-1.458zm9.514.65c-.76-.822-1.232-1.661-1.416-2.515-.193-.864-.112-1.673.241-2.428.365-.761.963-1.396 1.792-1.906.818-.502 1.668-.787 2.551-.853s1.684.04 2.405.319l-1.357-1.469 1.568-.963 7.438 8.05-1.568.963-1.385-1.499c.128.659.03 1.333-.294 2.023-.322.674-.886 1.258-1.693 1.754-.829.509-1.742.793-2.738.852s-1.981-.11-2.956-.51-1.837-1.005-2.588-1.818zm7.921-4.842c-.561-.607-1.191-1.048-1.892-1.324s-1.403-.382-2.109-.317a4.16 4.16 0 0 0-1.924.606c-.579.356-.999.798-1.259 1.326s-.324 1.105-.192 1.73.479 1.241 1.04 1.848c.57.617 1.21 1.068 1.919 1.354.7.276 1.402.39 2.106.342.694-.059 1.331-.265 1.91-.621s.999-.798 1.259-1.326c.263-.545.328-1.13.196-1.755-.142-.635-.493-1.256-1.054-1.863zm3.405-6.051c-.118-.649-.017-1.31.305-1.983.324-.691.889-1.283 1.696-1.779.829-.509 1.737-.798 2.725-.867a6.47 6.47 0 0 1 2.945.47c.957.38 1.815.981 2.575 1.803.751.813 1.227 1.657 1.429 2.53s.125 1.697-.231 2.468c-.344.764-.931 1.401-1.761 1.91-.795.489-1.64.769-2.534.843-.891.056-1.709-.048-2.452-.313l4.899 5.303-1.55.952-10.968-11.868 1.551-.953 1.371 1.484zm8.661-1.382c-.561-.607-1.192-1.049-1.892-1.325s-1.403-.381-2.109-.316c-.694.058-1.331.265-1.911.621-.568.348-.983.795-1.245 1.34-.26.528-.325 1.113-.195 1.755.132.625.474 1.236 1.026 1.833.561.607 1.196 1.054 1.905 1.34.712.269 1.42.379 2.123.331a4.36 4.36 0 0 0 1.911-.621c.579-.356.999-.798 1.259-1.326a2.67 2.67 0 0 0 .195-1.755c-.141-.634-.497-1.26-1.067-1.877zm2.844-6.283l4.384 4.745c.362.391.717.611 1.064.659.338.038.745-.089 1.222-.382l1.142-.702 1.045 1.131-1.397.859c-.864.53-1.67.756-2.418.679s-1.485-.508-2.209-1.292l-4.384-4.744-1.21.743-1.018-1.102 1.21-.743-1.873-2.027 1.551-.953 1.873 2.027 2.437-1.496 1.018 1.101-2.437 1.497zm15.253-5.269a10.23 10.23 0 0 1 .696.839l-7.465 4.584c.79.759 1.677 1.189 2.661 1.29.987.085 1.889-.124 2.707-.626.671-.412 1.105-.886 1.304-1.423.201-.553.185-1.111-.05-1.673l1.67-1.026c.465.928.549 1.866.251 2.816-.306.941-1.016 1.753-2.129 2.437-.887.544-1.84.861-2.861.951a6.6 6.6 0 0 1-2.98-.449c-.986-.393-1.864-1.005-2.633-1.837s-1.25-1.681-1.443-2.545-.096-1.675.289-2.434c.388-.775 1.036-1.442 1.945-2 .886-.544 1.824-.859 2.813-.945s1.938.053 2.844.418c.909.347 1.703.888 2.381 1.623zm-1.859.704c-.471-.509-1.004-.864-1.6-1.066-.606-.212-1.221-.271-1.848-.178a4.31 4.31 0 0 0-1.754.617c-.784.481-1.255 1.108-1.414 1.881-.147.766.093 1.555.719 2.368l5.897-3.622zm3.231-5.323c-.152-.628-.096-1.223.168-1.784.276-.569.778-1.076 1.505-1.523l1.276 1.381-.409.251c-1.738 1.068-1.856 2.414-.354 4.04l4.045 4.377-1.551.953-7.438-8.05 1.55-.953 1.208 1.308zm14.147.199l1.125-4.536c.22-1.148.288-2.241.202-3.279-.083-1.054-.437-1.918-1.061-2.594-.589-.637-1.232-1.024-1.93-1.163-.696-.156-1.442.01-2.237.499-.773.474-1.181 1.054-1.223 1.741-.041.669.243 1.362.852 2.078l-1.5.921c-.968-1.124-1.364-2.209-1.189-3.253s.836-1.918 1.984-2.623c1.17-.718 2.354-1.008 3.551-.869 1.209.133 2.266.689 3.171 1.668.751.813 1.2 1.781 1.347 2.903.149 1.106.137 2.172-.036 3.199-.182 1.018-.472 2.255-.871 3.713l5.863-3.601 1.032 1.117-8.198 5.034-.882-.955z" fill="#8e8e8e"/><defs><filter id="A" x="627.684" y="20.203" width="224.811" height="173.842" filterUnits="userSpaceOnUse" class="B"><feFlood result="A" class="C"/><feColorMatrix in="SourceAlpha" values="0 0 0 0 0 0 0 0 0 0 0 0 0 0 0 0 0 0 127 0" result="B"/><feOffset dx="1" dy="4"/><feGaussianBlur stdDeviation="3"/><feComposite in2="B" operator="out"/><feColorMatrix values="0 0 0 0 0.833333 0 0 0 0 0.833333 0 0 0 0 0.833333 0 0 0 0.19 0"/><feBlend in2="A"/><feBlend in="SourceGraphic"/></filter><filter id="B" x="627.684" y="1.203" width="224.811" height="173.842" filterUnits="userSpaceOnUse" class="B"><feFlood result="A" class="C"/><feColorMatrix in="SourceAlpha" values="0 0 0 0 0 0 0 0 0 0 0 0 0 0 0 0 0 0 127 0" result="B"/><feOffset dx="1" dy="4"/><feGaussianBlur stdDeviation="3"/><feComposite in2="B" operator="out"/><feColorMatrix values="0 0 0 0 0.833333 0 0 0 0 0.833333 0 0 0 0 0.833333 0 0 0 0.19 0"/><feBlend in2="A"/><feBlend in="SourceGraphic"/></filter><filter id="C" x="453.973" y="123.203" width="230.401" height="177.276" filterUnits="userSpaceOnUse" class="B"><feFlood result="A" class="C"/><feColorMatrix in="SourceAlpha" values="0 0 0 0 0 0 0 0 0 0 0 0 0 0 0 0 0 0 127 0" result="B"/><feOffset dx="1" dy="4"/><feGaussianBlur stdDeviation="3"/><feComposite in2="B" operator="out"/><feColorMatrix values="0 0 0 0 0.833333 0 0 0 0 0.833333 0 0 0 0 0.833333 0 0 0 0.19 0"/><feBlend in2="A"/><feBlend in="SourceGraphic"/></filter><filter id="D" x="453.563" y="104.708" width="230.401" height="177.276" filterUnits="userSpaceOnUse" class="B"><feFlood result="A" class="C"/><feColorMatrix in="SourceAlpha" values="0 0 0 0 0 0 0 0 0 0 0 0 0 0 0 0 0 0 127 0" result="B"/><feOffset dx="1" dy="4"/><feGaussianBlur stdDeviation="3"/><feComposite in2="B" operator="out"/><feColorMatrix values="0 0 0 0 0.833333 0 0 0 0 0.833333 0 0 0 0 0.833333 0 0 0 0.19 0"/><feBlend in2="A"/><feBlend in="SourceGraphic"/></filter><filter id="E" x="545.716" y="116.389" width="411.718" height="294.619" filterUnits="userSpaceOnUse" class="B"><feFlood result="A" class="C"/><feColorMatrix in="SourceAlpha" values="0 0 0 0 0 0 0 0 0 0 0 0 0 0 0 0 0 0 127 0" result="B"/><feOffset dx="1" dy="4"/><feGaussianBlur stdDeviation="3"/><feComposite in2="B" operator="out"/><feColorMatrix values="0 0 0 0 0.833333 0 0 0 0 0.833333 0 0 0 0 0.833333 0 0 0 0.19 0"/><feBlend in2="A"/><feBlend in="SourceGraphic"/></filter><filter id="F" x="546.147" y="96.203" width="411.718" height="294.619" filterUnits="userSpaceOnUse" class="B"><feFlood result="A" class="C"/><feColorMatrix in="SourceAlpha" values="0 0 0 0 0 0 0 0 0 0 0 0 0 0 0 0 0 0 127 0" result="B"/><feOffset dx="1" dy="4"/><feGaussianBlur stdDeviation="3"/><feComposite in2="B" operator="out"/><feColorMatrix values="0 0 0 0 0.833333 0 0 0 0 0.833333 0 0 0 0 0.833333 0 0 0 0.19 0"/><feBlend in2="A"/><feBlend in="SourceGraphic"/></filter><filter id="G" x="13.973" y="237.203" width="598.473" height="451.493" filterUnits="userSpaceOnUse" class="B"><feFlood result="A" class="C"/><feColorMatrix in="SourceAlpha" values="0 0 0 0 0 0 0 0 0 0 0 0 0 0 0 0 0 0 127 0" result="B"/><feOffset dx="1" dy="4"/><feGaussianBlur stdDeviation="3"/><feComposite in2="B" operator="out"/><feColorMatrix values="0 0 0 0 0.833333 0 0 0 0 0.833333 0 0 0 0 0.833333 0 0 0 0.19 0"/><feBlend in2="A"/><feBlend in="SourceGraphic"/></filter><filter id="H" x="14.267" y="211.647" width="598.473" height="451.493" filterUnits="userSpaceOnUse" class="B"><feFlood result="A" class="C"/><feColorMatrix in="SourceAlpha" values="0 0 0 0 0 0 0 0 0 0 0 0 0 0 0 0 0 0 127 0" result="B"/><feOffset dx="1" dy="4"/><feGaussianBlur stdDeviation="3"/><feComposite in2="B" operator="out"/><feColorMatrix values="0 0 0 0 0.833333 0 0 0 0 0.833333 0 0 0 0 0.833333 0 0 0 0.19 0"/><feBlend in2="A"/><feBlend in="SourceGraphic"/></filter><filter id="I" x="245.613" y="252.957" width="798.675" height="535.728" filterUnits="userSpaceOnUse" class="B"><feFlood result="A" class="C"/><feColorMatrix in="SourceAlpha" values="0 0 0 0 0 0 0 0 0 0 0 0 0 0 0 0 0 0 127 0" result="B"/><feOffset dx="1" dy="4"/><feGaussianBlur stdDeviation="3"/><feComposite in2="B" operator="out"/><feColorMatrix values="0 0 0 0 0.833333 0 0 0 0 0.833333 0 0 0 0 0.833333 0 0 0 0.19 0"/><feBlend in2="A"/><feBlend in="SourceGraphic"/></filter><filter id="J" x="245.968" y="228.956" width="798.675" height="535.728" filterUnits="userSpaceOnUse" class="B"><feFlood result="A" class="C"/><feColorMatrix in="SourceAlpha" values="0 0 0 0 0 0 0 0 0 0 0 0 0 0 0 0 0 0 127 0" result="B"/><feOffset dx="1" dy="4"/><feGaussianBlur stdDeviation="3"/><feComposite in2="B" operator="out"/><feColorMatrix values="0 0 0 0 0.833333 0 0 0 0 0.833333 0 0 0 0 0.833333 0 0 0 0.19 0"/><feBlend in2="A"/><feBlend in="SourceGraphic"/></filter><filter id="K" x="245.968" y="228.957" width="798.675" height="535.728" filterUnits="userSpaceOnUse" class="B"><feFlood result="A" class="C"/><feColorMatrix in="SourceAlpha" values="0 0 0 0 0 0 0 0 0 0 0 0 0 0 0 0 0 0 127 0" result="B"/><feOffset dx="1" dy="4"/><feGaussianBlur stdDeviation="3"/><feComposite in2="B" operator="out"/><feColorMatrix values="0 0 0 0 0.833333 0 0 0 0 0.833333 0 0 0 0 0.833333 0 0 0 0.19 0"/><feBlend in2="A"/><feBlend in="SourceGraphic"/></filter><filter id="L" x="316.613" y="332.957" width="798.675" height="535.728" filterUnits="userSpaceOnUse" class="B"><feFlood result="A" class="C"/><feColorMatrix in="SourceAlpha" values="0 0 0 0 0 0 0 0 0 0 0 0 0 0 0 0 0 0 127 0" result="B"/><feOffset dx="1" dy="4"/><feGaussianBlur stdDeviation="3"/><feComposite in2="B" operator="out"/><feColorMatrix values="0 0 0 0 0.833333 0 0 0 0 0.833333 0 0 0 0 0.833333 0 0 0 0.19 0"/><feBlend in2="A"/><feBlend in="SourceGraphic"/></filter><filter id="M" x="316.968" y="308.957" width="798.675" height="535.728" filterUnits="userSpaceOnUse" class="B"><feFlood result="A" class="C"/><feColorMatrix in="SourceAlpha" values="0 0 0 0 0 0 0 0 0 0 0 0 0 0 0 0 0 0 127 0" result="B"/><feOffset dx="1" dy="4"/><feGaussianBlur stdDeviation="3"/><feComposite in2="B" operator="out"/><feColorMatrix values="0 0 0 0 0.833333 0 0 0 0 0.833333 0 0 0 0 0.833333 0 0 0 0.19 0"/><feBlend in2="A"/><feBlend in="SourceGraphic"/></filter><clipPath id="N"><path transform="matrix(.852122 -.523343 .678661 .734451 803.258 159.89)" d="M0 0h72.174v83.659H0z" class="E"/></clipPath><path id="O" d="M252.944 733c-3.751-4.14-2.864-10.662 1.858-13.649l731.908-463a9 9 0 0 1 11.406 1.481l36.764 39.588c3.82 4.116 2.98 10.688-1.75 13.71L303.168 777.269a9 9 0 0 1-11.513-1.542L252.944 733z"/><path id="P" d="M498.462 580.038c-.771-.829-1.646-.941-2.624-.336-.757.468-1.141 1.111-1.152 1.93-.017.809.392 1.879 1.226 3.209-.078-.563.033-1.107.331-1.632.301-.54.733-.983 1.294-1.33.876-.542 1.742-.701 2.597-.477.864.218 1.593.808 2.188 1.769.357.578.563 1.168.618 1.769.062.596-.052 1.172-.343 1.729-.282.551-.747 1.026-1.393 1.426-.876.541-1.682.769-2.417.683s-1.413-.413-2.035-.981-1.245-1.358-1.871-2.371c-1.93-3.121-1.807-5.355.37-6.701.834-.516 1.628-.695 2.383-.539s1.388.553 1.899 1.189l-1.071.663zm-.56 2.973a2.79 2.79 0 0 0-.891.869c-.234.344-.358.733-.373 1.165-.012.419.117.845.385 1.279.4.646.913 1.058 1.539 1.235.622.168 1.281.037 1.979-.395.595-.368.954-.843 1.077-1.424.125-.595-.006-1.207-.395-1.837-.411-.663-.902-1.077-1.473-1.241-.577-.172-1.193-.056-1.848.349zm4.952-2.48c-.904-1.463-1.371-2.75-1.399-3.861-.034-1.119.544-2.047 1.735-2.784 1.182-.731 2.267-.831 3.253-.3.981.522 1.924 1.514 2.829 2.977.92 1.488 1.397 2.792 1.431 3.912s-.54 2.045-1.723 2.776c-1.19.736-2.279.839-3.265.308s-1.94-1.539-2.861-3.028zm5.269-3.258c-.457-.74-.895-1.334-1.312-1.781-.415-.461-.872-.754-1.373-.879-.492-.131-1.023-.02-1.593.332-.579.358-.924.789-1.035 1.293-.103.499-.045 1.039.173 1.621.222.568.562 1.222 1.02 1.962.473.766.917 1.379 1.331 1.84.423.455.881.749 1.373.879.501.126 1.04.009 1.619-.348.569-.353.906-.778 1.009-1.277.112-.504.054-1.044-.173-1.621-.219-.582-.565-1.256-1.039-2.021zm.981-3.975c-.358-.578-.468-1.145-.329-1.701.133-.564.471-1.015 1.016-1.351s1.098-.439 1.663-.306c.559.125 1.017.476 1.375 1.055.363.587.478 1.162.345 1.727-.139.556-.48 1.002-1.024 1.338s-1.097.443-1.656.318c-.564-.133-1.028-.493-1.39-1.08zm6.362-6.367l.339 12.1-1.148.71-.34-12.1 1.149-.71zm-5.233 4.029c-.29.179-.456.423-.5.732-.041.296.06.639.302 1.031s.507.638.795.743c.296.099.589.059.878-.12s.455-.423.499-.732c.039-.318-.06-.668-.297-1.051-.242-.391-.508-.632-.799-.723-.297-.099-.589-.059-.878.12zm7.086 4.701c-.363-.587-.475-1.158-.337-1.714.133-.565.472-1.015 1.016-1.352s1.095-.435 1.651-.297c.559.125 1.02.48 1.383 1.067.357.578.469 1.15.336 1.714-.124.559-.459 1.007-1.003 1.344s-1.096.442-1.655.318c-.565-.133-1.028-.493-1.391-1.08zm1.116-2.331c-.289.179-.456.423-.499.733-.05.3.047.646.289 1.038.236.382.503.623.799.722.291.091.581.046.871-.132s.458-.419.507-.72c.044-.309-.052-.655-.289-1.038-.242-.391-.508-.632-.8-.722a1 1 0 0 0-.878.119z"/></defs></svg>